<svg class="icon" version="1.1" x="0px" y="0px" viewBox="0 0 100 125" style="enable-background:new 0 0 100 100;" xml:space="preserve"><g><path fill="currentColor" d="M42.1,66.9c0-0.6,0.4-1,1-1h13.8c0.6,0,1,0.4,1,1v25.5H81c3.9,0,7-3.1,7-7V43.1c0-2.5-1-4.9-2.8-6.6L55.3,9.8   C52.4,7,47.6,7,44.7,9.8L14.9,36.4l-0.1,0.1C13,38.3,12,40.7,12,43.1v42.2c0,3.9,3.1,7,7,7h23.1V66.9z M36.1,66.9v19.5H19   c-0.6,0-1-0.4-1-1V43.1c0-0.8,0.3-1.7,0.9-2.3l29.8-26.6l0.1-0.1c0.6-0.6,1.7-0.6,2.3,0l29.9,26.7c0.6,0.6,0.9,1.4,0.9,2.3v42.2   c0,0.6-0.4,1-1,1H63.9V66.9c0-3.9-3.1-7-7-7H43.1C39.2,59.9,36.1,63,36.1,66.9z"/></g></svg>
