<?xml version="1.0" encoding="utf-8" standalone="no"?>
<!DOCTYPE svg PUBLIC "-//W3C//DTD SVG 1.1//EN"
  "http://www.w3.org/Graphics/SVG/1.1/DTD/svg11.dtd">
<!-- Created with matplotlib (http://matplotlib.org/) -->
<svg height="464pt" version="1.1" viewBox="0 0 467 464" width="467pt" xmlns="http://www.w3.org/2000/svg" xmlns:xlink="http://www.w3.org/1999/xlink">
 <defs>
  <style type="text/css">
*{stroke-linecap:butt;stroke-linejoin:round;}
  </style>
 </defs>
 <g id="figure_1">
  <g id="patch_1">
   <path d="M 0 464.92 
L 467.8 464.92 
L 467.8 0 
L 0 0 
z
" style="fill:#ffffff;"/>
  </g>
  <g id="axes_1">
   <g id="patch_2">
    <path d="M 10.7 141.147059 
L 141.994118 141.147059 
L 141.994118 10.7 
L 10.7 10.7 
z
" style="fill:#ffffff;"/>
   </g>
   <g id="line2d_1">
    <path clip-path="url(#p4218ccb7e0)" d="M 16.667914 135.217647 
L 20.783717 135.217647 
L 24.899521 135.217647 
L 29.015324 135.217647 
L 33.131127 135.217647 
L 37.24693 135.217647 
L 41.362733 135.217646 
L 45.478536 135.217424 
L 49.594339 135.208709 
L 53.710142 135.070372 
L 57.825945 133.854156 
L 61.941748 127.180606 
L 66.057551 104.899558 
L 70.173354 63.511216 
L 74.289157 27.41016 
L 78.40496 28.695421 
L 82.520763 65.490751 
L 86.636566 106.349584 
L 90.75237 128.367277 
L 94.868173 134.382575 
L 98.983976 135.167928 
L 103.099779 135.216088 
L 107.215582 135.217614 
L 111.331385 135.217646 
L 115.447188 135.217647 
L 119.562991 135.217647 
L 123.678794 135.217647 
L 127.794597 135.217647 
L 131.9104 135.217647 
L 136.026203 135.217647 
" style="fill:none;stroke:#1f77b4;stroke-linecap:square;stroke-width:1.5;"/>
   </g>
   <g id="line2d_2">
    <path clip-path="url(#p4218ccb7e0)" d="M 16.667914 16.629412 
" style="fill:none;stroke:#ffffff;stroke-linecap:square;stroke-width:1.5;"/>
   </g>
   <g id="patch_3">
    <path d="M 10.7 141.147059 
L 10.7 10.7 
" style="fill:none;stroke:#000000;stroke-linecap:square;stroke-linejoin:miter;stroke-width:0.5;"/>
   </g>
   <g id="patch_4">
    <path d="M 141.994118 141.147059 
L 141.994118 10.7 
" style="fill:none;stroke:#000000;stroke-linecap:square;stroke-linejoin:miter;stroke-width:0.5;"/>
   </g>
   <g id="patch_5">
    <path d="M 10.7 141.147059 
L 141.994118 141.147059 
" style="fill:none;stroke:#000000;stroke-linecap:square;stroke-linejoin:miter;stroke-width:0.5;"/>
   </g>
   <g id="patch_6">
    <path d="M 10.7 10.7 
L 141.994118 10.7 
" style="fill:none;stroke:#000000;stroke-linecap:square;stroke-linejoin:miter;stroke-width:0.5;"/>
   </g>
  </g>
  <g id="axes_2">
   <g id="patch_7">
    <path d="M 10.7 297.683529 
L 141.994118 297.683529 
L 141.994118 167.236471 
L 10.7 167.236471 
z
" style="fill:#ffffff;"/>
   </g>
   <g id="PathCollection_1">
    <path clip-path="url(#p0342c5d51d)" d="M 20.783717 292.139144 
L 24.899521 292.139144 
L 29.015324 292.139144 
L 33.131127 292.139144 
L 37.24693 292.139144 
L 41.362733 292.139144 
L 45.478536 292.139144 
L 49.594339 292.139144 
L 53.710142 292.139144 
L 57.825945 292.139144 
L 61.941748 292.139144 
L 66.057551 292.139144 
L 70.173354 292.139144 
L 74.289157 292.139144 
L 78.40496 292.139144 
L 82.520763 292.139144 
L 86.636566 292.139144 
L 90.75237 292.139144 
L 94.868173 292.139144 
L 98.983976 292.139144 
L 103.099779 292.139144 
L 107.215582 292.139144 
L 111.331385 292.139144 
L 115.447188 292.139144 
L 119.562991 292.139144 
L 123.678794 292.139144 
L 127.794597 292.139144 
L 131.9104 292.139144 
L 136.026203 292.139144 
L 136.026203 288.023341 
L 136.026203 283.907538 
L 136.026203 279.791735 
L 136.026203 275.675932 
L 136.026203 271.560129 
L 136.026203 267.444326 
L 136.026203 263.328523 
L 136.026203 259.21272 
L 136.026203 255.096917 
L 136.026203 250.981114 
L 136.026203 246.865311 
L 136.026203 242.749508 
L 136.026203 238.633705 
L 136.026203 234.517902 
L 136.026203 230.402098 
L 136.026203 226.286295 
L 136.026203 222.170492 
L 136.026203 218.054689 
L 136.026203 213.938886 
L 136.026203 209.823083 
L 136.026203 205.70728 
L 136.026203 201.591477 
L 136.026203 197.475674 
L 136.026203 193.359871 
L 136.026203 189.244068 
L 136.026203 185.128265 
L 136.026203 181.012462 
L 136.026203 176.896659 
L 136.026203 172.780856 
L 131.9104 172.780856 
L 127.794597 172.780856 
L 123.678794 172.780856 
L 119.562991 172.780856 
L 115.447188 172.780856 
L 111.331385 172.780856 
L 107.215582 172.780856 
L 103.099779 172.780856 
L 98.983976 172.780856 
L 94.868173 172.780856 
L 90.75237 172.780856 
L 86.636566 172.780856 
L 82.520763 172.780856 
L 78.40496 172.780856 
L 74.289157 172.780856 
L 70.173354 172.780856 
L 66.057551 172.780856 
L 61.941748 172.780856 
L 57.825945 172.780856 
L 53.710142 172.780856 
L 49.594339 172.780856 
L 45.478536 172.780856 
L 41.362733 172.780856 
L 37.24693 172.780856 
L 33.131127 172.780856 
L 29.015324 172.780856 
L 24.899521 172.780856 
L 20.783717 172.780856 
L 16.667914 172.780856 
L 16.667914 176.896659 
L 16.667914 181.012462 
L 16.667914 185.128265 
L 16.667914 189.244068 
L 16.667914 193.359871 
L 16.667914 197.475674 
L 16.667914 201.591477 
L 16.667914 205.70728 
L 16.667914 209.823083 
L 16.667914 213.938886 
L 16.667914 218.054689 
L 16.667914 222.170492 
L 16.667914 226.286295 
L 16.667914 230.402098 
L 16.667914 234.517902 
L 16.667914 238.633705 
L 16.667914 242.749508 
L 16.667914 246.865311 
L 16.667914 250.981114 
L 16.667914 255.096917 
L 16.667914 259.21272 
L 16.667914 263.328523 
L 16.667914 267.444326 
L 16.667914 271.560129 
L 16.667914 275.675932 
L 16.667914 279.791735 
L 16.667914 283.907538 
L 16.667914 288.023341 
L 16.667914 292.139144 
z
M 70.979545 259.21272 
L 70.173354 257.618327 
L 68.952616 255.096917 
L 67.624754 250.981114 
L 66.789497 246.865311 
L 66.093359 242.749508 
L 66.057551 242.596919 
L 63.56552 238.633705 
L 62.259041 234.517902 
L 61.941748 233.087797 
L 60.409784 230.402098 
L 59.584567 226.286295 
L 59.908365 222.170492 
L 61.821948 218.054689 
L 61.941748 217.886035 
L 65.034951 213.938886 
L 66.057551 213.014438 
L 70.173354 210.491658 
L 72.549085 209.823083 
L 74.289157 209.103684 
L 78.40496 208.501609 
L 82.520763 209.075026 
L 84.076083 209.823083 
L 86.636566 210.993122 
L 89.419828 213.938886 
L 90.75237 216.551168 
L 91.476644 218.054689 
L 92.514531 222.170492 
L 92.55327 226.286295 
L 91.606081 230.402098 
L 90.75237 232.013146 
L 90.278855 234.517902 
L 89.160925 238.633705 
L 86.906064 242.749508 
L 86.636566 243.196145 
L 85.967176 246.865311 
L 84.925889 250.981114 
L 82.981063 255.096917 
L 82.520763 255.920591 
L 80.941331 259.21272 
L 78.40496 262.196735 
L 74.289157 262.821388 
z
" style="fill:#ffffff;"/>
   </g>
   <g id="PathCollection_2">
    <path clip-path="url(#p0342c5d51d)" d="M 74.289157 262.821388 
L 78.40496 262.196735 
L 80.941331 259.21272 
L 82.520763 255.920591 
L 82.981063 255.096917 
L 84.925889 250.981114 
L 85.967176 246.865311 
L 86.636566 243.196145 
L 86.906064 242.749508 
L 89.160925 238.633705 
L 90.278855 234.517902 
L 90.75237 232.013146 
L 91.606081 230.402098 
L 92.55327 226.286295 
L 92.514531 222.170492 
L 91.476644 218.054689 
L 90.75237 216.551168 
L 89.419828 213.938886 
L 86.636566 210.993122 
L 84.076083 209.823083 
L 82.520763 209.075026 
L 78.40496 208.501609 
L 74.289157 209.103684 
L 72.549085 209.823083 
L 70.173354 210.491658 
L 66.057551 213.014438 
L 65.034951 213.938886 
L 61.941748 217.886035 
L 61.821948 218.054689 
L 59.908365 222.170492 
L 59.584567 226.286295 
L 60.409784 230.402098 
L 61.941748 233.087797 
L 62.259041 234.517902 
L 63.56552 238.633705 
L 66.057551 242.596919 
L 66.093359 242.749508 
L 66.789497 246.865311 
L 67.624754 250.981114 
L 68.952616 255.096917 
L 70.173354 257.618327 
L 70.979545 259.21272 
z
M 71.151855 255.096917 
L 70.173354 252.431924 
L 69.528621 250.981114 
L 67.977391 246.865311 
L 66.905598 242.749508 
L 66.057551 239.135705 
L 65.741898 238.633705 
L 63.697998 234.517902 
L 62.718826 230.402098 
L 62.445015 226.286295 
L 63.15003 222.170492 
L 65.693694 218.054689 
L 66.057551 217.64557 
L 70.173354 214.359742 
L 71.368606 213.938886 
L 74.289157 212.647757 
L 78.40496 212.240165 
L 82.520763 213.294094 
L 83.499002 213.938886 
L 86.636566 216.425552 
L 87.807486 218.054689 
L 89.509167 222.170492 
L 89.965672 226.286295 
L 89.689058 230.402098 
L 88.837392 234.517902 
L 87.06329 238.633705 
L 86.636566 239.369596 
L 85.878566 242.749508 
L 84.726065 246.865311 
L 82.751815 250.981114 
L 82.520763 251.420887 
L 81.047024 255.096917 
L 78.40496 258.590975 
L 74.289157 259.174115 
z
" style="fill:#0000a4;"/>
   </g>
   <g id="PathCollection_3">
    <path clip-path="url(#p0342c5d51d)" d="M 74.289157 259.174115 
L 78.40496 258.590975 
L 81.047024 255.096917 
L 82.520763 251.420887 
L 82.751815 250.981114 
L 84.726065 246.865311 
L 85.878566 242.749508 
L 86.636566 239.369596 
L 87.06329 238.633705 
L 88.837392 234.517902 
L 89.689058 230.402098 
L 89.965672 226.286295 
L 89.509167 222.170492 
L 87.807486 218.054689 
L 86.636566 216.425552 
L 83.499002 213.938886 
L 82.520763 213.294094 
L 78.40496 212.240165 
L 74.289157 212.647757 
L 71.368606 213.938886 
L 70.173354 214.359742 
L 66.057551 217.64557 
L 65.693694 218.054689 
L 63.15003 222.170492 
L 62.445015 226.286295 
L 62.718826 230.402098 
L 63.697998 234.517902 
L 65.741898 238.633705 
L 66.057551 239.135705 
L 66.905598 242.749508 
L 67.977391 246.865311 
L 69.528621 250.981114 
L 70.173354 252.431924 
L 71.151855 255.096917 
z
M 72.724868 255.096917 
L 70.756017 250.981114 
L 70.173354 249.178427 
L 69.165285 246.865311 
L 67.717838 242.749508 
L 66.62075 238.633705 
L 66.057551 236.279524 
L 65.136955 234.517902 
L 64.045119 230.402098 
L 64.024934 226.286295 
L 65.422608 222.170492 
L 66.057551 221.199377 
L 68.811236 218.054689 
L 70.173354 216.912327 
L 74.289157 215.134134 
L 78.40496 214.881213 
L 82.520763 216.193706 
L 84.63284 218.054689 
L 86.636566 220.833214 
L 87.324374 222.170492 
L 88.377733 226.286295 
L 88.340896 230.402098 
L 87.395929 234.517902 
L 86.636566 236.156299 
L 86.115267 238.633705 
L 85.067303 242.749508 
L 83.484954 246.865311 
L 82.520763 248.779276 
L 81.700167 250.981114 
L 79.388067 255.096917 
L 78.40496 256.397049 
L 74.289157 257.129847 
z
" style="fill:#0000f1;"/>
   </g>
   <g id="PathCollection_4">
    <path clip-path="url(#p0342c5d51d)" d="M 74.289157 257.129847 
L 78.40496 256.397049 
L 79.388067 255.096917 
L 81.700167 250.981114 
L 82.520763 248.779276 
L 83.484954 246.865311 
L 85.067303 242.749508 
L 86.115267 238.633705 
L 86.636566 236.156299 
L 87.395929 234.517902 
L 88.340896 230.402098 
L 88.377733 226.286295 
L 87.324374 222.170492 
L 86.636566 220.833214 
L 84.63284 218.054689 
L 82.520763 216.193706 
L 78.40496 214.881213 
L 74.289157 215.134134 
L 70.173354 216.912327 
L 68.811236 218.054689 
L 66.057551 221.199377 
L 65.422608 222.170492 
L 64.024934 226.286295 
L 64.045119 230.402098 
L 65.136955 234.517902 
L 66.057551 236.279524 
L 66.62075 238.633705 
L 67.717838 242.749508 
L 69.165285 246.865311 
L 70.173354 249.178427 
L 70.756017 250.981114 
L 72.724868 255.096917 
z
M 71.637029 250.981114 
L 70.264839 246.865311 
L 70.173354 246.578786 
L 68.530077 242.749508 
L 67.279489 238.633705 
L 66.296241 234.517902 
L 66.057551 232.828403 
L 65.371413 230.402098 
L 65.604852 226.286295 
L 66.057551 225.115342 
L 67.330551 222.170492 
L 70.173354 219.106573 
L 72.421234 218.054689 
L 74.289157 217.135768 
L 78.40496 216.924715 
L 81.040655 218.054689 
L 82.520763 218.717915 
L 85.411337 222.170492 
L 86.636566 225.778222 
L 86.789793 226.286295 
L 86.992735 230.402098 
L 86.636566 231.876692 
L 86.321018 234.517902 
L 85.460836 238.633705 
L 84.25604 242.749508 
L 82.520763 246.476535 
L 82.382413 246.865311 
L 80.78199 250.981114 
L 78.40496 254.5373 
L 74.289157 255.089349 
z
" style="fill:#0028ff;"/>
   </g>
   <g id="PathCollection_5">
    <path clip-path="url(#p0342c5d51d)" d="M 74.289157 255.089349 
L 78.40496 254.5373 
L 80.78199 250.981114 
L 82.382413 246.865311 
L 82.520763 246.476535 
L 84.25604 242.749508 
L 85.460836 238.633705 
L 86.321018 234.517902 
L 86.636566 231.876692 
L 86.992735 230.402098 
L 86.789793 226.286295 
L 86.636566 225.778222 
L 85.411337 222.170492 
L 82.520763 218.717915 
L 81.040655 218.054689 
L 78.40496 216.924715 
L 74.289157 217.135768 
L 72.421234 218.054689 
L 70.173354 219.106573 
L 67.330551 222.170492 
L 66.057551 225.115342 
L 65.604852 226.286295 
L 65.371413 230.402098 
L 66.057551 232.828403 
L 66.296241 234.517902 
L 67.279489 238.633705 
L 68.530077 242.749508 
L 70.173354 246.578786 
L 70.264839 246.865311 
L 71.637029 250.981114 
z
M 72.518041 250.981114 
L 70.869172 246.865311 
L 70.173354 244.68605 
L 69.342316 242.749508 
L 67.938229 238.633705 
L 66.958838 234.517902 
L 66.447316 230.402098 
L 66.865823 226.286295 
L 69.097117 222.170492 
L 70.173354 221.010544 
L 74.289157 218.842737 
L 78.40496 218.7326 
L 82.520763 220.853759 
L 83.623161 222.170492 
L 85.594481 226.286295 
L 86.032098 230.402098 
L 85.654179 234.517902 
L 84.806405 238.633705 
L 83.444777 242.749508 
L 82.520763 244.734104 
L 81.762351 246.865311 
L 79.863814 250.981114 
L 78.40496 253.16365 
L 74.289157 253.724632 
z
" style="fill:#006cff;"/>
   </g>
   <g id="PathCollection_6">
    <path clip-path="url(#p0342c5d51d)" d="M 74.289157 253.724632 
L 78.40496 253.16365 
L 79.863814 250.981114 
L 81.762351 246.865311 
L 82.520763 244.734104 
L 83.444777 242.749508 
L 84.806405 238.633705 
L 85.654179 234.517902 
L 86.032098 230.402098 
L 85.594481 226.286295 
L 83.623161 222.170492 
L 82.520763 220.853759 
L 78.40496 218.7326 
L 74.289157 218.842737 
L 70.173354 221.010544 
L 69.097117 222.170492 
L 66.865823 226.286295 
L 66.447316 230.402098 
L 66.958838 234.517902 
L 67.938229 238.633705 
L 69.342316 242.749508 
L 70.173354 244.68605 
L 70.869172 246.865311 
L 72.518041 250.981114 
z
M 73.399053 250.981114 
L 71.473505 246.865311 
L 70.173354 242.793314 
L 70.154556 242.749508 
L 68.596969 238.633705 
L 67.621434 234.517902 
L 67.254844 230.402098 
L 67.998702 226.286295 
L 70.173354 222.866641 
L 71.133598 222.170492 
L 74.289157 220.299617 
L 78.40496 220.249041 
L 81.564473 222.170492 
L 82.520763 222.941037 
L 84.441101 226.286295 
L 85.210598 230.402098 
L 84.98734 234.517902 
L 84.151974 238.633705 
L 82.633514 242.749508 
L 82.520763 242.991674 
L 81.142288 246.865311 
L 78.945637 250.981114 
L 78.40496 251.79 
L 74.289157 252.359914 
z
" style="fill:#00b0ff;"/>
   </g>
   <g id="PathCollection_7">
    <path clip-path="url(#p0342c5d51d)" d="M 74.289157 252.359914 
L 78.40496 251.79 
L 78.945637 250.981114 
L 81.142288 246.865311 
L 82.520763 242.991674 
L 82.633514 242.749508 
L 84.151974 238.633705 
L 84.98734 234.517902 
L 85.210598 230.402098 
L 84.441101 226.286295 
L 82.520763 222.941037 
L 81.564473 222.170492 
L 78.40496 220.249041 
L 74.289157 220.299617 
L 71.133598 222.170492 
L 70.173354 222.866641 
L 67.998702 226.286295 
L 67.254844 230.402098 
L 67.621434 234.517902 
L 68.596969 238.633705 
L 70.154556 242.749508 
L 70.173354 242.793314 
L 71.473505 246.865311 
L 73.399053 250.981114 
z
M 74.280065 250.981114 
L 72.077838 246.865311 
L 70.676181 242.749508 
L 70.173354 241.052995 
L 69.255708 238.633705 
L 68.284031 234.517902 
L 68.062372 230.402098 
L 69.131581 226.286295 
L 70.173354 224.6481 
L 73.590881 222.170492 
L 74.289157 221.756497 
L 78.40496 221.765482 
L 79.070933 222.170492 
L 82.520763 224.950242 
L 83.287721 226.286295 
L 84.389099 230.402098 
L 84.320501 234.517902 
L 83.497542 238.633705 
L 82.520763 241.24381 
L 82.069591 242.749508 
L 80.522225 246.865311 
L 78.40496 250.538801 
L 74.389937 250.981114 
L 74.289157 250.995197 
z
" style="fill:#0cf4eb;"/>
   </g>
   <g id="PathCollection_8">
    <path clip-path="url(#p0342c5d51d)" d="M 74.289157 250.995197 
L 74.389937 250.981114 
L 78.40496 250.538801 
L 80.522225 246.865311 
L 82.069591 242.749508 
L 82.520763 241.24381 
L 83.497542 238.633705 
L 84.320501 234.517902 
L 84.389099 230.402098 
L 83.287721 226.286295 
L 82.520763 224.950242 
L 79.070933 222.170492 
L 78.40496 221.765482 
L 74.289157 221.756497 
L 73.590881 222.170492 
L 70.173354 224.6481 
L 69.131581 226.286295 
L 68.062372 230.402098 
L 68.284031 234.517902 
L 69.255708 238.633705 
L 70.173354 241.052995 
L 70.676181 242.749508 
L 72.077838 246.865311 
L 74.280065 250.981114 
z
M 72.682172 246.865311 
L 71.190921 242.749508 
L 70.173354 239.316288 
L 69.914448 238.633705 
L 68.946628 234.517902 
L 68.8699 230.402098 
L 70.173354 226.481622 
L 70.297258 226.286295 
L 74.289157 223.06146 
L 78.40496 223.120062 
L 82.024543 226.286295 
L 82.520763 227.143132 
L 83.567599 230.402098 
L 83.653662 234.517902 
L 82.843111 238.633705 
L 82.520763 239.495068 
L 81.545592 242.749508 
L 79.902162 246.865311 
L 78.40496 249.462981 
L 74.289157 249.864762 
z
" style="fill:#43ffb4;"/>
   </g>
   <g id="PathCollection_9">
    <path clip-path="url(#p0342c5d51d)" d="M 74.289157 249.864762 
L 78.40496 249.462981 
L 79.902162 246.865311 
L 81.545592 242.749508 
L 82.520763 239.495068 
L 82.843111 238.633705 
L 83.653662 234.517902 
L 83.567599 230.402098 
L 82.520763 227.143132 
L 82.024543 226.286295 
L 78.40496 223.120062 
L 74.289157 223.06146 
L 70.297258 226.286295 
L 70.173354 226.481622 
L 68.8699 230.402098 
L 68.946628 234.517902 
L 69.914448 238.633705 
L 70.173354 239.316288 
L 71.190921 242.749508 
L 72.682172 246.865311 
z
M 73.286505 246.865311 
L 71.705662 242.749508 
L 70.503508 238.633705 
L 70.173354 236.920715 
L 69.609224 234.517902 
L 69.677429 230.402098 
L 70.173354 228.910473 
L 71.83797 226.286295 
L 74.289157 224.306117 
L 78.40496 224.415658 
L 80.543441 226.286295 
L 82.520763 229.700592 
L 82.746099 230.402098 
L 82.986823 234.517902 
L 82.520763 236.902433 
L 82.24124 238.633705 
L 81.021592 242.749508 
L 79.2821 246.865311 
L 78.40496 248.387162 
L 74.289157 248.73677 
z
" style="fill:#7dff7a;"/>
   </g>
   <g id="PathCollection_10">
    <path clip-path="url(#p0342c5d51d)" d="M 74.289157 248.73677 
L 78.40496 248.387162 
L 79.2821 246.865311 
L 81.021592 242.749508 
L 82.24124 238.633705 
L 82.520763 236.902433 
L 82.986823 234.517902 
L 82.746099 230.402098 
L 82.520763 229.700592 
L 80.543441 226.286295 
L 78.40496 224.415658 
L 74.289157 224.306117 
L 71.83797 226.286295 
L 70.173354 228.910473 
L 69.677429 230.402098 
L 69.609224 234.517902 
L 70.173354 236.920715 
L 70.503508 238.633705 
L 71.705662 242.749508 
L 73.286505 246.865311 
z
M 73.890838 246.865311 
L 72.220402 242.749508 
L 71.047448 238.633705 
L 70.276145 234.517902 
L 70.558653 230.402098 
L 73.378683 226.286295 
L 74.289157 225.550774 
L 78.40496 225.711254 
L 79.062338 226.286295 
L 81.819503 230.402098 
L 82.313546 234.517902 
L 81.690388 238.633705 
L 80.497593 242.749508 
L 78.662037 246.865311 
L 78.40496 247.311343 
L 74.289157 247.608777 
z
" style="fill:#b4ff43;"/>
   </g>
   <g id="PathCollection_11">
    <path clip-path="url(#p0342c5d51d)" d="M 74.289157 247.608777 
L 78.40496 247.311343 
L 78.662037 246.865311 
L 80.497593 242.749508 
L 81.690388 238.633705 
L 82.313546 234.517902 
L 81.819503 230.402098 
L 79.062338 226.286295 
L 78.40496 225.711254 
L 74.289157 225.550774 
L 73.378683 226.286295 
L 70.558653 230.402098 
L 70.276145 234.517902 
L 71.047448 238.633705 
L 72.220402 242.749508 
L 73.890838 246.865311 
z
M 72.735142 242.749508 
L 71.591388 238.633705 
L 70.967843 234.517902 
L 71.557166 230.402098 
L 74.289157 226.821601 
L 78.40496 227.027152 
L 80.853183 230.402098 
L 81.625325 234.517902 
L 81.139536 238.633705 
L 79.973594 242.749508 
L 78.40496 246.192103 
L 74.289157 246.447726 
z
" style="fill:#ebff0c;"/>
   </g>
   <g id="PathCollection_12">
    <path clip-path="url(#p0342c5d51d)" d="M 74.289157 246.447726 
L 78.40496 246.192103 
L 79.973594 242.749508 
L 81.139536 238.633705 
L 81.625325 234.517902 
L 80.853183 230.402098 
L 78.40496 227.027152 
L 74.289157 226.821601 
L 71.557166 230.402098 
L 70.967843 234.517902 
L 71.591388 238.633705 
L 72.735142 242.749508 
z
M 73.249882 242.749508 
L 72.135328 238.633705 
L 71.65954 234.517902 
L 72.55568 230.402098 
L 74.289157 228.130234 
L 78.40496 228.359253 
L 79.886862 230.402098 
L 80.937103 234.517902 
L 80.588684 238.633705 
L 79.449595 242.749508 
L 78.40496 245.04211 
L 74.289157 245.222756 
z
" style="fill:#ffc400;"/>
   </g>
   <g id="PathCollection_13">
    <path clip-path="url(#p0342c5d51d)" d="M 74.289157 245.222756 
L 78.40496 245.04211 
L 79.449595 242.749508 
L 80.588684 238.633705 
L 80.937103 234.517902 
L 79.886862 230.402098 
L 78.40496 228.359253 
L 74.289157 228.130234 
L 72.55568 230.402098 
L 71.65954 234.517902 
L 72.135328 238.633705 
L 73.249882 242.749508 
z
M 73.764623 242.749508 
L 72.679268 238.633705 
L 72.351237 234.517902 
L 73.554193 230.402098 
L 74.289157 229.438868 
L 78.40496 229.691354 
L 78.920542 230.402098 
L 80.248882 234.517902 
L 80.037832 238.633705 
L 78.925596 242.749508 
L 78.40496 243.892117 
L 74.289157 243.997786 
z
" style="fill:#ff8600;"/>
   </g>
   <g id="PathCollection_14">
    <path clip-path="url(#p0342c5d51d)" d="M 74.289157 243.997786 
L 78.40496 243.892117 
L 78.925596 242.749508 
L 80.037832 238.633705 
L 80.248882 234.517902 
L 78.920542 230.402098 
L 78.40496 229.691354 
L 74.289157 229.438868 
L 73.554193 230.402098 
L 72.351237 234.517902 
L 72.679268 238.633705 
L 73.764623 242.749508 
z
M 74.279363 242.749508 
L 73.223208 238.633705 
L 73.042934 234.517902 
L 74.289157 230.928007 
L 78.40496 231.296821 
L 79.56066 234.517902 
L 79.48698 238.633705 
L 78.40496 242.7361 
L 77.366653 242.749508 
L 74.289157 242.772816 
z
" style="fill:#ff4700;"/>
   </g>
   <g id="PathCollection_15">
    <path clip-path="url(#p0342c5d51d)" d="M 74.289157 242.772816 
L 77.366653 242.749508 
L 78.40496 242.7361 
L 79.48698 238.633705 
L 79.56066 234.517902 
L 78.40496 231.296821 
L 74.289157 230.928007 
L 73.042934 234.517902 
L 73.223208 238.633705 
L 74.279363 242.749508 
z
M 73.767149 238.633705 
L 73.734631 234.517902 
L 74.289157 232.920523 
L 78.40496 233.214981 
L 78.872439 234.517902 
L 78.936128 238.633705 
L 78.40496 240.647587 
L 74.289157 240.669028 
z
" style="fill:#f10800;"/>
   </g>
   <g id="PathCollection_16">
    <path clip-path="url(#p0342c5d51d)" d="M 74.289157 240.669028 
L 78.40496 240.647587 
L 78.936128 238.633705 
L 78.872439 234.517902 
L 78.40496 233.214981 
L 74.289157 232.920523 
L 73.734631 234.517902 
L 73.767149 238.633705 
z
" style="fill:#a40000;"/>
   </g>
   <g id="patch_8">
    <path d="M 10.7 297.683529 
L 10.7 167.236471 
" style="fill:none;stroke:#000000;stroke-linecap:square;stroke-linejoin:miter;stroke-width:0.5;"/>
   </g>
   <g id="patch_9">
    <path d="M 141.994118 297.683529 
L 141.994118 167.236471 
" style="fill:none;stroke:#000000;stroke-linecap:square;stroke-linejoin:miter;stroke-width:0.5;"/>
   </g>
   <g id="patch_10">
    <path d="M 10.7 297.683529 
L 141.994118 297.683529 
" style="fill:none;stroke:#000000;stroke-linecap:square;stroke-linejoin:miter;stroke-width:0.5;"/>
   </g>
   <g id="patch_11">
    <path d="M 10.7 167.236471 
L 141.994118 167.236471 
" style="fill:none;stroke:#000000;stroke-linecap:square;stroke-linejoin:miter;stroke-width:0.5;"/>
   </g>
  </g>
  <g id="axes_3">
   <g id="patch_12">
    <path d="M 168.252941 297.683529 
L 299.547059 297.683529 
L 299.547059 167.236471 
L 168.252941 167.236471 
z
" style="fill:#ffffff;"/>
   </g>
   <g id="line2d_3">
    <path clip-path="url(#p0233840ff7)" d="M 174.220856 291.753511 
L 178.336659 291.750987 
L 182.452462 291.739743 
L 186.568265 291.695226 
L 190.684068 291.538212 
L 194.799871 291.044084 
L 198.915674 289.657449 
L 203.031477 286.206029 
L 207.14728 278.685305 
L 211.263083 264.678536 
L 215.378886 243.185249 
L 219.494689 217.35782 
L 223.610492 194.93259 
L 227.726295 183.946631 
L 231.842098 187.455049 
L 235.957902 202.585297 
L 240.073705 223.529025 
L 244.189508 244.786956 
L 248.305311 262.756708 
L 252.421114 275.894906 
L 256.536917 284.229592 
L 260.65272 288.738025 
L 264.768523 290.75915 
L 268.884326 291.489205 
L 273.000129 291.697765 
L 277.115932 291.744576 
L 281.231735 291.752837 
L 285.347538 291.753983 
L 289.463341 291.754107 
L 293.579144 291.754118 
" style="fill:none;stroke:#1f77b4;stroke-linecap:square;stroke-width:1.5;"/>
   </g>
   <g id="line2d_4">
    <path clip-path="url(#p0233840ff7)" d="M 174.220856 173.165882 
" style="fill:none;stroke:#ffffff;stroke-linecap:square;stroke-width:1.5;"/>
   </g>
   <g id="patch_13">
    <path d="M 168.252941 297.683529 
L 168.252941 167.236471 
" style="fill:none;stroke:#000000;stroke-linecap:square;stroke-linejoin:miter;stroke-width:0.5;"/>
   </g>
   <g id="patch_14">
    <path d="M 299.547059 297.683529 
L 299.547059 167.236471 
" style="fill:none;stroke:#000000;stroke-linecap:square;stroke-linejoin:miter;stroke-width:0.5;"/>
   </g>
   <g id="patch_15">
    <path d="M 168.252941 297.683529 
L 299.547059 297.683529 
" style="fill:none;stroke:#000000;stroke-linecap:square;stroke-linejoin:miter;stroke-width:0.5;"/>
   </g>
   <g id="patch_16">
    <path d="M 168.252941 167.236471 
L 299.547059 167.236471 
" style="fill:none;stroke:#000000;stroke-linecap:square;stroke-linejoin:miter;stroke-width:0.5;"/>
   </g>
  </g>
  <g id="axes_4">
   <g id="patch_17">
    <path d="M 10.7 454.22 
L 141.994118 454.22 
L 141.994118 323.772941 
L 10.7 323.772941 
z
" style="fill:#ffffff;"/>
   </g>
   <g id="PathCollection_17">
    <path clip-path="url(#p26965fb2dd)" d="M 20.783717 448.675615 
L 24.899521 448.675615 
L 29.015324 448.675615 
L 33.131127 448.675615 
L 37.24693 448.675615 
L 41.362733 448.675615 
L 45.478536 448.675615 
L 49.594339 448.675615 
L 53.710142 448.675615 
L 57.825945 448.675615 
L 61.941748 448.675615 
L 66.057551 448.675615 
L 70.173354 448.675615 
L 74.289157 448.675615 
L 78.40496 448.675615 
L 82.520763 448.675615 
L 86.636566 448.675615 
L 90.75237 448.675615 
L 94.868173 448.675615 
L 98.983976 448.675615 
L 103.099779 448.675615 
L 107.215582 448.675615 
L 111.331385 448.675615 
L 115.447188 448.675615 
L 119.562991 448.675615 
L 123.678794 448.675615 
L 127.794597 448.675615 
L 131.9104 448.675615 
L 136.026203 448.675615 
L 136.026203 444.559812 
L 136.026203 440.444009 
L 136.026203 436.328206 
L 136.026203 432.212403 
L 136.026203 428.0966 
L 136.026203 423.980797 
L 136.026203 419.864994 
L 136.026203 415.74919 
L 136.026203 411.633387 
L 136.026203 407.517584 
L 136.026203 403.401781 
L 136.026203 399.285978 
L 136.026203 395.170175 
L 136.026203 391.054372 
L 136.026203 386.938569 
L 136.026203 382.822766 
L 136.026203 378.706963 
L 136.026203 374.59116 
L 136.026203 370.475357 
L 136.026203 366.359554 
L 136.026203 362.243751 
L 136.026203 358.127948 
L 136.026203 354.012145 
L 136.026203 349.896342 
L 136.026203 345.780538 
L 136.026203 341.664735 
L 136.026203 337.548932 
L 136.026203 333.433129 
L 136.026203 329.317326 
L 131.9104 329.317326 
L 127.794597 329.317326 
L 123.678794 329.317326 
L 119.562991 329.317326 
L 115.447188 329.317326 
L 111.331385 329.317326 
L 107.215582 329.317326 
L 103.099779 329.317326 
L 98.983976 329.317326 
L 94.868173 329.317326 
L 90.75237 329.317326 
L 86.636566 329.317326 
L 82.520763 329.317326 
L 78.40496 329.317326 
L 74.289157 329.317326 
L 70.173354 329.317326 
L 66.057551 329.317326 
L 61.941748 329.317326 
L 57.825945 329.317326 
L 53.710142 329.317326 
L 49.594339 329.317326 
L 45.478536 329.317326 
L 41.362733 329.317326 
L 37.24693 329.317326 
L 33.131127 329.317326 
L 29.015324 329.317326 
L 24.899521 329.317326 
L 20.783717 329.317326 
L 16.667914 329.317326 
L 16.667914 333.433129 
L 16.667914 337.548932 
L 16.667914 341.664735 
L 16.667914 345.780538 
L 16.667914 349.896342 
L 16.667914 354.012145 
L 16.667914 358.127948 
L 16.667914 362.243751 
L 16.667914 366.359554 
L 16.667914 370.475357 
L 16.667914 374.59116 
L 16.667914 378.706963 
L 16.667914 382.822766 
L 16.667914 386.938569 
L 16.667914 391.054372 
L 16.667914 395.170175 
L 16.667914 399.285978 
L 16.667914 403.401781 
L 16.667914 407.517584 
L 16.667914 411.633387 
L 16.667914 415.74919 
L 16.667914 419.864994 
L 16.667914 423.980797 
L 16.667914 428.0966 
L 16.667914 432.212403 
L 16.667914 436.328206 
L 16.667914 440.444009 
L 16.667914 444.559812 
L 16.667914 448.675615 
z
M 56.298277 415.74919 
L 53.710142 415.111947 
L 50.952729 411.633387 
L 50.853925 407.517584 
L 52.069327 403.401781 
L 53.710142 400.910926 
L 54.281732 399.285978 
L 56.935097 395.170175 
L 57.825945 394.162835 
L 59.855572 391.054372 
L 61.941748 388.831691 
L 63.522987 386.938569 
L 66.057551 384.355018 
L 67.645464 382.822766 
L 70.173354 380.344084 
L 72.257557 378.706963 
L 74.289157 376.80453 
L 77.770782 374.59116 
L 78.40496 374.032185 
L 82.520763 371.315763 
L 84.862772 370.475357 
L 86.636566 369.362186 
L 90.75237 368.270697 
L 94.868173 369.393321 
L 95.74463 370.475357 
L 96.476861 374.59116 
L 95.383655 378.706963 
L 94.868173 379.57161 
L 93.901599 382.822766 
L 91.698255 386.938569 
L 90.75237 388.141384 
L 89.396939 391.054372 
L 86.636566 394.415643 
L 86.194405 395.170175 
L 82.728838 399.285978 
L 82.520763 399.509792 
L 79.225395 403.401781 
L 78.40496 404.235241 
L 74.650883 407.517584 
L 74.289157 407.860387 
L 70.173354 411.175814 
L 69.206986 411.633387 
L 66.057551 414.010232 
L 61.941748 415.374663 
L 58.953511 415.74919 
L 57.825945 416.107344 
z
" style="fill:#ffffff;"/>
   </g>
   <g id="PathCollection_18">
    <path clip-path="url(#p26965fb2dd)" d="M 57.825945 416.107344 
L 58.953511 415.74919 
L 61.941748 415.374663 
L 66.057551 414.010232 
L 69.206986 411.633387 
L 70.173354 411.175814 
L 74.289157 407.860387 
L 74.650883 407.517584 
L 78.40496 404.235241 
L 79.225395 403.401781 
L 82.520763 399.509792 
L 82.728838 399.285978 
L 86.194405 395.170175 
L 86.636566 394.415643 
L 89.396939 391.054372 
L 90.75237 388.141384 
L 91.698255 386.938569 
L 93.901599 382.822766 
L 94.868173 379.57161 
L 95.383655 378.706963 
L 96.476861 374.59116 
L 95.74463 370.475357 
L 94.868173 369.393321 
L 90.75237 368.270697 
L 86.636566 369.362186 
L 84.862772 370.475357 
L 82.520763 371.315763 
L 78.40496 374.032185 
L 77.770782 374.59116 
L 74.289157 376.80453 
L 72.257557 378.706963 
L 70.173354 380.344084 
L 67.645464 382.822766 
L 66.057551 384.355018 
L 63.522987 386.938569 
L 61.941748 388.831691 
L 59.855572 391.054372 
L 57.825945 394.162835 
L 56.935097 395.170175 
L 54.281732 399.285978 
L 53.710142 400.910926 
L 52.069327 403.401781 
L 50.853925 407.517584 
L 50.952729 411.633387 
L 53.710142 415.111947 
L 56.298277 415.74919 
z
M 54.973384 411.633387 
L 53.838662 407.517584 
L 54.527236 403.401781 
L 56.267859 399.285978 
L 57.825945 397.230709 
L 58.880547 395.170175 
L 61.941748 391.56424 
L 62.307499 391.054372 
L 66.057551 387.030326 
L 66.14635 386.938569 
L 70.173354 382.970136 
L 70.360447 382.822766 
L 74.289157 379.287222 
L 75.243459 378.706963 
L 78.40496 376.145887 
L 81.718601 374.59116 
L 82.520763 374.015455 
L 86.636566 372.407358 
L 90.75237 372.667868 
L 92.504232 374.59116 
L 92.849575 378.706963 
L 91.580142 382.822766 
L 90.75237 384.138327 
L 89.701257 386.938569 
L 87.074742 391.054372 
L 86.636566 391.587933 
L 84.537348 395.170175 
L 82.520763 397.476038 
L 81.156722 399.285978 
L 78.40496 402.187792 
L 77.185071 403.401781 
L 74.289157 406.175075 
L 72.394807 407.517584 
L 70.173354 409.422469 
L 66.057551 411.469796 
L 65.468704 411.633387 
L 61.941748 413.400723 
L 57.825945 413.490045 
z
" style="fill:#0000a8;"/>
   </g>
   <g id="PathCollection_19">
    <path clip-path="url(#p26965fb2dd)" d="M 57.825945 413.490045 
L 61.941748 413.400723 
L 65.468704 411.633387 
L 66.057551 411.469796 
L 70.173354 409.422469 
L 72.394807 407.517584 
L 74.289157 406.175075 
L 77.185071 403.401781 
L 78.40496 402.187792 
L 81.156722 399.285978 
L 82.520763 397.476038 
L 84.537348 395.170175 
L 86.636566 391.587933 
L 87.074742 391.054372 
L 89.701257 386.938569 
L 90.75237 384.138327 
L 91.580142 382.822766 
L 92.849575 378.706963 
L 92.504232 374.59116 
L 90.75237 372.667868 
L 86.636566 372.407358 
L 82.520763 374.015455 
L 81.718601 374.59116 
L 78.40496 376.145887 
L 75.243459 378.706963 
L 74.289157 379.287222 
L 70.360447 382.822766 
L 70.173354 382.970136 
L 66.14635 386.938569 
L 66.057551 387.030326 
L 62.307499 391.054372 
L 61.941748 391.56424 
L 58.880547 395.170175 
L 57.825945 397.230709 
L 56.267859 399.285978 
L 54.527236 403.401781 
L 53.838662 407.517584 
L 54.973384 411.633387 
z
M 55.565938 407.517584 
L 55.989337 403.401781 
L 57.825945 399.888712 
L 58.021954 399.285978 
L 60.221436 395.170175 
L 61.941748 393.143738 
L 63.440544 391.054372 
L 66.057551 388.246155 
L 67.322987 386.938569 
L 70.173354 384.129659 
L 71.832511 382.822766 
L 74.289157 380.611969 
L 77.422156 378.706963 
L 78.40496 377.910811 
L 82.520763 375.797604 
L 86.636566 374.903052 
L 90.572026 378.706963 
L 89.867159 382.822766 
L 88.316372 386.938569 
L 86.636566 389.404791 
L 85.847105 391.054372 
L 82.880291 395.170175 
L 82.520763 395.581277 
L 79.728756 399.285978 
L 78.40496 400.68196 
L 75.67192 403.401781 
L 74.289157 404.725995 
L 70.350078 407.517584 
L 70.173354 407.669124 
L 66.057551 410.375403 
L 61.941748 411.505526 
L 57.825945 411.002207 
z
" style="fill:#0000fa;"/>
   </g>
   <g id="PathCollection_20">
    <path clip-path="url(#p26965fb2dd)" d="M 57.825945 411.002207 
L 61.941748 411.505526 
L 66.057551 410.375403 
L 70.173354 407.669124 
L 70.350078 407.517584 
L 74.289157 404.725995 
L 75.67192 403.401781 
L 78.40496 400.68196 
L 79.728756 399.285978 
L 82.520763 395.581277 
L 82.880291 395.170175 
L 85.847105 391.054372 
L 86.636566 389.404791 
L 88.316372 386.938569 
L 89.867159 382.822766 
L 90.572026 378.706963 
L 86.636566 374.903052 
L 82.520763 375.797604 
L 78.40496 377.910811 
L 77.422156 378.706963 
L 74.289157 380.611969 
L 71.832511 382.822766 
L 70.173354 384.129659 
L 67.322987 386.938569 
L 66.057551 388.246155 
L 63.440544 391.054372 
L 61.941748 393.143738 
L 60.221436 395.170175 
L 58.021954 399.285978 
L 57.825945 399.888712 
L 55.989337 403.401781 
L 55.565938 407.517584 
z
M 57.293214 407.517584 
L 57.451437 403.401781 
L 57.825945 402.685422 
L 58.931441 399.285978 
L 61.562326 395.170175 
L 61.941748 394.723236 
L 64.573588 391.054372 
L 66.057551 389.461984 
L 68.499624 386.938569 
L 70.173354 385.289182 
L 73.304575 382.822766 
L 74.289157 381.936716 
L 78.40496 379.288589 
L 79.967142 378.706963 
L 82.520763 377.331053 
L 86.636566 377.193564 
L 88.202303 378.706963 
L 88.491382 382.822766 
L 86.931486 386.938569 
L 86.636566 387.371558 
L 84.874035 391.054372 
L 82.520763 394.163498 
L 81.89163 395.170175 
L 78.40496 399.217934 
L 78.346996 399.285978 
L 74.289157 403.333488 
L 74.2044 403.401781 
L 70.173354 406.767342 
L 68.684155 407.517584 
L 66.057551 409.281011 
L 61.941748 410.283912 
L 57.825945 408.338983 
z
" style="fill:#0034ff;"/>
   </g>
   <g id="PathCollection_21">
    <path clip-path="url(#p26965fb2dd)" d="M 57.825945 408.338983 
L 61.941748 410.283912 
L 66.057551 409.281011 
L 68.684155 407.517584 
L 70.173354 406.767342 
L 74.2044 403.401781 
L 74.289157 403.333488 
L 78.346996 399.285978 
L 78.40496 399.217934 
L 81.89163 395.170175 
L 82.520763 394.163498 
L 84.874035 391.054372 
L 86.636566 387.371558 
L 86.931486 386.938569 
L 88.491382 382.822766 
L 88.202303 378.706963 
L 86.636566 377.193564 
L 82.520763 377.331053 
L 79.967142 378.706963 
L 78.40496 379.288589 
L 74.289157 381.936716 
L 73.304575 382.822766 
L 70.173354 385.289182 
L 68.499624 386.938569 
L 66.057551 389.461984 
L 64.573588 391.054372 
L 61.941748 394.723236 
L 61.562326 395.170175 
L 58.931441 399.285978 
L 57.825945 402.685422 
L 57.451437 403.401781 
L 57.293214 407.517584 
z
M 59.281111 407.517584 
L 58.566216 403.401781 
L 59.840927 399.285978 
L 61.941748 396.14515 
L 62.472262 395.170175 
L 65.706632 391.054372 
L 66.057551 390.677813 
L 69.67626 386.938569 
L 70.173354 386.448705 
L 74.289157 383.10127 
L 74.800304 382.822766 
L 78.40496 380.348203 
L 82.520763 378.860252 
L 86.636566 380.738165 
L 87.115604 382.822766 
L 86.636566 384.085143 
L 85.873665 386.938569 
L 83.900965 391.054372 
L 82.520763 392.877885 
L 81.088173 395.170175 
L 78.40496 398.285181 
L 77.552427 399.285978 
L 74.289157 402.540941 
L 73.220798 403.401781 
L 70.173354 405.946123 
L 67.05407 407.517584 
L 66.057551 408.186618 
L 61.941748 409.062298 
z
" style="fill:#0080ff;"/>
   </g>
   <g id="PathCollection_22">
    <path clip-path="url(#p26965fb2dd)" d="M 61.941748 409.062298 
L 66.057551 408.186618 
L 67.05407 407.517584 
L 70.173354 405.946123 
L 73.220798 403.401781 
L 74.289157 402.540941 
L 77.552427 399.285978 
L 78.40496 398.285181 
L 81.088173 395.170175 
L 82.520763 392.877885 
L 83.900965 391.054372 
L 85.873665 386.938569 
L 86.636566 384.085143 
L 87.115604 382.822766 
L 86.636566 380.738165 
L 82.520763 378.860252 
L 78.40496 380.348203 
L 74.800304 382.822766 
L 74.289157 383.10127 
L 70.173354 386.448705 
L 69.67626 386.938569 
L 66.057551 390.677813 
L 65.706632 391.054372 
L 62.472262 395.170175 
L 61.941748 396.14515 
L 59.840927 399.285978 
L 58.566216 403.401781 
L 59.281111 407.517584 
z
M 61.385237 407.517584 
L 59.561396 403.401781 
L 60.750414 399.285978 
L 61.941748 397.504877 
L 63.212133 395.170175 
L 66.057551 391.680697 
L 66.589373 391.054372 
L 70.173354 387.393114 
L 70.747471 386.938569 
L 74.289157 383.942278 
L 76.343828 382.822766 
L 78.40496 381.407818 
L 82.520763 380.352333 
L 85.473966 382.822766 
L 84.90434 386.938569 
L 82.927895 391.054372 
L 82.520763 391.592272 
L 80.284716 395.170175 
L 78.40496 397.352429 
L 76.757858 399.285978 
L 74.289157 401.748395 
L 72.237196 403.401781 
L 70.173354 405.124903 
L 66.057551 407.189333 
L 63.608379 407.517584 
L 61.941748 407.840684 
z
" style="fill:#00c8ff;"/>
   </g>
   <g id="PathCollection_23">
    <path clip-path="url(#p26965fb2dd)" d="M 61.941748 407.840684 
L 63.608379 407.517584 
L 66.057551 407.189333 
L 70.173354 405.124903 
L 72.237196 403.401781 
L 74.289157 401.748395 
L 76.757858 399.285978 
L 78.40496 397.352429 
L 80.284716 395.170175 
L 82.520763 391.592272 
L 82.927895 391.054372 
L 84.90434 386.938569 
L 85.473966 382.822766 
L 82.520763 380.352333 
L 78.40496 381.407818 
L 76.343828 382.822766 
L 74.289157 383.942278 
L 70.747471 386.938569 
L 70.173354 387.393114 
L 66.589373 391.054372 
L 66.057551 391.680697 
L 63.212133 395.170175 
L 61.941748 397.504877 
L 60.750414 399.285978 
L 59.561396 403.401781 
L 61.385237 407.517584 
z
M 60.556575 403.401781 
L 61.659901 399.285978 
L 61.941748 398.864604 
L 63.952003 395.170175 
L 66.057551 392.588037 
L 67.359811 391.054372 
L 70.173354 388.180163 
L 71.741562 386.938569 
L 74.289157 384.783286 
L 77.887352 382.822766 
L 78.40496 382.467433 
L 82.520763 381.844414 
L 83.690304 382.822766 
L 83.935015 386.938569 
L 82.520763 389.881313 
L 82.059563 391.054372 
L 79.481259 395.170175 
L 78.40496 396.419676 
L 75.963289 399.285978 
L 74.289157 400.955848 
L 71.253594 403.401781 
L 70.173354 404.303684 
L 66.057551 406.344785 
L 61.941748 406.094609 
z
" style="fill:#23ffd4;"/>
   </g>
   <g id="PathCollection_24">
    <path clip-path="url(#p26965fb2dd)" d="M 61.941748 406.094609 
L 66.057551 406.344785 
L 70.173354 404.303684 
L 71.253594 403.401781 
L 74.289157 400.955848 
L 75.963289 399.285978 
L 78.40496 396.419676 
L 79.481259 395.170175 
L 82.059563 391.054372 
L 82.520763 389.881313 
L 83.935015 386.938569 
L 83.690304 382.822766 
L 82.520763 381.844414 
L 78.40496 382.467433 
L 77.887352 382.822766 
L 74.289157 384.783286 
L 71.741562 386.938569 
L 70.173354 388.180163 
L 67.359811 391.054372 
L 66.057551 392.588037 
L 63.952003 395.170175 
L 61.941748 398.864604 
L 61.659901 399.285978 
L 60.556575 403.401781 
z
M 61.551755 403.401781 
L 61.941748 401.911088 
L 62.494307 399.285978 
L 64.691873 395.170175 
L 66.057551 393.495376 
L 68.130248 391.054372 
L 70.173354 388.967212 
L 72.735653 386.938569 
L 74.289157 385.624293 
L 78.40496 383.568422 
L 82.520763 384.586824 
L 82.96569 386.938569 
L 82.520763 387.864362 
L 81.266577 391.054372 
L 78.677802 395.170175 
L 78.40496 395.486924 
L 75.16872 399.285978 
L 74.289157 400.163301 
L 70.269992 403.401781 
L 70.173354 403.482465 
L 66.057551 405.500236 
L 61.941748 404.159942 
z
" style="fill:#5dff9a;"/>
   </g>
   <g id="PathCollection_25">
    <path clip-path="url(#p26965fb2dd)" d="M 61.941748 404.159942 
L 66.057551 405.500236 
L 70.173354 403.482465 
L 70.269992 403.401781 
L 74.289157 400.163301 
L 75.16872 399.285978 
L 78.40496 395.486924 
L 78.677802 395.170175 
L 81.266577 391.054372 
L 82.520763 387.864362 
L 82.96569 386.938569 
L 82.520763 384.586824 
L 78.40496 383.568422 
L 74.289157 385.624293 
L 72.735653 386.938569 
L 70.173354 388.967212 
L 68.130248 391.054372 
L 66.057551 393.495376 
L 64.691873 395.170175 
L 62.494307 399.285978 
L 61.941748 401.911088 
L 61.551755 403.401781 
z
M 63.137689 403.401781 
L 63.294996 399.285978 
L 65.431744 395.170175 
L 66.057551 394.402716 
L 68.900685 391.054372 
L 70.173354 389.754261 
L 73.729743 386.938569 
L 74.289157 386.465301 
L 78.40496 384.690286 
L 81.645881 386.938569 
L 80.473592 391.054372 
L 78.40496 394.338706 
L 77.894227 395.170175 
L 74.37415 399.285978 
L 74.289157 399.370755 
L 70.173354 402.701049 
L 68.618149 403.401781 
L 66.057551 404.655688 
z
" style="fill:#9aff5d;"/>
   </g>
   <g id="PathCollection_26">
    <path clip-path="url(#p26965fb2dd)" d="M 66.057551 404.655688 
L 68.618149 403.401781 
L 70.173354 402.701049 
L 74.289157 399.370755 
L 74.37415 399.285978 
L 77.894227 395.170175 
L 78.40496 394.338706 
L 80.473592 391.054372 
L 81.645881 386.938569 
L 78.40496 384.690286 
L 74.289157 386.465301 
L 73.729743 386.938569 
L 70.173354 389.754261 
L 68.900685 391.054372 
L 66.057551 394.402716 
L 65.431744 395.170175 
L 63.294996 399.285978 
L 63.137689 403.401781 
z
M 65.104314 403.401781 
L 64.095685 399.285978 
L 66.057551 395.413809 
L 66.194702 395.170175 
L 69.671122 391.054372 
L 70.173354 390.54131 
L 74.289157 387.371769 
L 75.537788 386.938569 
L 78.40496 385.812149 
L 80.028705 386.938569 
L 79.680607 391.054372 
L 78.40496 393.079695 
L 77.120875 395.170175 
L 74.289157 398.47899 
L 73.431944 399.285978 
L 70.173354 401.92397 
L 66.8935 403.401781 
L 66.057551 403.81114 
z
" style="fill:#d4ff23;"/>
   </g>
   <g id="PathCollection_27">
    <path clip-path="url(#p26965fb2dd)" d="M 66.057551 403.81114 
L 66.8935 403.401781 
L 70.173354 401.92397 
L 73.431944 399.285978 
L 74.289157 398.47899 
L 77.120875 395.170175 
L 78.40496 393.079695 
L 79.680607 391.054372 
L 80.028705 386.938569 
L 78.40496 385.812149 
L 75.537788 386.938569 
L 74.289157 387.371769 
L 70.173354 390.54131 
L 69.671122 391.054372 
L 66.194702 395.170175 
L 66.057551 395.413809 
L 64.095685 399.285978 
L 65.104314 403.401781 
z
M 64.896374 399.285978 
L 66.057551 396.994143 
L 67.084329 395.170175 
L 70.173354 391.429411 
L 70.640786 391.054372 
L 74.289157 388.362482 
L 78.393363 386.938569 
L 78.40496 386.934013 
L 78.411528 386.938569 
L 78.887621 391.054372 
L 78.40496 391.820685 
L 76.347523 395.170175 
L 74.289157 397.575342 
L 72.472054 399.285978 
L 70.173354 401.146891 
L 66.057551 402.322754 
z
" style="fill:#ffdb00;"/>
   </g>
   <g id="PathCollection_28">
    <path clip-path="url(#p26965fb2dd)" d="M 66.057551 402.322754 
L 70.173354 401.146891 
L 72.472054 399.285978 
L 74.289157 397.575342 
L 76.347523 395.170175 
L 78.40496 391.820685 
L 78.887621 391.054372 
L 78.411528 386.938569 
L 78.40496 386.934013 
L 78.393363 386.938569 
L 74.289157 388.362482 
L 70.640786 391.054372 
L 70.173354 391.429411 
L 67.084329 395.170175 
L 66.057551 396.994143 
L 64.896374 399.285978 
z
M 65.697064 399.285978 
L 66.057551 398.574478 
L 67.973957 395.170175 
L 70.173354 392.506737 
L 71.98352 391.054372 
L 74.289157 389.353196 
L 77.641054 391.054372 
L 75.574171 395.170175 
L 74.289157 396.671693 
L 71.512165 399.285978 
L 70.173354 400.369812 
L 66.057551 400.228746 
z
" style="fill:#ff9400;"/>
   </g>
   <g id="PathCollection_29">
    <path clip-path="url(#p26965fb2dd)" d="M 66.057551 400.228746 
L 70.173354 400.369812 
L 71.512165 399.285978 
L 74.289157 396.671693 
L 75.574171 395.170175 
L 77.641054 391.054372 
L 74.289157 389.353196 
L 71.98352 391.054372 
L 70.173354 392.506737 
L 67.973957 395.170175 
L 66.057551 398.574478 
L 65.697064 399.285978 
z
M 68.453212 399.285978 
L 68.863584 395.170175 
L 70.173354 393.584063 
L 73.326253 391.054372 
L 74.289157 390.343909 
L 75.689012 391.054372 
L 74.800819 395.170175 
L 74.289157 395.768044 
L 70.552275 399.285978 
L 70.173354 399.592733 
z
" style="fill:#ff5200;"/>
   </g>
   <g id="PathCollection_30">
    <path clip-path="url(#p26965fb2dd)" d="M 70.173354 399.592733 
L 70.552275 399.285978 
L 74.289157 395.768044 
L 74.800819 395.170175 
L 75.689012 391.054372 
L 74.289157 390.343909 
L 73.326253 391.054372 
L 70.173354 393.584063 
L 68.863584 395.170175 
L 68.453212 399.285978 
z
M 69.753212 395.170175 
L 70.173354 394.661389 
L 72.571131 395.170175 
L 70.173354 396.974107 
z
" style="fill:#fa0f00;"/>
   </g>
   <g id="PathCollection_31">
    <path clip-path="url(#p26965fb2dd)" d="M 70.173354 396.974107 
L 72.571131 395.170175 
L 70.173354 394.661389 
L 69.753212 395.170175 
z
" style="fill:#a80000;"/>
   </g>
   <g id="patch_18">
    <path d="M 10.7 454.22 
L 10.7 323.772941 
" style="fill:none;stroke:#000000;stroke-linecap:square;stroke-linejoin:miter;stroke-width:0.5;"/>
   </g>
   <g id="patch_19">
    <path d="M 141.994118 454.22 
L 141.994118 323.772941 
" style="fill:none;stroke:#000000;stroke-linecap:square;stroke-linejoin:miter;stroke-width:0.5;"/>
   </g>
   <g id="patch_20">
    <path d="M 10.7 454.22 
L 141.994118 454.22 
" style="fill:none;stroke:#000000;stroke-linecap:square;stroke-linejoin:miter;stroke-width:0.5;"/>
   </g>
   <g id="patch_21">
    <path d="M 10.7 323.772941 
L 141.994118 323.772941 
" style="fill:none;stroke:#000000;stroke-linecap:square;stroke-linejoin:miter;stroke-width:0.5;"/>
   </g>
  </g>
  <g id="axes_5">
   <g id="patch_22">
    <path d="M 168.252941 454.22 
L 299.547059 454.22 
L 299.547059 323.772941 
L 168.252941 323.772941 
z
" style="fill:#ffffff;"/>
   </g>
   <g id="PathCollection_32">
    <path clip-path="url(#p1fd530e2de)" d="M 178.336659 448.675615 
L 182.452462 448.675615 
L 186.568265 448.675615 
L 190.684068 448.675615 
L 194.799871 448.675615 
L 198.915674 448.675615 
L 203.031477 448.675615 
L 207.14728 448.675615 
L 211.263083 448.675615 
L 215.378886 448.675615 
L 219.494689 448.675615 
L 223.610492 448.675615 
L 227.726295 448.675615 
L 231.842098 448.675615 
L 235.957902 448.675615 
L 240.073705 448.675615 
L 244.189508 448.675615 
L 248.305311 448.675615 
L 252.421114 448.675615 
L 256.536917 448.675615 
L 260.65272 448.675615 
L 264.768523 448.675615 
L 268.884326 448.675615 
L 273.000129 448.675615 
L 277.115932 448.675615 
L 281.231735 448.675615 
L 285.347538 448.675615 
L 289.463341 448.675615 
L 293.579144 448.675615 
L 293.579144 444.559812 
L 293.579144 440.444009 
L 293.579144 436.328206 
L 293.579144 432.212403 
L 293.579144 428.0966 
L 293.579144 423.980797 
L 293.579144 419.864994 
L 293.579144 415.74919 
L 293.579144 411.633387 
L 293.579144 407.517584 
L 293.579144 403.401781 
L 293.579144 399.285978 
L 293.579144 395.170175 
L 293.579144 391.054372 
L 293.579144 386.938569 
L 293.579144 382.822766 
L 293.579144 378.706963 
L 293.579144 374.59116 
L 293.579144 370.475357 
L 293.579144 366.359554 
L 293.579144 362.243751 
L 293.579144 358.127948 
L 293.579144 354.012145 
L 293.579144 349.896342 
L 293.579144 345.780538 
L 293.579144 341.664735 
L 293.579144 337.548932 
L 293.579144 333.433129 
L 293.579144 329.317326 
L 289.463341 329.317326 
L 285.347538 329.317326 
L 281.231735 329.317326 
L 277.115932 329.317326 
L 273.000129 329.317326 
L 268.884326 329.317326 
L 264.768523 329.317326 
L 260.65272 329.317326 
L 256.536917 329.317326 
L 252.421114 329.317326 
L 248.305311 329.317326 
L 244.189508 329.317326 
L 240.073705 329.317326 
L 235.957902 329.317326 
L 231.842098 329.317326 
L 227.726295 329.317326 
L 223.610492 329.317326 
L 219.494689 329.317326 
L 215.378886 329.317326 
L 211.263083 329.317326 
L 207.14728 329.317326 
L 203.031477 329.317326 
L 198.915674 329.317326 
L 194.799871 329.317326 
L 190.684068 329.317326 
L 186.568265 329.317326 
L 182.452462 329.317326 
L 178.336659 329.317326 
L 174.220856 329.317326 
L 174.220856 333.433129 
L 174.220856 337.548932 
L 174.220856 341.664735 
L 174.220856 345.780538 
L 174.220856 349.896342 
L 174.220856 354.012145 
L 174.220856 358.127948 
L 174.220856 362.243751 
L 174.220856 366.359554 
L 174.220856 370.475357 
L 174.220856 374.59116 
L 174.220856 378.706963 
L 174.220856 382.822766 
L 174.220856 386.938569 
L 174.220856 391.054372 
L 174.220856 395.170175 
L 174.220856 399.285978 
L 174.220856 403.401781 
L 174.220856 407.517584 
L 174.220856 411.633387 
L 174.220856 415.74919 
L 174.220856 419.864994 
L 174.220856 423.980797 
L 174.220856 428.0966 
L 174.220856 432.212403 
L 174.220856 436.328206 
L 174.220856 440.444009 
L 174.220856 444.559812 
L 174.220856 448.675615 
z
M 237.347628 407.517584 
L 235.957902 407.176151 
L 231.842098 405.36791 
L 229.293845 403.401781 
L 227.726295 402.834377 
L 223.610492 401.094536 
L 220.763192 399.285978 
L 219.494689 398.965773 
L 215.378886 398.030984 
L 211.263083 396.429483 
L 209.039329 395.170175 
L 207.14728 393.755911 
L 204.484653 391.054372 
L 205.014033 386.938569 
L 207.14728 384.961796 
L 211.224665 382.822766 
L 211.263083 382.802735 
L 215.378886 380.945069 
L 219.494689 379.881818 
L 223.610492 379.095711 
L 225.521571 378.706963 
L 227.726295 377.479874 
L 231.842098 375.873085 
L 235.957902 374.981988 
L 240.073705 374.742648 
L 244.189508 375.592863 
L 248.305311 378.493089 
L 248.535156 378.706963 
L 252.39182 382.822766 
L 252.421114 382.865934 
L 255.483682 386.938569 
L 256.536917 389.51274 
L 257.43133 391.054372 
L 258.459703 395.170175 
L 257.815798 399.285978 
L 256.536917 401.209702 
L 255.131325 403.401781 
L 252.421114 405.779837 
L 249.350492 407.517584 
L 248.305311 408.127859 
L 244.189508 409.337705 
L 240.073705 408.95859 
z
" style="fill:#ffffff;"/>
   </g>
   <g id="PathCollection_33">
    <path clip-path="url(#p1fd530e2de)" d="M 240.073705 408.95859 
L 244.189508 409.337705 
L 248.305311 408.127859 
L 249.350492 407.517584 
L 252.421114 405.779837 
L 255.131325 403.401781 
L 256.536917 401.209702 
L 257.815798 399.285978 
L 258.459703 395.170175 
L 257.43133 391.054372 
L 256.536917 389.51274 
L 255.483682 386.938569 
L 252.421114 382.865934 
L 252.39182 382.822766 
L 248.535156 378.706963 
L 248.305311 378.493089 
L 244.189508 375.592863 
L 240.073705 374.742648 
L 235.957902 374.981988 
L 231.842098 375.873085 
L 227.726295 377.479874 
L 225.521571 378.706963 
L 223.610492 379.095711 
L 219.494689 379.881818 
L 215.378886 380.945069 
L 211.263083 382.802735 
L 211.224665 382.822766 
L 207.14728 384.961796 
L 205.014033 386.938569 
L 204.484653 391.054372 
L 207.14728 393.755911 
L 209.039329 395.170175 
L 211.263083 396.429483 
L 215.378886 398.030984 
L 219.494689 398.965773 
L 220.763192 399.285978 
L 223.610492 401.094536 
L 227.726295 402.834377 
L 229.293845 403.401781 
L 231.842098 405.36791 
L 235.957902 407.176151 
L 237.347628 407.517584 
z
M 233.04037 403.401781 
L 231.842098 403.033946 
L 227.726295 401.409351 
L 224.36761 399.285978 
L 223.610492 399.039156 
L 219.494689 397.883516 
L 215.378886 396.178888 
L 213.479737 395.170175 
L 211.263083 393.832653 
L 208.118622 391.054372 
L 208.809988 386.938569 
L 211.263083 385.028662 
L 215.378886 383.228911 
L 216.816366 382.822766 
L 219.494689 381.699516 
L 223.610492 380.384372 
L 227.726295 379.394202 
L 231.058614 378.706963 
L 231.842098 378.330294 
L 235.957902 377.264559 
L 240.073705 377.460061 
L 242.914362 378.706963 
L 244.189508 379.22564 
L 248.305311 382.731043 
L 248.393545 382.822766 
L 251.575615 386.938569 
L 252.421114 389.015156 
L 253.496186 391.054372 
L 254.179777 395.170175 
L 253.001861 399.285978 
L 252.421114 400.042595 
L 249.418551 403.401781 
L 248.305311 404.212457 
L 244.189508 405.996703 
L 240.073705 406.172081 
L 235.957902 405.145611 
z
" style="fill:#0000a8;"/>
   </g>
   <g id="PathCollection_34">
    <path clip-path="url(#p1fd530e2de)" d="M 235.957902 405.145611 
L 240.073705 406.172081 
L 244.189508 405.996703 
L 248.305311 404.212457 
L 249.418551 403.401781 
L 252.421114 400.042595 
L 253.001861 399.285978 
L 254.179777 395.170175 
L 253.496186 391.054372 
L 252.421114 389.015156 
L 251.575615 386.938569 
L 248.393545 382.822766 
L 248.305311 382.731043 
L 244.189508 379.22564 
L 242.914362 378.706963 
L 240.073705 377.460061 
L 235.957902 377.264559 
L 231.842098 378.330294 
L 231.058614 378.706963 
L 227.726295 379.394202 
L 223.610492 380.384372 
L 219.494689 381.699516 
L 216.816366 382.822766 
L 215.378886 383.228911 
L 211.263083 385.028662 
L 208.809988 386.938569 
L 208.118622 391.054372 
L 211.263083 393.832653 
L 213.479737 395.170175 
L 215.378886 396.178888 
L 219.494689 397.883516 
L 223.610492 399.039156 
L 224.36761 399.285978 
L 227.726295 401.409351 
L 231.842098 403.033946 
L 233.04037 403.401781 
z
M 237.07332 403.401781 
L 235.957902 403.250693 
L 231.842098 401.991096 
L 227.726295 399.984325 
L 226.621672 399.285978 
L 223.610492 398.304325 
L 219.494689 396.801259 
L 216.333902 395.170175 
L 215.378886 394.637027 
L 211.263083 391.728594 
L 210.499998 391.054372 
L 211.263083 388.176572 
L 211.524881 386.938569 
L 215.378886 384.453491 
L 219.494689 383.135492 
L 220.728706 382.822766 
L 223.610492 381.673033 
L 227.726295 380.448285 
L 231.842098 379.587879 
L 235.957902 379.160242 
L 240.073705 379.613248 
L 244.189508 381.743776 
L 245.443451 382.822766 
L 248.305311 386.256271 
L 248.837429 386.938569 
L 250.815335 391.054372 
L 251.225609 395.170175 
L 249.738162 399.285978 
L 248.305311 400.818709 
L 244.317855 403.401781 
L 244.189508 403.46529 
L 240.073705 404.164348 
z
" style="fill:#0000fa;"/>
   </g>
   <g id="PathCollection_35">
    <path clip-path="url(#p1fd530e2de)" d="M 240.073705 404.164348 
L 244.189508 403.46529 
L 244.317855 403.401781 
L 248.305311 400.818709 
L 249.738162 399.285978 
L 251.225609 395.170175 
L 250.815335 391.054372 
L 248.837429 386.938569 
L 248.305311 386.256271 
L 245.443451 382.822766 
L 244.189508 381.743776 
L 240.073705 379.613248 
L 235.957902 379.160242 
L 231.842098 379.587879 
L 227.726295 380.448285 
L 223.610492 381.673033 
L 220.728706 382.822766 
L 219.494689 383.135492 
L 215.378886 384.453491 
L 211.524881 386.938569 
L 211.263083 388.176572 
L 210.499998 391.054372 
L 211.263083 391.728594 
L 215.378886 394.637027 
L 216.333902 395.170175 
L 219.494689 396.801259 
L 223.610492 398.304325 
L 226.621672 399.285978 
L 227.726295 399.984325 
L 231.842098 401.991096 
L 235.957902 403.250693 
L 237.07332 403.401781 
z
M 228.723875 399.285978 
L 227.726295 398.962934 
L 223.610492 397.569495 
L 219.494689 395.719002 
L 218.431149 395.170175 
L 215.378886 393.466215 
L 212.284037 391.054372 
L 213.424032 386.938569 
L 215.378886 385.678072 
L 219.494689 383.954045 
L 223.610492 382.894771 
L 223.936643 382.822766 
L 227.726295 381.502367 
L 231.842098 380.628279 
L 235.957902 380.391715 
L 240.073705 381.288008 
L 242.608618 382.822766 
L 244.189508 384.107006 
L 246.700113 386.938569 
L 248.305311 390.64434 
L 248.510752 391.054372 
L 248.83254 395.170175 
L 248.305311 396.366736 
L 246.879899 399.285978 
L 244.189508 401.384838 
L 240.073705 402.538662 
L 235.957902 402.180659 
L 231.842098 400.948247 
z
" style="fill:#0034ff;"/>
   </g>
   <g id="PathCollection_36">
    <path clip-path="url(#p1fd530e2de)" d="M 231.842098 400.948247 
L 235.957902 402.180659 
L 240.073705 402.538662 
L 244.189508 401.384838 
L 246.879899 399.285978 
L 248.305311 396.366736 
L 248.83254 395.170175 
L 248.510752 391.054372 
L 248.305311 390.64434 
L 246.700113 386.938569 
L 244.189508 384.107006 
L 242.608618 382.822766 
L 240.073705 381.288008 
L 235.957902 380.391715 
L 231.842098 380.628279 
L 227.726295 381.502367 
L 223.936643 382.822766 
L 223.610492 382.894771 
L 219.494689 383.954045 
L 215.378886 385.678072 
L 213.424032 386.938569 
L 212.284037 391.054372 
L 215.378886 393.466215 
L 218.431149 395.170175 
L 219.494689 395.719002 
L 223.610492 397.569495 
L 227.726295 398.962934 
L 228.723875 399.285978 
z
M 230.68014 399.285978 
L 227.726295 398.329441 
L 223.610492 396.834665 
L 220.230226 395.170175 
L 219.494689 394.765756 
L 215.378886 392.295404 
L 213.786408 391.054372 
L 215.323184 386.938569 
L 215.378886 386.902652 
L 219.494689 384.772597 
L 223.610492 383.56267 
L 226.961944 382.822766 
L 227.726295 382.556449 
L 231.842098 381.66868 
L 235.957902 381.623187 
L 239.748411 382.822766 
L 240.073705 382.948032 
L 244.189508 386.354096 
L 244.707731 386.938569 
L 246.752975 391.054372 
L 246.856554 395.170175 
L 244.227979 399.285978 
L 244.189508 399.315991 
L 240.073705 401.146951 
L 235.957902 401.110625 
L 231.842098 399.905397 
z
" style="fill:#0080ff;"/>
   </g>
   <g id="PathCollection_37">
    <path clip-path="url(#p1fd530e2de)" d="M 231.842098 399.905397 
L 235.957902 401.110625 
L 240.073705 401.146951 
L 244.189508 399.315991 
L 244.227979 399.285978 
L 246.856554 395.170175 
L 246.752975 391.054372 
L 244.707731 386.938569 
L 244.189508 386.354096 
L 240.073705 382.948032 
L 239.748411 382.822766 
L 235.957902 381.623187 
L 231.842098 381.66868 
L 227.726295 382.556449 
L 226.961944 382.822766 
L 223.610492 383.56267 
L 219.494689 384.772597 
L 215.378886 386.902652 
L 215.323184 386.938569 
L 213.786408 391.054372 
L 215.378886 392.295404 
L 219.494689 394.765756 
L 220.230226 395.170175 
L 223.610492 396.834665 
L 227.726295 398.329441 
L 230.68014 399.285978 
z
M 233.345938 399.285978 
L 231.842098 398.994989 
L 227.726295 397.695947 
L 223.610492 396.099835 
L 221.722529 395.170175 
L 219.494689 393.945245 
L 215.378886 391.124593 
L 215.28878 391.054372 
L 215.378886 390.814863 
L 216.905611 386.938569 
L 219.494689 385.59115 
L 223.610492 384.230569 
L 227.726295 383.318237 
L 231.317081 382.822766 
L 231.842098 382.70908 
L 235.169304 382.822766 
L 235.957902 382.84976 
L 240.073705 384.446509 
L 242.922206 386.938569 
L 244.189508 389.38644 
L 245.048714 391.054372 
L 244.998423 395.170175 
L 244.189508 396.431245 
L 241.122925 399.285978 
L 240.073705 399.755239 
L 235.957902 400.04059 
z
" style="fill:#00c8ff;"/>
   </g>
   <g id="PathCollection_38">
    <path clip-path="url(#p1fd530e2de)" d="M 235.957902 400.04059 
L 240.073705 399.755239 
L 241.122925 399.285978 
L 244.189508 396.431245 
L 244.998423 395.170175 
L 245.048714 391.054372 
L 244.189508 389.38644 
L 242.922206 386.938569 
L 240.073705 384.446509 
L 235.957902 382.84976 
L 235.169304 382.822766 
L 231.842098 382.70908 
L 231.317081 382.822766 
L 227.726295 383.318237 
L 223.610492 384.230569 
L 219.494689 385.59115 
L 216.905611 386.938569 
L 215.378886 390.814863 
L 215.28878 391.054372 
L 215.378886 391.124593 
L 219.494689 393.945245 
L 221.722529 395.170175 
L 223.610492 396.099835 
L 227.726295 397.695947 
L 231.842098 398.994989 
L 233.345938 399.285978 
z
M 223.214831 395.170175 
L 219.494689 393.124734 
L 216.496021 391.054372 
L 218.478467 386.938569 
L 219.494689 386.409702 
L 223.610492 384.898468 
L 227.726295 383.981211 
L 231.842098 383.518378 
L 235.957902 383.892029 
L 240.073705 385.944987 
L 241.2094 386.938569 
L 243.472362 391.054372 
L 243.221982 395.170175 
L 240.073705 398.194854 
L 235.957902 398.987455 
L 231.842098 398.278323 
L 227.726295 397.062454 
L 223.610492 395.365004 
z
" style="fill:#23ffd4;"/>
   </g>
   <g id="PathCollection_39">
    <path clip-path="url(#p1fd530e2de)" d="M 223.610492 395.365004 
L 227.726295 397.062454 
L 231.842098 398.278323 
L 235.957902 398.987455 
L 240.073705 398.194854 
L 243.221982 395.170175 
L 243.472362 391.054372 
L 241.2094 386.938569 
L 240.073705 385.944987 
L 235.957902 383.892029 
L 231.842098 383.518378 
L 227.726295 383.981211 
L 223.610492 384.898468 
L 219.494689 386.409702 
L 218.478467 386.938569 
L 216.496021 391.054372 
L 219.494689 393.124734 
L 223.214831 395.170175 
z
M 224.721679 395.170175 
L 223.610492 394.615867 
L 219.494689 392.304223 
L 217.684432 391.054372 
L 219.494689 387.71452 
L 220.099481 386.938569 
L 223.610492 385.566368 
L 227.726295 384.644184 
L 231.842098 384.299325 
L 235.957902 384.934298 
L 239.460068 386.938569 
L 240.073705 387.760684 
L 242.026062 391.054372 
L 241.508521 395.170175 
L 240.073705 396.548662 
L 235.957902 397.974748 
L 231.842098 397.561657 
L 227.726295 396.428961 
z
" style="fill:#5dff9a;"/>
   </g>
   <g id="PathCollection_40">
    <path clip-path="url(#p1fd530e2de)" d="M 227.726295 396.428961 
L 231.842098 397.561657 
L 235.957902 397.974748 
L 240.073705 396.548662 
L 241.508521 395.170175 
L 242.026062 391.054372 
L 240.073705 387.760684 
L 239.460068 386.938569 
L 235.957902 384.934298 
L 231.842098 384.299325 
L 227.726295 384.644184 
L 223.610492 385.566368 
L 220.099481 386.938569 
L 219.494689 387.71452 
L 217.684432 391.054372 
L 219.494689 392.304223 
L 223.610492 394.615867 
L 224.721679 395.170175 
z
M 226.233775 395.170175 
L 223.610492 393.861569 
L 219.494689 391.483712 
L 218.872842 391.054372 
L 219.494689 389.90709 
L 221.808415 386.938569 
L 223.610492 386.234267 
L 227.726295 385.307157 
L 231.842098 385.080273 
L 235.957902 385.976568 
L 237.638856 386.938569 
L 240.073705 390.200638 
L 240.579762 391.054372 
L 240.073705 393.864241 
L 239.727269 395.170175 
L 235.957902 396.962042 
L 231.842098 396.844991 
L 227.726295 395.795467 
z
" style="fill:#9aff5d;"/>
   </g>
   <g id="PathCollection_41">
    <path clip-path="url(#p1fd530e2de)" d="M 227.726295 395.795467 
L 231.842098 396.844991 
L 235.957902 396.962042 
L 239.727269 395.170175 
L 240.073705 393.864241 
L 240.579762 391.054372 
L 240.073705 390.200638 
L 237.638856 386.938569 
L 235.957902 385.976568 
L 231.842098 385.080273 
L 227.726295 385.307157 
L 223.610492 386.234267 
L 221.808415 386.938569 
L 219.494689 389.90709 
L 218.872842 391.054372 
L 219.494689 391.483712 
L 223.610492 393.861569 
L 226.233775 395.170175 
z
M 227.765768 395.170175 
L 227.726295 395.158204 
L 223.610492 393.10727 
L 220.108186 391.054372 
L 223.517349 386.938569 
L 223.610492 386.902166 
L 227.726295 385.970131 
L 231.842098 385.86122 
L 235.740286 386.938569 
L 235.957902 387.081277 
L 239.116113 391.054372 
L 237.596941 395.170175 
L 235.957902 395.949335 
L 231.842098 396.128325 
z
" style="fill:#d4ff23;"/>
   </g>
   <g id="PathCollection_42">
    <path clip-path="url(#p1fd530e2de)" d="M 231.842098 396.128325 
L 235.957902 395.949335 
L 237.596941 395.170175 
L 239.116113 391.054372 
L 235.957902 387.081277 
L 235.740286 386.938569 
L 231.842098 385.86122 
L 227.726295 385.970131 
L 223.610492 386.902166 
L 223.517349 386.938569 
L 220.108186 391.054372 
L 223.610492 393.10727 
L 227.726295 395.158204 
L 227.765768 395.170175 
z
M 230.814733 395.170175 
L 227.726295 394.233519 
L 223.610492 392.352971 
L 221.395043 391.054372 
L 223.610492 388.397639 
L 226.377772 386.938569 
L 227.726295 386.633104 
L 231.842098 386.642167 
L 232.914573 386.938569 
L 235.957902 388.934324 
L 237.643127 391.054372 
L 235.957902 394.47972 
L 234.285563 395.170175 
L 231.842098 395.41166 
z
" style="fill:#ffdb00;"/>
   </g>
   <g id="PathCollection_43">
    <path clip-path="url(#p1fd530e2de)" d="M 231.842098 395.41166 
L 234.285563 395.170175 
L 235.957902 394.47972 
L 237.643127 391.054372 
L 235.957902 388.934324 
L 232.914573 386.938569 
L 231.842098 386.642167 
L 227.726295 386.633104 
L 226.377772 386.938569 
L 223.610492 388.397639 
L 221.395043 391.054372 
L 223.610492 392.352971 
L 227.726295 394.233519 
L 230.814733 395.170175 
z
M 222.681899 391.054372 
L 223.610492 389.940818 
L 227.726295 387.684017 
L 231.842098 387.870853 
L 235.957902 390.787371 
L 236.17014 391.054372 
L 235.957902 391.485764 
L 231.842098 394.189154 
L 227.726295 393.308833 
L 223.610492 391.598672 
z
" style="fill:#ff9400;"/>
   </g>
   <g id="PathCollection_44">
    <path clip-path="url(#p1fd530e2de)" d="M 223.610492 391.598672 
L 227.726295 393.308833 
L 231.842098 394.189154 
L 235.957902 391.485764 
L 236.17014 391.054372 
L 235.957902 390.787371 
L 231.842098 387.870853 
L 227.726295 387.684017 
L 223.610492 389.940818 
L 222.681899 391.054372 
z
M 224.278047 391.054372 
L 227.726295 389.066395 
L 231.842098 389.373426 
L 234.173883 391.054372 
L 231.842098 392.709585 
L 227.726295 392.384148 
z
" style="fill:#ff5200;"/>
   </g>
   <g id="PathCollection_45">
    <path clip-path="url(#p1fd530e2de)" d="M 227.726295 392.384148 
L 231.842098 392.709585 
L 234.173883 391.054372 
L 231.842098 389.373426 
L 227.726295 389.066395 
L 224.278047 391.054372 
z
M 226.675854 391.054372 
L 227.726295 390.448774 
L 231.842098 390.875998 
L 232.089537 391.054372 
L 231.842098 391.230016 
L 227.726295 391.459462 
z
" style="fill:#fa0f00;"/>
   </g>
   <g id="PathCollection_46">
    <path clip-path="url(#p1fd530e2de)" d="M 227.726295 391.459462 
L 231.842098 391.230016 
L 232.089537 391.054372 
L 231.842098 390.875998 
L 227.726295 390.448774 
L 226.675854 391.054372 
z
" style="fill:#a80000;"/>
   </g>
   <g id="patch_23">
    <path d="M 168.252941 454.22 
L 168.252941 323.772941 
" style="fill:none;stroke:#000000;stroke-linecap:square;stroke-linejoin:miter;stroke-width:0.5;"/>
   </g>
   <g id="patch_24">
    <path d="M 299.547059 454.22 
L 299.547059 323.772941 
" style="fill:none;stroke:#000000;stroke-linecap:square;stroke-linejoin:miter;stroke-width:0.5;"/>
   </g>
   <g id="patch_25">
    <path d="M 168.252941 454.22 
L 299.547059 454.22 
" style="fill:none;stroke:#000000;stroke-linecap:square;stroke-linejoin:miter;stroke-width:0.5;"/>
   </g>
   <g id="patch_26">
    <path d="M 168.252941 323.772941 
L 299.547059 323.772941 
" style="fill:none;stroke:#000000;stroke-linecap:square;stroke-linejoin:miter;stroke-width:0.5;"/>
   </g>
  </g>
  <g id="axes_6">
   <g id="patch_27">
    <path d="M 325.805882 454.22 
L 457.1 454.22 
L 457.1 323.772941 
L 325.805882 323.772941 
z
" style="fill:#ffffff;"/>
   </g>
   <g id="line2d_5">
    <path clip-path="url(#p400f6dd652)" d="M 331.773797 448.290588 
L 335.8896 448.290588 
L 340.005403 448.290588 
L 344.121206 448.290588 
L 348.237009 448.290588 
L 352.352812 448.290582 
L 356.468615 448.290386 
L 360.584418 448.286058 
L 364.700221 448.223267 
L 368.816024 447.62665 
L 372.931827 443.951684 
L 377.04763 429.699432 
L 381.163434 396.8999 
L 385.279237 356.809778 
L 389.39504 340.483102 
L 393.510843 360.72569 
L 397.626646 398.191041 
L 401.742449 428.296939 
L 405.858252 442.894036 
L 409.974055 447.334082 
L 414.089858 448.180651 
L 418.205661 448.282374 
L 422.321464 448.290186 
L 426.437267 448.290575 
L 430.55307 448.290588 
L 434.668873 448.290588 
L 438.784676 448.290588 
L 442.900479 448.290588 
L 447.016283 448.290588 
L 451.132086 448.290588 
" style="fill:none;stroke:#1f77b4;stroke-linecap:square;stroke-width:1.5;"/>
   </g>
   <g id="line2d_6">
    <path clip-path="url(#p400f6dd652)" d="M 331.773797 329.702353 
" style="fill:none;stroke:#ffffff;stroke-linecap:square;stroke-width:1.5;"/>
   </g>
   <g id="patch_28">
    <path d="M 325.805882 454.22 
L 325.805882 323.772941 
" style="fill:none;stroke:#000000;stroke-linecap:square;stroke-linejoin:miter;stroke-width:0.5;"/>
   </g>
   <g id="patch_29">
    <path d="M 457.1 454.22 
L 457.1 323.772941 
" style="fill:none;stroke:#000000;stroke-linecap:square;stroke-linejoin:miter;stroke-width:0.5;"/>
   </g>
   <g id="patch_30">
    <path d="M 325.805882 454.22 
L 457.1 454.22 
" style="fill:none;stroke:#000000;stroke-linecap:square;stroke-linejoin:miter;stroke-width:0.5;"/>
   </g>
   <g id="patch_31">
    <path d="M 325.805882 323.772941 
L 457.1 323.772941 
" style="fill:none;stroke:#000000;stroke-linecap:square;stroke-linejoin:miter;stroke-width:0.5;"/>
   </g>
  </g>
 </g>
 <defs>
  <clipPath id="p4218ccb7e0">
   <rect height="130.447059" width="131.294118" x="10.7" y="10.7"/>
  </clipPath>
  <clipPath id="p0342c5d51d">
   <rect height="130.447059" width="131.294118" x="10.7" y="167.236471"/>
  </clipPath>
  <clipPath id="p0233840ff7">
   <rect height="130.447059" width="131.294118" x="168.252941" y="167.236471"/>
  </clipPath>
  <clipPath id="p26965fb2dd">
   <rect height="130.447059" width="131.294118" x="10.7" y="323.772941"/>
  </clipPath>
  <clipPath id="p1fd530e2de">
   <rect height="130.447059" width="131.294118" x="168.252941" y="323.772941"/>
  </clipPath>
  <clipPath id="p400f6dd652">
   <rect height="130.447059" width="131.294118" x="325.805882" y="323.772941"/>
  </clipPath>
 </defs>
</svg>
