<?xml version="1.0" encoding="utf-8" standalone="no"?>
<!DOCTYPE svg PUBLIC "-//W3C//DTD SVG 1.1//EN"
  "http://www.w3.org/Graphics/SVG/1.1/DTD/svg11.dtd">
<!-- Created with matplotlib (http://matplotlib.org/) -->
<svg height="464pt" version="1.1" viewBox="0 0 467 464" width="467pt" xmlns="http://www.w3.org/2000/svg" xmlns:xlink="http://www.w3.org/1999/xlink">
 <defs>
  <style type="text/css">
*{stroke-linecap:butt;stroke-linejoin:round;}
  </style>
 </defs>
 <g id="figure_1">
  <g id="patch_1">
   <path d="M 0 464.92 
L 467.8 464.92 
L 467.8 0 
L 0 0 
z
" style="fill:#ffffff;"/>
  </g>
  <g id="axes_1">
   <g id="patch_2">
    <path d="M 10.7 141.147059 
L 141.994118 141.147059 
L 141.994118 10.7 
L 10.7 10.7 
z
" style="fill:#ffffff;"/>
   </g>
   <g id="line2d_1">
    <path clip-path="url(#p3d9ec49eca)" d="M 16.667914 135.217647 
L 20.783717 135.217647 
L 24.899521 135.217647 
L 29.015324 135.217647 
L 33.131127 135.217647 
L 37.24693 135.217647 
L 41.362733 135.217647 
L 45.478536 135.217636 
L 49.594339 135.214013 
L 53.710142 135.076673 
L 57.825945 133.58831 
L 61.941748 125.768811 
L 66.057551 101.782554 
L 70.173354 60.213691 
L 74.289157 27.41016 
L 78.40496 33.16066 
L 82.520763 70.784426 
L 86.636566 109.29594 
L 90.75237 129.324558 
L 94.868173 134.575007 
L 98.983976 135.187823 
L 103.099779 135.217034 
L 107.215582 135.21764 
L 111.331385 135.217647 
L 115.447188 135.217647 
L 119.562991 135.217647 
L 123.678794 135.217647 
L 127.794597 135.217647 
L 131.9104 135.217647 
L 136.026203 135.217647 
" style="fill:none;stroke:#1f77b4;stroke-linecap:square;stroke-width:1.5;"/>
   </g>
   <g id="line2d_2">
    <path clip-path="url(#p3d9ec49eca)" d="M 16.667914 16.629412 
" style="fill:none;stroke:#ffffff;stroke-linecap:square;stroke-width:1.5;"/>
   </g>
   <g id="patch_3">
    <path d="M 10.7 141.147059 
L 10.7 10.7 
" style="fill:none;stroke:#000000;stroke-linecap:square;stroke-linejoin:miter;stroke-width:0.5;"/>
   </g>
   <g id="patch_4">
    <path d="M 141.994118 141.147059 
L 141.994118 10.7 
" style="fill:none;stroke:#000000;stroke-linecap:square;stroke-linejoin:miter;stroke-width:0.5;"/>
   </g>
   <g id="patch_5">
    <path d="M 10.7 141.147059 
L 141.994118 141.147059 
" style="fill:none;stroke:#000000;stroke-linecap:square;stroke-linejoin:miter;stroke-width:0.5;"/>
   </g>
   <g id="patch_6">
    <path d="M 10.7 10.7 
L 141.994118 10.7 
" style="fill:none;stroke:#000000;stroke-linecap:square;stroke-linejoin:miter;stroke-width:0.5;"/>
   </g>
  </g>
  <g id="axes_2">
   <g id="patch_7">
    <path d="M 10.7 297.683529 
L 141.994118 297.683529 
L 141.994118 167.236471 
L 10.7 167.236471 
z
" style="fill:#ffffff;"/>
   </g>
   <g id="PathCollection_1">
    <path clip-path="url(#p0731c4f89d)" d="M 20.783717 292.139144 
L 24.899521 292.139144 
L 29.015324 292.139144 
L 33.131127 292.139144 
L 37.24693 292.139144 
L 41.362733 292.139144 
L 45.478536 292.139144 
L 49.594339 292.139144 
L 53.710142 292.139144 
L 57.825945 292.139144 
L 61.941748 292.139144 
L 66.057551 292.139144 
L 70.173354 292.139144 
L 74.289157 292.139144 
L 78.40496 292.139144 
L 82.520763 292.139144 
L 86.636566 292.139144 
L 90.75237 292.139144 
L 94.868173 292.139144 
L 98.983976 292.139144 
L 103.099779 292.139144 
L 107.215582 292.139144 
L 111.331385 292.139144 
L 115.447188 292.139144 
L 119.562991 292.139144 
L 123.678794 292.139144 
L 127.794597 292.139144 
L 131.9104 292.139144 
L 136.026203 292.139144 
L 136.026203 288.023341 
L 136.026203 283.907538 
L 136.026203 279.791735 
L 136.026203 275.675932 
L 136.026203 271.560129 
L 136.026203 267.444326 
L 136.026203 263.328523 
L 136.026203 259.21272 
L 136.026203 255.096917 
L 136.026203 250.981114 
L 136.026203 246.865311 
L 136.026203 242.749508 
L 136.026203 238.633705 
L 136.026203 234.517902 
L 136.026203 230.402098 
L 136.026203 226.286295 
L 136.026203 222.170492 
L 136.026203 218.054689 
L 136.026203 213.938886 
L 136.026203 209.823083 
L 136.026203 205.70728 
L 136.026203 201.591477 
L 136.026203 197.475674 
L 136.026203 193.359871 
L 136.026203 189.244068 
L 136.026203 185.128265 
L 136.026203 181.012462 
L 136.026203 176.896659 
L 136.026203 172.780856 
L 131.9104 172.780856 
L 127.794597 172.780856 
L 123.678794 172.780856 
L 119.562991 172.780856 
L 115.447188 172.780856 
L 111.331385 172.780856 
L 107.215582 172.780856 
L 103.099779 172.780856 
L 98.983976 172.780856 
L 94.868173 172.780856 
L 90.75237 172.780856 
L 86.636566 172.780856 
L 82.520763 172.780856 
L 78.40496 172.780856 
L 74.289157 172.780856 
L 70.173354 172.780856 
L 66.057551 172.780856 
L 61.941748 172.780856 
L 57.825945 172.780856 
L 53.710142 172.780856 
L 49.594339 172.780856 
L 45.478536 172.780856 
L 41.362733 172.780856 
L 37.24693 172.780856 
L 33.131127 172.780856 
L 29.015324 172.780856 
L 24.899521 172.780856 
L 20.783717 172.780856 
L 16.667914 172.780856 
L 16.667914 176.896659 
L 16.667914 181.012462 
L 16.667914 185.128265 
L 16.667914 189.244068 
L 16.667914 193.359871 
L 16.667914 197.475674 
L 16.667914 201.591477 
L 16.667914 205.70728 
L 16.667914 209.823083 
L 16.667914 213.938886 
L 16.667914 218.054689 
L 16.667914 222.170492 
L 16.667914 226.286295 
L 16.667914 230.402098 
L 16.667914 234.517902 
L 16.667914 238.633705 
L 16.667914 242.749508 
L 16.667914 246.865311 
L 16.667914 250.981114 
L 16.667914 255.096917 
L 16.667914 259.21272 
L 16.667914 263.328523 
L 16.667914 267.444326 
L 16.667914 271.560129 
L 16.667914 275.675932 
L 16.667914 279.791735 
L 16.667914 283.907538 
L 16.667914 288.023341 
L 16.667914 292.139144 
z
M 72.483252 259.21272 
L 70.500758 255.096917 
L 70.173354 254.174468 
L 68.544366 250.981114 
L 67.171722 246.865311 
L 66.221283 242.749508 
L 66.057551 242.117702 
L 63.866811 238.633705 
L 62.547505 234.517902 
L 61.941748 231.274411 
L 61.522177 230.402098 
L 60.888732 226.286295 
L 61.505818 222.170492 
L 61.941748 221.105314 
L 63.003333 218.054689 
L 66.057551 214.314218 
L 66.545518 213.938886 
L 70.173354 211.468559 
L 74.289157 210.37467 
L 78.40496 210.173215 
L 82.520763 210.899695 
L 86.636566 213.841453 
L 86.719886 213.938886 
L 89.322505 218.054689 
L 90.314866 222.170492 
L 90.492171 226.286295 
L 90.147804 230.402098 
L 89.368213 234.517902 
L 87.857928 238.633705 
L 86.636566 240.661013 
L 86.174628 242.749508 
L 85.170367 246.865311 
L 83.407909 250.981114 
L 82.520763 252.57309 
L 81.702367 255.096917 
L 79.3456 259.21272 
L 78.40496 260.440396 
L 74.289157 261.451609 
z
" style="fill:#ffffff;"/>
   </g>
   <g id="PathCollection_2">
    <path clip-path="url(#p0731c4f89d)" d="M 74.289157 261.451609 
L 78.40496 260.440396 
L 79.3456 259.21272 
L 81.702367 255.096917 
L 82.520763 252.57309 
L 83.407909 250.981114 
L 85.170367 246.865311 
L 86.174628 242.749508 
L 86.636566 240.661013 
L 87.857928 238.633705 
L 89.368213 234.517902 
L 90.147804 230.402098 
L 90.492171 226.286295 
L 90.314866 222.170492 
L 89.322505 218.054689 
L 86.719886 213.938886 
L 86.636566 213.841453 
L 82.520763 210.899695 
L 78.40496 210.173215 
L 74.289157 210.37467 
L 70.173354 211.468559 
L 66.545518 213.938886 
L 66.057551 214.314218 
L 63.003333 218.054689 
L 61.941748 221.105314 
L 61.505818 222.170492 
L 60.888732 226.286295 
L 61.522177 230.402098 
L 61.941748 231.274411 
L 62.547505 234.517902 
L 63.866811 238.633705 
L 66.057551 242.117702 
L 66.221283 242.749508 
L 67.171722 246.865311 
L 68.544366 250.981114 
L 70.173354 254.174468 
L 70.500758 255.096917 
L 72.483252 259.21272 
z
M 72.413011 255.096917 
L 70.632272 250.981114 
L 70.173354 249.702422 
L 68.748476 246.865311 
L 67.285578 242.749508 
L 66.194137 238.633705 
L 66.057551 238.026569 
L 64.418027 234.517902 
L 63.611239 230.402098 
L 63.65263 226.286295 
L 64.801563 222.170492 
L 66.057551 220.059656 
L 67.648627 218.054689 
L 70.173354 215.870916 
L 74.289157 214.409214 
L 78.40496 214.335075 
L 82.520763 215.823528 
L 84.781469 218.054689 
L 86.636566 221.275434 
L 87.043435 222.170492 
L 88.026932 226.286295 
L 88.007211 230.402098 
L 87.070211 234.517902 
L 86.636566 235.460127 
L 85.997241 238.633705 
L 84.944128 242.749508 
L 83.266915 246.865311 
L 82.520763 248.281073 
L 81.647213 250.981114 
L 79.657147 255.096917 
L 78.40496 256.903571 
L 74.289157 257.74688 
z
" style="fill:#0000b2;"/>
   </g>
   <g id="PathCollection_3">
    <path clip-path="url(#p0731c4f89d)" d="M 74.289157 257.74688 
L 78.40496 256.903571 
L 79.657147 255.096917 
L 81.647213 250.981114 
L 82.520763 248.281073 
L 83.266915 246.865311 
L 84.944128 242.749508 
L 85.997241 238.633705 
L 86.636566 235.460127 
L 87.070211 234.517902 
L 88.007211 230.402098 
L 88.026932 226.286295 
L 87.043435 222.170492 
L 86.636566 221.275434 
L 84.781469 218.054689 
L 82.520763 215.823528 
L 78.40496 214.335075 
L 74.289157 214.409214 
L 70.173354 215.870916 
L 67.648627 218.054689 
L 66.057551 220.059656 
L 64.801563 222.170492 
L 63.65263 226.286295 
L 63.611239 230.402098 
L 64.418027 234.517902 
L 66.057551 238.026569 
L 66.194137 238.633705 
L 67.285578 242.749508 
L 68.748476 246.865311 
L 70.173354 249.702422 
L 70.632272 250.981114 
L 72.413011 255.096917 
z
M 71.759033 250.981114 
L 70.252702 246.865311 
L 70.173354 246.646237 
L 68.349873 242.749508 
L 67.094682 238.633705 
L 66.174425 234.517902 
L 66.057551 233.415776 
L 65.440007 230.402098 
L 65.854257 226.286295 
L 66.057551 225.732193 
L 67.511927 222.170492 
L 70.173354 219.136694 
L 72.516528 218.054689 
L 74.289157 217.228497 
L 78.40496 217.297621 
L 79.885989 218.054689 
L 82.520763 219.601731 
L 84.426249 222.170492 
L 85.896298 226.286295 
L 86.18676 230.402098 
L 85.799843 234.517902 
L 84.991366 238.633705 
L 83.713628 242.749508 
L 82.520763 245.278911 
L 82.017919 246.865311 
L 80.478731 250.981114 
L 78.40496 254.358929 
L 74.289157 255.062596 
z
" style="fill:#0008ff;"/>
   </g>
   <g id="PathCollection_4">
    <path clip-path="url(#p0731c4f89d)" d="M 74.289157 255.062596 
L 78.40496 254.358929 
L 80.478731 250.981114 
L 82.017919 246.865311 
L 82.520763 245.278911 
L 83.713628 242.749508 
L 84.991366 238.633705 
L 85.799843 234.517902 
L 86.18676 230.402098 
L 85.896298 226.286295 
L 84.426249 222.170492 
L 82.520763 219.601731 
L 79.885989 218.054689 
L 78.40496 217.297621 
L 74.289157 217.228497 
L 72.516528 218.054689 
L 70.173354 219.136694 
L 67.511927 222.170492 
L 66.057551 225.732193 
L 65.854257 226.286295 
L 65.440007 230.402098 
L 66.057551 233.415776 
L 66.174425 234.517902 
L 67.094682 238.633705 
L 68.349873 242.749508 
L 70.173354 246.646237 
L 70.252702 246.865311 
L 71.759033 250.981114 
z
M 72.885794 250.981114 
L 71.076467 246.865311 
L 70.173354 244.371868 
L 69.414168 242.749508 
L 67.995228 238.633705 
L 67.120825 234.517902 
L 66.831623 230.402098 
L 67.523361 226.286295 
L 69.962277 222.170492 
L 70.173354 221.929883 
L 74.289157 219.576506 
L 78.40496 219.773063 
L 81.734868 222.170492 
L 82.520763 222.988556 
L 84.19848 226.286295 
L 84.936217 230.402098 
L 84.768499 234.517902 
L 83.98549 238.633705 
L 82.520763 242.664837 
L 82.498381 242.749508 
L 81.190872 246.865311 
L 79.310248 250.981114 
L 78.40496 252.455672 
L 74.289157 253.244956 
z
" style="fill:#0068ff;"/>
   </g>
   <g id="PathCollection_5">
    <path clip-path="url(#p0731c4f89d)" d="M 74.289157 253.244956 
L 78.40496 252.455672 
L 79.310248 250.981114 
L 81.190872 246.865311 
L 82.498381 242.749508 
L 82.520763 242.664837 
L 83.98549 238.633705 
L 84.768499 234.517902 
L 84.936217 230.402098 
L 84.19848 226.286295 
L 82.520763 222.988556 
L 81.734868 222.170492 
L 78.40496 219.773063 
L 74.289157 219.576506 
L 70.173354 221.929883 
L 69.962277 222.170492 
L 67.523361 226.286295 
L 66.831623 230.402098 
L 67.120825 234.517902 
L 67.995228 238.633705 
L 69.414168 242.749508 
L 70.173354 244.371868 
L 71.076467 246.865311 
L 72.885794 250.981114 
z
M 74.012554 250.981114 
L 71.900233 246.865311 
L 70.389459 242.749508 
L 70.173354 242.057623 
L 68.895774 238.633705 
L 68.067225 234.517902 
L 68.000357 230.402098 
L 69.13829 226.286295 
L 70.173354 224.589632 
L 73.534996 222.170492 
L 74.289157 221.72916 
L 78.40496 222.081299 
L 78.528846 222.170492 
L 82.49712 226.286295 
L 82.520763 226.33795 
L 83.685675 230.402098 
L 83.737156 234.517902 
L 82.979615 238.633705 
L 82.520763 239.896528 
L 81.766586 242.749508 
L 80.363825 246.865311 
L 78.40496 250.623692 
L 76.435543 250.981114 
L 74.289157 251.427317 
z
" style="fill:#00c4ff;"/>
   </g>
   <g id="PathCollection_6">
    <path clip-path="url(#p0731c4f89d)" d="M 74.289157 251.427317 
L 76.435543 250.981114 
L 78.40496 250.623692 
L 80.363825 246.865311 
L 81.766586 242.749508 
L 82.520763 239.896528 
L 82.979615 238.633705 
L 83.737156 234.517902 
L 83.685675 230.402098 
L 82.520763 226.33795 
L 82.49712 226.286295 
L 78.528846 222.170492 
L 78.40496 222.081299 
L 74.289157 221.72916 
L 73.534996 222.170492 
L 70.173354 224.589632 
L 69.13829 226.286295 
L 68.000357 230.402098 
L 68.067225 234.517902 
L 68.895774 238.633705 
L 70.173354 242.057623 
L 70.389459 242.749508 
L 71.900233 246.865311 
L 74.012554 250.981114 
z
M 72.723999 246.865311 
L 71.143288 242.749508 
L 70.173354 239.644158 
L 69.79632 238.633705 
L 69.013624 234.517902 
L 69.16909 230.402098 
L 70.173354 227.499291 
L 71.022941 226.286295 
L 74.289157 223.67458 
L 78.40496 224.138504 
L 80.500145 226.286295 
L 82.428185 230.402098 
L 82.520763 231.538968 
L 82.705813 234.517902 
L 82.520763 235.538954 
L 82.091315 238.633705 
L 81.034791 242.749508 
L 79.536778 246.865311 
L 78.40496 249.036876 
L 74.289157 249.811247 
z
" style="fill:#30ffc7;"/>
   </g>
   <g id="PathCollection_7">
    <path clip-path="url(#p0731c4f89d)" d="M 74.289157 249.811247 
L 78.40496 249.036876 
L 79.536778 246.865311 
L 81.034791 242.749508 
L 82.091315 238.633705 
L 82.520763 235.538954 
L 82.705813 234.517902 
L 82.520763 231.538968 
L 82.428185 230.402098 
L 80.500145 226.286295 
L 78.40496 224.138504 
L 74.289157 223.67458 
L 71.022941 226.286295 
L 70.173354 227.499291 
L 69.16909 230.402098 
L 69.013624 234.517902 
L 69.79632 238.633705 
L 70.173354 239.644158 
L 71.143288 242.749508 
L 72.723999 246.865311 
z
M 73.547765 246.865311 
L 71.897116 242.749508 
L 70.665239 238.633705 
L 70.173354 235.667906 
L 69.960024 234.517902 
L 70.173354 231.984005 
L 70.395616 230.402098 
L 73.38905 226.286295 
L 74.289157 225.566556 
L 78.40496 226.18562 
L 78.50317 226.286295 
L 81.076185 230.402098 
L 81.712259 234.517902 
L 81.301639 238.633705 
L 80.302995 242.749508 
L 78.709732 246.865311 
L 78.40496 247.450061 
L 74.289157 248.260758 
z
" style="fill:#7dff7a;"/>
   </g>
   <g id="PathCollection_8">
    <path clip-path="url(#p0731c4f89d)" d="M 74.289157 248.260758 
L 78.40496 247.450061 
L 78.709732 246.865311 
L 80.302995 242.749508 
L 81.301639 238.633705 
L 81.712259 234.517902 
L 81.076185 230.402098 
L 78.50317 226.286295 
L 78.40496 226.18562 
L 74.289157 225.566556 
L 73.38905 226.286295 
L 70.395616 230.402098 
L 70.173354 231.984005 
L 69.960024 234.517902 
L 70.173354 235.667906 
L 70.665239 238.633705 
L 71.897116 242.749508 
L 73.547765 246.865311 
z
M 72.650944 242.749508 
L 71.511382 238.633705 
L 71.02951 234.517902 
L 71.975028 230.402098 
L 74.289157 227.509493 
L 78.40496 228.317559 
L 79.724186 230.402098 
L 80.726968 234.517902 
L 80.511963 238.633705 
L 79.5712 242.749508 
L 78.40496 245.697259 
L 74.289157 246.68426 
z
" style="fill:#c7ff30;"/>
   </g>
   <g id="PathCollection_9">
    <path clip-path="url(#p0731c4f89d)" d="M 74.289157 246.68426 
L 78.40496 245.697259 
L 79.5712 242.749508 
L 80.511963 238.633705 
L 80.726968 234.517902 
L 79.724186 230.402098 
L 78.40496 228.317559 
L 74.289157 227.509493 
L 71.975028 230.402098 
L 71.02951 234.517902 
L 71.511382 238.633705 
L 72.650944 242.749508 
z
M 73.404773 242.749508 
L 72.357525 238.633705 
L 72.134815 234.517902 
L 73.55444 230.402098 
L 74.289157 229.48372 
L 78.201107 230.402098 
L 78.40496 230.474348 
L 79.741677 234.517902 
L 79.722287 238.633705 
L 78.839405 242.749508 
L 78.40496 243.847596 
L 74.289157 244.873672 
z
" style="fill:#ffd700;"/>
   </g>
   <g id="PathCollection_10">
    <path clip-path="url(#p0731c4f89d)" d="M 74.289157 244.873672 
L 78.40496 243.847596 
L 78.839405 242.749508 
L 79.722287 238.633705 
L 79.741677 234.517902 
L 78.40496 230.474348 
L 78.201107 230.402098 
L 74.289157 229.48372 
L 73.55444 230.402098 
L 72.134815 234.517902 
L 72.357525 238.633705 
L 73.404773 242.749508 
z
M 74.158601 242.749508 
L 73.203667 238.633705 
L 73.24012 234.517902 
L 74.289157 231.885476 
L 78.40496 233.454842 
L 78.756386 234.517902 
L 78.932611 238.633705 
L 78.40496 241.193109 
L 75.519171 242.749508 
L 74.289157 243.063085 
z
" style="fill:#ff8200;"/>
   </g>
   <g id="PathCollection_11">
    <path clip-path="url(#p0731c4f89d)" d="M 74.289157 243.063085 
L 75.519171 242.749508 
L 78.40496 241.193109 
L 78.932611 238.633705 
L 78.756386 234.517902 
L 78.40496 233.454842 
L 74.289157 231.885476 
L 73.24012 234.517902 
L 73.203667 238.633705 
L 74.158601 242.749508 
z
M 74.04981 238.633705 
L 74.289157 235.145633 
L 76.183197 238.633705 
L 74.289157 239.682868 
z
" style="fill:#ff2900;"/>
   </g>
   <g id="PathCollection_12">
    <path clip-path="url(#p0731c4f89d)" d="M 74.289157 239.682868 
L 76.183197 238.633705 
L 74.289157 235.145633 
L 74.04981 238.633705 
z
" style="fill:#b20000;"/>
   </g>
   <g id="patch_8">
    <path d="M 10.7 297.683529 
L 10.7 167.236471 
" style="fill:none;stroke:#000000;stroke-linecap:square;stroke-linejoin:miter;stroke-width:0.5;"/>
   </g>
   <g id="patch_9">
    <path d="M 141.994118 297.683529 
L 141.994118 167.236471 
" style="fill:none;stroke:#000000;stroke-linecap:square;stroke-linejoin:miter;stroke-width:0.5;"/>
   </g>
   <g id="patch_10">
    <path d="M 10.7 297.683529 
L 141.994118 297.683529 
" style="fill:none;stroke:#000000;stroke-linecap:square;stroke-linejoin:miter;stroke-width:0.5;"/>
   </g>
   <g id="patch_11">
    <path d="M 10.7 167.236471 
L 141.994118 167.236471 
" style="fill:none;stroke:#000000;stroke-linecap:square;stroke-linejoin:miter;stroke-width:0.5;"/>
   </g>
  </g>
  <g id="axes_3">
   <g id="patch_12">
    <path d="M 168.252941 297.683529 
L 299.547059 297.683529 
L 299.547059 167.236471 
L 168.252941 167.236471 
z
" style="fill:#ffffff;"/>
   </g>
   <g id="line2d_3">
    <path clip-path="url(#p309b37a4d6)" d="M 174.220856 291.753904 
L 178.336659 291.752647 
L 182.452462 291.745655 
L 186.568265 291.712642 
L 190.684068 291.578622 
L 194.799871 291.107435 
L 198.915674 289.670307 
L 203.031477 285.889467 
L 207.14728 277.439669 
L 211.263083 261.809505 
L 215.378886 238.730272 
L 219.494689 212.777392 
L 223.610492 192.267875 
L 227.726295 183.946631 
L 231.842098 188.981741 
L 235.957902 203.838342 
L 240.073705 223.460852 
L 244.189508 243.497099 
L 248.305311 261.011035 
L 252.421114 274.446976 
L 256.536917 283.415541 
L 260.65272 288.461611 
L 264.768523 290.741366 
L 268.884326 291.523825 
L 273.000129 291.717372 
L 277.115932 291.750234 
L 281.231735 291.753865 
L 285.347538 291.754108 
L 289.463341 291.754117 
L 293.579144 291.754118 
" style="fill:none;stroke:#1f77b4;stroke-linecap:square;stroke-width:1.5;"/>
   </g>
   <g id="line2d_4">
    <path clip-path="url(#p309b37a4d6)" d="M 174.220856 173.165882 
" style="fill:none;stroke:#ffffff;stroke-linecap:square;stroke-width:1.5;"/>
   </g>
   <g id="patch_13">
    <path d="M 168.252941 297.683529 
L 168.252941 167.236471 
" style="fill:none;stroke:#000000;stroke-linecap:square;stroke-linejoin:miter;stroke-width:0.5;"/>
   </g>
   <g id="patch_14">
    <path d="M 299.547059 297.683529 
L 299.547059 167.236471 
" style="fill:none;stroke:#000000;stroke-linecap:square;stroke-linejoin:miter;stroke-width:0.5;"/>
   </g>
   <g id="patch_15">
    <path d="M 168.252941 297.683529 
L 299.547059 297.683529 
" style="fill:none;stroke:#000000;stroke-linecap:square;stroke-linejoin:miter;stroke-width:0.5;"/>
   </g>
   <g id="patch_16">
    <path d="M 168.252941 167.236471 
L 299.547059 167.236471 
" style="fill:none;stroke:#000000;stroke-linecap:square;stroke-linejoin:miter;stroke-width:0.5;"/>
   </g>
  </g>
  <g id="axes_4">
   <g id="patch_17">
    <path d="M 10.7 454.22 
L 141.994118 454.22 
L 141.994118 323.772941 
L 10.7 323.772941 
z
" style="fill:#ffffff;"/>
   </g>
   <g id="PathCollection_13">
    <path clip-path="url(#p9289e00076)" d="M 20.783717 448.675615 
L 24.899521 448.675615 
L 29.015324 448.675615 
L 33.131127 448.675615 
L 37.24693 448.675615 
L 41.362733 448.675615 
L 45.478536 448.675615 
L 49.594339 448.675615 
L 53.710142 448.675615 
L 57.825945 448.675615 
L 61.941748 448.675615 
L 66.057551 448.675615 
L 70.173354 448.675615 
L 74.289157 448.675615 
L 78.40496 448.675615 
L 82.520763 448.675615 
L 86.636566 448.675615 
L 90.75237 448.675615 
L 94.868173 448.675615 
L 98.983976 448.675615 
L 103.099779 448.675615 
L 107.215582 448.675615 
L 111.331385 448.675615 
L 115.447188 448.675615 
L 119.562991 448.675615 
L 123.678794 448.675615 
L 127.794597 448.675615 
L 131.9104 448.675615 
L 136.026203 448.675615 
L 136.026203 444.559812 
L 136.026203 440.444009 
L 136.026203 436.328206 
L 136.026203 432.212403 
L 136.026203 428.0966 
L 136.026203 423.980797 
L 136.026203 419.864994 
L 136.026203 415.74919 
L 136.026203 411.633387 
L 136.026203 407.517584 
L 136.026203 403.401781 
L 136.026203 399.285978 
L 136.026203 395.170175 
L 136.026203 391.054372 
L 136.026203 386.938569 
L 136.026203 382.822766 
L 136.026203 378.706963 
L 136.026203 374.59116 
L 136.026203 370.475357 
L 136.026203 366.359554 
L 136.026203 362.243751 
L 136.026203 358.127948 
L 136.026203 354.012145 
L 136.026203 349.896342 
L 136.026203 345.780538 
L 136.026203 341.664735 
L 136.026203 337.548932 
L 136.026203 333.433129 
L 136.026203 329.317326 
L 131.9104 329.317326 
L 127.794597 329.317326 
L 123.678794 329.317326 
L 119.562991 329.317326 
L 115.447188 329.317326 
L 111.331385 329.317326 
L 107.215582 329.317326 
L 103.099779 329.317326 
L 98.983976 329.317326 
L 94.868173 329.317326 
L 90.75237 329.317326 
L 86.636566 329.317326 
L 82.520763 329.317326 
L 78.40496 329.317326 
L 74.289157 329.317326 
L 70.173354 329.317326 
L 66.057551 329.317326 
L 61.941748 329.317326 
L 57.825945 329.317326 
L 53.710142 329.317326 
L 49.594339 329.317326 
L 45.478536 329.317326 
L 41.362733 329.317326 
L 37.24693 329.317326 
L 33.131127 329.317326 
L 29.015324 329.317326 
L 24.899521 329.317326 
L 20.783717 329.317326 
L 16.667914 329.317326 
L 16.667914 333.433129 
L 16.667914 337.548932 
L 16.667914 341.664735 
L 16.667914 345.780538 
L 16.667914 349.896342 
L 16.667914 354.012145 
L 16.667914 358.127948 
L 16.667914 362.243751 
L 16.667914 366.359554 
L 16.667914 370.475357 
L 16.667914 374.59116 
L 16.667914 378.706963 
L 16.667914 382.822766 
L 16.667914 386.938569 
L 16.667914 391.054372 
L 16.667914 395.170175 
L 16.667914 399.285978 
L 16.667914 403.401781 
L 16.667914 407.517584 
L 16.667914 411.633387 
L 16.667914 415.74919 
L 16.667914 419.864994 
L 16.667914 423.980797 
L 16.667914 428.0966 
L 16.667914 432.212403 
L 16.667914 436.328206 
L 16.667914 440.444009 
L 16.667914 444.559812 
L 16.667914 448.675615 
z
M 57.394903 407.517584 
L 55.314091 403.401781 
L 55.80115 399.285978 
L 57.825945 395.651511 
L 57.965357 395.170175 
L 60.067599 391.054372 
L 61.941748 388.952228 
L 63.461725 386.938569 
L 66.057551 384.310935 
L 67.648795 382.822766 
L 70.173354 380.428923 
L 72.554385 378.706963 
L 74.289157 377.135909 
L 78.40496 374.68461 
L 78.63016 374.59116 
L 82.520763 371.962248 
L 86.636566 370.723347 
L 89.611868 370.475357 
L 90.75237 370.278772 
L 91.210767 370.475357 
L 94.784705 374.59116 
L 94.408824 378.706963 
L 93.254685 382.822766 
L 90.75237 386.733754 
L 90.674441 386.938569 
L 88.564284 391.054372 
L 86.636566 393.293182 
L 85.351396 395.170175 
L 82.520763 398.175259 
L 81.423463 399.285978 
L 78.40496 402.159385 
L 76.511829 403.401781 
L 74.289157 405.276753 
L 70.173354 407.201319 
L 68.944661 407.517584 
L 66.057551 409.096125 
L 61.941748 409.590425 
L 57.825945 407.893568 
z
" style="fill:#ffffff;"/>
   </g>
   <g id="PathCollection_14">
    <path clip-path="url(#p9289e00076)" d="M 57.825945 407.893568 
L 61.941748 409.590425 
L 66.057551 409.096125 
L 68.944661 407.517584 
L 70.173354 407.201319 
L 74.289157 405.276753 
L 76.511829 403.401781 
L 78.40496 402.159385 
L 81.423463 399.285978 
L 82.520763 398.175259 
L 85.351396 395.170175 
L 86.636566 393.293182 
L 88.564284 391.054372 
L 90.674441 386.938569 
L 90.75237 386.733754 
L 93.254685 382.822766 
L 94.408824 378.706963 
L 94.784705 374.59116 
L 91.210767 370.475357 
L 90.75237 370.278772 
L 89.611868 370.475357 
L 86.636566 370.723347 
L 82.520763 371.962248 
L 78.63016 374.59116 
L 78.40496 374.68461 
L 74.289157 377.135909 
L 72.554385 378.706963 
L 70.173354 380.428923 
L 67.648795 382.822766 
L 66.057551 384.310935 
L 63.461725 386.938569 
L 61.941748 388.952228 
L 60.067599 391.054372 
L 57.965357 395.170175 
L 57.825945 395.651511 
L 55.80115 399.285978 
L 55.314091 403.401781 
L 57.394903 407.517584 
z
M 58.475351 403.401781 
L 58.428361 399.285978 
L 59.716302 395.170175 
L 61.941748 392.102171 
L 62.506141 391.054372 
L 66.057551 387.047413 
L 66.154024 386.938569 
L 70.173354 383.035078 
L 70.4494 382.822766 
L 74.289157 379.50671 
L 75.714137 378.706963 
L 78.40496 376.63242 
L 82.520763 374.893453 
L 84.161637 374.59116 
L 86.636566 373.797621 
L 89.296183 374.59116 
L 90.75237 375.944213 
L 91.571216 378.706963 
L 90.75237 381.536475 
L 90.5365 382.822766 
L 88.961691 386.938569 
L 86.636566 390.159343 
L 86.162115 391.054372 
L 82.889886 395.170175 
L 82.520763 395.562047 
L 78.841823 399.285978 
L 78.40496 399.701842 
L 74.289157 402.92958 
L 73.327797 403.401781 
L 70.173354 405.573182 
L 66.057551 406.756368 
L 61.941748 406.671509 
z
" style="fill:#0000b2;"/>
   </g>
   <g id="PathCollection_15">
    <path clip-path="url(#p9289e00076)" d="M 61.941748 406.671509 
L 66.057551 406.756368 
L 70.173354 405.573182 
L 73.327797 403.401781 
L 74.289157 402.92958 
L 78.40496 399.701842 
L 78.841823 399.285978 
L 82.520763 395.562047 
L 82.889886 395.170175 
L 86.162115 391.054372 
L 86.636566 390.159343 
L 88.961691 386.938569 
L 90.5365 382.822766 
L 90.75237 381.536475 
L 91.571216 378.706963 
L 90.75237 375.944213 
L 89.296183 374.59116 
L 86.636566 373.797621 
L 84.161637 374.59116 
L 82.520763 374.893453 
L 78.40496 376.63242 
L 75.714137 378.706963 
L 74.289157 379.50671 
L 70.4494 382.822766 
L 70.173354 383.035078 
L 66.154024 386.938569 
L 66.057551 387.047413 
L 62.506141 391.054372 
L 61.941748 392.102171 
L 59.716302 395.170175 
L 58.428361 399.285978 
L 58.475351 403.401781 
z
M 60.776248 403.401781 
L 59.938937 399.285978 
L 61.467248 395.170175 
L 61.941748 394.516028 
L 63.806354 391.054372 
L 66.057551 388.514408 
L 67.454279 386.938569 
L 70.173354 384.297859 
L 72.091256 382.822766 
L 74.289157 380.924634 
L 78.240579 378.706963 
L 78.40496 378.58023 
L 82.520763 376.659859 
L 86.636566 376.591394 
L 88.79519 378.706963 
L 88.890938 382.822766 
L 87.248942 386.938569 
L 86.636566 387.786834 
L 84.904458 391.054372 
L 82.520763 393.895817 
L 81.539794 395.170175 
L 78.40496 398.32203 
L 77.252535 399.285978 
L 74.289157 401.767826 
L 70.962566 403.401781 
L 70.173354 403.945045 
L 66.057551 405.355951 
L 61.941748 404.501156 
z
" style="fill:#0008ff;"/>
   </g>
   <g id="PathCollection_16">
    <path clip-path="url(#p9289e00076)" d="M 61.941748 404.501156 
L 66.057551 405.355951 
L 70.173354 403.945045 
L 70.962566 403.401781 
L 74.289157 401.767826 
L 77.252535 399.285978 
L 78.40496 398.32203 
L 81.539794 395.170175 
L 82.520763 393.895817 
L 84.904458 391.054372 
L 86.636566 387.786834 
L 87.248942 386.938569 
L 88.890938 382.822766 
L 88.79519 378.706963 
L 86.636566 376.591394 
L 82.520763 376.659859 
L 78.40496 378.58023 
L 78.240579 378.706963 
L 74.289157 380.924634 
L 72.091256 382.822766 
L 70.173354 384.297859 
L 67.454279 386.938569 
L 66.057551 388.514408 
L 63.806354 391.054372 
L 61.941748 394.516028 
L 61.467248 395.170175 
L 59.938937 399.285978 
L 60.776248 403.401781 
z
M 64.226627 403.401781 
L 61.941748 400.922916 
L 61.449513 399.285978 
L 61.941748 398.01456 
L 62.664756 395.170175 
L 65.106567 391.054372 
L 66.057551 389.981403 
L 68.754535 386.938569 
L 70.173354 385.560641 
L 73.733111 382.822766 
L 74.289157 382.342559 
L 78.40496 379.826625 
L 81.922836 378.706963 
L 82.520763 378.426264 
L 84.268346 378.706963 
L 86.636566 380.221216 
L 87.245377 382.822766 
L 86.636566 384.326797 
L 85.899676 386.938569 
L 83.646801 391.054372 
L 82.520763 392.396647 
L 80.385769 395.170175 
L 78.40496 397.161739 
L 75.865376 399.285978 
L 74.289157 400.606071 
L 70.173354 402.787506 
L 67.590372 403.401781 
L 66.057551 403.955533 
z
" style="fill:#0068ff;"/>
   </g>
   <g id="PathCollection_17">
    <path clip-path="url(#p9289e00076)" d="M 66.057551 403.955533 
L 67.590372 403.401781 
L 70.173354 402.787506 
L 74.289157 400.606071 
L 75.865376 399.285978 
L 78.40496 397.161739 
L 80.385769 395.170175 
L 82.520763 392.396647 
L 83.646801 391.054372 
L 85.899676 386.938569 
L 86.636566 384.326797 
L 87.245377 382.822766 
L 86.636566 380.221216 
L 84.268346 378.706963 
L 82.520763 378.426264 
L 81.922836 378.706963 
L 78.40496 379.826625 
L 74.289157 382.342559 
L 73.733111 382.822766 
L 70.173354 385.560641 
L 68.754535 386.938569 
L 66.057551 389.981403 
L 65.106567 391.054372 
L 62.664756 395.170175 
L 61.941748 398.01456 
L 61.449513 399.285978 
L 61.941748 400.922916 
L 64.226627 403.401781 
z
M 62.845377 399.285978 
L 63.656532 395.170175 
L 66.057551 391.465404 
L 66.310105 391.054372 
L 70.05479 386.938569 
L 70.173354 386.823422 
L 74.289157 383.470003 
L 75.547461 382.822766 
L 78.40496 381.024207 
L 82.520763 380.193787 
L 85.411819 382.822766 
L 84.752694 386.938569 
L 82.520763 390.844315 
L 82.419668 391.054372 
L 79.231744 395.170175 
L 78.40496 396.001448 
L 74.478217 399.285978 
L 74.289157 399.444317 
L 70.173354 401.865625 
L 66.057551 402.572608 
z
" style="fill:#00c4ff;"/>
   </g>
   <g id="PathCollection_18">
    <path clip-path="url(#p9289e00076)" d="M 66.057551 402.572608 
L 70.173354 401.865625 
L 74.289157 399.444317 
L 74.478217 399.285978 
L 78.40496 396.001448 
L 79.231744 395.170175 
L 82.419668 391.054372 
L 82.520763 390.844315 
L 84.752694 386.938569 
L 85.411819 382.822766 
L 82.520763 380.193787 
L 78.40496 381.024207 
L 75.547461 382.822766 
L 74.289157 383.470003 
L 70.173354 386.823422 
L 70.05479 386.938569 
L 66.310105 391.054372 
L 66.057551 391.465404 
L 63.656532 395.170175 
L 62.845377 399.285978 
z
M 64.185793 399.285978 
L 64.648308 395.170175 
L 66.057551 392.995714 
L 67.250386 391.054372 
L 70.173354 387.869639 
L 71.256643 386.938569 
L 74.289157 384.448691 
L 77.450145 382.822766 
L 78.40496 382.221789 
L 82.520763 381.961521 
L 83.467864 382.822766 
L 83.605711 386.938569 
L 82.520763 388.837164 
L 81.453674 391.054372 
L 78.40496 394.830863 
L 78.112468 395.170175 
L 74.289157 398.508168 
L 72.953725 399.285978 
L 70.173354 400.943743 
L 66.057551 401.201122 
z
" style="fill:#30ffc7;"/>
   </g>
   <g id="PathCollection_19">
    <path clip-path="url(#p9289e00076)" d="M 66.057551 401.201122 
L 70.173354 400.943743 
L 72.953725 399.285978 
L 74.289157 398.508168 
L 78.112468 395.170175 
L 78.40496 394.830863 
L 81.453674 391.054372 
L 82.520763 388.837164 
L 83.605711 386.938569 
L 83.467864 382.822766 
L 82.520763 381.961521 
L 78.40496 382.221789 
L 77.450145 382.822766 
L 74.289157 384.448691 
L 71.256643 386.938569 
L 70.173354 387.869639 
L 67.250386 391.054372 
L 66.057551 392.995714 
L 64.648308 395.170175 
L 64.185793 399.285978 
z
M 65.526209 399.285978 
L 65.640084 395.170175 
L 66.057551 394.526024 
L 68.190667 391.054372 
L 70.173354 388.894126 
L 72.448623 386.938569 
L 74.289157 385.427379 
L 78.40496 383.531385 
L 82.429884 386.938569 
L 80.48768 391.054372 
L 78.40496 393.63427 
L 77.080987 395.170175 
L 74.289157 397.60762 
L 71.407563 399.285978 
L 70.173354 400.021861 
L 66.057551 399.829636 
z
" style="fill:#7dff7a;"/>
   </g>
   <g id="PathCollection_20">
    <path clip-path="url(#p9289e00076)" d="M 66.057551 399.829636 
L 70.173354 400.021861 
L 71.407563 399.285978 
L 74.289157 397.60762 
L 77.080987 395.170175 
L 78.40496 393.63427 
L 80.48768 391.054372 
L 82.429884 386.938569 
L 78.40496 383.531385 
L 74.289157 385.427379 
L 72.448623 386.938569 
L 70.173354 388.894126 
L 68.190667 391.054372 
L 66.057551 394.526024 
L 65.640084 395.170175 
L 65.526209 399.285978 
z
M 66.795113 395.170175 
L 69.130948 391.054372 
L 70.173354 389.918614 
L 73.640603 386.938569 
L 74.289157 386.406066 
L 78.40496 384.953815 
L 80.74956 386.938569 
L 79.521686 391.054372 
L 78.40496 392.437678 
L 76.049506 395.170175 
L 74.289157 396.707071 
L 70.173354 398.995025 
z
" style="fill:#c7ff30;"/>
   </g>
   <g id="PathCollection_21">
    <path clip-path="url(#p9289e00076)" d="M 70.173354 398.995025 
L 74.289157 396.707071 
L 76.049506 395.170175 
L 78.40496 392.437678 
L 79.521686 391.054372 
L 80.74956 386.938569 
L 78.40496 384.953815 
L 74.289157 386.406066 
L 73.640603 386.938569 
L 70.173354 389.918614 
L 69.130948 391.054372 
L 66.795113 395.170175 
z
M 68.068811 395.170175 
L 70.071229 391.054372 
L 70.173354 390.943101 
L 74.289157 387.62789 
L 76.493506 386.938569 
L 78.40496 386.376246 
L 79.069235 386.938569 
L 78.555692 391.054372 
L 78.40496 391.241085 
L 75.018025 395.170175 
L 74.289157 395.806523 
L 70.173354 397.552942 
z
" style="fill:#ffd700;"/>
   </g>
   <g id="PathCollection_22">
    <path clip-path="url(#p9289e00076)" d="M 70.173354 397.552942 
L 74.289157 395.806523 
L 75.018025 395.170175 
L 78.40496 391.241085 
L 78.555692 391.054372 
L 79.069235 386.938569 
L 78.40496 386.376246 
L 76.493506 386.938569 
L 74.289157 387.62789 
L 70.173354 390.943101 
L 70.071229 391.054372 
L 68.068811 395.170175 
z
M 69.342508 395.170175 
L 70.173354 393.430989 
L 71.873763 391.054372 
L 74.289157 389.139885 
L 76.758838 391.054372 
L 74.289157 394.395938 
L 73.012327 395.170175 
L 70.173354 396.11086 
z
" style="fill:#ff8200;"/>
   </g>
   <g id="PathCollection_23">
    <path clip-path="url(#p9289e00076)" d="M 70.173354 396.11086 
L 73.012327 395.170175 
L 74.289157 394.395938 
L 76.758838 391.054372 
L 74.289157 389.139885 
L 71.873763 391.054372 
L 70.173354 393.430989 
L 69.342508 395.170175 
z
M 73.781358 391.054372 
L 74.289157 390.651881 
L 74.80837 391.054372 
L 74.289157 391.756885 
z
" style="fill:#ff2900;"/>
   </g>
   <g id="PathCollection_24">
    <path clip-path="url(#p9289e00076)" d="M 74.289157 391.756885 
L 74.80837 391.054372 
L 74.289157 390.651881 
L 73.781358 391.054372 
z
" style="fill:#b20000;"/>
   </g>
   <g id="patch_18">
    <path d="M 10.7 454.22 
L 10.7 323.772941 
" style="fill:none;stroke:#000000;stroke-linecap:square;stroke-linejoin:miter;stroke-width:0.5;"/>
   </g>
   <g id="patch_19">
    <path d="M 141.994118 454.22 
L 141.994118 323.772941 
" style="fill:none;stroke:#000000;stroke-linecap:square;stroke-linejoin:miter;stroke-width:0.5;"/>
   </g>
   <g id="patch_20">
    <path d="M 10.7 454.22 
L 141.994118 454.22 
" style="fill:none;stroke:#000000;stroke-linecap:square;stroke-linejoin:miter;stroke-width:0.5;"/>
   </g>
   <g id="patch_21">
    <path d="M 10.7 323.772941 
L 141.994118 323.772941 
" style="fill:none;stroke:#000000;stroke-linecap:square;stroke-linejoin:miter;stroke-width:0.5;"/>
   </g>
  </g>
  <g id="axes_5">
   <g id="patch_22">
    <path d="M 168.252941 454.22 
L 299.547059 454.22 
L 299.547059 323.772941 
L 168.252941 323.772941 
z
" style="fill:#ffffff;"/>
   </g>
   <g id="PathCollection_25">
    <path clip-path="url(#p6b48c57987)" d="M 178.336659 448.675615 
L 182.452462 448.675615 
L 186.568265 448.675615 
L 190.684068 448.675615 
L 194.799871 448.675615 
L 198.915674 448.675615 
L 203.031477 448.675615 
L 207.14728 448.675615 
L 211.263083 448.675615 
L 215.378886 448.675615 
L 219.494689 448.675615 
L 223.610492 448.675615 
L 227.726295 448.675615 
L 231.842098 448.675615 
L 235.957902 448.675615 
L 240.073705 448.675615 
L 244.189508 448.675615 
L 248.305311 448.675615 
L 252.421114 448.675615 
L 256.536917 448.675615 
L 260.65272 448.675615 
L 264.768523 448.675615 
L 268.884326 448.675615 
L 273.000129 448.675615 
L 277.115932 448.675615 
L 281.231735 448.675615 
L 285.347538 448.675615 
L 289.463341 448.675615 
L 293.579144 448.675615 
L 293.579144 444.559812 
L 293.579144 440.444009 
L 293.579144 436.328206 
L 293.579144 432.212403 
L 293.579144 428.0966 
L 293.579144 423.980797 
L 293.579144 419.864994 
L 293.579144 415.74919 
L 293.579144 411.633387 
L 293.579144 407.517584 
L 293.579144 403.401781 
L 293.579144 399.285978 
L 293.579144 395.170175 
L 293.579144 391.054372 
L 293.579144 386.938569 
L 293.579144 382.822766 
L 293.579144 378.706963 
L 293.579144 374.59116 
L 293.579144 370.475357 
L 293.579144 366.359554 
L 293.579144 362.243751 
L 293.579144 358.127948 
L 293.579144 354.012145 
L 293.579144 349.896342 
L 293.579144 345.780538 
L 293.579144 341.664735 
L 293.579144 337.548932 
L 293.579144 333.433129 
L 293.579144 329.317326 
L 289.463341 329.317326 
L 285.347538 329.317326 
L 281.231735 329.317326 
L 277.115932 329.317326 
L 273.000129 329.317326 
L 268.884326 329.317326 
L 264.768523 329.317326 
L 260.65272 329.317326 
L 256.536917 329.317326 
L 252.421114 329.317326 
L 248.305311 329.317326 
L 244.189508 329.317326 
L 240.073705 329.317326 
L 235.957902 329.317326 
L 231.842098 329.317326 
L 227.726295 329.317326 
L 223.610492 329.317326 
L 219.494689 329.317326 
L 215.378886 329.317326 
L 211.263083 329.317326 
L 207.14728 329.317326 
L 203.031477 329.317326 
L 198.915674 329.317326 
L 194.799871 329.317326 
L 190.684068 329.317326 
L 186.568265 329.317326 
L 182.452462 329.317326 
L 178.336659 329.317326 
L 174.220856 329.317326 
L 174.220856 333.433129 
L 174.220856 337.548932 
L 174.220856 341.664735 
L 174.220856 345.780538 
L 174.220856 349.896342 
L 174.220856 354.012145 
L 174.220856 358.127948 
L 174.220856 362.243751 
L 174.220856 366.359554 
L 174.220856 370.475357 
L 174.220856 374.59116 
L 174.220856 378.706963 
L 174.220856 382.822766 
L 174.220856 386.938569 
L 174.220856 391.054372 
L 174.220856 395.170175 
L 174.220856 399.285978 
L 174.220856 403.401781 
L 174.220856 407.517584 
L 174.220856 411.633387 
L 174.220856 415.74919 
L 174.220856 419.864994 
L 174.220856 423.980797 
L 174.220856 428.0966 
L 174.220856 432.212403 
L 174.220856 436.328206 
L 174.220856 440.444009 
L 174.220856 444.559812 
L 174.220856 448.675615 
z
M 234.427749 403.401781 
L 231.842098 402.800271 
L 227.726295 401.369507 
L 224.449863 399.285978 
L 223.610492 399.080873 
L 219.494689 398.219317 
L 215.378886 396.925501 
L 211.990329 395.170175 
L 211.263083 394.896573 
L 207.14728 392.748711 
L 205.137413 391.054372 
L 205.405863 386.938569 
L 207.14728 385.44282 
L 211.263083 383.233965 
L 212.542081 382.822766 
L 215.378886 381.489622 
L 219.494689 380.139093 
L 223.610492 379.218824 
L 226.027779 378.706963 
L 227.726295 377.723499 
L 231.842098 376.124994 
L 235.957902 375.360205 
L 240.073705 375.311471 
L 244.189508 376.37285 
L 247.593846 378.706963 
L 248.305311 379.194729 
L 252.052262 382.822766 
L 252.421114 383.328654 
L 255.253925 386.938569 
L 256.536917 390.345297 
L 256.923002 391.054372 
L 257.110609 395.170175 
L 256.536917 396.133699 
L 254.755657 399.285978 
L 252.421114 401.214217 
L 248.391248 403.401781 
L 248.305311 403.451464 
L 244.189508 405.056922 
L 240.073705 405.289847 
L 235.957902 404.286341 
z
" style="fill:#ffffff;"/>
   </g>
   <g id="PathCollection_26">
    <path clip-path="url(#p6b48c57987)" d="M 235.957902 404.286341 
L 240.073705 405.289847 
L 244.189508 405.056922 
L 248.305311 403.451464 
L 248.391248 403.401781 
L 252.421114 401.214217 
L 254.755657 399.285978 
L 256.536917 396.133699 
L 257.110609 395.170175 
L 256.923002 391.054372 
L 256.536917 390.345297 
L 255.253925 386.938569 
L 252.421114 383.328654 
L 252.052262 382.822766 
L 248.305311 379.194729 
L 247.593846 378.706963 
L 244.189508 376.37285 
L 240.073705 375.311471 
L 235.957902 375.360205 
L 231.842098 376.124994 
L 227.726295 377.723499 
L 226.027779 378.706963 
L 223.610492 379.218824 
L 219.494689 380.139093 
L 215.378886 381.489622 
L 212.542081 382.822766 
L 211.263083 383.233965 
L 207.14728 385.44282 
L 205.405863 386.938569 
L 205.137413 391.054372 
L 207.14728 392.748711 
L 211.263083 394.896573 
L 211.990329 395.170175 
L 215.378886 396.925501 
L 219.494689 398.219317 
L 223.610492 399.080873 
L 224.449863 399.285978 
L 227.726295 401.369507 
L 231.842098 402.800271 
L 234.427749 403.401781 
z
M 228.370928 399.285978 
L 227.726295 399.126651 
L 223.610492 398.087033 
L 219.494689 396.70867 
L 216.411979 395.170175 
L 215.378886 394.793073 
L 211.263083 392.961193 
L 208.690241 391.054372 
L 209.168363 386.938569 
L 211.263083 385.411215 
L 215.378886 383.543565 
L 217.899046 382.822766 
L 219.494689 382.100944 
L 223.610492 380.577628 
L 227.726295 379.534493 
L 231.842098 378.727091 
L 232.043164 378.706963 
L 235.957902 377.849012 
L 240.073705 378.27431 
L 241.086997 378.706963 
L 244.189508 379.889021 
L 247.842629 382.822766 
L 248.305311 383.348843 
L 251.217689 386.938569 
L 252.421114 390.324441 
L 252.762975 391.054372 
L 252.421114 394.596734 
L 252.376515 395.170175 
L 249.093485 399.285978 
L 248.305311 399.847764 
L 244.189508 401.883345 
L 240.073705 402.487224 
L 235.957902 402.15002 
L 231.842098 401.083393 
z
" style="fill:#0000b2;"/>
   </g>
   <g id="PathCollection_27">
    <path clip-path="url(#p6b48c57987)" d="M 231.842098 401.083393 
L 235.957902 402.15002 
L 240.073705 402.487224 
L 244.189508 401.883345 
L 248.305311 399.847764 
L 249.093485 399.285978 
L 252.376515 395.170175 
L 252.421114 394.596734 
L 252.762975 391.054372 
L 252.421114 390.324441 
L 251.217689 386.938569 
L 248.305311 383.348843 
L 247.842629 382.822766 
L 244.189508 379.889021 
L 241.086997 378.706963 
L 240.073705 378.27431 
L 235.957902 377.849012 
L 232.043164 378.706963 
L 231.842098 378.727091 
L 227.726295 379.534493 
L 223.610492 380.577628 
L 219.494689 382.100944 
L 217.899046 382.822766 
L 215.378886 383.543565 
L 211.263083 385.411215 
L 209.168363 386.938569 
L 208.690241 391.054372 
L 211.263083 392.961193 
L 215.378886 394.793073 
L 216.411979 395.170175 
L 219.494689 396.70867 
L 223.610492 398.087033 
L 227.726295 399.126651 
L 228.370928 399.285978 
z
M 231.686566 399.285978 
L 227.726295 398.30716 
L 223.610492 397.093193 
L 219.494689 395.198023 
L 219.43889 395.170175 
L 215.378886 393.688181 
L 211.288405 391.054372 
L 211.866629 386.938569 
L 215.378886 384.783953 
L 219.494689 383.370402 
L 221.520197 382.822766 
L 223.610492 381.936433 
L 227.726295 380.659909 
L 231.842098 379.863934 
L 235.957902 379.594953 
L 240.073705 380.255914 
L 244.189508 382.532822 
L 244.550548 382.822766 
L 248.210594 386.938569 
L 248.305311 387.206933 
L 249.915328 391.054372 
L 249.151582 395.170175 
L 248.305311 396.147032 
L 244.475596 399.285978 
L 244.189508 399.439893 
L 240.073705 400.657703 
L 235.957902 400.570843 
L 231.842098 399.366515 
z
" style="fill:#0008ff;"/>
   </g>
   <g id="PathCollection_28">
    <path clip-path="url(#p6b48c57987)" d="M 231.842098 399.366515 
L 235.957902 400.570843 
L 240.073705 400.657703 
L 244.189508 399.439893 
L 244.475596 399.285978 
L 248.305311 396.147032 
L 249.151582 395.170175 
L 249.915328 391.054372 
L 248.305311 387.206933 
L 248.210594 386.938569 
L 244.550548 382.822766 
L 244.189508 382.532822 
L 240.073705 380.255914 
L 235.957902 379.594953 
L 231.842098 379.863934 
L 227.726295 380.659909 
L 223.610492 381.936433 
L 221.520197 382.822766 
L 219.494689 383.370402 
L 215.378886 384.783953 
L 211.866629 386.938569 
L 211.288405 391.054372 
L 215.378886 393.688181 
L 219.43889 395.170175 
L 219.494689 395.198023 
L 223.610492 397.093193 
L 227.726295 398.30716 
L 231.686566 399.285978 
z
M 221.60266 395.170175 
L 219.494689 394.392192 
L 215.378886 392.583289 
L 213.004376 391.054372 
L 213.888597 386.938569 
L 215.378886 386.024342 
L 219.494689 384.236817 
L 223.610492 383.081753 
L 224.73776 382.822766 
L 227.726295 381.785325 
L 231.842098 381.000777 
L 235.957902 380.950091 
L 240.073705 382.069731 
L 241.382587 382.822766 
L 244.189508 385.070292 
L 245.899752 386.938569 
L 247.426911 391.054372 
L 246.359227 395.170175 
L 244.189508 397.093955 
L 240.073705 398.899354 
L 235.957902 399.083158 
L 231.842098 398.466496 
L 227.726295 397.487668 
L 223.610492 396.099353 
z
" style="fill:#0068ff;"/>
   </g>
   <g id="PathCollection_29">
    <path clip-path="url(#p6b48c57987)" d="M 223.610492 396.099353 
L 227.726295 397.487668 
L 231.842098 398.466496 
L 235.957902 399.083158 
L 240.073705 398.899354 
L 244.189508 397.093955 
L 246.359227 395.170175 
L 247.426911 391.054372 
L 245.899752 386.938569 
L 244.189508 385.070292 
L 241.382587 382.822766 
L 240.073705 382.069731 
L 235.957902 380.950091 
L 231.842098 381.000777 
L 227.726295 381.785325 
L 224.73776 382.822766 
L 223.610492 383.081753 
L 219.494689 384.236817 
L 215.378886 386.024342 
L 213.888597 386.938569 
L 213.004376 391.054372 
L 215.378886 392.583289 
L 219.494689 394.392192 
L 221.60266 395.170175 
z
M 223.751953 395.170175 
L 223.610492 395.122909 
L 219.494689 393.599598 
L 215.378886 391.478397 
L 214.720347 391.054372 
L 215.378886 388.612017 
L 215.833374 386.938569 
L 219.494689 385.103232 
L 223.610492 383.826586 
L 227.726295 382.883435 
L 228.198853 382.822766 
L 231.842098 382.13762 
L 235.957902 382.305229 
L 237.583832 382.822766 
L 240.073705 383.851642 
L 243.65852 386.938569 
L 244.189508 388.310487 
L 245.296786 391.054372 
L 244.189508 394.121829 
L 243.729991 395.170175 
L 240.073705 397.354264 
L 235.957902 397.994895 
L 231.842098 397.60668 
L 227.726295 396.668177 
z
" style="fill:#00c4ff;"/>
   </g>
   <g id="PathCollection_30">
    <path clip-path="url(#p6b48c57987)" d="M 227.726295 396.668177 
L 231.842098 397.60668 
L 235.957902 397.994895 
L 240.073705 397.354264 
L 243.729991 395.170175 
L 244.189508 394.121829 
L 245.296786 391.054372 
L 244.189508 388.310487 
L 243.65852 386.938569 
L 240.073705 383.851642 
L 237.583832 382.822766 
L 235.957902 382.305229 
L 231.842098 382.13762 
L 228.198853 382.822766 
L 227.726295 382.883435 
L 223.610492 383.826586 
L 219.494689 385.103232 
L 215.833374 386.938569 
L 215.378886 388.612017 
L 214.720347 391.054372 
L 215.378886 391.478397 
L 219.494689 393.599598 
L 223.610492 395.122909 
L 223.751953 395.170175 
z
M 225.926143 395.170175 
L 223.610492 394.396437 
L 219.494689 392.807004 
L 216.275893 391.054372 
L 217.561786 386.938569 
L 219.494689 385.969647 
L 223.610492 384.57142 
L 227.726295 383.659534 
L 231.842098 383.196633 
L 235.957902 383.599141 
L 240.073705 385.610903 
L 241.615509 386.938569 
L 243.286478 391.054372 
L 241.143425 395.170175 
L 240.073705 395.809174 
L 235.957902 396.906633 
L 231.842098 396.746864 
L 227.726295 395.848685 
z
" style="fill:#30ffc7;"/>
   </g>
   <g id="PathCollection_31">
    <path clip-path="url(#p6b48c57987)" d="M 227.726295 395.848685 
L 231.842098 396.746864 
L 235.957902 396.906633 
L 240.073705 395.809174 
L 241.143425 395.170175 
L 243.286478 391.054372 
L 241.615509 386.938569 
L 240.073705 385.610903 
L 235.957902 383.599141 
L 231.842098 383.196633 
L 227.726295 383.659534 
L 223.610492 384.57142 
L 219.494689 385.969647 
L 217.561786 386.938569 
L 216.275893 391.054372 
L 219.494689 392.807004 
L 223.610492 394.396437 
L 225.926143 395.170175 
z
M 228.430286 395.170175 
L 227.726295 395.025588 
L 223.610492 393.669965 
L 219.494689 392.01441 
L 217.731532 391.054372 
L 219.290199 386.938569 
L 219.494689 386.836062 
L 223.610492 385.316253 
L 227.726295 384.435634 
L 231.842098 384.13759 
L 235.957902 384.855221 
L 239.543372 386.938569 
L 240.073705 387.997305 
L 241.405877 391.054372 
L 240.073705 393.306084 
L 238.031805 395.170175 
L 235.957902 395.81837 
L 231.842098 395.887049 
z
" style="fill:#7dff7a;"/>
   </g>
   <g id="PathCollection_32">
    <path clip-path="url(#p6b48c57987)" d="M 231.842098 395.887049 
L 235.957902 395.81837 
L 238.031805 395.170175 
L 240.073705 393.306084 
L 241.405877 391.054372 
L 240.073705 387.997305 
L 239.543372 386.938569 
L 235.957902 384.855221 
L 231.842098 384.13759 
L 227.726295 384.435634 
L 223.610492 385.316253 
L 219.494689 386.836062 
L 219.290199 386.938569 
L 217.731532 391.054372 
L 219.494689 392.01441 
L 223.610492 393.669965 
L 227.726295 395.025588 
L 228.430286 395.170175 
z
M 219.18717 391.054372 
L 219.494689 390.258811 
L 221.256458 386.938569 
L 223.610492 386.061087 
L 227.726295 385.211733 
L 231.842098 385.078548 
L 235.957902 386.111302 
L 237.381639 386.938569 
L 239.504792 391.054372 
L 235.957902 394.421322 
L 231.842098 394.97544 
L 227.726295 394.185141 
L 223.610492 392.943494 
L 219.494689 391.221816 
z
" style="fill:#c7ff30;"/>
   </g>
   <g id="PathCollection_33">
    <path clip-path="url(#p6b48c57987)" d="M 219.494689 391.221816 
L 223.610492 392.943494 
L 227.726295 394.185141 
L 231.842098 394.97544 
L 235.957902 394.421322 
L 239.504792 391.054372 
L 237.381639 386.938569 
L 235.957902 386.111302 
L 231.842098 385.078548 
L 227.726295 385.211733 
L 223.610492 386.061087 
L 221.256458 386.938569 
L 219.494689 390.258811 
L 219.18717 391.054372 
z
M 220.853457 391.054372 
L 223.254633 386.938569 
L 223.610492 386.80592 
L 227.726295 385.987833 
L 231.842098 386.019505 
L 234.891919 386.938569 
L 235.957902 388.150357 
L 237.553949 391.054372 
L 235.957902 392.569449 
L 231.842098 393.804081 
L 227.726295 393.344693 
L 223.610492 392.217022 
z
" style="fill:#ffd700;"/>
   </g>
   <g id="PathCollection_34">
    <path clip-path="url(#p6b48c57987)" d="M 223.610492 392.217022 
L 227.726295 393.344693 
L 231.842098 393.804081 
L 235.957902 392.569449 
L 237.553949 391.054372 
L 235.957902 388.150357 
L 234.891919 386.938569 
L 231.842098 386.019505 
L 227.726295 385.987833 
L 223.610492 386.80592 
L 223.254633 386.938569 
L 220.853457 391.054372 
z
M 222.576166 391.054372 
L 223.610492 389.316952 
L 226.841676 386.938569 
L 227.726295 386.763933 
L 231.456398 386.938569 
L 231.842098 387.008433 
L 235.468446 391.054372 
L 231.842098 392.632721 
L 227.726295 392.504245 
L 223.610492 391.490551 
z
" style="fill:#ff8200;"/>
   </g>
   <g id="PathCollection_35">
    <path clip-path="url(#p6b48c57987)" d="M 223.610492 391.490551 
L 227.726295 392.504245 
L 231.842098 392.632721 
L 235.468446 391.054372 
L 231.842098 387.008433 
L 231.456398 386.938569 
L 227.726295 386.763933 
L 226.841676 386.938569 
L 223.610492 389.316952 
L 222.576166 391.054372 
z
M 225.072772 391.054372 
L 227.726295 389.064873 
L 231.842098 390.011094 
L 232.777181 391.054372 
L 231.842098 391.461362 
L 227.726295 391.663798 
z
" style="fill:#ff2900;"/>
   </g>
   <g id="PathCollection_36">
    <path clip-path="url(#p6b48c57987)" d="M 227.726295 391.663798 
L 231.842098 391.461362 
L 232.777181 391.054372 
L 231.842098 390.011094 
L 227.726295 389.064873 
L 225.072772 391.054372 
z
" style="fill:#b20000;"/>
   </g>
   <g id="patch_23">
    <path d="M 168.252941 454.22 
L 168.252941 323.772941 
" style="fill:none;stroke:#000000;stroke-linecap:square;stroke-linejoin:miter;stroke-width:0.5;"/>
   </g>
   <g id="patch_24">
    <path d="M 299.547059 454.22 
L 299.547059 323.772941 
" style="fill:none;stroke:#000000;stroke-linecap:square;stroke-linejoin:miter;stroke-width:0.5;"/>
   </g>
   <g id="patch_25">
    <path d="M 168.252941 454.22 
L 299.547059 454.22 
" style="fill:none;stroke:#000000;stroke-linecap:square;stroke-linejoin:miter;stroke-width:0.5;"/>
   </g>
   <g id="patch_26">
    <path d="M 168.252941 323.772941 
L 299.547059 323.772941 
" style="fill:none;stroke:#000000;stroke-linecap:square;stroke-linejoin:miter;stroke-width:0.5;"/>
   </g>
  </g>
  <g id="axes_6">
   <g id="patch_27">
    <path d="M 325.805882 454.22 
L 457.1 454.22 
L 457.1 323.772941 
L 325.805882 323.772941 
z
" style="fill:#ffffff;"/>
   </g>
   <g id="line2d_5">
    <path clip-path="url(#p19d4a8fe64)" d="M 331.773797 448.290588 
L 335.8896 448.290588 
L 340.005403 448.290588 
L 344.121206 448.290588 
L 348.237009 448.290588 
L 352.352812 448.290588 
L 356.468615 448.29058 
L 360.584418 448.290252 
L 364.700221 448.28161 
L 368.816024 448.142538 
L 372.931827 446.780589 
L 377.04763 438.836008 
L 381.163434 412.723743 
L 385.279237 369.010072 
L 389.39504 340.483102 
L 393.510843 353.271832 
L 397.626646 391.775108 
L 401.742449 425.800462 
L 405.858252 442.56858 
L 409.974055 447.40229 
L 414.089858 448.208072 
L 418.205661 448.285978 
L 422.321464 448.290432 
L 426.437267 448.290585 
L 430.55307 448.290588 
L 434.668873 448.290588 
L 438.784676 448.290588 
L 442.900479 448.290588 
L 447.016283 448.290588 
L 451.132086 448.290588 
" style="fill:none;stroke:#1f77b4;stroke-linecap:square;stroke-width:1.5;"/>
   </g>
   <g id="line2d_6">
    <path clip-path="url(#p19d4a8fe64)" d="M 331.773797 329.702353 
" style="fill:none;stroke:#ffffff;stroke-linecap:square;stroke-width:1.5;"/>
   </g>
   <g id="patch_28">
    <path d="M 325.805882 454.22 
L 325.805882 323.772941 
" style="fill:none;stroke:#000000;stroke-linecap:square;stroke-linejoin:miter;stroke-width:0.5;"/>
   </g>
   <g id="patch_29">
    <path d="M 457.1 454.22 
L 457.1 323.772941 
" style="fill:none;stroke:#000000;stroke-linecap:square;stroke-linejoin:miter;stroke-width:0.5;"/>
   </g>
   <g id="patch_30">
    <path d="M 325.805882 454.22 
L 457.1 454.22 
" style="fill:none;stroke:#000000;stroke-linecap:square;stroke-linejoin:miter;stroke-width:0.5;"/>
   </g>
   <g id="patch_31">
    <path d="M 325.805882 323.772941 
L 457.1 323.772941 
" style="fill:none;stroke:#000000;stroke-linecap:square;stroke-linejoin:miter;stroke-width:0.5;"/>
   </g>
  </g>
 </g>
 <defs>
  <clipPath id="p3d9ec49eca">
   <rect height="130.447059" width="131.294118" x="10.7" y="10.7"/>
  </clipPath>
  <clipPath id="p0731c4f89d">
   <rect height="130.447059" width="131.294118" x="10.7" y="167.236471"/>
  </clipPath>
  <clipPath id="p309b37a4d6">
   <rect height="130.447059" width="131.294118" x="168.252941" y="167.236471"/>
  </clipPath>
  <clipPath id="p9289e00076">
   <rect height="130.447059" width="131.294118" x="10.7" y="323.772941"/>
  </clipPath>
  <clipPath id="p6b48c57987">
   <rect height="130.447059" width="131.294118" x="168.252941" y="323.772941"/>
  </clipPath>
  <clipPath id="p19d4a8fe64">
   <rect height="130.447059" width="131.294118" x="325.805882" y="323.772941"/>
  </clipPath>
 </defs>
</svg>
