<?xml version="1.0" encoding="utf-8" standalone="no"?>
<!DOCTYPE svg PUBLIC "-//W3C//DTD SVG 1.1//EN"
  "http://www.w3.org/Graphics/SVG/1.1/DTD/svg11.dtd">
<!-- Created with matplotlib (http://matplotlib.org/) -->
<svg height="210pt" version="1.1" viewBox="0 0 1290 210" width="1290pt" xmlns="http://www.w3.org/2000/svg" xmlns:xlink="http://www.w3.org/1999/xlink">
 <defs>
  <style type="text/css">
*{stroke-linecap:butt;stroke-linejoin:round;}
  </style>
 </defs>
 <g id="figure_1">
  <g id="patch_1">
   <path d="M 0 210.76 
L 1290.76 210.76 
L 1290.76 0 
L 0 0 
z
" style="fill:#ffffff;"/>
  </g>
  <g id="axes_1">
   <g id="patch_2">
    <path d="M 10.7 200.06 
L 209.06 200.06 
L 209.06 10.7 
L 10.7 10.7 
z
" style="fill:#ffffff;"/>
   </g>
   <g id="matplotlib.axis_1">
    <g id="xtick_1"/>
    <g id="xtick_2"/>
    <g id="xtick_3"/>
    <g id="xtick_4"/>
    <g id="xtick_5"/>
    <g id="xtick_6"/>
   </g>
   <g id="matplotlib.axis_2">
    <g id="ytick_1"/>
    <g id="ytick_2"/>
    <g id="ytick_3"/>
    <g id="ytick_4"/>
    <g id="ytick_5"/>
    <g id="ytick_6"/>
   </g>
   <g id="LineCollection_1">
    <path clip-path="url(#pa0e057b82b)" d="M 19.716364 187.119328 
L 19.716364 19.307273 
" style="fill:none;stroke:#000000;stroke-width:1.5;"/>
    <path clip-path="url(#pa0e057b82b)" d="M 23.322909 187.119328 
L 23.322909 166.546671 
" style="fill:none;stroke:#000000;stroke-width:1.5;"/>
    <path clip-path="url(#pa0e057b82b)" d="M 26.929455 187.119328 
L 26.929455 181.992676 
" style="fill:none;stroke:#000000;stroke-width:1.5;"/>
    <path clip-path="url(#pa0e057b82b)" d="M 30.536 187.119328 
L 30.536 186.203215 
" style="fill:none;stroke:#000000;stroke-width:1.5;"/>
    <path clip-path="url(#pa0e057b82b)" d="M 34.142545 187.119328 
L 34.142545 185.337835 
" style="fill:none;stroke:#000000;stroke-width:1.5;"/>
    <path clip-path="url(#pa0e057b82b)" d="M 37.749091 187.119328 
L 37.749091 188.750448 
" style="fill:none;stroke:#000000;stroke-width:1.5;"/>
    <path clip-path="url(#pa0e057b82b)" d="M 41.355636 187.119328 
L 41.355636 188.983995 
" style="fill:none;stroke:#000000;stroke-width:1.5;"/>
    <path clip-path="url(#pa0e057b82b)" d="M 44.962182 187.119328 
L 44.962182 187.250226 
" style="fill:none;stroke:#000000;stroke-width:1.5;"/>
    <path clip-path="url(#pa0e057b82b)" d="M 48.568727 187.119328 
L 48.568727 184.824051 
" style="fill:none;stroke:#000000;stroke-width:1.5;"/>
    <path clip-path="url(#pa0e057b82b)" d="M 52.175273 187.119328 
L 52.175273 187.725712 
" style="fill:none;stroke:#000000;stroke-width:1.5;"/>
    <path clip-path="url(#pa0e057b82b)" d="M 55.781818 187.119328 
L 55.781818 186.785245 
" style="fill:none;stroke:#000000;stroke-width:1.5;"/>
    <path clip-path="url(#pa0e057b82b)" d="M 59.388364 187.119328 
L 59.388364 185.642867 
" style="fill:none;stroke:#000000;stroke-width:1.5;"/>
    <path clip-path="url(#pa0e057b82b)" d="M 62.994909 187.119328 
L 62.994909 188.110955 
" style="fill:none;stroke:#000000;stroke-width:1.5;"/>
    <path clip-path="url(#pa0e057b82b)" d="M 66.601455 187.119328 
L 66.601455 185.408616 
" style="fill:none;stroke:#000000;stroke-width:1.5;"/>
    <path clip-path="url(#pa0e057b82b)" d="M 70.208 187.119328 
L 70.208 189.21093 
" style="fill:none;stroke:#000000;stroke-width:1.5;"/>
    <path clip-path="url(#pa0e057b82b)" d="M 73.814545 187.119328 
L 73.814545 185.023159 
" style="fill:none;stroke:#000000;stroke-width:1.5;"/>
    <path clip-path="url(#pa0e057b82b)" d="M 77.421091 187.119328 
L 77.421091 186.235755 
" style="fill:none;stroke:#000000;stroke-width:1.5;"/>
    <path clip-path="url(#pa0e057b82b)" d="M 81.027636 187.119328 
L 81.027636 186.340134 
" style="fill:none;stroke:#000000;stroke-width:1.5;"/>
    <path clip-path="url(#pa0e057b82b)" d="M 84.634182 187.119328 
L 84.634182 185.693637 
" style="fill:none;stroke:#000000;stroke-width:1.5;"/>
    <path clip-path="url(#pa0e057b82b)" d="M 88.240727 187.119328 
L 88.240727 188.614814 
" style="fill:none;stroke:#000000;stroke-width:1.5;"/>
    <path clip-path="url(#pa0e057b82b)" d="M 91.847273 187.119328 
L 91.847273 187.565204 
" style="fill:none;stroke:#000000;stroke-width:1.5;"/>
    <path clip-path="url(#pa0e057b82b)" d="M 95.453818 187.119328 
L 95.453818 189.6075 
" style="fill:none;stroke:#000000;stroke-width:1.5;"/>
    <path clip-path="url(#pa0e057b82b)" d="M 99.060364 187.119328 
L 99.060364 187.755892 
" style="fill:none;stroke:#000000;stroke-width:1.5;"/>
    <path clip-path="url(#pa0e057b82b)" d="M 102.666909 187.119328 
L 102.666909 185.485676 
" style="fill:none;stroke:#000000;stroke-width:1.5;"/>
    <path clip-path="url(#pa0e057b82b)" d="M 106.273455 187.119328 
L 106.273455 187.500975 
" style="fill:none;stroke:#000000;stroke-width:1.5;"/>
    <path clip-path="url(#pa0e057b82b)" d="M 109.88 187.119328 
L 109.88 186.746399 
" style="fill:none;stroke:#000000;stroke-width:1.5;"/>
    <path clip-path="url(#pa0e057b82b)" d="M 113.486545 187.119328 
L 113.486545 187.290727 
" style="fill:none;stroke:#000000;stroke-width:1.5;"/>
    <path clip-path="url(#pa0e057b82b)" d="M 117.093091 187.119328 
L 117.093091 187.017638 
" style="fill:none;stroke:#000000;stroke-width:1.5;"/>
    <path clip-path="url(#pa0e057b82b)" d="M 120.699636 187.119328 
L 120.699636 186.375684 
" style="fill:none;stroke:#000000;stroke-width:1.5;"/>
    <path clip-path="url(#pa0e057b82b)" d="M 124.306182 187.119328 
L 124.306182 185.601135 
" style="fill:none;stroke:#000000;stroke-width:1.5;"/>
    <path clip-path="url(#pa0e057b82b)" d="M 127.912727 187.119328 
L 127.912727 185.043456 
" style="fill:none;stroke:#000000;stroke-width:1.5;"/>
    <path clip-path="url(#pa0e057b82b)" d="M 131.519273 187.119328 
L 131.519273 188.976697 
" style="fill:none;stroke:#000000;stroke-width:1.5;"/>
    <path clip-path="url(#pa0e057b82b)" d="M 135.125818 187.119328 
L 135.125818 187.97191 
" style="fill:none;stroke:#000000;stroke-width:1.5;"/>
    <path clip-path="url(#pa0e057b82b)" d="M 138.732364 187.119328 
L 138.732364 185.869235 
" style="fill:none;stroke:#000000;stroke-width:1.5;"/>
    <path clip-path="url(#pa0e057b82b)" d="M 142.338909 187.119328 
L 142.338909 185.514196 
" style="fill:none;stroke:#000000;stroke-width:1.5;"/>
    <path clip-path="url(#pa0e057b82b)" d="M 145.945455 187.119328 
L 145.945455 186.692698 
" style="fill:none;stroke:#000000;stroke-width:1.5;"/>
    <path clip-path="url(#pa0e057b82b)" d="M 149.552 187.119328 
L 149.552 187.691322 
" style="fill:none;stroke:#000000;stroke-width:1.5;"/>
    <path clip-path="url(#pa0e057b82b)" d="M 153.158545 187.119328 
L 153.158545 188.82269 
" style="fill:none;stroke:#000000;stroke-width:1.5;"/>
    <path clip-path="url(#pa0e057b82b)" d="M 156.765091 187.119328 
L 156.765091 184.966783 
" style="fill:none;stroke:#000000;stroke-width:1.5;"/>
    <path clip-path="url(#pa0e057b82b)" d="M 160.371636 187.119328 
L 160.371636 186.377443 
" style="fill:none;stroke:#000000;stroke-width:1.5;"/>
    <path clip-path="url(#pa0e057b82b)" d="M 163.978182 187.119328 
L 163.978182 187.073005 
" style="fill:none;stroke:#000000;stroke-width:1.5;"/>
    <path clip-path="url(#pa0e057b82b)" d="M 167.584727 187.119328 
L 167.584727 188.470503 
" style="fill:none;stroke:#000000;stroke-width:1.5;"/>
    <path clip-path="url(#pa0e057b82b)" d="M 171.191273 187.119328 
L 171.191273 187.077801 
" style="fill:none;stroke:#000000;stroke-width:1.5;"/>
    <path clip-path="url(#pa0e057b82b)" d="M 174.797818 187.119328 
L 174.797818 188.788675 
" style="fill:none;stroke:#000000;stroke-width:1.5;"/>
    <path clip-path="url(#pa0e057b82b)" d="M 178.404364 187.119328 
L 178.404364 183.935857 
" style="fill:none;stroke:#000000;stroke-width:1.5;"/>
    <path clip-path="url(#pa0e057b82b)" d="M 182.010909 187.119328 
L 182.010909 186.65425 
" style="fill:none;stroke:#000000;stroke-width:1.5;"/>
    <path clip-path="url(#pa0e057b82b)" d="M 185.617455 187.119328 
L 185.617455 185.218857 
" style="fill:none;stroke:#000000;stroke-width:1.5;"/>
    <path clip-path="url(#pa0e057b82b)" d="M 189.224 187.119328 
L 189.224 187.850651 
" style="fill:none;stroke:#000000;stroke-width:1.5;"/>
    <path clip-path="url(#pa0e057b82b)" d="M 192.830545 187.119328 
L 192.830545 185.191631 
" style="fill:none;stroke:#000000;stroke-width:1.5;"/>
    <path clip-path="url(#pa0e057b82b)" d="M 196.437091 187.119328 
L 196.437091 189.317721 
" style="fill:none;stroke:#000000;stroke-width:1.5;"/>
    <path clip-path="url(#pa0e057b82b)" d="M 200.043636 187.119328 
L 200.043636 189.711555 
" style="fill:none;stroke:#000000;stroke-width:1.5;"/>
   </g>
   <g id="line2d_1">
    <path clip-path="url(#pa0e057b82b)" d="M 19.716364 182.796776 
L 23.322909 182.79656 
L 26.929455 182.796344 
L 30.536 182.796127 
L 34.142545 182.795911 
L 37.749091 182.795695 
L 41.355636 182.795479 
L 44.962182 182.795262 
L 48.568727 182.795046 
L 52.175273 182.79483 
L 55.781818 182.794613 
L 59.388364 182.794397 
L 62.994909 182.79418 
L 66.601455 182.793964 
L 70.208 182.793747 
L 73.814545 182.79353 
L 77.421091 182.793314 
L 81.027636 182.793097 
L 84.634182 182.79288 
L 88.240727 182.792664 
L 91.847273 182.792447 
L 95.453818 182.79223 
L 99.060364 182.792013 
L 102.666909 182.791796 
L 106.273455 182.79158 
L 109.88 182.791363 
L 113.486545 182.791146 
L 117.093091 182.790929 
L 120.699636 182.790712 
L 124.306182 182.790495 
L 127.912727 182.790278 
L 131.519273 182.79006 
L 135.125818 182.789843 
L 138.732364 182.789626 
L 142.338909 182.789409 
L 145.945455 182.789192 
L 149.552 182.788974 
L 153.158545 182.788757 
L 156.765091 182.78854 
L 160.371636 182.788322 
L 163.978182 182.788105 
L 167.584727 182.787887 
L 171.191273 182.78767 
L 174.797818 182.787452 
L 178.404364 182.787235 
L 182.010909 182.787017 
L 185.617455 182.7868 
L 189.224 182.786582 
L 192.830545 182.786364 
L 196.437091 182.786147 
L 200.043636 182.785929 
" style="fill:none;stroke:#ff0000;stroke-dasharray:5.6,2.4;stroke-dashoffset:0;stroke-width:1.5;"/>
   </g>
   <g id="line2d_2">
    <path clip-path="url(#pa0e057b82b)" d="M 19.716364 191.44188 
L 23.322909 191.442096 
L 26.929455 191.442313 
L 30.536 191.442529 
L 34.142545 191.442745 
L 37.749091 191.442961 
L 41.355636 191.443178 
L 44.962182 191.443394 
L 48.568727 191.44361 
L 52.175273 191.443827 
L 55.781818 191.444043 
L 59.388364 191.44426 
L 62.994909 191.444476 
L 66.601455 191.444693 
L 70.208 191.444909 
L 73.814545 191.445126 
L 77.421091 191.445342 
L 81.027636 191.445559 
L 84.634182 191.445776 
L 88.240727 191.445992 
L 91.847273 191.446209 
L 95.453818 191.446426 
L 99.060364 191.446643 
L 102.666909 191.44686 
L 106.273455 191.447077 
L 109.88 191.447294 
L 113.486545 191.44751 
L 117.093091 191.447727 
L 120.699636 191.447945 
L 124.306182 191.448162 
L 127.912727 191.448379 
L 131.519273 191.448596 
L 135.125818 191.448813 
L 138.732364 191.44903 
L 142.338909 191.449247 
L 145.945455 191.449465 
L 149.552 191.449682 
L 153.158545 191.449899 
L 156.765091 191.450117 
L 160.371636 191.450334 
L 163.978182 191.450551 
L 167.584727 191.450769 
L 171.191273 191.450986 
L 174.797818 191.451204 
L 178.404364 191.451421 
L 182.010909 191.451639 
L 185.617455 191.451857 
L 189.224 191.452074 
L 192.830545 191.452292 
L 196.437091 191.45251 
L 200.043636 191.452727 
" style="fill:none;stroke:#ff0000;stroke-dasharray:5.6,2.4;stroke-dashoffset:0;stroke-width:1.5;"/>
   </g>
   <g id="patch_3">
    <path d="M 10.7 200.06 
L 10.7 10.7 
" style="fill:none;stroke:#000000;stroke-linecap:square;stroke-linejoin:miter;stroke-width:0.8;"/>
   </g>
   <g id="patch_4">
    <path d="M 209.06 200.06 
L 209.06 10.7 
" style="fill:none;stroke:#000000;stroke-linecap:square;stroke-linejoin:miter;stroke-width:0.8;"/>
   </g>
   <g id="patch_5">
    <path d="M 10.7 200.06 
L 209.06 200.06 
" style="fill:none;stroke:#000000;stroke-linecap:square;stroke-linejoin:miter;stroke-width:0.8;"/>
   </g>
   <g id="patch_6">
    <path d="M 10.7 10.7 
L 209.06 10.7 
" style="fill:none;stroke:#000000;stroke-linecap:square;stroke-linejoin:miter;stroke-width:0.8;"/>
   </g>
  </g>
  <g id="axes_2">
   <g id="patch_7">
    <path d="M 224.9 200.06 
L 423.26 200.06 
L 423.26 10.7 
L 224.9 10.7 
z
" style="fill:#ffffff;"/>
   </g>
   <g id="matplotlib.axis_3">
    <g id="xtick_7"/>
    <g id="xtick_8"/>
    <g id="xtick_9"/>
    <g id="xtick_10"/>
    <g id="xtick_11"/>
    <g id="xtick_12"/>
   </g>
   <g id="matplotlib.axis_4">
    <g id="ytick_7"/>
    <g id="ytick_8"/>
    <g id="ytick_9"/>
    <g id="ytick_10"/>
    <g id="ytick_11"/>
    <g id="ytick_12"/>
   </g>
   <g id="LineCollection_2">
    <path clip-path="url(#pf4c427f621)" d="M 233.916364 187.119328 
L 233.916364 19.307273 
" style="fill:none;stroke:#000000;stroke-width:1.5;"/>
    <path clip-path="url(#pf4c427f621)" d="M 237.522909 187.119328 
L 237.522909 165.567164 
" style="fill:none;stroke:#000000;stroke-width:1.5;"/>
    <path clip-path="url(#pf4c427f621)" d="M 241.129455 187.119328 
L 241.129455 182.289172 
" style="fill:none;stroke:#000000;stroke-width:1.5;"/>
    <path clip-path="url(#pf4c427f621)" d="M 244.736 187.119328 
L 244.736 182.300658 
" style="fill:none;stroke:#000000;stroke-width:1.5;"/>
    <path clip-path="url(#pf4c427f621)" d="M 248.342545 187.119328 
L 248.342545 188.414256 
" style="fill:none;stroke:#000000;stroke-width:1.5;"/>
    <path clip-path="url(#pf4c427f621)" d="M 251.949091 187.119328 
L 251.949091 187.586761 
" style="fill:none;stroke:#000000;stroke-width:1.5;"/>
    <path clip-path="url(#pf4c427f621)" d="M 255.555636 187.119328 
L 255.555636 183.813874 
" style="fill:none;stroke:#000000;stroke-width:1.5;"/>
    <path clip-path="url(#pf4c427f621)" d="M 259.162182 187.119328 
L 259.162182 187.238011 
" style="fill:none;stroke:#000000;stroke-width:1.5;"/>
    <path clip-path="url(#pf4c427f621)" d="M 262.768727 187.119328 
L 262.768727 187.802172 
" style="fill:none;stroke:#000000;stroke-width:1.5;"/>
    <path clip-path="url(#pf4c427f621)" d="M 266.375273 187.119328 
L 266.375273 184.758706 
" style="fill:none;stroke:#000000;stroke-width:1.5;"/>
    <path clip-path="url(#pf4c427f621)" d="M 269.981818 187.119328 
L 269.981818 186.731616 
" style="fill:none;stroke:#000000;stroke-width:1.5;"/>
    <path clip-path="url(#pf4c427f621)" d="M 273.588364 187.119328 
L 273.588364 185.275721 
" style="fill:none;stroke:#000000;stroke-width:1.5;"/>
    <path clip-path="url(#pf4c427f621)" d="M 277.194909 187.119328 
L 277.194909 186.806931 
" style="fill:none;stroke:#000000;stroke-width:1.5;"/>
    <path clip-path="url(#pf4c427f621)" d="M 280.801455 187.119328 
L 280.801455 186.355692 
" style="fill:none;stroke:#000000;stroke-width:1.5;"/>
    <path clip-path="url(#pf4c427f621)" d="M 284.408 187.119328 
L 284.408 187.830219 
" style="fill:none;stroke:#000000;stroke-width:1.5;"/>
    <path clip-path="url(#pf4c427f621)" d="M 288.014545 187.119328 
L 288.014545 185.932138 
" style="fill:none;stroke:#000000;stroke-width:1.5;"/>
    <path clip-path="url(#pf4c427f621)" d="M 291.621091 187.119328 
L 291.621091 187.036757 
" style="fill:none;stroke:#000000;stroke-width:1.5;"/>
    <path clip-path="url(#pf4c427f621)" d="M 295.227636 187.119328 
L 295.227636 187.14576 
" style="fill:none;stroke:#000000;stroke-width:1.5;"/>
    <path clip-path="url(#pf4c427f621)" d="M 298.834182 187.119328 
L 298.834182 186.709281 
" style="fill:none;stroke:#000000;stroke-width:1.5;"/>
    <path clip-path="url(#pf4c427f621)" d="M 302.440727 187.119328 
L 302.440727 186.252342 
" style="fill:none;stroke:#000000;stroke-width:1.5;"/>
    <path clip-path="url(#pf4c427f621)" d="M 306.047273 187.119328 
L 306.047273 185.322144 
" style="fill:none;stroke:#000000;stroke-width:1.5;"/>
    <path clip-path="url(#pf4c427f621)" d="M 309.653818 187.119328 
L 309.653818 188.19132 
" style="fill:none;stroke:#000000;stroke-width:1.5;"/>
    <path clip-path="url(#pf4c427f621)" d="M 313.260364 187.119328 
L 313.260364 188.85576 
" style="fill:none;stroke:#000000;stroke-width:1.5;"/>
    <path clip-path="url(#pf4c427f621)" d="M 316.866909 187.119328 
L 316.866909 186.831932 
" style="fill:none;stroke:#000000;stroke-width:1.5;"/>
    <path clip-path="url(#pf4c427f621)" d="M 320.473455 187.119328 
L 320.473455 186.856802 
" style="fill:none;stroke:#000000;stroke-width:1.5;"/>
    <path clip-path="url(#pf4c427f621)" d="M 324.08 187.119328 
L 324.08 186.33933 
" style="fill:none;stroke:#000000;stroke-width:1.5;"/>
    <path clip-path="url(#pf4c427f621)" d="M 327.686545 187.119328 
L 327.686545 188.773018 
" style="fill:none;stroke:#000000;stroke-width:1.5;"/>
    <path clip-path="url(#pf4c427f621)" d="M 331.293091 187.119328 
L 331.293091 184.101254 
" style="fill:none;stroke:#000000;stroke-width:1.5;"/>
    <path clip-path="url(#pf4c427f621)" d="M 334.899636 187.119328 
L 334.899636 187.704167 
" style="fill:none;stroke:#000000;stroke-width:1.5;"/>
    <path clip-path="url(#pf4c427f621)" d="M 338.506182 187.119328 
L 338.506182 183.996739 
" style="fill:none;stroke:#000000;stroke-width:1.5;"/>
    <path clip-path="url(#pf4c427f621)" d="M 342.112727 187.119328 
L 342.112727 184.836336 
" style="fill:none;stroke:#000000;stroke-width:1.5;"/>
    <path clip-path="url(#pf4c427f621)" d="M 345.719273 187.119328 
L 345.719273 188.620459 
" style="fill:none;stroke:#000000;stroke-width:1.5;"/>
    <path clip-path="url(#pf4c427f621)" d="M 349.325818 187.119328 
L 349.325818 189.651093 
" style="fill:none;stroke:#000000;stroke-width:1.5;"/>
    <path clip-path="url(#pf4c427f621)" d="M 352.932364 187.119328 
L 352.932364 187.00095 
" style="fill:none;stroke:#000000;stroke-width:1.5;"/>
    <path clip-path="url(#pf4c427f621)" d="M 356.538909 187.119328 
L 356.538909 188.160453 
" style="fill:none;stroke:#000000;stroke-width:1.5;"/>
    <path clip-path="url(#pf4c427f621)" d="M 360.145455 187.119328 
L 360.145455 189.070421 
" style="fill:none;stroke:#000000;stroke-width:1.5;"/>
    <path clip-path="url(#pf4c427f621)" d="M 363.752 187.119328 
L 363.752 186.522923 
" style="fill:none;stroke:#000000;stroke-width:1.5;"/>
    <path clip-path="url(#pf4c427f621)" d="M 367.358545 187.119328 
L 367.358545 185.966035 
" style="fill:none;stroke:#000000;stroke-width:1.5;"/>
    <path clip-path="url(#pf4c427f621)" d="M 370.965091 187.119328 
L 370.965091 185.997121 
" style="fill:none;stroke:#000000;stroke-width:1.5;"/>
    <path clip-path="url(#pf4c427f621)" d="M 374.571636 187.119328 
L 374.571636 185.072828 
" style="fill:none;stroke:#000000;stroke-width:1.5;"/>
    <path clip-path="url(#pf4c427f621)" d="M 378.178182 187.119328 
L 378.178182 185.629625 
" style="fill:none;stroke:#000000;stroke-width:1.5;"/>
    <path clip-path="url(#pf4c427f621)" d="M 381.784727 187.119328 
L 381.784727 190.661657 
" style="fill:none;stroke:#000000;stroke-width:1.5;"/>
    <path clip-path="url(#pf4c427f621)" d="M 385.391273 187.119328 
L 385.391273 188.353836 
" style="fill:none;stroke:#000000;stroke-width:1.5;"/>
    <path clip-path="url(#pf4c427f621)" d="M 388.997818 187.119328 
L 388.997818 186.828969 
" style="fill:none;stroke:#000000;stroke-width:1.5;"/>
    <path clip-path="url(#pf4c427f621)" d="M 392.604364 187.119328 
L 392.604364 185.983817 
" style="fill:none;stroke:#000000;stroke-width:1.5;"/>
    <path clip-path="url(#pf4c427f621)" d="M 396.210909 187.119328 
L 396.210909 187.700064 
" style="fill:none;stroke:#000000;stroke-width:1.5;"/>
    <path clip-path="url(#pf4c427f621)" d="M 399.817455 187.119328 
L 399.817455 190.23927 
" style="fill:none;stroke:#000000;stroke-width:1.5;"/>
    <path clip-path="url(#pf4c427f621)" d="M 403.424 187.119328 
L 403.424 188.771849 
" style="fill:none;stroke:#000000;stroke-width:1.5;"/>
    <path clip-path="url(#pf4c427f621)" d="M 407.030545 187.119328 
L 407.030545 184.742157 
" style="fill:none;stroke:#000000;stroke-width:1.5;"/>
    <path clip-path="url(#pf4c427f621)" d="M 410.637091 187.119328 
L 410.637091 181.532745 
" style="fill:none;stroke:#000000;stroke-width:1.5;"/>
    <path clip-path="url(#pf4c427f621)" d="M 414.243636 187.119328 
L 414.243636 184.796397 
" style="fill:none;stroke:#000000;stroke-width:1.5;"/>
   </g>
   <g id="line2d_3">
    <path clip-path="url(#pf4c427f621)" d="M 233.916364 182.796776 
L 237.522909 182.79656 
L 241.129455 182.796344 
L 244.736 182.796127 
L 248.342545 182.795911 
L 251.949091 182.795695 
L 255.555636 182.795479 
L 259.162182 182.795262 
L 262.768727 182.795046 
L 266.375273 182.79483 
L 269.981818 182.794613 
L 273.588364 182.794397 
L 277.194909 182.79418 
L 280.801455 182.793964 
L 284.408 182.793747 
L 288.014545 182.79353 
L 291.621091 182.793314 
L 295.227636 182.793097 
L 298.834182 182.79288 
L 302.440727 182.792664 
L 306.047273 182.792447 
L 309.653818 182.79223 
L 313.260364 182.792013 
L 316.866909 182.791796 
L 320.473455 182.79158 
L 324.08 182.791363 
L 327.686545 182.791146 
L 331.293091 182.790929 
L 334.899636 182.790712 
L 338.506182 182.790495 
L 342.112727 182.790278 
L 345.719273 182.79006 
L 349.325818 182.789843 
L 352.932364 182.789626 
L 356.538909 182.789409 
L 360.145455 182.789192 
L 363.752 182.788974 
L 367.358545 182.788757 
L 370.965091 182.78854 
L 374.571636 182.788322 
L 378.178182 182.788105 
L 381.784727 182.787887 
L 385.391273 182.78767 
L 388.997818 182.787452 
L 392.604364 182.787235 
L 396.210909 182.787017 
L 399.817455 182.7868 
L 403.424 182.786582 
L 407.030545 182.786364 
L 410.637091 182.786147 
L 414.243636 182.785929 
" style="fill:none;stroke:#ff0000;stroke-dasharray:5.6,2.4;stroke-dashoffset:0;stroke-width:1.5;"/>
   </g>
   <g id="line2d_4">
    <path clip-path="url(#pf4c427f621)" d="M 233.916364 191.44188 
L 237.522909 191.442096 
L 241.129455 191.442313 
L 244.736 191.442529 
L 248.342545 191.442745 
L 251.949091 191.442961 
L 255.555636 191.443178 
L 259.162182 191.443394 
L 262.768727 191.44361 
L 266.375273 191.443827 
L 269.981818 191.444043 
L 273.588364 191.44426 
L 277.194909 191.444476 
L 280.801455 191.444693 
L 284.408 191.444909 
L 288.014545 191.445126 
L 291.621091 191.445342 
L 295.227636 191.445559 
L 298.834182 191.445776 
L 302.440727 191.445992 
L 306.047273 191.446209 
L 309.653818 191.446426 
L 313.260364 191.446643 
L 316.866909 191.44686 
L 320.473455 191.447077 
L 324.08 191.447294 
L 327.686545 191.44751 
L 331.293091 191.447727 
L 334.899636 191.447945 
L 338.506182 191.448162 
L 342.112727 191.448379 
L 345.719273 191.448596 
L 349.325818 191.448813 
L 352.932364 191.44903 
L 356.538909 191.449247 
L 360.145455 191.449465 
L 363.752 191.449682 
L 367.358545 191.449899 
L 370.965091 191.450117 
L 374.571636 191.450334 
L 378.178182 191.450551 
L 381.784727 191.450769 
L 385.391273 191.450986 
L 388.997818 191.451204 
L 392.604364 191.451421 
L 396.210909 191.451639 
L 399.817455 191.451857 
L 403.424 191.452074 
L 407.030545 191.452292 
L 410.637091 191.45251 
L 414.243636 191.452727 
" style="fill:none;stroke:#ff0000;stroke-dasharray:5.6,2.4;stroke-dashoffset:0;stroke-width:1.5;"/>
   </g>
   <g id="patch_8">
    <path d="M 224.9 200.06 
L 224.9 10.7 
" style="fill:none;stroke:#000000;stroke-linecap:square;stroke-linejoin:miter;stroke-width:0.8;"/>
   </g>
   <g id="patch_9">
    <path d="M 423.26 200.06 
L 423.26 10.7 
" style="fill:none;stroke:#000000;stroke-linecap:square;stroke-linejoin:miter;stroke-width:0.8;"/>
   </g>
   <g id="patch_10">
    <path d="M 224.9 200.06 
L 423.26 200.06 
" style="fill:none;stroke:#000000;stroke-linecap:square;stroke-linejoin:miter;stroke-width:0.8;"/>
   </g>
   <g id="patch_11">
    <path d="M 224.9 10.7 
L 423.26 10.7 
" style="fill:none;stroke:#000000;stroke-linecap:square;stroke-linejoin:miter;stroke-width:0.8;"/>
   </g>
  </g>
  <g id="axes_3">
   <g id="patch_12">
    <path d="M 439.1 200.06 
L 637.46 200.06 
L 637.46 10.7 
L 439.1 10.7 
z
" style="fill:#ffffff;"/>
   </g>
   <g id="matplotlib.axis_5">
    <g id="xtick_13"/>
    <g id="xtick_14"/>
    <g id="xtick_15"/>
    <g id="xtick_16"/>
    <g id="xtick_17"/>
    <g id="xtick_18"/>
   </g>
   <g id="matplotlib.axis_6">
    <g id="ytick_13"/>
    <g id="ytick_14"/>
    <g id="ytick_15"/>
    <g id="ytick_16"/>
    <g id="ytick_17"/>
    <g id="ytick_18"/>
   </g>
   <g id="LineCollection_3">
    <path clip-path="url(#p6fc1b3424d)" d="M 448.116364 187.119328 
L 448.116364 19.307273 
" style="fill:none;stroke:#000000;stroke-width:1.5;"/>
    <path clip-path="url(#p6fc1b3424d)" d="M 451.722909 187.119328 
L 451.722909 160.186483 
" style="fill:none;stroke:#000000;stroke-width:1.5;"/>
    <path clip-path="url(#p6fc1b3424d)" d="M 455.329455 187.119328 
L 455.329455 176.577887 
" style="fill:none;stroke:#000000;stroke-width:1.5;"/>
    <path clip-path="url(#p6fc1b3424d)" d="M 458.936 187.119328 
L 458.936 181.260162 
" style="fill:none;stroke:#000000;stroke-width:1.5;"/>
    <path clip-path="url(#p6fc1b3424d)" d="M 462.542545 187.119328 
L 462.542545 182.70857 
" style="fill:none;stroke:#000000;stroke-width:1.5;"/>
    <path clip-path="url(#p6fc1b3424d)" d="M 466.149091 187.119328 
L 466.149091 183.717977 
" style="fill:none;stroke:#000000;stroke-width:1.5;"/>
    <path clip-path="url(#p6fc1b3424d)" d="M 469.755636 187.119328 
L 469.755636 184.294846 
" style="fill:none;stroke:#000000;stroke-width:1.5;"/>
    <path clip-path="url(#p6fc1b3424d)" d="M 473.362182 187.119328 
L 473.362182 183.548948 
" style="fill:none;stroke:#000000;stroke-width:1.5;"/>
    <path clip-path="url(#p6fc1b3424d)" d="M 476.968727 187.119328 
L 476.968727 183.779856 
" style="fill:none;stroke:#000000;stroke-width:1.5;"/>
    <path clip-path="url(#p6fc1b3424d)" d="M 480.575273 187.119328 
L 480.575273 183.84462 
" style="fill:none;stroke:#000000;stroke-width:1.5;"/>
    <path clip-path="url(#p6fc1b3424d)" d="M 484.181818 187.119328 
L 484.181818 185.947579 
" style="fill:none;stroke:#000000;stroke-width:1.5;"/>
    <path clip-path="url(#p6fc1b3424d)" d="M 487.788364 187.119328 
L 487.788364 185.481945 
" style="fill:none;stroke:#000000;stroke-width:1.5;"/>
    <path clip-path="url(#p6fc1b3424d)" d="M 491.394909 187.119328 
L 491.394909 187.884842 
" style="fill:none;stroke:#000000;stroke-width:1.5;"/>
    <path clip-path="url(#p6fc1b3424d)" d="M 495.001455 187.119328 
L 495.001455 186.761572 
" style="fill:none;stroke:#000000;stroke-width:1.5;"/>
    <path clip-path="url(#p6fc1b3424d)" d="M 498.608 187.119328 
L 498.608 189.33823 
" style="fill:none;stroke:#000000;stroke-width:1.5;"/>
    <path clip-path="url(#p6fc1b3424d)" d="M 502.214545 187.119328 
L 502.214545 186.546355 
" style="fill:none;stroke:#000000;stroke-width:1.5;"/>
    <path clip-path="url(#p6fc1b3424d)" d="M 505.821091 187.119328 
L 505.821091 185.547291 
" style="fill:none;stroke:#000000;stroke-width:1.5;"/>
    <path clip-path="url(#p6fc1b3424d)" d="M 509.427636 187.119328 
L 509.427636 186.73554 
" style="fill:none;stroke:#000000;stroke-width:1.5;"/>
    <path clip-path="url(#p6fc1b3424d)" d="M 513.034182 187.119328 
L 513.034182 186.04291 
" style="fill:none;stroke:#000000;stroke-width:1.5;"/>
    <path clip-path="url(#p6fc1b3424d)" d="M 516.640727 187.119328 
L 516.640727 186.300075 
" style="fill:none;stroke:#000000;stroke-width:1.5;"/>
    <path clip-path="url(#p6fc1b3424d)" d="M 520.247273 187.119328 
L 520.247273 185.755446 
" style="fill:none;stroke:#000000;stroke-width:1.5;"/>
    <path clip-path="url(#p6fc1b3424d)" d="M 523.853818 187.119328 
L 523.853818 188.163364 
" style="fill:none;stroke:#000000;stroke-width:1.5;"/>
    <path clip-path="url(#p6fc1b3424d)" d="M 527.460364 187.119328 
L 527.460364 187.618778 
" style="fill:none;stroke:#000000;stroke-width:1.5;"/>
    <path clip-path="url(#p6fc1b3424d)" d="M 531.066909 187.119328 
L 531.066909 185.618167 
" style="fill:none;stroke:#000000;stroke-width:1.5;"/>
    <path clip-path="url(#p6fc1b3424d)" d="M 534.673455 187.119328 
L 534.673455 188.344816 
" style="fill:none;stroke:#000000;stroke-width:1.5;"/>
    <path clip-path="url(#p6fc1b3424d)" d="M 538.28 187.119328 
L 538.28 186.022447 
" style="fill:none;stroke:#000000;stroke-width:1.5;"/>
    <path clip-path="url(#p6fc1b3424d)" d="M 541.886545 187.119328 
L 541.886545 186.092908 
" style="fill:none;stroke:#000000;stroke-width:1.5;"/>
    <path clip-path="url(#p6fc1b3424d)" d="M 545.493091 187.119328 
L 545.493091 186.95281 
" style="fill:none;stroke:#000000;stroke-width:1.5;"/>
    <path clip-path="url(#p6fc1b3424d)" d="M 549.099636 187.119328 
L 549.099636 187.304862 
" style="fill:none;stroke:#000000;stroke-width:1.5;"/>
    <path clip-path="url(#p6fc1b3424d)" d="M 552.706182 187.119328 
L 552.706182 186.730351 
" style="fill:none;stroke:#000000;stroke-width:1.5;"/>
    <path clip-path="url(#p6fc1b3424d)" d="M 556.312727 187.119328 
L 556.312727 187.73777 
" style="fill:none;stroke:#000000;stroke-width:1.5;"/>
    <path clip-path="url(#p6fc1b3424d)" d="M 559.919273 187.119328 
L 559.919273 188.809654 
" style="fill:none;stroke:#000000;stroke-width:1.5;"/>
    <path clip-path="url(#p6fc1b3424d)" d="M 563.525818 187.119328 
L 563.525818 186.881217 
" style="fill:none;stroke:#000000;stroke-width:1.5;"/>
    <path clip-path="url(#p6fc1b3424d)" d="M 567.132364 187.119328 
L 567.132364 186.801282 
" style="fill:none;stroke:#000000;stroke-width:1.5;"/>
    <path clip-path="url(#p6fc1b3424d)" d="M 570.738909 187.119328 
L 570.738909 183.689281 
" style="fill:none;stroke:#000000;stroke-width:1.5;"/>
    <path clip-path="url(#p6fc1b3424d)" d="M 574.345455 187.119328 
L 574.345455 188.838853 
" style="fill:none;stroke:#000000;stroke-width:1.5;"/>
    <path clip-path="url(#p6fc1b3424d)" d="M 577.952 187.119328 
L 577.952 186.891133 
" style="fill:none;stroke:#000000;stroke-width:1.5;"/>
    <path clip-path="url(#p6fc1b3424d)" d="M 581.558545 187.119328 
L 581.558545 185.218593 
" style="fill:none;stroke:#000000;stroke-width:1.5;"/>
    <path clip-path="url(#p6fc1b3424d)" d="M 585.165091 187.119328 
L 585.165091 184.869347 
" style="fill:none;stroke:#000000;stroke-width:1.5;"/>
    <path clip-path="url(#p6fc1b3424d)" d="M 588.771636 187.119328 
L 588.771636 183.929983 
" style="fill:none;stroke:#000000;stroke-width:1.5;"/>
    <path clip-path="url(#p6fc1b3424d)" d="M 592.378182 187.119328 
L 592.378182 187.525518 
" style="fill:none;stroke:#000000;stroke-width:1.5;"/>
    <path clip-path="url(#p6fc1b3424d)" d="M 595.984727 187.119328 
L 595.984727 187.299907 
" style="fill:none;stroke:#000000;stroke-width:1.5;"/>
    <path clip-path="url(#p6fc1b3424d)" d="M 599.591273 187.119328 
L 599.591273 186.247274 
" style="fill:none;stroke:#000000;stroke-width:1.5;"/>
    <path clip-path="url(#p6fc1b3424d)" d="M 603.197818 187.119328 
L 603.197818 187.194457 
" style="fill:none;stroke:#000000;stroke-width:1.5;"/>
    <path clip-path="url(#p6fc1b3424d)" d="M 606.804364 187.119328 
L 606.804364 186.651441 
" style="fill:none;stroke:#000000;stroke-width:1.5;"/>
    <path clip-path="url(#p6fc1b3424d)" d="M 610.410909 187.119328 
L 610.410909 186.085344 
" style="fill:none;stroke:#000000;stroke-width:1.5;"/>
    <path clip-path="url(#p6fc1b3424d)" d="M 614.017455 187.119328 
L 614.017455 186.406239 
" style="fill:none;stroke:#000000;stroke-width:1.5;"/>
    <path clip-path="url(#p6fc1b3424d)" d="M 617.624 187.119328 
L 617.624 185.403989 
" style="fill:none;stroke:#000000;stroke-width:1.5;"/>
    <path clip-path="url(#p6fc1b3424d)" d="M 621.230545 187.119328 
L 621.230545 183.992135 
" style="fill:none;stroke:#000000;stroke-width:1.5;"/>
    <path clip-path="url(#p6fc1b3424d)" d="M 624.837091 187.119328 
L 624.837091 187.521524 
" style="fill:none;stroke:#000000;stroke-width:1.5;"/>
    <path clip-path="url(#p6fc1b3424d)" d="M 628.443636 187.119328 
L 628.443636 188.377687 
" style="fill:none;stroke:#000000;stroke-width:1.5;"/>
   </g>
   <g id="line2d_5">
    <path clip-path="url(#p6fc1b3424d)" d="M 448.116364 182.796776 
L 451.722909 182.79656 
L 455.329455 182.796344 
L 458.936 182.796127 
L 462.542545 182.795911 
L 466.149091 182.795695 
L 469.755636 182.795479 
L 473.362182 182.795262 
L 476.968727 182.795046 
L 480.575273 182.79483 
L 484.181818 182.794613 
L 487.788364 182.794397 
L 491.394909 182.79418 
L 495.001455 182.793964 
L 498.608 182.793747 
L 502.214545 182.79353 
L 505.821091 182.793314 
L 509.427636 182.793097 
L 513.034182 182.79288 
L 516.640727 182.792664 
L 520.247273 182.792447 
L 523.853818 182.79223 
L 527.460364 182.792013 
L 531.066909 182.791796 
L 534.673455 182.79158 
L 538.28 182.791363 
L 541.886545 182.791146 
L 545.493091 182.790929 
L 549.099636 182.790712 
L 552.706182 182.790495 
L 556.312727 182.790278 
L 559.919273 182.79006 
L 563.525818 182.789843 
L 567.132364 182.789626 
L 570.738909 182.789409 
L 574.345455 182.789192 
L 577.952 182.788974 
L 581.558545 182.788757 
L 585.165091 182.78854 
L 588.771636 182.788322 
L 592.378182 182.788105 
L 595.984727 182.787887 
L 599.591273 182.78767 
L 603.197818 182.787452 
L 606.804364 182.787235 
L 610.410909 182.787017 
L 614.017455 182.7868 
L 617.624 182.786582 
L 621.230545 182.786364 
L 624.837091 182.786147 
L 628.443636 182.785929 
" style="fill:none;stroke:#ff0000;stroke-dasharray:5.6,2.4;stroke-dashoffset:0;stroke-width:1.5;"/>
   </g>
   <g id="line2d_6">
    <path clip-path="url(#p6fc1b3424d)" d="M 448.116364 191.44188 
L 451.722909 191.442096 
L 455.329455 191.442313 
L 458.936 191.442529 
L 462.542545 191.442745 
L 466.149091 191.442961 
L 469.755636 191.443178 
L 473.362182 191.443394 
L 476.968727 191.44361 
L 480.575273 191.443827 
L 484.181818 191.444043 
L 487.788364 191.44426 
L 491.394909 191.444476 
L 495.001455 191.444693 
L 498.608 191.444909 
L 502.214545 191.445126 
L 505.821091 191.445342 
L 509.427636 191.445559 
L 513.034182 191.445776 
L 516.640727 191.445992 
L 520.247273 191.446209 
L 523.853818 191.446426 
L 527.460364 191.446643 
L 531.066909 191.44686 
L 534.673455 191.447077 
L 538.28 191.447294 
L 541.886545 191.44751 
L 545.493091 191.447727 
L 549.099636 191.447945 
L 552.706182 191.448162 
L 556.312727 191.448379 
L 559.919273 191.448596 
L 563.525818 191.448813 
L 567.132364 191.44903 
L 570.738909 191.449247 
L 574.345455 191.449465 
L 577.952 191.449682 
L 581.558545 191.449899 
L 585.165091 191.450117 
L 588.771636 191.450334 
L 592.378182 191.450551 
L 595.984727 191.450769 
L 599.591273 191.450986 
L 603.197818 191.451204 
L 606.804364 191.451421 
L 610.410909 191.451639 
L 614.017455 191.451857 
L 617.624 191.452074 
L 621.230545 191.452292 
L 624.837091 191.45251 
L 628.443636 191.452727 
" style="fill:none;stroke:#ff0000;stroke-dasharray:5.6,2.4;stroke-dashoffset:0;stroke-width:1.5;"/>
   </g>
   <g id="patch_13">
    <path d="M 439.1 200.06 
L 439.1 10.7 
" style="fill:none;stroke:#000000;stroke-linecap:square;stroke-linejoin:miter;stroke-width:0.8;"/>
   </g>
   <g id="patch_14">
    <path d="M 637.46 200.06 
L 637.46 10.7 
" style="fill:none;stroke:#000000;stroke-linecap:square;stroke-linejoin:miter;stroke-width:0.8;"/>
   </g>
   <g id="patch_15">
    <path d="M 439.1 200.06 
L 637.46 200.06 
" style="fill:none;stroke:#000000;stroke-linecap:square;stroke-linejoin:miter;stroke-width:0.8;"/>
   </g>
   <g id="patch_16">
    <path d="M 439.1 10.7 
L 637.46 10.7 
" style="fill:none;stroke:#000000;stroke-linecap:square;stroke-linejoin:miter;stroke-width:0.8;"/>
   </g>
  </g>
  <g id="axes_4">
   <g id="patch_17">
    <path d="M 653.3 200.06 
L 851.66 200.06 
L 851.66 10.7 
L 653.3 10.7 
z
" style="fill:#ffffff;"/>
   </g>
   <g id="matplotlib.axis_7">
    <g id="xtick_19"/>
    <g id="xtick_20"/>
    <g id="xtick_21"/>
    <g id="xtick_22"/>
    <g id="xtick_23"/>
    <g id="xtick_24"/>
   </g>
   <g id="matplotlib.axis_8">
    <g id="ytick_19"/>
    <g id="ytick_20"/>
    <g id="ytick_21"/>
    <g id="ytick_22"/>
    <g id="ytick_23"/>
    <g id="ytick_24"/>
   </g>
   <g id="LineCollection_4">
    <path clip-path="url(#p4729f6bfe5)" d="M 662.316364 187.119328 
L 662.316364 19.307273 
" style="fill:none;stroke:#000000;stroke-width:1.5;"/>
    <path clip-path="url(#p4729f6bfe5)" d="M 665.922909 187.119328 
L 665.922909 160.516855 
" style="fill:none;stroke:#000000;stroke-width:1.5;"/>
    <path clip-path="url(#p4729f6bfe5)" d="M 669.529455 187.119328 
L 669.529455 177.049941 
" style="fill:none;stroke:#000000;stroke-width:1.5;"/>
    <path clip-path="url(#p4729f6bfe5)" d="M 673.136 187.119328 
L 673.136 182.703817 
" style="fill:none;stroke:#000000;stroke-width:1.5;"/>
    <path clip-path="url(#p4729f6bfe5)" d="M 676.742545 187.119328 
L 676.742545 183.780509 
" style="fill:none;stroke:#000000;stroke-width:1.5;"/>
    <path clip-path="url(#p4729f6bfe5)" d="M 680.349091 187.119328 
L 680.349091 185.042807 
" style="fill:none;stroke:#000000;stroke-width:1.5;"/>
    <path clip-path="url(#p4729f6bfe5)" d="M 683.955636 187.119328 
L 683.955636 185.080081 
" style="fill:none;stroke:#000000;stroke-width:1.5;"/>
    <path clip-path="url(#p4729f6bfe5)" d="M 687.562182 187.119328 
L 687.562182 184.852339 
" style="fill:none;stroke:#000000;stroke-width:1.5;"/>
    <path clip-path="url(#p4729f6bfe5)" d="M 691.168727 187.119328 
L 691.168727 183.185958 
" style="fill:none;stroke:#000000;stroke-width:1.5;"/>
    <path clip-path="url(#p4729f6bfe5)" d="M 694.775273 187.119328 
L 694.775273 184.407287 
" style="fill:none;stroke:#000000;stroke-width:1.5;"/>
    <path clip-path="url(#p4729f6bfe5)" d="M 698.381818 187.119328 
L 698.381818 186.974357 
" style="fill:none;stroke:#000000;stroke-width:1.5;"/>
    <path clip-path="url(#p4729f6bfe5)" d="M 701.988364 187.119328 
L 701.988364 186.493516 
" style="fill:none;stroke:#000000;stroke-width:1.5;"/>
    <path clip-path="url(#p4729f6bfe5)" d="M 705.594909 187.119328 
L 705.594909 188.686492 
" style="fill:none;stroke:#000000;stroke-width:1.5;"/>
    <path clip-path="url(#p4729f6bfe5)" d="M 709.201455 187.119328 
L 709.201455 188.057223 
" style="fill:none;stroke:#000000;stroke-width:1.5;"/>
    <path clip-path="url(#p4729f6bfe5)" d="M 712.808 187.119328 
L 712.808 189.137523 
" style="fill:none;stroke:#000000;stroke-width:1.5;"/>
    <path clip-path="url(#p4729f6bfe5)" d="M 716.414545 187.119328 
L 716.414545 187.9735 
" style="fill:none;stroke:#000000;stroke-width:1.5;"/>
    <path clip-path="url(#p4729f6bfe5)" d="M 720.021091 187.119328 
L 720.021091 186.283045 
" style="fill:none;stroke:#000000;stroke-width:1.5;"/>
    <path clip-path="url(#p4729f6bfe5)" d="M 723.627636 187.119328 
L 723.627636 186.542859 
" style="fill:none;stroke:#000000;stroke-width:1.5;"/>
    <path clip-path="url(#p4729f6bfe5)" d="M 727.234182 187.119328 
L 727.234182 186.294754 
" style="fill:none;stroke:#000000;stroke-width:1.5;"/>
    <path clip-path="url(#p4729f6bfe5)" d="M 730.840727 187.119328 
L 730.840727 186.899786 
" style="fill:none;stroke:#000000;stroke-width:1.5;"/>
    <path clip-path="url(#p4729f6bfe5)" d="M 734.447273 187.119328 
L 734.447273 187.076962 
" style="fill:none;stroke:#000000;stroke-width:1.5;"/>
    <path clip-path="url(#p4729f6bfe5)" d="M 738.053818 187.119328 
L 738.053818 188.660888 
" style="fill:none;stroke:#000000;stroke-width:1.5;"/>
    <path clip-path="url(#p4729f6bfe5)" d="M 741.660364 187.119328 
L 741.660364 187.367646 
" style="fill:none;stroke:#000000;stroke-width:1.5;"/>
    <path clip-path="url(#p4729f6bfe5)" d="M 745.266909 187.119328 
L 745.266909 185.663405 
" style="fill:none;stroke:#000000;stroke-width:1.5;"/>
    <path clip-path="url(#p4729f6bfe5)" d="M 748.873455 187.119328 
L 748.873455 188.315051 
" style="fill:none;stroke:#000000;stroke-width:1.5;"/>
    <path clip-path="url(#p4729f6bfe5)" d="M 752.48 187.119328 
L 752.48 185.162514 
" style="fill:none;stroke:#000000;stroke-width:1.5;"/>
    <path clip-path="url(#p4729f6bfe5)" d="M 756.086545 187.119328 
L 756.086545 185.779268 
" style="fill:none;stroke:#000000;stroke-width:1.5;"/>
    <path clip-path="url(#p4729f6bfe5)" d="M 759.693091 187.119328 
L 759.693091 188.541606 
" style="fill:none;stroke:#000000;stroke-width:1.5;"/>
    <path clip-path="url(#p4729f6bfe5)" d="M 763.299636 187.119328 
L 763.299636 187.218555 
" style="fill:none;stroke:#000000;stroke-width:1.5;"/>
    <path clip-path="url(#p4729f6bfe5)" d="M 766.906182 187.119328 
L 766.906182 186.800443 
" style="fill:none;stroke:#000000;stroke-width:1.5;"/>
    <path clip-path="url(#p4729f6bfe5)" d="M 770.512727 187.119328 
L 770.512727 187.01057 
" style="fill:none;stroke:#000000;stroke-width:1.5;"/>
    <path clip-path="url(#p4729f6bfe5)" d="M 774.119273 187.119328 
L 774.119273 189.125586 
" style="fill:none;stroke:#000000;stroke-width:1.5;"/>
    <path clip-path="url(#p4729f6bfe5)" d="M 777.725818 187.119328 
L 777.725818 187.421247 
" style="fill:none;stroke:#000000;stroke-width:1.5;"/>
    <path clip-path="url(#p4729f6bfe5)" d="M 781.332364 187.119328 
L 781.332364 187.062214 
" style="fill:none;stroke:#000000;stroke-width:1.5;"/>
    <path clip-path="url(#p4729f6bfe5)" d="M 784.938909 187.119328 
L 784.938909 183.659896 
" style="fill:none;stroke:#000000;stroke-width:1.5;"/>
    <path clip-path="url(#p4729f6bfe5)" d="M 788.545455 187.119328 
L 788.545455 189.791059 
" style="fill:none;stroke:#000000;stroke-width:1.5;"/>
    <path clip-path="url(#p4729f6bfe5)" d="M 792.152 187.119328 
L 792.152 187.037683 
" style="fill:none;stroke:#000000;stroke-width:1.5;"/>
    <path clip-path="url(#p4729f6bfe5)" d="M 795.758545 187.119328 
L 795.758545 185.862377 
" style="fill:none;stroke:#000000;stroke-width:1.5;"/>
    <path clip-path="url(#p4729f6bfe5)" d="M 799.365091 187.119328 
L 799.365091 185.029097 
" style="fill:none;stroke:#000000;stroke-width:1.5;"/>
    <path clip-path="url(#p4729f6bfe5)" d="M 802.971636 187.119328 
L 802.971636 183.369602 
" style="fill:none;stroke:#000000;stroke-width:1.5;"/>
    <path clip-path="url(#p4729f6bfe5)" d="M 806.578182 187.119328 
L 806.578182 187.325895 
" style="fill:none;stroke:#000000;stroke-width:1.5;"/>
    <path clip-path="url(#p4729f6bfe5)" d="M 810.184727 187.119328 
L 810.184727 186.787069 
" style="fill:none;stroke:#000000;stroke-width:1.5;"/>
    <path clip-path="url(#p4729f6bfe5)" d="M 813.791273 187.119328 
L 813.791273 187.111197 
" style="fill:none;stroke:#000000;stroke-width:1.5;"/>
    <path clip-path="url(#p4729f6bfe5)" d="M 817.397818 187.119328 
L 817.397818 187.869012 
" style="fill:none;stroke:#000000;stroke-width:1.5;"/>
    <path clip-path="url(#p4729f6bfe5)" d="M 821.004364 187.119328 
L 821.004364 185.548919 
" style="fill:none;stroke:#000000;stroke-width:1.5;"/>
    <path clip-path="url(#p4729f6bfe5)" d="M 824.610909 187.119328 
L 824.610909 186.693964 
" style="fill:none;stroke:#000000;stroke-width:1.5;"/>
    <path clip-path="url(#p4729f6bfe5)" d="M 828.217455 187.119328 
L 828.217455 186.092598 
" style="fill:none;stroke:#000000;stroke-width:1.5;"/>
    <path clip-path="url(#p4729f6bfe5)" d="M 831.824 187.119328 
L 831.824 186.056881 
" style="fill:none;stroke:#000000;stroke-width:1.5;"/>
    <path clip-path="url(#p4729f6bfe5)" d="M 835.430545 187.119328 
L 835.430545 184.812848 
" style="fill:none;stroke:#000000;stroke-width:1.5;"/>
    <path clip-path="url(#p4729f6bfe5)" d="M 839.037091 187.119328 
L 839.037091 188.289912 
" style="fill:none;stroke:#000000;stroke-width:1.5;"/>
    <path clip-path="url(#p4729f6bfe5)" d="M 842.643636 187.119328 
L 842.643636 188.240698 
" style="fill:none;stroke:#000000;stroke-width:1.5;"/>
   </g>
   <g id="line2d_7">
    <path clip-path="url(#p4729f6bfe5)" d="M 662.316364 182.796776 
L 665.922909 182.79656 
L 669.529455 182.796344 
L 673.136 182.796127 
L 676.742545 182.795911 
L 680.349091 182.795695 
L 683.955636 182.795479 
L 687.562182 182.795262 
L 691.168727 182.795046 
L 694.775273 182.79483 
L 698.381818 182.794613 
L 701.988364 182.794397 
L 705.594909 182.79418 
L 709.201455 182.793964 
L 712.808 182.793747 
L 716.414545 182.79353 
L 720.021091 182.793314 
L 723.627636 182.793097 
L 727.234182 182.79288 
L 730.840727 182.792664 
L 734.447273 182.792447 
L 738.053818 182.79223 
L 741.660364 182.792013 
L 745.266909 182.791796 
L 748.873455 182.79158 
L 752.48 182.791363 
L 756.086545 182.791146 
L 759.693091 182.790929 
L 763.299636 182.790712 
L 766.906182 182.790495 
L 770.512727 182.790278 
L 774.119273 182.79006 
L 777.725818 182.789843 
L 781.332364 182.789626 
L 784.938909 182.789409 
L 788.545455 182.789192 
L 792.152 182.788974 
L 795.758545 182.788757 
L 799.365091 182.78854 
L 802.971636 182.788322 
L 806.578182 182.788105 
L 810.184727 182.787887 
L 813.791273 182.78767 
L 817.397818 182.787452 
L 821.004364 182.787235 
L 824.610909 182.787017 
L 828.217455 182.7868 
L 831.824 182.786582 
L 835.430545 182.786364 
L 839.037091 182.786147 
L 842.643636 182.785929 
" style="fill:none;stroke:#ff0000;stroke-dasharray:5.6,2.4;stroke-dashoffset:0;stroke-width:1.5;"/>
   </g>
   <g id="line2d_8">
    <path clip-path="url(#p4729f6bfe5)" d="M 662.316364 191.44188 
L 665.922909 191.442096 
L 669.529455 191.442313 
L 673.136 191.442529 
L 676.742545 191.442745 
L 680.349091 191.442961 
L 683.955636 191.443178 
L 687.562182 191.443394 
L 691.168727 191.44361 
L 694.775273 191.443827 
L 698.381818 191.444043 
L 701.988364 191.44426 
L 705.594909 191.444476 
L 709.201455 191.444693 
L 712.808 191.444909 
L 716.414545 191.445126 
L 720.021091 191.445342 
L 723.627636 191.445559 
L 727.234182 191.445776 
L 730.840727 191.445992 
L 734.447273 191.446209 
L 738.053818 191.446426 
L 741.660364 191.446643 
L 745.266909 191.44686 
L 748.873455 191.447077 
L 752.48 191.447294 
L 756.086545 191.44751 
L 759.693091 191.447727 
L 763.299636 191.447945 
L 766.906182 191.448162 
L 770.512727 191.448379 
L 774.119273 191.448596 
L 777.725818 191.448813 
L 781.332364 191.44903 
L 784.938909 191.449247 
L 788.545455 191.449465 
L 792.152 191.449682 
L 795.758545 191.449899 
L 799.365091 191.450117 
L 802.971636 191.450334 
L 806.578182 191.450551 
L 810.184727 191.450769 
L 813.791273 191.450986 
L 817.397818 191.451204 
L 821.004364 191.451421 
L 824.610909 191.451639 
L 828.217455 191.451857 
L 831.824 191.452074 
L 835.430545 191.452292 
L 839.037091 191.45251 
L 842.643636 191.452727 
" style="fill:none;stroke:#ff0000;stroke-dasharray:5.6,2.4;stroke-dashoffset:0;stroke-width:1.5;"/>
   </g>
   <g id="patch_18">
    <path d="M 653.3 200.06 
L 653.3 10.7 
" style="fill:none;stroke:#000000;stroke-linecap:square;stroke-linejoin:miter;stroke-width:0.8;"/>
   </g>
   <g id="patch_19">
    <path d="M 851.66 200.06 
L 851.66 10.7 
" style="fill:none;stroke:#000000;stroke-linecap:square;stroke-linejoin:miter;stroke-width:0.8;"/>
   </g>
   <g id="patch_20">
    <path d="M 653.3 200.06 
L 851.66 200.06 
" style="fill:none;stroke:#000000;stroke-linecap:square;stroke-linejoin:miter;stroke-width:0.8;"/>
   </g>
   <g id="patch_21">
    <path d="M 653.3 10.7 
L 851.66 10.7 
" style="fill:none;stroke:#000000;stroke-linecap:square;stroke-linejoin:miter;stroke-width:0.8;"/>
   </g>
  </g>
  <g id="axes_5">
   <g id="patch_22">
    <path d="M 867.5 200.06 
L 1065.86 200.06 
L 1065.86 10.7 
L 867.5 10.7 
z
" style="fill:#ffffff;"/>
   </g>
   <g id="matplotlib.axis_9">
    <g id="xtick_25"/>
    <g id="xtick_26"/>
    <g id="xtick_27"/>
    <g id="xtick_28"/>
    <g id="xtick_29"/>
    <g id="xtick_30"/>
   </g>
   <g id="matplotlib.axis_10">
    <g id="ytick_25"/>
    <g id="ytick_26"/>
    <g id="ytick_27"/>
    <g id="ytick_28"/>
    <g id="ytick_29"/>
    <g id="ytick_30"/>
   </g>
   <g id="LineCollection_5">
    <path clip-path="url(#p88287ec3c7)" d="M 876.516364 187.119328 
L 876.516364 19.307273 
" style="fill:none;stroke:#000000;stroke-width:1.5;"/>
    <path clip-path="url(#p88287ec3c7)" d="M 880.122909 187.119328 
L 880.122909 159.830978 
" style="fill:none;stroke:#000000;stroke-width:1.5;"/>
    <path clip-path="url(#p88287ec3c7)" d="M 883.729455 187.119328 
L 883.729455 176.791598 
" style="fill:none;stroke:#000000;stroke-width:1.5;"/>
    <path clip-path="url(#p88287ec3c7)" d="M 887.336 187.119328 
L 887.336 182.95988 
" style="fill:none;stroke:#000000;stroke-width:1.5;"/>
    <path clip-path="url(#p88287ec3c7)" d="M 890.942545 187.119328 
L 890.942545 182.691617 
" style="fill:none;stroke:#000000;stroke-width:1.5;"/>
    <path clip-path="url(#p88287ec3c7)" d="M 894.549091 187.119328 
L 894.549091 184.545195 
" style="fill:none;stroke:#000000;stroke-width:1.5;"/>
    <path clip-path="url(#p88287ec3c7)" d="M 898.155636 187.119328 
L 898.155636 184.843545 
" style="fill:none;stroke:#000000;stroke-width:1.5;"/>
    <path clip-path="url(#p88287ec3c7)" d="M 901.762182 187.119328 
L 901.762182 184.93184 
" style="fill:none;stroke:#000000;stroke-width:1.5;"/>
    <path clip-path="url(#p88287ec3c7)" d="M 905.368727 187.119328 
L 905.368727 183.732756 
" style="fill:none;stroke:#000000;stroke-width:1.5;"/>
    <path clip-path="url(#p88287ec3c7)" d="M 908.975273 187.119328 
L 908.975273 184.927702 
" style="fill:none;stroke:#000000;stroke-width:1.5;"/>
    <path clip-path="url(#p88287ec3c7)" d="M 912.581818 187.119328 
L 912.581818 186.406745 
" style="fill:none;stroke:#000000;stroke-width:1.5;"/>
    <path clip-path="url(#p88287ec3c7)" d="M 916.188364 187.119328 
L 916.188364 185.424133 
" style="fill:none;stroke:#000000;stroke-width:1.5;"/>
    <path clip-path="url(#p88287ec3c7)" d="M 919.794909 187.119328 
L 919.794909 188.674336 
" style="fill:none;stroke:#000000;stroke-width:1.5;"/>
    <path clip-path="url(#p88287ec3c7)" d="M 923.401455 187.119328 
L 923.401455 187.40301 
" style="fill:none;stroke:#000000;stroke-width:1.5;"/>
    <path clip-path="url(#p88287ec3c7)" d="M 927.008 187.119328 
L 927.008 188.883902 
" style="fill:none;stroke:#000000;stroke-width:1.5;"/>
    <path clip-path="url(#p88287ec3c7)" d="M 930.614545 187.119328 
L 930.614545 187.029268 
" style="fill:none;stroke:#000000;stroke-width:1.5;"/>
    <path clip-path="url(#p88287ec3c7)" d="M 934.221091 187.119328 
L 934.221091 187.998166 
" style="fill:none;stroke:#000000;stroke-width:1.5;"/>
    <path clip-path="url(#p88287ec3c7)" d="M 937.827636 187.119328 
L 937.827636 187.467959 
" style="fill:none;stroke:#000000;stroke-width:1.5;"/>
    <path clip-path="url(#p88287ec3c7)" d="M 941.434182 187.119328 
L 941.434182 187.30357 
" style="fill:none;stroke:#000000;stroke-width:1.5;"/>
    <path clip-path="url(#p88287ec3c7)" d="M 945.040727 187.119328 
L 945.040727 187.837856 
" style="fill:none;stroke:#000000;stroke-width:1.5;"/>
    <path clip-path="url(#p88287ec3c7)" d="M 948.647273 187.119328 
L 948.647273 187.072261 
" style="fill:none;stroke:#000000;stroke-width:1.5;"/>
    <path clip-path="url(#p88287ec3c7)" d="M 952.253818 187.119328 
L 952.253818 188.139168 
" style="fill:none;stroke:#000000;stroke-width:1.5;"/>
    <path clip-path="url(#p88287ec3c7)" d="M 955.860364 187.119328 
L 955.860364 186.272575 
" style="fill:none;stroke:#000000;stroke-width:1.5;"/>
    <path clip-path="url(#p88287ec3c7)" d="M 959.466909 187.119328 
L 959.466909 187.711884 
" style="fill:none;stroke:#000000;stroke-width:1.5;"/>
    <path clip-path="url(#p88287ec3c7)" d="M 963.073455 187.119328 
L 963.073455 188.543553 
" style="fill:none;stroke:#000000;stroke-width:1.5;"/>
    <path clip-path="url(#p88287ec3c7)" d="M 966.68 187.119328 
L 966.68 184.768385 
" style="fill:none;stroke:#000000;stroke-width:1.5;"/>
    <path clip-path="url(#p88287ec3c7)" d="M 970.286545 187.119328 
L 970.286545 186.821953 
" style="fill:none;stroke:#000000;stroke-width:1.5;"/>
    <path clip-path="url(#p88287ec3c7)" d="M 973.893091 187.119328 
L 973.893091 188.676566 
" style="fill:none;stroke:#000000;stroke-width:1.5;"/>
    <path clip-path="url(#p88287ec3c7)" d="M 977.499636 187.119328 
L 977.499636 185.658422 
" style="fill:none;stroke:#000000;stroke-width:1.5;"/>
    <path clip-path="url(#p88287ec3c7)" d="M 981.106182 187.119328 
L 981.106182 186.070972 
" style="fill:none;stroke:#000000;stroke-width:1.5;"/>
    <path clip-path="url(#p88287ec3c7)" d="M 984.712727 187.119328 
L 984.712727 186.301126 
" style="fill:none;stroke:#000000;stroke-width:1.5;"/>
    <path clip-path="url(#p88287ec3c7)" d="M 988.319273 187.119328 
L 988.319273 188.960464 
" style="fill:none;stroke:#000000;stroke-width:1.5;"/>
    <path clip-path="url(#p88287ec3c7)" d="M 991.925818 187.119328 
L 991.925818 188.74419 
" style="fill:none;stroke:#000000;stroke-width:1.5;"/>
    <path clip-path="url(#p88287ec3c7)" d="M 995.532364 187.119328 
L 995.532364 187.910941 
" style="fill:none;stroke:#000000;stroke-width:1.5;"/>
    <path clip-path="url(#p88287ec3c7)" d="M 999.138909 187.119328 
L 999.138909 184.080277 
" style="fill:none;stroke:#000000;stroke-width:1.5;"/>
    <path clip-path="url(#p88287ec3c7)" d="M 1002.745455 187.119328 
L 1002.745455 188.985211 
" style="fill:none;stroke:#000000;stroke-width:1.5;"/>
    <path clip-path="url(#p88287ec3c7)" d="M 1006.352 187.119328 
L 1006.352 187.540189 
" style="fill:none;stroke:#000000;stroke-width:1.5;"/>
    <path clip-path="url(#p88287ec3c7)" d="M 1009.958545 187.119328 
L 1009.958545 185.644731 
" style="fill:none;stroke:#000000;stroke-width:1.5;"/>
    <path clip-path="url(#p88287ec3c7)" d="M 1013.565091 187.119328 
L 1013.565091 184.428091 
" style="fill:none;stroke:#000000;stroke-width:1.5;"/>
    <path clip-path="url(#p88287ec3c7)" d="M 1017.171636 187.119328 
L 1017.171636 183.128122 
" style="fill:none;stroke:#000000;stroke-width:1.5;"/>
    <path clip-path="url(#p88287ec3c7)" d="M 1020.778182 187.119328 
L 1020.778182 187.432454 
" style="fill:none;stroke:#000000;stroke-width:1.5;"/>
    <path clip-path="url(#p88287ec3c7)" d="M 1024.384727 187.119328 
L 1024.384727 187.724411 
" style="fill:none;stroke:#000000;stroke-width:1.5;"/>
    <path clip-path="url(#p88287ec3c7)" d="M 1027.991273 187.119328 
L 1027.991273 188.017768 
" style="fill:none;stroke:#000000;stroke-width:1.5;"/>
    <path clip-path="url(#p88287ec3c7)" d="M 1031.597818 187.119328 
L 1031.597818 189.228993 
" style="fill:none;stroke:#000000;stroke-width:1.5;"/>
    <path clip-path="url(#p88287ec3c7)" d="M 1035.204364 187.119328 
L 1035.204364 185.541958 
" style="fill:none;stroke:#000000;stroke-width:1.5;"/>
    <path clip-path="url(#p88287ec3c7)" d="M 1038.810909 187.119328 
L 1038.810909 186.914672 
" style="fill:none;stroke:#000000;stroke-width:1.5;"/>
    <path clip-path="url(#p88287ec3c7)" d="M 1042.417455 187.119328 
L 1042.417455 185.396909 
" style="fill:none;stroke:#000000;stroke-width:1.5;"/>
    <path clip-path="url(#p88287ec3c7)" d="M 1046.024 187.119328 
L 1046.024 186.242235 
" style="fill:none;stroke:#000000;stroke-width:1.5;"/>
    <path clip-path="url(#p88287ec3c7)" d="M 1049.630545 187.119328 
L 1049.630545 185.249025 
" style="fill:none;stroke:#000000;stroke-width:1.5;"/>
    <path clip-path="url(#p88287ec3c7)" d="M 1053.237091 187.119328 
L 1053.237091 187.442926 
" style="fill:none;stroke:#000000;stroke-width:1.5;"/>
    <path clip-path="url(#p88287ec3c7)" d="M 1056.843636 187.119328 
L 1056.843636 188.266305 
" style="fill:none;stroke:#000000;stroke-width:1.5;"/>
   </g>
   <g id="line2d_9">
    <path clip-path="url(#p88287ec3c7)" d="M 876.516364 182.796776 
L 880.122909 182.79656 
L 883.729455 182.796344 
L 887.336 182.796127 
L 890.942545 182.795911 
L 894.549091 182.795695 
L 898.155636 182.795479 
L 901.762182 182.795262 
L 905.368727 182.795046 
L 908.975273 182.79483 
L 912.581818 182.794613 
L 916.188364 182.794397 
L 919.794909 182.79418 
L 923.401455 182.793964 
L 927.008 182.793747 
L 930.614545 182.79353 
L 934.221091 182.793314 
L 937.827636 182.793097 
L 941.434182 182.79288 
L 945.040727 182.792664 
L 948.647273 182.792447 
L 952.253818 182.79223 
L 955.860364 182.792013 
L 959.466909 182.791796 
L 963.073455 182.79158 
L 966.68 182.791363 
L 970.286545 182.791146 
L 973.893091 182.790929 
L 977.499636 182.790712 
L 981.106182 182.790495 
L 984.712727 182.790278 
L 988.319273 182.79006 
L 991.925818 182.789843 
L 995.532364 182.789626 
L 999.138909 182.789409 
L 1002.745455 182.789192 
L 1006.352 182.788974 
L 1009.958545 182.788757 
L 1013.565091 182.78854 
L 1017.171636 182.788322 
L 1020.778182 182.788105 
L 1024.384727 182.787887 
L 1027.991273 182.78767 
L 1031.597818 182.787452 
L 1035.204364 182.787235 
L 1038.810909 182.787017 
L 1042.417455 182.7868 
L 1046.024 182.786582 
L 1049.630545 182.786364 
L 1053.237091 182.786147 
L 1056.843636 182.785929 
" style="fill:none;stroke:#ff0000;stroke-dasharray:5.6,2.4;stroke-dashoffset:0;stroke-width:1.5;"/>
   </g>
   <g id="line2d_10">
    <path clip-path="url(#p88287ec3c7)" d="M 876.516364 191.44188 
L 880.122909 191.442096 
L 883.729455 191.442313 
L 887.336 191.442529 
L 890.942545 191.442745 
L 894.549091 191.442961 
L 898.155636 191.443178 
L 901.762182 191.443394 
L 905.368727 191.44361 
L 908.975273 191.443827 
L 912.581818 191.444043 
L 916.188364 191.44426 
L 919.794909 191.444476 
L 923.401455 191.444693 
L 927.008 191.444909 
L 930.614545 191.445126 
L 934.221091 191.445342 
L 937.827636 191.445559 
L 941.434182 191.445776 
L 945.040727 191.445992 
L 948.647273 191.446209 
L 952.253818 191.446426 
L 955.860364 191.446643 
L 959.466909 191.44686 
L 963.073455 191.447077 
L 966.68 191.447294 
L 970.286545 191.44751 
L 973.893091 191.447727 
L 977.499636 191.447945 
L 981.106182 191.448162 
L 984.712727 191.448379 
L 988.319273 191.448596 
L 991.925818 191.448813 
L 995.532364 191.44903 
L 999.138909 191.449247 
L 1002.745455 191.449465 
L 1006.352 191.449682 
L 1009.958545 191.449899 
L 1013.565091 191.450117 
L 1017.171636 191.450334 
L 1020.778182 191.450551 
L 1024.384727 191.450769 
L 1027.991273 191.450986 
L 1031.597818 191.451204 
L 1035.204364 191.451421 
L 1038.810909 191.451639 
L 1042.417455 191.451857 
L 1046.024 191.452074 
L 1049.630545 191.452292 
L 1053.237091 191.45251 
L 1056.843636 191.452727 
" style="fill:none;stroke:#ff0000;stroke-dasharray:5.6,2.4;stroke-dashoffset:0;stroke-width:1.5;"/>
   </g>
   <g id="patch_23">
    <path d="M 867.5 200.06 
L 867.5 10.7 
" style="fill:none;stroke:#000000;stroke-linecap:square;stroke-linejoin:miter;stroke-width:0.8;"/>
   </g>
   <g id="patch_24">
    <path d="M 1065.86 200.06 
L 1065.86 10.7 
" style="fill:none;stroke:#000000;stroke-linecap:square;stroke-linejoin:miter;stroke-width:0.8;"/>
   </g>
   <g id="patch_25">
    <path d="M 867.5 200.06 
L 1065.86 200.06 
" style="fill:none;stroke:#000000;stroke-linecap:square;stroke-linejoin:miter;stroke-width:0.8;"/>
   </g>
   <g id="patch_26">
    <path d="M 867.5 10.7 
L 1065.86 10.7 
" style="fill:none;stroke:#000000;stroke-linecap:square;stroke-linejoin:miter;stroke-width:0.8;"/>
   </g>
  </g>
  <g id="axes_6">
   <g id="patch_27">
    <path d="M 1081.7 200.06 
L 1280.06 200.06 
L 1280.06 10.7 
L 1081.7 10.7 
z
" style="fill:#ffffff;"/>
   </g>
   <g id="matplotlib.axis_11">
    <g id="xtick_31"/>
    <g id="xtick_32"/>
    <g id="xtick_33"/>
    <g id="xtick_34"/>
    <g id="xtick_35"/>
    <g id="xtick_36"/>
   </g>
   <g id="matplotlib.axis_12">
    <g id="ytick_31"/>
    <g id="ytick_32"/>
    <g id="ytick_33"/>
    <g id="ytick_34"/>
    <g id="ytick_35"/>
    <g id="ytick_36"/>
   </g>
   <g id="LineCollection_6">
    <path clip-path="url(#peb2df768c3)" d="M 1090.716364 187.119328 
L 1090.716364 19.307273 
" style="fill:none;stroke:#000000;stroke-width:1.5;"/>
    <path clip-path="url(#peb2df768c3)" d="M 1094.322909 187.119328 
L 1094.322909 160.733126 
" style="fill:none;stroke:#000000;stroke-width:1.5;"/>
    <path clip-path="url(#peb2df768c3)" d="M 1097.929455 187.119328 
L 1097.929455 177.542928 
" style="fill:none;stroke:#000000;stroke-width:1.5;"/>
    <path clip-path="url(#peb2df768c3)" d="M 1101.536 187.119328 
L 1101.536 184.031157 
" style="fill:none;stroke:#000000;stroke-width:1.5;"/>
    <path clip-path="url(#peb2df768c3)" d="M 1105.142545 187.119328 
L 1105.142545 183.095264 
" style="fill:none;stroke:#000000;stroke-width:1.5;"/>
    <path clip-path="url(#peb2df768c3)" d="M 1108.749091 187.119328 
L 1108.749091 184.403333 
" style="fill:none;stroke:#000000;stroke-width:1.5;"/>
    <path clip-path="url(#peb2df768c3)" d="M 1112.355636 187.119328 
L 1112.355636 185.527262 
" style="fill:none;stroke:#000000;stroke-width:1.5;"/>
    <path clip-path="url(#peb2df768c3)" d="M 1115.962182 187.119328 
L 1115.962182 185.002438 
" style="fill:none;stroke:#000000;stroke-width:1.5;"/>
    <path clip-path="url(#peb2df768c3)" d="M 1119.568727 187.119328 
L 1119.568727 184.822972 
" style="fill:none;stroke:#000000;stroke-width:1.5;"/>
    <path clip-path="url(#peb2df768c3)" d="M 1123.175273 187.119328 
L 1123.175273 185.640255 
" style="fill:none;stroke:#000000;stroke-width:1.5;"/>
    <path clip-path="url(#peb2df768c3)" d="M 1126.781818 187.119328 
L 1126.781818 187.361983 
" style="fill:none;stroke:#000000;stroke-width:1.5;"/>
    <path clip-path="url(#peb2df768c3)" d="M 1130.388364 187.119328 
L 1130.388364 186.826393 
" style="fill:none;stroke:#000000;stroke-width:1.5;"/>
    <path clip-path="url(#peb2df768c3)" d="M 1133.994909 187.119328 
L 1133.994909 188.612874 
" style="fill:none;stroke:#000000;stroke-width:1.5;"/>
    <path clip-path="url(#peb2df768c3)" d="M 1137.601455 187.119328 
L 1137.601455 186.999274 
" style="fill:none;stroke:#000000;stroke-width:1.5;"/>
    <path clip-path="url(#peb2df768c3)" d="M 1141.208 187.119328 
L 1141.208 189.291769 
" style="fill:none;stroke:#000000;stroke-width:1.5;"/>
    <path clip-path="url(#peb2df768c3)" d="M 1144.814545 187.119328 
L 1144.814545 187.457957 
" style="fill:none;stroke:#000000;stroke-width:1.5;"/>
    <path clip-path="url(#peb2df768c3)" d="M 1148.421091 187.119328 
L 1148.421091 187.360913 
" style="fill:none;stroke:#000000;stroke-width:1.5;"/>
    <path clip-path="url(#peb2df768c3)" d="M 1152.027636 187.119328 
L 1152.027636 186.863335 
" style="fill:none;stroke:#000000;stroke-width:1.5;"/>
    <path clip-path="url(#peb2df768c3)" d="M 1155.634182 187.119328 
L 1155.634182 187.33883 
" style="fill:none;stroke:#000000;stroke-width:1.5;"/>
    <path clip-path="url(#peb2df768c3)" d="M 1159.240727 187.119328 
L 1159.240727 187.231488 
" style="fill:none;stroke:#000000;stroke-width:1.5;"/>
    <path clip-path="url(#peb2df768c3)" d="M 1162.847273 187.119328 
L 1162.847273 185.87041 
" style="fill:none;stroke:#000000;stroke-width:1.5;"/>
    <path clip-path="url(#peb2df768c3)" d="M 1166.453818 187.119328 
L 1166.453818 188.068293 
" style="fill:none;stroke:#000000;stroke-width:1.5;"/>
    <path clip-path="url(#peb2df768c3)" d="M 1170.060364 187.119328 
L 1170.060364 186.879579 
" style="fill:none;stroke:#000000;stroke-width:1.5;"/>
    <path clip-path="url(#peb2df768c3)" d="M 1173.666909 187.119328 
L 1173.666909 186.641054 
" style="fill:none;stroke:#000000;stroke-width:1.5;"/>
    <path clip-path="url(#peb2df768c3)" d="M 1177.273455 187.119328 
L 1177.273455 188.798585 
" style="fill:none;stroke:#000000;stroke-width:1.5;"/>
    <path clip-path="url(#peb2df768c3)" d="M 1180.88 187.119328 
L 1180.88 185.479703 
" style="fill:none;stroke:#000000;stroke-width:1.5;"/>
    <path clip-path="url(#peb2df768c3)" d="M 1184.486545 187.119328 
L 1184.486545 186.309133 
" style="fill:none;stroke:#000000;stroke-width:1.5;"/>
    <path clip-path="url(#peb2df768c3)" d="M 1188.093091 187.119328 
L 1188.093091 188.536247 
" style="fill:none;stroke:#000000;stroke-width:1.5;"/>
    <path clip-path="url(#peb2df768c3)" d="M 1191.699636 187.119328 
L 1191.699636 186.949198 
" style="fill:none;stroke:#000000;stroke-width:1.5;"/>
    <path clip-path="url(#peb2df768c3)" d="M 1195.306182 187.119328 
L 1195.306182 185.255369 
" style="fill:none;stroke:#000000;stroke-width:1.5;"/>
    <path clip-path="url(#peb2df768c3)" d="M 1198.912727 187.119328 
L 1198.912727 185.801199 
" style="fill:none;stroke:#000000;stroke-width:1.5;"/>
    <path clip-path="url(#peb2df768c3)" d="M 1202.519273 187.119328 
L 1202.519273 187.735109 
" style="fill:none;stroke:#000000;stroke-width:1.5;"/>
    <path clip-path="url(#peb2df768c3)" d="M 1206.125818 187.119328 
L 1206.125818 189.418812 
" style="fill:none;stroke:#000000;stroke-width:1.5;"/>
    <path clip-path="url(#peb2df768c3)" d="M 1209.732364 187.119328 
L 1209.732364 189.220862 
" style="fill:none;stroke:#000000;stroke-width:1.5;"/>
    <path clip-path="url(#peb2df768c3)" d="M 1213.338909 187.119328 
L 1213.338909 184.310304 
" style="fill:none;stroke:#000000;stroke-width:1.5;"/>
    <path clip-path="url(#peb2df768c3)" d="M 1216.945455 187.119328 
L 1216.945455 188.207994 
" style="fill:none;stroke:#000000;stroke-width:1.5;"/>
    <path clip-path="url(#peb2df768c3)" d="M 1220.552 187.119328 
L 1220.552 186.545274 
" style="fill:none;stroke:#000000;stroke-width:1.5;"/>
    <path clip-path="url(#peb2df768c3)" d="M 1224.158545 187.119328 
L 1224.158545 185.276712 
" style="fill:none;stroke:#000000;stroke-width:1.5;"/>
    <path clip-path="url(#peb2df768c3)" d="M 1227.765091 187.119328 
L 1227.765091 183.493381 
" style="fill:none;stroke:#000000;stroke-width:1.5;"/>
    <path clip-path="url(#peb2df768c3)" d="M 1231.371636 187.119328 
L 1231.371636 183.73446 
" style="fill:none;stroke:#000000;stroke-width:1.5;"/>
    <path clip-path="url(#peb2df768c3)" d="M 1234.978182 187.119328 
L 1234.978182 188.035332 
" style="fill:none;stroke:#000000;stroke-width:1.5;"/>
    <path clip-path="url(#peb2df768c3)" d="M 1238.584727 187.119328 
L 1238.584727 187.70227 
" style="fill:none;stroke:#000000;stroke-width:1.5;"/>
    <path clip-path="url(#peb2df768c3)" d="M 1242.191273 187.119328 
L 1242.191273 188.152666 
" style="fill:none;stroke:#000000;stroke-width:1.5;"/>
    <path clip-path="url(#peb2df768c3)" d="M 1245.797818 187.119328 
L 1245.797818 187.935483 
" style="fill:none;stroke:#000000;stroke-width:1.5;"/>
    <path clip-path="url(#peb2df768c3)" d="M 1249.404364 187.119328 
L 1249.404364 185.132902 
" style="fill:none;stroke:#000000;stroke-width:1.5;"/>
    <path clip-path="url(#peb2df768c3)" d="M 1253.010909 187.119328 
L 1253.010909 188.127071 
" style="fill:none;stroke:#000000;stroke-width:1.5;"/>
    <path clip-path="url(#peb2df768c3)" d="M 1256.617455 187.119328 
L 1256.617455 185.847908 
" style="fill:none;stroke:#000000;stroke-width:1.5;"/>
    <path clip-path="url(#peb2df768c3)" d="M 1260.224 187.119328 
L 1260.224 186.789544 
" style="fill:none;stroke:#000000;stroke-width:1.5;"/>
    <path clip-path="url(#peb2df768c3)" d="M 1263.830545 187.119328 
L 1263.830545 185.352572 
" style="fill:none;stroke:#000000;stroke-width:1.5;"/>
    <path clip-path="url(#peb2df768c3)" d="M 1267.437091 187.119328 
L 1267.437091 186.134563 
" style="fill:none;stroke:#000000;stroke-width:1.5;"/>
    <path clip-path="url(#peb2df768c3)" d="M 1271.043636 187.119328 
L 1271.043636 187.933508 
" style="fill:none;stroke:#000000;stroke-width:1.5;"/>
   </g>
   <g id="line2d_11">
    <path clip-path="url(#peb2df768c3)" d="M 1090.716364 182.796776 
L 1094.322909 182.79656 
L 1097.929455 182.796344 
L 1101.536 182.796127 
L 1105.142545 182.795911 
L 1108.749091 182.795695 
L 1112.355636 182.795479 
L 1115.962182 182.795262 
L 1119.568727 182.795046 
L 1123.175273 182.79483 
L 1126.781818 182.794613 
L 1130.388364 182.794397 
L 1133.994909 182.79418 
L 1137.601455 182.793964 
L 1141.208 182.793747 
L 1144.814545 182.79353 
L 1148.421091 182.793314 
L 1152.027636 182.793097 
L 1155.634182 182.79288 
L 1159.240727 182.792664 
L 1162.847273 182.792447 
L 1166.453818 182.79223 
L 1170.060364 182.792013 
L 1173.666909 182.791796 
L 1177.273455 182.79158 
L 1180.88 182.791363 
L 1184.486545 182.791146 
L 1188.093091 182.790929 
L 1191.699636 182.790712 
L 1195.306182 182.790495 
L 1198.912727 182.790278 
L 1202.519273 182.79006 
L 1206.125818 182.789843 
L 1209.732364 182.789626 
L 1213.338909 182.789409 
L 1216.945455 182.789192 
L 1220.552 182.788974 
L 1224.158545 182.788757 
L 1227.765091 182.78854 
L 1231.371636 182.788322 
L 1234.978182 182.788105 
L 1238.584727 182.787887 
L 1242.191273 182.78767 
L 1245.797818 182.787452 
L 1249.404364 182.787235 
L 1253.010909 182.787017 
L 1256.617455 182.7868 
L 1260.224 182.786582 
L 1263.830545 182.786364 
L 1267.437091 182.786147 
L 1271.043636 182.785929 
" style="fill:none;stroke:#ff0000;stroke-dasharray:5.6,2.4;stroke-dashoffset:0;stroke-width:1.5;"/>
   </g>
   <g id="line2d_12">
    <path clip-path="url(#peb2df768c3)" d="M 1090.716364 191.44188 
L 1094.322909 191.442096 
L 1097.929455 191.442313 
L 1101.536 191.442529 
L 1105.142545 191.442745 
L 1108.749091 191.442961 
L 1112.355636 191.443178 
L 1115.962182 191.443394 
L 1119.568727 191.44361 
L 1123.175273 191.443827 
L 1126.781818 191.444043 
L 1130.388364 191.44426 
L 1133.994909 191.444476 
L 1137.601455 191.444693 
L 1141.208 191.444909 
L 1144.814545 191.445126 
L 1148.421091 191.445342 
L 1152.027636 191.445559 
L 1155.634182 191.445776 
L 1159.240727 191.445992 
L 1162.847273 191.446209 
L 1166.453818 191.446426 
L 1170.060364 191.446643 
L 1173.666909 191.44686 
L 1177.273455 191.447077 
L 1180.88 191.447294 
L 1184.486545 191.44751 
L 1188.093091 191.447727 
L 1191.699636 191.447945 
L 1195.306182 191.448162 
L 1198.912727 191.448379 
L 1202.519273 191.448596 
L 1206.125818 191.448813 
L 1209.732364 191.44903 
L 1213.338909 191.449247 
L 1216.945455 191.449465 
L 1220.552 191.449682 
L 1224.158545 191.449899 
L 1227.765091 191.450117 
L 1231.371636 191.450334 
L 1234.978182 191.450551 
L 1238.584727 191.450769 
L 1242.191273 191.450986 
L 1245.797818 191.451204 
L 1249.404364 191.451421 
L 1253.010909 191.451639 
L 1256.617455 191.451857 
L 1260.224 191.452074 
L 1263.830545 191.452292 
L 1267.437091 191.45251 
L 1271.043636 191.452727 
" style="fill:none;stroke:#ff0000;stroke-dasharray:5.6,2.4;stroke-dashoffset:0;stroke-width:1.5;"/>
   </g>
   <g id="patch_28">
    <path d="M 1081.7 200.06 
L 1081.7 10.7 
" style="fill:none;stroke:#000000;stroke-linecap:square;stroke-linejoin:miter;stroke-width:0.8;"/>
   </g>
   <g id="patch_29">
    <path d="M 1280.06 200.06 
L 1280.06 10.7 
" style="fill:none;stroke:#000000;stroke-linecap:square;stroke-linejoin:miter;stroke-width:0.8;"/>
   </g>
   <g id="patch_30">
    <path d="M 1081.7 200.06 
L 1280.06 200.06 
" style="fill:none;stroke:#000000;stroke-linecap:square;stroke-linejoin:miter;stroke-width:0.8;"/>
   </g>
   <g id="patch_31">
    <path d="M 1081.7 10.7 
L 1280.06 10.7 
" style="fill:none;stroke:#000000;stroke-linecap:square;stroke-linejoin:miter;stroke-width:0.8;"/>
   </g>
  </g>
 </g>
 <defs>
  <clipPath id="pa0e057b82b">
   <rect height="189.36" width="198.36" x="10.7" y="10.7"/>
  </clipPath>
  <clipPath id="pf4c427f621">
   <rect height="189.36" width="198.36" x="224.9" y="10.7"/>
  </clipPath>
  <clipPath id="p6fc1b3424d">
   <rect height="189.36" width="198.36" x="439.1" y="10.7"/>
  </clipPath>
  <clipPath id="p4729f6bfe5">
   <rect height="189.36" width="198.36" x="653.3" y="10.7"/>
  </clipPath>
  <clipPath id="p88287ec3c7">
   <rect height="189.36" width="198.36" x="867.5" y="10.7"/>
  </clipPath>
  <clipPath id="peb2df768c3">
   <rect height="189.36" width="198.36" x="1081.7" y="10.7"/>
  </clipPath>
 </defs>
</svg>
