<?xml version="1.0" encoding="utf-8" standalone="no"?>
<!DOCTYPE svg PUBLIC "-//W3C//DTD SVG 1.1//EN"
  "http://www.w3.org/Graphics/SVG/1.1/DTD/svg11.dtd">
<!-- Created with matplotlib (http://matplotlib.org/) -->
<svg height="464pt" version="1.1" viewBox="0 0 467 464" width="467pt" xmlns="http://www.w3.org/2000/svg" xmlns:xlink="http://www.w3.org/1999/xlink">
 <defs>
  <style type="text/css">
*{stroke-linecap:butt;stroke-linejoin:round;}
  </style>
 </defs>
 <g id="figure_1">
  <g id="patch_1">
   <path d="M 0 464.92 
L 467.8 464.92 
L 467.8 0 
L 0 0 
z
" style="fill:#ffffff;"/>
  </g>
  <g id="axes_1">
   <g id="patch_2">
    <path d="M 10.7 141.147059 
L 141.994118 141.147059 
L 141.994118 10.7 
L 10.7 10.7 
z
" style="fill:#ffffff;"/>
   </g>
   <g id="line2d_1">
    <path clip-path="url(#pbfe2c7f0d3)" d="M 16.667914 135.217647 
L 20.783717 135.217647 
L 24.899521 135.217647 
L 29.015324 135.217647 
L 33.131127 135.217647 
L 37.24693 135.217647 
L 41.362733 135.217646 
L 45.478536 135.217449 
L 49.594339 135.209705 
L 53.710142 135.080051 
L 57.825945 133.883679 
L 61.941748 127.215604 
L 66.057551 105.075139 
L 70.173354 63.955525 
L 74.289157 27.41016 
L 78.40496 27.923184 
L 82.520763 64.448938 
L 86.636566 105.260481 
L 90.75237 127.628544 
L 94.868173 134.155941 
L 98.983976 135.138937 
L 103.099779 135.214372 
L 107.215582 135.217554 
L 111.331385 135.217645 
L 115.447188 135.217647 
L 119.562991 135.217647 
L 123.678794 135.217647 
L 127.794597 135.217647 
L 131.9104 135.217647 
L 136.026203 135.217647 
" style="fill:none;stroke:#1f77b4;stroke-linecap:square;stroke-width:1.5;"/>
   </g>
   <g id="line2d_2">
    <path clip-path="url(#pbfe2c7f0d3)" d="M 16.667914 16.629412 
" style="fill:none;stroke:#ffffff;stroke-linecap:square;stroke-width:1.5;"/>
   </g>
   <g id="patch_3">
    <path d="M 10.7 141.147059 
L 10.7 10.7 
" style="fill:none;stroke:#000000;stroke-linecap:square;stroke-linejoin:miter;stroke-width:0.5;"/>
   </g>
   <g id="patch_4">
    <path d="M 141.994118 141.147059 
L 141.994118 10.7 
" style="fill:none;stroke:#000000;stroke-linecap:square;stroke-linejoin:miter;stroke-width:0.5;"/>
   </g>
   <g id="patch_5">
    <path d="M 10.7 141.147059 
L 141.994118 141.147059 
" style="fill:none;stroke:#000000;stroke-linecap:square;stroke-linejoin:miter;stroke-width:0.5;"/>
   </g>
   <g id="patch_6">
    <path d="M 10.7 10.7 
L 141.994118 10.7 
" style="fill:none;stroke:#000000;stroke-linecap:square;stroke-linejoin:miter;stroke-width:0.5;"/>
   </g>
  </g>
  <g id="axes_2">
   <g id="patch_7">
    <path d="M 10.7 297.683529 
L 141.994118 297.683529 
L 141.994118 167.236471 
L 10.7 167.236471 
z
" style="fill:#ffffff;"/>
   </g>
   <g id="PathCollection_1">
    <path clip-path="url(#p3429130a95)" d="M 20.783717 292.139144 
L 24.899521 292.139144 
L 29.015324 292.139144 
L 33.131127 292.139144 
L 37.24693 292.139144 
L 41.362733 292.139144 
L 45.478536 292.139144 
L 49.594339 292.139144 
L 53.710142 292.139144 
L 57.825945 292.139144 
L 61.941748 292.139144 
L 66.057551 292.139144 
L 70.173354 292.139144 
L 74.289157 292.139144 
L 78.40496 292.139144 
L 82.520763 292.139144 
L 86.636566 292.139144 
L 90.75237 292.139144 
L 94.868173 292.139144 
L 98.983976 292.139144 
L 103.099779 292.139144 
L 107.215582 292.139144 
L 111.331385 292.139144 
L 115.447188 292.139144 
L 119.562991 292.139144 
L 123.678794 292.139144 
L 127.794597 292.139144 
L 131.9104 292.139144 
L 136.026203 292.139144 
L 136.026203 288.023341 
L 136.026203 283.907538 
L 136.026203 279.791735 
L 136.026203 275.675932 
L 136.026203 271.560129 
L 136.026203 267.444326 
L 136.026203 263.328523 
L 136.026203 259.21272 
L 136.026203 255.096917 
L 136.026203 250.981114 
L 136.026203 246.865311 
L 136.026203 242.749508 
L 136.026203 238.633705 
L 136.026203 234.517902 
L 136.026203 230.402098 
L 136.026203 226.286295 
L 136.026203 222.170492 
L 136.026203 218.054689 
L 136.026203 213.938886 
L 136.026203 209.823083 
L 136.026203 205.70728 
L 136.026203 201.591477 
L 136.026203 197.475674 
L 136.026203 193.359871 
L 136.026203 189.244068 
L 136.026203 185.128265 
L 136.026203 181.012462 
L 136.026203 176.896659 
L 136.026203 172.780856 
L 131.9104 172.780856 
L 127.794597 172.780856 
L 123.678794 172.780856 
L 119.562991 172.780856 
L 115.447188 172.780856 
L 111.331385 172.780856 
L 107.215582 172.780856 
L 103.099779 172.780856 
L 98.983976 172.780856 
L 94.868173 172.780856 
L 90.75237 172.780856 
L 86.636566 172.780856 
L 82.520763 172.780856 
L 78.40496 172.780856 
L 74.289157 172.780856 
L 70.173354 172.780856 
L 66.057551 172.780856 
L 61.941748 172.780856 
L 57.825945 172.780856 
L 53.710142 172.780856 
L 49.594339 172.780856 
L 45.478536 172.780856 
L 41.362733 172.780856 
L 37.24693 172.780856 
L 33.131127 172.780856 
L 29.015324 172.780856 
L 24.899521 172.780856 
L 20.783717 172.780856 
L 16.667914 172.780856 
L 16.667914 176.896659 
L 16.667914 181.012462 
L 16.667914 185.128265 
L 16.667914 189.244068 
L 16.667914 193.359871 
L 16.667914 197.475674 
L 16.667914 201.591477 
L 16.667914 205.70728 
L 16.667914 209.823083 
L 16.667914 213.938886 
L 16.667914 218.054689 
L 16.667914 222.170492 
L 16.667914 226.286295 
L 16.667914 230.402098 
L 16.667914 234.517902 
L 16.667914 238.633705 
L 16.667914 242.749508 
L 16.667914 246.865311 
L 16.667914 250.981114 
L 16.667914 255.096917 
L 16.667914 259.21272 
L 16.667914 263.328523 
L 16.667914 267.444326 
L 16.667914 271.560129 
L 16.667914 275.675932 
L 16.667914 279.791735 
L 16.667914 283.907538 
L 16.667914 288.023341 
L 16.667914 292.139144 
z
M 71.987795 259.21272 
L 70.173354 255.109923 
L 70.167542 255.096917 
L 68.525656 250.981114 
L 67.426137 246.865311 
L 66.566238 242.749508 
L 66.057551 240.614598 
L 64.654695 238.633705 
L 62.774997 234.517902 
L 61.941748 231.335308 
L 61.340645 230.402098 
L 60.257785 226.286295 
L 60.580029 222.170492 
L 61.941748 218.966109 
L 62.282708 218.054689 
L 65.351461 213.938886 
L 66.057551 213.243549 
L 70.173354 210.518869 
L 72.841214 209.823083 
L 74.289157 209.301431 
L 78.40496 209.157881 
L 80.59694 209.823083 
L 82.520763 210.265359 
L 86.636566 212.947082 
L 87.551915 213.938886 
L 90.248182 218.054689 
L 90.75237 219.648885 
L 91.665393 222.170492 
L 91.986664 226.286295 
L 90.984729 230.402098 
L 90.75237 230.803639 
L 89.935499 234.517902 
L 88.433206 238.633705 
L 86.636566 241.477025 
L 86.35503 242.749508 
L 85.579117 246.865311 
L 84.497681 250.981114 
L 82.567701 255.096917 
L 82.520763 255.184167 
L 80.329914 259.21272 
L 78.40496 261.202249 
L 74.289157 261.602732 
z
" style="fill:#ffffff;"/>
   </g>
   <g id="PathCollection_2">
    <path clip-path="url(#p3429130a95)" d="M 74.289157 261.602732 
L 78.40496 261.202249 
L 80.329914 259.21272 
L 82.520763 255.184167 
L 82.567701 255.096917 
L 84.497681 250.981114 
L 85.579117 246.865311 
L 86.35503 242.749508 
L 86.636566 241.477025 
L 88.433206 238.633705 
L 89.935499 234.517902 
L 90.75237 230.803639 
L 90.984729 230.402098 
L 91.986664 226.286295 
L 91.665393 222.170492 
L 90.75237 219.648885 
L 90.248182 218.054689 
L 87.551915 213.938886 
L 86.636566 212.947082 
L 82.520763 210.265359 
L 80.59694 209.823083 
L 78.40496 209.157881 
L 74.289157 209.301431 
L 72.841214 209.823083 
L 70.173354 210.518869 
L 66.057551 213.243549 
L 65.351461 213.938886 
L 62.282708 218.054689 
L 61.941748 218.966109 
L 60.580029 222.170492 
L 60.257785 226.286295 
L 61.340645 230.402098 
L 61.941748 231.335308 
L 62.774997 234.517902 
L 64.654695 238.633705 
L 66.057551 240.614598 
L 66.566238 242.749508 
L 67.426137 246.865311 
L 68.525656 250.981114 
L 70.167542 255.096917 
L 70.173354 255.109923 
L 71.987795 259.21272 
z
M 71.977619 255.096917 
L 70.537078 250.981114 
L 70.173354 249.488435 
L 69.068085 246.865311 
L 67.624177 242.749508 
L 66.516378 238.633705 
L 66.057551 236.860539 
L 64.670523 234.517902 
L 63.448015 230.402098 
L 63.188697 226.286295 
L 64.073247 222.170492 
L 66.057551 218.878717 
L 66.735855 218.054689 
L 70.173354 215.062293 
L 73.562072 213.938886 
L 74.289157 213.649105 
L 78.40496 213.63339 
L 79.187891 213.938886 
L 82.520763 215.080376 
L 85.779693 218.054689 
L 86.636566 219.183798 
L 88.299407 222.170492 
L 89.228425 226.286295 
L 89.09453 230.402098 
L 88.10449 234.517902 
L 86.636566 237.371776 
L 86.355323 238.633705 
L 85.380468 242.749508 
L 84.091147 246.865311 
L 82.520763 250.28528 
L 82.308514 250.981114 
L 80.620788 255.096917 
L 78.40496 257.835475 
L 74.289157 258.112849 
z
" style="fill:#0000a8;"/>
   </g>
   <g id="PathCollection_3">
    <path clip-path="url(#p3429130a95)" d="M 74.289157 258.112849 
L 78.40496 257.835475 
L 80.620788 255.096917 
L 82.308514 250.981114 
L 82.520763 250.28528 
L 84.091147 246.865311 
L 85.380468 242.749508 
L 86.355323 238.633705 
L 86.636566 237.371776 
L 88.10449 234.517902 
L 89.09453 230.402098 
L 89.228425 226.286295 
L 88.299407 222.170492 
L 86.636566 219.183798 
L 85.779693 218.054689 
L 82.520763 215.080376 
L 79.187891 213.938886 
L 78.40496 213.63339 
L 74.289157 213.649105 
L 73.562072 213.938886 
L 70.173354 215.062293 
L 66.735855 218.054689 
L 66.057551 218.878717 
L 64.073247 222.170492 
L 63.188697 226.286295 
L 63.448015 230.402098 
L 64.670523 234.517902 
L 66.057551 236.860539 
L 66.516378 238.633705 
L 67.624177 242.749508 
L 69.068085 246.865311 
L 70.173354 249.488435 
L 70.537078 250.981114 
L 71.977619 255.096917 
z
M 73.784292 255.096917 
L 71.486625 250.981114 
L 70.381572 246.865311 
L 70.173354 246.090574 
L 68.682115 242.749508 
L 67.344795 238.633705 
L 66.284876 234.517902 
L 66.057551 233.097651 
L 65.177163 230.402098 
L 65.251011 226.286295 
L 66.057551 224.003137 
L 66.809171 222.170492 
L 70.173354 218.40232 
L 70.94648 218.054689 
L 74.289157 216.506946 
L 78.40496 216.571309 
L 81.402404 218.054689 
L 82.520763 218.616947 
L 85.553478 222.170492 
L 86.636566 224.90073 
L 87.109773 226.286295 
L 87.352681 230.402098 
L 86.636566 233.17867 
L 86.469599 234.517902 
L 85.561963 238.633705 
L 84.405905 242.749508 
L 82.603177 246.865311 
L 82.520763 247.044791 
L 81.320069 250.981114 
L 78.700958 255.096917 
L 78.40496 255.462743 
L 74.289157 255.75563 
z
" style="fill:#0000ff;"/>
   </g>
   <g id="PathCollection_4">
    <path clip-path="url(#p3429130a95)" d="M 74.289157 255.75563 
L 78.40496 255.462743 
L 78.700958 255.096917 
L 81.320069 250.981114 
L 82.520763 247.044791 
L 82.603177 246.865311 
L 84.405905 242.749508 
L 85.561963 238.633705 
L 86.469599 234.517902 
L 86.636566 233.17867 
L 87.352681 230.402098 
L 87.109773 226.286295 
L 86.636566 224.90073 
L 85.553478 222.170492 
L 82.520763 218.616947 
L 81.402404 218.054689 
L 78.40496 216.571309 
L 74.289157 216.506946 
L 70.94648 218.054689 
L 70.173354 218.40232 
L 66.809171 222.170492 
L 66.057551 224.003137 
L 65.251011 226.286295 
L 65.177163 230.402098 
L 66.057551 233.097651 
L 66.284876 234.517902 
L 67.344795 238.633705 
L 68.682115 242.749508 
L 70.173354 246.090574 
L 70.381572 246.865311 
L 71.486625 250.981114 
L 73.784292 255.096917 
z
M 72.436171 250.981114 
L 71.018608 246.865311 
L 70.173354 243.7203 
L 69.740054 242.749508 
L 68.173211 238.633705 
L 67.132275 234.517902 
L 66.58465 230.402098 
L 66.998413 226.286295 
L 69.203505 222.170492 
L 70.173354 221.084178 
L 74.289157 218.959728 
L 78.40496 219.064875 
L 82.520763 221.500509 
L 83.092549 222.170492 
L 85.403693 226.286295 
L 85.993011 230.402098 
L 85.627596 234.517902 
L 84.768604 238.633705 
L 83.431342 242.749508 
L 82.520763 244.796164 
L 81.90531 246.865311 
L 80.331625 250.981114 
L 78.40496 253.8514 
L 74.289157 253.987013 
z
" style="fill:#0044ff;"/>
   </g>
   <g id="PathCollection_5">
    <path clip-path="url(#p3429130a95)" d="M 74.289157 253.987013 
L 78.40496 253.8514 
L 80.331625 250.981114 
L 81.90531 246.865311 
L 82.520763 244.796164 
L 83.431342 242.749508 
L 84.768604 238.633705 
L 85.627596 234.517902 
L 85.993011 230.402098 
L 85.403693 226.286295 
L 83.092549 222.170492 
L 82.520763 221.500509 
L 78.40496 219.064875 
L 74.289157 218.959728 
L 70.173354 221.084178 
L 69.203505 222.170492 
L 66.998413 226.286295 
L 66.58465 230.402098 
L 67.132275 234.517902 
L 68.173211 238.633705 
L 69.740054 242.749508 
L 70.173354 243.7203 
L 71.018608 246.865311 
L 72.436171 250.981114 
z
M 73.385717 250.981114 
L 71.655643 246.865311 
L 70.499649 242.749508 
L 70.173354 241.537398 
L 69.001628 238.633705 
L 67.979673 234.517902 
L 67.658487 230.402098 
L 68.543557 226.286295 
L 70.173354 223.654772 
L 72.294573 222.170492 
L 74.289157 221.018672 
L 78.40496 221.180924 
L 79.963081 222.170492 
L 82.520763 224.165446 
L 83.816263 226.286295 
L 84.90016 230.402098 
L 84.785593 234.517902 
L 83.975245 238.633705 
L 82.520763 242.60721 
L 82.483703 242.749508 
L 81.25377 246.865311 
L 79.34318 250.981114 
L 78.40496 252.378845 
L 74.289157 252.446667 
z
" style="fill:#0090ff;"/>
   </g>
   <g id="PathCollection_6">
    <path clip-path="url(#p3429130a95)" d="M 74.289157 252.446667 
L 78.40496 252.378845 
L 79.34318 250.981114 
L 81.25377 246.865311 
L 82.483703 242.749508 
L 82.520763 242.60721 
L 83.975245 238.633705 
L 84.785593 234.517902 
L 84.90016 230.402098 
L 83.816263 226.286295 
L 82.520763 224.165446 
L 79.963081 222.170492 
L 78.40496 221.180924 
L 74.289157 221.018672 
L 72.294573 222.170492 
L 70.173354 223.654772 
L 68.543557 226.286295 
L 67.658487 230.402098 
L 67.979673 234.517902 
L 69.001628 238.633705 
L 70.173354 241.537398 
L 70.499649 242.749508 
L 71.655643 246.865311 
L 73.385717 250.981114 
z
M 72.292678 246.865311 
L 71.052289 242.749508 
L 70.173354 239.484471 
L 69.830045 238.633705 
L 68.827072 234.517902 
L 68.732325 230.402098 
L 70.088701 226.286295 
L 70.173354 226.149611 
L 74.289157 222.925794 
L 78.40496 223.098521 
L 82.144668 226.286295 
L 82.520763 226.842375 
L 83.807309 230.402098 
L 83.94359 234.517902 
L 83.181885 238.633705 
L 82.520763 240.439827 
L 81.919221 242.749508 
L 80.60223 246.865311 
L 78.40496 250.920022 
L 74.289157 250.91832 
z
" style="fill:#00e0fb;"/>
   </g>
   <g id="PathCollection_7">
    <path clip-path="url(#p3429130a95)" d="M 74.289157 250.91832 
L 78.40496 250.920022 
L 80.60223 246.865311 
L 81.919221 242.749508 
L 82.520763 240.439827 
L 83.181885 238.633705 
L 83.94359 234.517902 
L 83.807309 230.402098 
L 82.520763 226.842375 
L 82.144668 226.286295 
L 78.40496 223.098521 
L 74.289157 222.925794 
L 70.173354 226.149611 
L 70.088701 226.286295 
L 68.732325 230.402098 
L 68.827072 234.517902 
L 69.830045 238.633705 
L 70.173354 239.484471 
L 71.052289 242.749508 
L 72.292678 246.865311 
z
M 72.929713 246.865311 
L 71.604929 242.749508 
L 70.535507 238.633705 
L 70.173354 236.581305 
L 69.674471 234.517902 
L 69.806162 230.402098 
L 70.173354 229.308702 
L 72.215045 226.286295 
L 74.289157 224.64014 
L 78.40496 224.841785 
L 80.099573 226.286295 
L 82.520763 229.866168 
L 82.714458 230.402098 
L 83.101587 234.517902 
L 82.520763 237.832736 
L 82.414959 238.633705 
L 81.354739 242.749508 
L 79.95069 246.865311 
L 78.40496 249.717708 
L 74.289157 249.625089 
z
" style="fill:#3cffba;"/>
   </g>
   <g id="PathCollection_8">
    <path clip-path="url(#p3429130a95)" d="M 74.289157 249.625089 
L 78.40496 249.717708 
L 79.95069 246.865311 
L 81.354739 242.749508 
L 82.414959 238.633705 
L 82.520763 237.832736 
L 83.101587 234.517902 
L 82.714458 230.402098 
L 82.520763 229.866168 
L 80.099573 226.286295 
L 78.40496 224.841785 
L 74.289157 224.64014 
L 72.215045 226.286295 
L 70.173354 229.308702 
L 69.806162 230.402098 
L 69.674471 234.517902 
L 70.173354 236.581305 
L 70.535507 238.633705 
L 71.604929 242.749508 
L 72.929713 246.865311 
z
M 73.566748 246.865311 
L 72.157569 242.749508 
L 71.153954 238.633705 
L 70.523381 234.517902 
L 71.044607 230.402098 
L 74.289157 226.352034 
L 78.40496 226.566851 
L 81.451006 230.402098 
L 82.252763 234.517902 
L 81.780185 238.633705 
L 80.790257 242.749508 
L 79.29915 246.865311 
L 78.40496 248.515395 
L 74.289157 248.331857 
z
" style="fill:#7dff7a;"/>
   </g>
   <g id="PathCollection_9">
    <path clip-path="url(#p3429130a95)" d="M 74.289157 248.331857 
L 78.40496 248.515395 
L 79.29915 246.865311 
L 80.790257 242.749508 
L 81.780185 238.633705 
L 82.252763 234.517902 
L 81.451006 230.402098 
L 78.40496 226.566851 
L 74.289157 226.352034 
L 71.044607 230.402098 
L 70.523381 234.517902 
L 71.153954 238.633705 
L 72.157569 242.749508 
L 73.566748 246.865311 
z
M 74.203784 246.865311 
L 72.710209 242.749508 
L 71.772402 238.633705 
L 71.374455 234.517902 
L 72.368585 230.402098 
L 74.289157 228.004712 
L 78.40496 228.203925 
L 80.150803 230.402098 
L 81.388772 234.517902 
L 81.145411 238.633705 
L 80.225775 242.749508 
L 78.64761 246.865311 
L 78.40496 247.313081 
L 74.289157 247.038626 
z
" style="fill:#baff3c;"/>
   </g>
   <g id="PathCollection_10">
    <path clip-path="url(#p3429130a95)" d="M 74.289157 247.038626 
L 78.40496 247.313081 
L 78.64761 246.865311 
L 80.225775 242.749508 
L 81.145411 238.633705 
L 81.388772 234.517902 
L 80.150803 230.402098 
L 78.40496 228.203925 
L 74.289157 228.004712 
L 72.368585 230.402098 
L 71.374455 234.517902 
L 71.772402 238.633705 
L 72.710209 242.749508 
L 74.203784 246.865311 
z
M 73.262848 242.749508 
L 72.390849 238.633705 
L 72.225528 234.517902 
L 73.692563 230.402098 
L 74.289157 229.65739 
L 78.40496 229.840998 
L 78.8506 230.402098 
L 80.52478 234.517902 
L 80.510637 238.633705 
L 79.661293 242.749508 
L 78.40496 245.960023 
L 74.289157 245.556423 
z
" style="fill:#fbf100;"/>
   </g>
   <g id="PathCollection_11">
    <path clip-path="url(#p3429130a95)" d="M 74.289157 245.556423 
L 78.40496 245.960023 
L 79.661293 242.749508 
L 80.510637 238.633705 
L 80.52478 234.517902 
L 78.8506 230.402098 
L 78.40496 229.840998 
L 74.289157 229.65739 
L 73.692563 230.402098 
L 72.225528 234.517902 
L 72.390849 238.633705 
L 73.262848 242.749508 
z
M 73.815488 242.749508 
L 73.009296 238.633705 
L 73.076602 234.517902 
L 74.289157 231.547511 
L 78.40496 231.68368 
L 79.660788 234.517902 
L 79.875863 238.633705 
L 79.096811 242.749508 
L 78.40496 244.517508 
L 74.289157 244.044974 
z
" style="fill:#ffa700;"/>
   </g>
   <g id="PathCollection_12">
    <path clip-path="url(#p3429130a95)" d="M 74.289157 244.044974 
L 78.40496 244.517508 
L 79.096811 242.749508 
L 79.875863 238.633705 
L 79.660788 234.517902 
L 78.40496 231.68368 
L 74.289157 231.547511 
L 73.076602 234.517902 
L 73.009296 238.633705 
L 73.815488 242.749508 
z
M 75.885034 242.749508 
L 74.289157 242.264396 
L 73.627743 238.633705 
L 73.927676 234.517902 
L 74.289157 233.632382 
L 78.40496 233.633584 
L 78.796797 234.517902 
L 79.241089 238.633705 
L 78.532329 242.749508 
L 78.40496 243.074993 
z
" style="fill:#ff6000;"/>
   </g>
   <g id="PathCollection_13">
    <path clip-path="url(#p3429130a95)" d="M 78.40496 243.074993 
L 78.532329 242.749508 
L 79.241089 238.633705 
L 78.796797 234.517902 
L 78.40496 233.633584 
L 74.289157 233.632382 
L 73.927676 234.517902 
L 73.627743 238.633705 
L 74.289157 242.264396 
L 75.885034 242.749508 
z
M 74.246191 238.633705 
L 74.289157 238.1902 
L 78.40496 237.122091 
L 78.606316 238.633705 
L 78.40496 239.829747 
L 74.289157 238.86956 
z
" style="fill:#ff1600;"/>
   </g>
   <g id="PathCollection_14">
    <path clip-path="url(#p3429130a95)" d="M 74.289157 238.86956 
L 78.40496 239.829747 
L 78.606316 238.633705 
L 78.40496 237.122091 
L 74.289157 238.1902 
L 74.246191 238.633705 
z
" style="fill:#a80000;"/>
   </g>
   <g id="patch_8">
    <path d="M 10.7 297.683529 
L 10.7 167.236471 
" style="fill:none;stroke:#000000;stroke-linecap:square;stroke-linejoin:miter;stroke-width:0.5;"/>
   </g>
   <g id="patch_9">
    <path d="M 141.994118 297.683529 
L 141.994118 167.236471 
" style="fill:none;stroke:#000000;stroke-linecap:square;stroke-linejoin:miter;stroke-width:0.5;"/>
   </g>
   <g id="patch_10">
    <path d="M 10.7 297.683529 
L 141.994118 297.683529 
" style="fill:none;stroke:#000000;stroke-linecap:square;stroke-linejoin:miter;stroke-width:0.5;"/>
   </g>
   <g id="patch_11">
    <path d="M 10.7 167.236471 
L 141.994118 167.236471 
" style="fill:none;stroke:#000000;stroke-linecap:square;stroke-linejoin:miter;stroke-width:0.5;"/>
   </g>
  </g>
  <g id="axes_3">
   <g id="patch_12">
    <path d="M 168.252941 297.683529 
L 299.547059 297.683529 
L 299.547059 167.236471 
L 168.252941 167.236471 
z
" style="fill:#ffffff;"/>
   </g>
   <g id="line2d_3">
    <path clip-path="url(#p4da7a16c98)" d="M 174.220856 291.753953 
L 178.336659 291.752995 
L 182.452462 291.74785 
L 186.568265 291.723703 
L 190.684068 291.624326 
L 194.799871 291.264658 
L 198.915674 290.119413 
L 203.031477 286.928986 
L 207.14728 279.280781 
L 211.263083 264.009227 
L 215.378886 239.879213 
L 219.494689 211.779111 
L 223.610492 190.338296 
L 227.726295 183.946632 
L 231.842098 192.532472 
L 235.957902 210.106181 
L 240.073705 230.314648 
L 244.189508 249.058782 
L 248.305311 264.405271 
L 252.421114 275.784456 
L 256.536917 283.402712 
L 260.65272 287.92478 
L 264.768523 290.246088 
L 268.884326 291.252065 
L 273.000129 291.614003 
L 277.115932 291.721408 
L 281.231735 291.747733 
L 285.347538 291.753085 
L 289.463341 291.753991 
L 293.579144 291.754118 
" style="fill:none;stroke:#1f77b4;stroke-linecap:square;stroke-width:1.5;"/>
   </g>
   <g id="line2d_4">
    <path clip-path="url(#p4da7a16c98)" d="M 174.220856 173.165882 
" style="fill:none;stroke:#ffffff;stroke-linecap:square;stroke-width:1.5;"/>
   </g>
   <g id="patch_13">
    <path d="M 168.252941 297.683529 
L 168.252941 167.236471 
" style="fill:none;stroke:#000000;stroke-linecap:square;stroke-linejoin:miter;stroke-width:0.5;"/>
   </g>
   <g id="patch_14">
    <path d="M 299.547059 297.683529 
L 299.547059 167.236471 
" style="fill:none;stroke:#000000;stroke-linecap:square;stroke-linejoin:miter;stroke-width:0.5;"/>
   </g>
   <g id="patch_15">
    <path d="M 168.252941 297.683529 
L 299.547059 297.683529 
" style="fill:none;stroke:#000000;stroke-linecap:square;stroke-linejoin:miter;stroke-width:0.5;"/>
   </g>
   <g id="patch_16">
    <path d="M 168.252941 167.236471 
L 299.547059 167.236471 
" style="fill:none;stroke:#000000;stroke-linecap:square;stroke-linejoin:miter;stroke-width:0.5;"/>
   </g>
  </g>
  <g id="axes_4">
   <g id="patch_17">
    <path d="M 10.7 454.22 
L 141.994118 454.22 
L 141.994118 323.772941 
L 10.7 323.772941 
z
" style="fill:#ffffff;"/>
   </g>
   <g id="PathCollection_15">
    <path clip-path="url(#pa9da85395e)" d="M 20.783717 448.675615 
L 24.899521 448.675615 
L 29.015324 448.675615 
L 33.131127 448.675615 
L 37.24693 448.675615 
L 41.362733 448.675615 
L 45.478536 448.675615 
L 49.594339 448.675615 
L 53.710142 448.675615 
L 57.825945 448.675615 
L 61.941748 448.675615 
L 66.057551 448.675615 
L 70.173354 448.675615 
L 74.289157 448.675615 
L 78.40496 448.675615 
L 82.520763 448.675615 
L 86.636566 448.675615 
L 90.75237 448.675615 
L 94.868173 448.675615 
L 98.983976 448.675615 
L 103.099779 448.675615 
L 107.215582 448.675615 
L 111.331385 448.675615 
L 115.447188 448.675615 
L 119.562991 448.675615 
L 123.678794 448.675615 
L 127.794597 448.675615 
L 131.9104 448.675615 
L 136.026203 448.675615 
L 136.026203 444.559812 
L 136.026203 440.444009 
L 136.026203 436.328206 
L 136.026203 432.212403 
L 136.026203 428.0966 
L 136.026203 423.980797 
L 136.026203 419.864994 
L 136.026203 415.74919 
L 136.026203 411.633387 
L 136.026203 407.517584 
L 136.026203 403.401781 
L 136.026203 399.285978 
L 136.026203 395.170175 
L 136.026203 391.054372 
L 136.026203 386.938569 
L 136.026203 382.822766 
L 136.026203 378.706963 
L 136.026203 374.59116 
L 136.026203 370.475357 
L 136.026203 366.359554 
L 136.026203 362.243751 
L 136.026203 358.127948 
L 136.026203 354.012145 
L 136.026203 349.896342 
L 136.026203 345.780538 
L 136.026203 341.664735 
L 136.026203 337.548932 
L 136.026203 333.433129 
L 136.026203 329.317326 
L 131.9104 329.317326 
L 127.794597 329.317326 
L 123.678794 329.317326 
L 119.562991 329.317326 
L 115.447188 329.317326 
L 111.331385 329.317326 
L 107.215582 329.317326 
L 103.099779 329.317326 
L 98.983976 329.317326 
L 94.868173 329.317326 
L 90.75237 329.317326 
L 86.636566 329.317326 
L 82.520763 329.317326 
L 78.40496 329.317326 
L 74.289157 329.317326 
L 70.173354 329.317326 
L 66.057551 329.317326 
L 61.941748 329.317326 
L 57.825945 329.317326 
L 53.710142 329.317326 
L 49.594339 329.317326 
L 45.478536 329.317326 
L 41.362733 329.317326 
L 37.24693 329.317326 
L 33.131127 329.317326 
L 29.015324 329.317326 
L 24.899521 329.317326 
L 20.783717 329.317326 
L 16.667914 329.317326 
L 16.667914 333.433129 
L 16.667914 337.548932 
L 16.667914 341.664735 
L 16.667914 345.780538 
L 16.667914 349.896342 
L 16.667914 354.012145 
L 16.667914 358.127948 
L 16.667914 362.243751 
L 16.667914 366.359554 
L 16.667914 370.475357 
L 16.667914 374.59116 
L 16.667914 378.706963 
L 16.667914 382.822766 
L 16.667914 386.938569 
L 16.667914 391.054372 
L 16.667914 395.170175 
L 16.667914 399.285978 
L 16.667914 403.401781 
L 16.667914 407.517584 
L 16.667914 411.633387 
L 16.667914 415.74919 
L 16.667914 419.864994 
L 16.667914 423.980797 
L 16.667914 428.0966 
L 16.667914 432.212403 
L 16.667914 436.328206 
L 16.667914 440.444009 
L 16.667914 444.559812 
L 16.667914 448.675615 
z
M 54.473432 415.74919 
L 53.710142 415.59276 
L 50.710621 411.633387 
L 50.808079 407.517584 
L 52.104444 403.401781 
L 53.710142 400.959572 
L 54.29728 399.285978 
L 56.794779 395.170175 
L 57.825945 393.964119 
L 59.504228 391.054372 
L 61.941748 388.324445 
L 62.912378 386.938569 
L 66.057551 383.538479 
L 66.660669 382.822766 
L 70.173354 379.156472 
L 70.630158 378.706963 
L 74.289157 375.054553 
L 74.862571 374.59116 
L 78.40496 371.263507 
L 79.606192 370.475357 
L 82.520763 367.942754 
L 85.521431 366.359554 
L 86.636566 365.475012 
L 90.75237 363.372445 
L 94.868173 362.413583 
L 98.983976 363.64179 
L 100.327829 366.359554 
L 100.174716 370.475357 
L 98.983976 373.409615 
L 98.740926 374.59116 
L 97.39574 378.706963 
L 94.868173 382.497338 
L 94.742454 382.822766 
L 92.796368 386.938569 
L 90.75237 389.442132 
L 89.872327 391.054372 
L 86.636566 394.851909 
L 86.422236 395.170175 
L 83.036006 399.285978 
L 82.520763 399.831142 
L 79.221986 403.401781 
L 78.40496 404.21968 
L 74.428009 407.517584 
L 74.289157 407.647842 
L 70.173354 411.07213 
L 69.012322 411.633387 
L 66.057551 413.880111 
L 61.941748 415.370421 
L 59.515597 415.74919 
L 57.825945 416.358951 
z
" style="fill:#ffffff;"/>
   </g>
   <g id="PathCollection_16">
    <path clip-path="url(#pa9da85395e)" d="M 57.825945 416.358951 
L 59.515597 415.74919 
L 61.941748 415.370421 
L 66.057551 413.880111 
L 69.012322 411.633387 
L 70.173354 411.07213 
L 74.289157 407.647842 
L 74.428009 407.517584 
L 78.40496 404.21968 
L 79.221986 403.401781 
L 82.520763 399.831142 
L 83.036006 399.285978 
L 86.422236 395.170175 
L 86.636566 394.851909 
L 89.872327 391.054372 
L 90.75237 389.442132 
L 92.796368 386.938569 
L 94.742454 382.822766 
L 94.868173 382.497338 
L 97.39574 378.706963 
L 98.740926 374.59116 
L 98.983976 373.409615 
L 100.174716 370.475357 
L 100.327829 366.359554 
L 98.983976 363.64179 
L 94.868173 362.413583 
L 90.75237 363.372445 
L 86.636566 365.475012 
L 85.521431 366.359554 
L 82.520763 367.942754 
L 79.606192 370.475357 
L 78.40496 371.263507 
L 74.862571 374.59116 
L 74.289157 375.054553 
L 70.630158 378.706963 
L 70.173354 379.156472 
L 66.660669 382.822766 
L 66.057551 383.538479 
L 62.912378 386.938569 
L 61.941748 388.324445 
L 59.504228 391.054372 
L 57.825945 393.964119 
L 56.794779 395.170175 
L 54.29728 399.285978 
L 53.710142 400.959572 
L 52.104444 403.401781 
L 50.808079 407.517584 
L 50.710621 411.633387 
L 53.710142 415.59276 
L 54.473432 415.74919 
z
M 54.875297 411.633387 
L 53.868079 407.517584 
L 54.611035 403.401781 
L 56.332508 399.285978 
L 57.825945 397.242409 
L 58.79704 395.170175 
L 61.941748 391.22351 
L 62.045439 391.054372 
L 65.044521 386.938569 
L 66.057551 385.843432 
L 68.603009 382.822766 
L 70.173354 381.18375 
L 72.690333 378.706963 
L 74.289157 377.111018 
L 77.407291 374.59116 
L 78.40496 373.653968 
L 82.520763 370.773677 
L 83.167937 370.475357 
L 86.636566 368.136056 
L 90.75237 366.776374 
L 94.868173 367.009509 
L 96.803483 370.475357 
L 96.46166 374.59116 
L 94.868173 378.282885 
L 94.758364 378.706963 
L 93.150295 382.822766 
L 90.75237 386.249566 
L 90.425339 386.938569 
L 87.912191 391.054372 
L 86.636566 392.551464 
L 84.873044 395.170175 
L 82.520763 397.7713 
L 81.238488 399.285978 
L 78.40496 402.193325 
L 77.081795 403.401781 
L 74.289157 406.026685 
L 72.096822 407.517584 
L 70.173354 409.15506 
L 66.057551 411.324452 
L 65.022707 411.633387 
L 61.941748 413.245841 
L 57.825945 413.491022 
z
" style="fill:#0000a4;"/>
   </g>
   <g id="PathCollection_17">
    <path clip-path="url(#pa9da85395e)" d="M 57.825945 413.491022 
L 61.941748 413.245841 
L 65.022707 411.633387 
L 66.057551 411.324452 
L 70.173354 409.15506 
L 72.096822 407.517584 
L 74.289157 406.026685 
L 77.081795 403.401781 
L 78.40496 402.193325 
L 81.238488 399.285978 
L 82.520763 397.7713 
L 84.873044 395.170175 
L 86.636566 392.551464 
L 87.912191 391.054372 
L 90.425339 386.938569 
L 90.75237 386.249566 
L 93.150295 382.822766 
L 94.758364 378.706963 
L 94.868173 378.282885 
L 96.46166 374.59116 
L 96.803483 370.475357 
L 94.868173 367.009509 
L 90.75237 366.776374 
L 86.636566 368.136056 
L 83.167937 370.475357 
L 82.520763 370.773677 
L 78.40496 373.653968 
L 77.407291 374.59116 
L 74.289157 377.111018 
L 72.690333 378.706963 
L 70.173354 381.18375 
L 68.603009 382.822766 
L 66.057551 385.843432 
L 65.044521 386.938569 
L 62.045439 391.054372 
L 61.941748 391.22351 
L 58.79704 395.170175 
L 57.825945 397.242409 
L 56.332508 399.285978 
L 54.611035 403.401781 
L 53.868079 407.517584 
L 54.875297 411.633387 
z
M 55.740235 407.517584 
L 56.166923 403.401781 
L 57.825945 400.108236 
L 58.078872 399.285978 
L 60.102123 395.170175 
L 61.941748 392.861413 
L 63.049567 391.054372 
L 66.057551 387.552201 
L 66.541989 386.938569 
L 70.173354 383.013811 
L 70.365913 382.822766 
L 74.289157 378.930347 
L 74.576592 378.706963 
L 78.40496 375.28803 
L 79.559308 374.59116 
L 82.520763 372.265073 
L 86.403361 370.475357 
L 86.636566 370.318079 
L 90.75237 369.24275 
L 93.180147 370.475357 
L 94.300052 374.59116 
L 93.391054 378.706963 
L 91.558137 382.822766 
L 90.75237 383.974263 
L 89.345382 386.938569 
L 86.636566 390.551374 
L 86.340218 391.054372 
L 83.323852 395.170175 
L 82.520763 396.058222 
L 79.788253 399.285978 
L 78.40496 400.705309 
L 75.452533 403.401781 
L 74.289157 404.495281 
L 70.173354 407.388912 
L 69.910895 407.517584 
L 66.057551 410.112557 
L 61.941748 411.307816 
L 57.825945 410.807884 
z
" style="fill:#0000f1;"/>
   </g>
   <g id="PathCollection_18">
    <path clip-path="url(#pa9da85395e)" d="M 57.825945 410.807884 
L 61.941748 411.307816 
L 66.057551 410.112557 
L 69.910895 407.517584 
L 70.173354 407.388912 
L 74.289157 404.495281 
L 75.452533 403.401781 
L 78.40496 400.705309 
L 79.788253 399.285978 
L 82.520763 396.058222 
L 83.323852 395.170175 
L 86.340218 391.054372 
L 86.636566 390.551374 
L 89.345382 386.938569 
L 90.75237 383.974263 
L 91.558137 382.822766 
L 93.391054 378.706963 
L 94.300052 374.59116 
L 93.180147 370.475357 
L 90.75237 369.24275 
L 86.636566 370.318079 
L 86.403361 370.475357 
L 82.520763 372.265073 
L 79.559308 374.59116 
L 78.40496 375.28803 
L 74.576592 378.706963 
L 74.289157 378.930347 
L 70.365913 382.822766 
L 70.173354 383.013811 
L 66.541989 386.938569 
L 66.057551 387.552201 
L 63.049567 391.054372 
L 61.941748 392.861413 
L 60.102123 395.170175 
L 58.078872 399.285978 
L 57.825945 400.108236 
L 56.166923 403.401781 
L 55.740235 407.517584 
z
M 57.612391 407.517584 
L 57.722812 403.401781 
L 57.825945 403.197037 
L 59.028988 399.285978 
L 61.407206 395.170175 
L 61.941748 394.499315 
L 64.053695 391.054372 
L 66.057551 388.721299 
L 67.464944 386.938569 
L 70.173354 384.011335 
L 71.371341 382.822766 
L 74.289157 379.927876 
L 75.860136 378.706963 
L 78.40496 376.434302 
L 81.458078 374.59116 
L 82.520763 373.75647 
L 86.636566 371.906678 
L 90.75237 371.968275 
L 92.411838 374.59116 
L 92.023744 378.706963 
L 90.75237 381.394949 
L 90.282291 382.822766 
L 88.265425 386.938569 
L 86.636566 389.111012 
L 85.491607 391.054372 
L 82.520763 394.672439 
L 82.148528 395.170175 
L 78.40496 399.247125 
L 78.366694 399.285978 
L 74.289157 403.175649 
L 73.979867 403.401781 
L 70.173354 406.506655 
L 68.111321 407.517584 
L 66.057551 408.900663 
L 61.941748 409.957172 
L 57.825945 407.854475 
z
" style="fill:#0028ff;"/>
   </g>
   <g id="PathCollection_19">
    <path clip-path="url(#pa9da85395e)" d="M 57.825945 407.854475 
L 61.941748 409.957172 
L 66.057551 408.900663 
L 68.111321 407.517584 
L 70.173354 406.506655 
L 73.979867 403.401781 
L 74.289157 403.175649 
L 78.366694 399.285978 
L 78.40496 399.247125 
L 82.148528 395.170175 
L 82.520763 394.672439 
L 85.491607 391.054372 
L 86.636566 389.111012 
L 88.265425 386.938569 
L 90.282291 382.822766 
L 90.75237 381.394949 
L 92.023744 378.706963 
L 92.411838 374.59116 
L 90.75237 371.968275 
L 86.636566 371.906678 
L 82.520763 373.75647 
L 81.458078 374.59116 
L 78.40496 376.434302 
L 75.860136 378.706963 
L 74.289157 379.927876 
L 71.371341 382.822766 
L 70.173354 384.011335 
L 67.464944 386.938569 
L 66.057551 388.721299 
L 64.053695 391.054372 
L 61.941748 394.499315 
L 61.407206 395.170175 
L 59.028988 399.285978 
L 57.825945 403.197037 
L 57.722812 403.401781 
L 57.612391 407.517584 
z
M 59.980762 407.517584 
L 58.8478 403.401781 
L 59.979104 399.285978 
L 61.941748 396.085061 
L 62.367935 395.170175 
L 65.057823 391.054372 
L 66.057551 389.890396 
L 68.387899 386.938569 
L 70.173354 385.00886 
L 72.376769 382.822766 
L 74.289157 380.925404 
L 77.14368 378.706963 
L 78.40496 377.580574 
L 82.520763 375.069398 
L 84.055745 374.59116 
L 86.636566 373.44918 
L 90.173596 374.59116 
L 90.653877 378.706963 
L 89.330553 382.822766 
L 87.185468 386.938569 
L 86.636566 387.67065 
L 84.642995 391.054372 
L 82.520763 393.638951 
L 81.375626 395.170175 
L 78.40496 398.405393 
L 77.537684 399.285978 
L 74.289157 402.384834 
L 72.898238 403.401781 
L 70.173354 405.624398 
L 66.311747 407.517584 
L 66.057551 407.688768 
L 61.941748 408.606528 
z
" style="fill:#006cff;"/>
   </g>
   <g id="PathCollection_20">
    <path clip-path="url(#pa9da85395e)" d="M 61.941748 408.606528 
L 66.057551 407.688768 
L 66.311747 407.517584 
L 70.173354 405.624398 
L 72.898238 403.401781 
L 74.289157 402.384834 
L 77.537684 399.285978 
L 78.40496 398.405393 
L 81.375626 395.170175 
L 82.520763 393.638951 
L 84.642995 391.054372 
L 86.636566 387.67065 
L 87.185468 386.938569 
L 89.330553 382.822766 
L 90.653877 378.706963 
L 90.173596 374.59116 
L 86.636566 373.44918 
L 84.055745 374.59116 
L 82.520763 375.069398 
L 78.40496 377.580574 
L 77.14368 378.706963 
L 74.289157 380.925404 
L 72.376769 382.822766 
L 70.173354 385.00886 
L 68.387899 386.938569 
L 66.057551 389.890396 
L 65.057823 391.054372 
L 62.367935 395.170175 
L 61.941748 396.085061 
L 59.979104 399.285978 
L 58.8478 403.401781 
L 59.980762 407.517584 
z
M 59.942198 403.401781 
L 60.92922 399.285978 
L 61.941748 397.634625 
L 63.089777 395.170175 
L 66.057551 391.058753 
L 66.06052 391.054372 
L 69.310854 386.938569 
L 70.173354 386.006384 
L 73.382198 382.822766 
L 74.289157 381.922933 
L 78.40496 378.72186 
L 78.435128 378.706963 
L 82.520763 376.155488 
L 86.636566 375.094911 
L 89.250118 378.706963 
L 88.378814 382.822766 
L 86.636566 386.067076 
L 86.262941 386.938569 
L 83.794384 391.054372 
L 82.520763 392.605462 
L 80.602725 395.170175 
L 78.40496 397.563661 
L 76.708675 399.285978 
L 74.289157 401.59402 
L 71.816609 403.401781 
L 70.173354 404.742141 
L 66.057551 406.739243 
L 61.941748 407.122957 
z
" style="fill:#00b0ff;"/>
   </g>
   <g id="PathCollection_21">
    <path clip-path="url(#pa9da85395e)" d="M 61.941748 407.122957 
L 66.057551 406.739243 
L 70.173354 404.742141 
L 71.816609 403.401781 
L 74.289157 401.59402 
L 76.708675 399.285978 
L 78.40496 397.563661 
L 80.602725 395.170175 
L 82.520763 392.605462 
L 83.794384 391.054372 
L 86.262941 386.938569 
L 86.636566 386.067076 
L 88.378814 382.822766 
L 89.250118 378.706963 
L 86.636566 375.094911 
L 82.520763 376.155488 
L 78.435128 378.706963 
L 78.40496 378.72186 
L 74.289157 381.922933 
L 73.382198 382.822766 
L 70.173354 386.006384 
L 69.310854 386.938569 
L 66.06052 391.054372 
L 66.057551 391.058753 
L 63.089777 395.170175 
L 61.941748 397.634625 
L 60.92922 399.285978 
L 59.942198 403.401781 
z
M 61.036596 403.401781 
L 61.879335 399.285978 
L 61.941748 399.184188 
L 63.81162 395.170175 
L 66.057551 392.058761 
L 66.738199 391.054372 
L 70.173354 386.991075 
L 70.224113 386.938569 
L 74.289157 382.898199 
L 74.39323 382.822766 
L 78.40496 379.580646 
L 80.174267 378.706963 
L 82.520763 377.241578 
L 86.636566 377.034972 
L 87.84636 378.706963 
L 87.427076 382.822766 
L 86.636566 384.294805 
L 85.503134 386.938569 
L 82.945773 391.054372 
L 82.520763 391.571974 
L 79.829824 395.170175 
L 78.40496 396.721929 
L 75.879665 399.285978 
L 74.289157 400.803206 
L 70.73498 403.401781 
L 70.173354 403.859885 
L 66.057551 405.832873 
L 61.941748 405.086276 
z
" style="fill:#0cf4eb;"/>
   </g>
   <g id="PathCollection_22">
    <path clip-path="url(#pa9da85395e)" d="M 61.941748 405.086276 
L 66.057551 405.832873 
L 70.173354 403.859885 
L 70.73498 403.401781 
L 74.289157 400.803206 
L 75.879665 399.285978 
L 78.40496 396.721929 
L 79.829824 395.170175 
L 82.520763 391.571974 
L 82.945773 391.054372 
L 85.503134 386.938569 
L 86.636566 384.294805 
L 87.427076 382.822766 
L 87.84636 378.706963 
L 86.636566 377.034972 
L 82.520763 377.241578 
L 80.174267 378.706963 
L 78.40496 379.580646 
L 74.39323 382.822766 
L 74.289157 382.898199 
L 70.224113 386.938569 
L 70.173354 386.991075 
L 66.738199 391.054372 
L 66.057551 392.058761 
L 63.81162 395.170175 
L 61.941748 399.184188 
L 61.879335 399.285978 
L 61.036596 403.401781 
z
M 62.325389 403.401781 
L 62.727002 399.285978 
L 64.533462 395.170175 
L 66.057551 393.05877 
L 67.415877 391.054372 
L 70.173354 387.792672 
L 70.999032 386.938569 
L 74.289157 383.668415 
L 75.455873 382.822766 
L 78.40496 380.439432 
L 81.913406 378.706963 
L 82.520763 378.327669 
L 85.469765 378.706963 
L 86.430193 382.822766 
L 84.743328 386.938569 
L 82.520763 390.454407 
L 82.172199 391.054372 
L 79.056922 395.170175 
L 78.40496 395.880197 
L 75.050656 399.285978 
L 74.289157 400.012392 
L 70.173354 403.036631 
L 69.258551 403.401781 
L 66.057551 404.926504 
z
" style="fill:#43ffb4;"/>
   </g>
   <g id="PathCollection_23">
    <path clip-path="url(#pa9da85395e)" d="M 66.057551 404.926504 
L 69.258551 403.401781 
L 70.173354 403.036631 
L 74.289157 400.012392 
L 75.050656 399.285978 
L 78.40496 395.880197 
L 79.056922 395.170175 
L 82.172199 391.054372 
L 82.520763 390.454407 
L 84.743328 386.938569 
L 86.430193 382.822766 
L 85.469765 378.706963 
L 82.520763 378.327669 
L 81.913406 378.706963 
L 78.40496 380.439432 
L 75.455873 382.822766 
L 74.289157 383.668415 
L 70.999032 386.938569 
L 70.173354 387.792672 
L 67.415877 391.054372 
L 66.057551 393.05877 
L 64.533462 395.170175 
L 62.727002 399.285978 
L 62.325389 403.401781 
z
M 64.543967 403.401781 
L 63.567466 399.285978 
L 65.255304 395.170175 
L 66.057551 394.058778 
L 68.093556 391.054372 
L 70.173354 388.594268 
L 71.773952 386.938569 
L 74.289157 384.43863 
L 76.518517 382.822766 
L 78.40496 381.298218 
L 82.520763 379.64352 
L 85.211966 382.822766 
L 83.983521 386.938569 
L 82.520763 389.252481 
L 81.473912 391.054372 
L 78.40496 395.028677 
L 78.286409 395.170175 
L 74.289157 399.223415 
L 74.205772 399.285978 
L 70.173354 402.277104 
L 67.355721 403.401781 
L 66.057551 404.020135 
z
" style="fill:#7dff7a;"/>
   </g>
   <g id="PathCollection_24">
    <path clip-path="url(#pa9da85395e)" d="M 66.057551 404.020135 
L 67.355721 403.401781 
L 70.173354 402.277104 
L 74.205772 399.285978 
L 74.289157 399.223415 
L 78.286409 395.170175 
L 78.40496 395.028677 
L 81.473912 391.054372 
L 82.520763 389.252481 
L 83.983521 386.938569 
L 85.211966 382.822766 
L 82.520763 379.64352 
L 78.40496 381.298218 
L 76.518517 382.822766 
L 74.289157 384.43863 
L 71.773952 386.938569 
L 70.173354 388.594268 
L 68.093556 391.054372 
L 66.057551 394.058778 
L 65.255304 395.170175 
L 63.567466 399.285978 
L 64.543967 403.401781 
z
M 64.40793 399.285978 
L 65.977147 395.170175 
L 66.057551 395.058787 
L 68.771234 391.054372 
L 70.173354 389.395865 
L 72.548871 386.938569 
L 74.289157 385.208846 
L 77.581161 382.822766 
L 78.40496 382.157004 
L 82.520763 381.082669 
L 83.993739 382.822766 
L 83.223714 386.938569 
L 82.520763 388.050556 
L 80.775625 391.054372 
L 78.40496 394.124393 
L 77.528773 395.170175 
L 74.289157 398.455167 
L 73.181833 399.285978 
L 70.173354 401.517577 
L 66.057551 402.828283 
z
" style="fill:#b4ff43;"/>
   </g>
   <g id="PathCollection_25">
    <path clip-path="url(#pa9da85395e)" d="M 66.057551 402.828283 
L 70.173354 401.517577 
L 73.181833 399.285978 
L 74.289157 398.455167 
L 77.528773 395.170175 
L 78.40496 394.124393 
L 80.775625 391.054372 
L 82.520763 388.050556 
L 83.223714 386.938569 
L 83.993739 382.822766 
L 82.520763 381.082669 
L 78.40496 382.157004 
L 77.581161 382.822766 
L 74.289157 385.208846 
L 72.548871 386.938569 
L 70.173354 389.395865 
L 68.771234 391.054372 
L 66.057551 395.058787 
L 65.977147 395.170175 
L 64.40793 399.285978 
z
M 65.248394 399.285978 
L 66.057551 397.145668 
L 66.812449 395.170175 
L 69.448913 391.054372 
L 70.173354 390.197462 
L 73.32379 386.938569 
L 74.289157 385.979062 
L 78.40496 383.096493 
L 80.537085 382.822766 
L 82.520763 382.521818 
L 82.775513 382.822766 
L 82.520763 385.853911 
L 82.425402 386.938569 
L 80.077338 391.054372 
L 78.40496 393.220108 
L 76.771137 395.170175 
L 74.289157 397.686919 
L 72.157894 399.285978 
L 70.173354 400.75805 
L 66.057551 401.023517 
z
" style="fill:#ebff0c;"/>
   </g>
   <g id="PathCollection_26">
    <path clip-path="url(#pa9da85395e)" d="M 66.057551 401.023517 
L 70.173354 400.75805 
L 72.157894 399.285978 
L 74.289157 397.686919 
L 76.771137 395.170175 
L 78.40496 393.220108 
L 80.077338 391.054372 
L 82.425402 386.938569 
L 82.520763 385.853911 
L 82.775513 382.822766 
L 82.520763 382.521818 
L 80.537085 382.822766 
L 78.40496 383.096493 
L 74.289157 385.979062 
L 73.32379 386.938569 
L 70.173354 390.197462 
L 69.448913 391.054372 
L 66.812449 395.170175 
L 66.057551 397.145668 
L 65.248394 399.285978 
z
M 66.214731 399.285978 
L 67.661974 395.170175 
L 70.126591 391.054372 
L 70.173354 390.999058 
L 74.09871 386.938569 
L 74.289157 386.749277 
L 78.40496 384.314337 
L 81.151021 386.938569 
L 79.379051 391.054372 
L 78.40496 392.315824 
L 76.0135 395.170175 
L 74.289157 396.918671 
L 71.133955 399.285978 
L 70.173354 399.998523 
z
" style="fill:#ffc400;"/>
   </g>
   <g id="PathCollection_27">
    <path clip-path="url(#pa9da85395e)" d="M 70.173354 399.998523 
L 71.133955 399.285978 
L 74.289157 396.918671 
L 76.0135 395.170175 
L 78.40496 392.315824 
L 79.379051 391.054372 
L 81.151021 386.938569 
L 78.40496 384.314337 
L 74.289157 386.749277 
L 74.09871 386.938569 
L 70.173354 390.999058 
L 70.126591 391.054372 
L 67.661974 395.170175 
L 66.214731 399.285978 
z
M 68.511499 395.170175 
L 70.173354 392.381532 
L 71.233326 391.054372 
L 74.289157 387.841441 
L 75.915243 386.938569 
L 78.40496 385.532181 
L 79.87664 386.938569 
L 78.680764 391.054372 
L 78.40496 391.411539 
L 75.255864 395.170175 
L 74.289157 396.150422 
L 70.173354 399.159823 
z
" style="fill:#ff8600;"/>
   </g>
   <g id="PathCollection_28">
    <path clip-path="url(#pa9da85395e)" d="M 70.173354 399.159823 
L 74.289157 396.150422 
L 75.255864 395.170175 
L 78.40496 391.411539 
L 78.680764 391.054372 
L 79.87664 386.938569 
L 78.40496 385.532181 
L 75.915243 386.938569 
L 74.289157 387.841441 
L 71.233326 391.054372 
L 70.173354 392.381532 
L 68.511499 395.170175 
z
M 69.361024 395.170175 
L 70.173354 393.807061 
L 72.371863 391.054372 
L 74.289157 389.038509 
L 77.317086 391.054372 
L 74.498228 395.170175 
L 74.289157 395.382174 
L 70.173354 397.120352 
z
M 78.071181 386.938569 
L 78.40496 386.750024 
L 78.602258 386.938569 
L 78.40496 387.777164 
z
" style="fill:#ff4700;"/>
   </g>
   <g id="PathCollection_29">
    <path clip-path="url(#pa9da85395e)" d="M 70.173354 397.120352 
L 74.289157 395.382174 
L 74.498228 395.170175 
L 77.317086 391.054372 
L 74.289157 389.038509 
L 72.371863 391.054372 
L 70.173354 393.807061 
L 69.361024 395.170175 
z
M 73.510399 391.054372 
L 74.289157 390.235578 
L 75.519028 391.054372 
L 74.289157 393.053741 
z
" style="fill:#f10800;"/>
    <path clip-path="url(#pa9da85395e)" d="M 78.40496 387.777164 
L 78.602258 386.938569 
L 78.40496 386.750024 
L 78.071181 386.938569 
z
" style="fill:#f10800;"/>
   </g>
   <g id="PathCollection_30">
    <path clip-path="url(#pa9da85395e)" d="M 74.289157 393.053741 
L 75.519028 391.054372 
L 74.289157 390.235578 
L 73.510399 391.054372 
z
" style="fill:#a40000;"/>
   </g>
   <g id="patch_18">
    <path d="M 10.7 454.22 
L 10.7 323.772941 
" style="fill:none;stroke:#000000;stroke-linecap:square;stroke-linejoin:miter;stroke-width:0.5;"/>
   </g>
   <g id="patch_19">
    <path d="M 141.994118 454.22 
L 141.994118 323.772941 
" style="fill:none;stroke:#000000;stroke-linecap:square;stroke-linejoin:miter;stroke-width:0.5;"/>
   </g>
   <g id="patch_20">
    <path d="M 10.7 454.22 
L 141.994118 454.22 
" style="fill:none;stroke:#000000;stroke-linecap:square;stroke-linejoin:miter;stroke-width:0.5;"/>
   </g>
   <g id="patch_21">
    <path d="M 10.7 323.772941 
L 141.994118 323.772941 
" style="fill:none;stroke:#000000;stroke-linecap:square;stroke-linejoin:miter;stroke-width:0.5;"/>
   </g>
  </g>
  <g id="axes_5">
   <g id="patch_22">
    <path d="M 168.252941 454.22 
L 299.547059 454.22 
L 299.547059 323.772941 
L 168.252941 323.772941 
z
" style="fill:#ffffff;"/>
   </g>
   <g id="PathCollection_31">
    <path clip-path="url(#p8811a10baa)" d="M 178.336659 448.675615 
L 182.452462 448.675615 
L 186.568265 448.675615 
L 190.684068 448.675615 
L 194.799871 448.675615 
L 198.915674 448.675615 
L 203.031477 448.675615 
L 207.14728 448.675615 
L 211.263083 448.675615 
L 215.378886 448.675615 
L 219.494689 448.675615 
L 223.610492 448.675615 
L 227.726295 448.675615 
L 231.842098 448.675615 
L 235.957902 448.675615 
L 240.073705 448.675615 
L 244.189508 448.675615 
L 248.305311 448.675615 
L 252.421114 448.675615 
L 256.536917 448.675615 
L 260.65272 448.675615 
L 264.768523 448.675615 
L 268.884326 448.675615 
L 273.000129 448.675615 
L 277.115932 448.675615 
L 281.231735 448.675615 
L 285.347538 448.675615 
L 289.463341 448.675615 
L 293.579144 448.675615 
L 293.579144 444.559812 
L 293.579144 440.444009 
L 293.579144 436.328206 
L 293.579144 432.212403 
L 293.579144 428.0966 
L 293.579144 423.980797 
L 293.579144 419.864994 
L 293.579144 415.74919 
L 293.579144 411.633387 
L 293.579144 407.517584 
L 293.579144 403.401781 
L 293.579144 399.285978 
L 293.579144 395.170175 
L 293.579144 391.054372 
L 293.579144 386.938569 
L 293.579144 382.822766 
L 293.579144 378.706963 
L 293.579144 374.59116 
L 293.579144 370.475357 
L 293.579144 366.359554 
L 293.579144 362.243751 
L 293.579144 358.127948 
L 293.579144 354.012145 
L 293.579144 349.896342 
L 293.579144 345.780538 
L 293.579144 341.664735 
L 293.579144 337.548932 
L 293.579144 333.433129 
L 293.579144 329.317326 
L 289.463341 329.317326 
L 285.347538 329.317326 
L 281.231735 329.317326 
L 277.115932 329.317326 
L 273.000129 329.317326 
L 268.884326 329.317326 
L 264.768523 329.317326 
L 260.65272 329.317326 
L 256.536917 329.317326 
L 252.421114 329.317326 
L 248.305311 329.317326 
L 244.189508 329.317326 
L 240.073705 329.317326 
L 235.957902 329.317326 
L 231.842098 329.317326 
L 227.726295 329.317326 
L 223.610492 329.317326 
L 219.494689 329.317326 
L 215.378886 329.317326 
L 211.263083 329.317326 
L 207.14728 329.317326 
L 203.031477 329.317326 
L 198.915674 329.317326 
L 194.799871 329.317326 
L 190.684068 329.317326 
L 186.568265 329.317326 
L 182.452462 329.317326 
L 178.336659 329.317326 
L 174.220856 329.317326 
L 174.220856 333.433129 
L 174.220856 337.548932 
L 174.220856 341.664735 
L 174.220856 345.780538 
L 174.220856 349.896342 
L 174.220856 354.012145 
L 174.220856 358.127948 
L 174.220856 362.243751 
L 174.220856 366.359554 
L 174.220856 370.475357 
L 174.220856 374.59116 
L 174.220856 378.706963 
L 174.220856 382.822766 
L 174.220856 386.938569 
L 174.220856 391.054372 
L 174.220856 395.170175 
L 174.220856 399.285978 
L 174.220856 403.401781 
L 174.220856 407.517584 
L 174.220856 411.633387 
L 174.220856 415.74919 
L 174.220856 419.864994 
L 174.220856 423.980797 
L 174.220856 428.0966 
L 174.220856 432.212403 
L 174.220856 436.328206 
L 174.220856 440.444009 
L 174.220856 444.559812 
L 174.220856 448.675615 
z
M 238.398744 407.517584 
L 235.957902 406.759313 
L 231.842098 404.202946 
L 230.915718 403.401781 
L 227.726295 402.109873 
L 223.65187 399.285978 
L 223.610492 399.27411 
L 219.494689 398.512101 
L 215.378886 397.603504 
L 211.263083 396.105915 
L 209.471831 395.170175 
L 207.14728 393.624035 
L 204.736616 391.054372 
L 205.057062 386.938569 
L 207.14728 384.7929 
L 210.658233 382.822766 
L 211.263083 382.51986 
L 215.378886 380.902267 
L 219.494689 379.890225 
L 223.610492 379.047356 
L 224.905686 378.706963 
L 227.726295 376.816832 
L 231.842098 375.003164 
L 233.070529 374.59116 
L 235.957902 372.614867 
L 240.073705 371.426098 
L 244.189508 371.648221 
L 248.305311 373.994159 
L 248.949646 374.59116 
L 252.421114 378.526567 
L 252.566052 378.706963 
L 255.241125 382.822766 
L 256.536917 386.636098 
L 256.679772 386.938569 
L 257.602382 391.054372 
L 257.264711 395.170175 
L 256.536917 396.93857 
L 255.804267 399.285978 
L 252.984899 403.401781 
L 252.421114 404.001706 
L 248.305311 407.373532 
L 247.914145 407.517584 
L 244.189508 409.017812 
L 240.073705 408.560197 
z
" style="fill:#ffffff;"/>
   </g>
   <g id="PathCollection_32">
    <path clip-path="url(#p8811a10baa)" d="M 240.073705 408.560197 
L 244.189508 409.017812 
L 247.914145 407.517584 
L 248.305311 407.373532 
L 252.421114 404.001706 
L 252.984899 403.401781 
L 255.804267 399.285978 
L 256.536917 396.93857 
L 257.264711 395.170175 
L 257.602382 391.054372 
L 256.679772 386.938569 
L 256.536917 386.636098 
L 255.241125 382.822766 
L 252.566052 378.706963 
L 252.421114 378.526567 
L 248.949646 374.59116 
L 248.305311 373.994159 
L 244.189508 371.648221 
L 240.073705 371.426098 
L 235.957902 372.614867 
L 233.070529 374.59116 
L 231.842098 375.003164 
L 227.726295 376.816832 
L 224.905686 378.706963 
L 223.610492 379.047356 
L 219.494689 379.890225 
L 215.378886 380.902267 
L 211.263083 382.51986 
L 210.658233 382.822766 
L 207.14728 384.7929 
L 205.057062 386.938569 
L 204.736616 391.054372 
L 207.14728 393.624035 
L 209.471831 395.170175 
L 211.263083 396.105915 
L 215.378886 397.603504 
L 219.494689 398.512101 
L 223.610492 399.27411 
L 223.65187 399.285978 
L 227.726295 402.109873 
L 230.915718 403.401781 
L 231.842098 404.202946 
L 235.957902 406.759313 
L 238.398744 407.517584 
z
M 234.846547 403.401781 
L 231.842098 402.345188 
L 227.726295 400.162865 
L 226.461089 399.285978 
L 223.610492 398.46834 
L 219.494689 397.293022 
L 215.378886 395.55621 
L 214.544968 395.170175 
L 211.263083 393.773233 
L 208.114544 391.054372 
L 208.539188 386.938569 
L 211.263083 384.712214 
L 215.378886 383.102951 
L 216.442214 382.822766 
L 219.494689 381.55288 
L 223.610492 380.176799 
L 227.726295 379.022676 
L 228.821644 378.706963 
L 231.842098 376.904823 
L 235.957902 375.493599 
L 240.073705 374.974914 
L 244.189508 375.936449 
L 247.667514 378.706963 
L 248.305311 379.425672 
L 250.803084 382.822766 
L 252.374147 386.938569 
L 252.421114 387.267294 
L 253.179703 391.054372 
L 252.665953 395.170175 
L 252.421114 395.713594 
L 250.998074 399.285978 
L 248.305311 402.418 
L 247.005554 403.401781 
L 244.189508 405.034225 
L 240.073705 405.445124 
L 235.957902 404.173838 
z
" style="fill:#0000a8;"/>
   </g>
   <g id="PathCollection_33">
    <path clip-path="url(#p8811a10baa)" d="M 235.957902 404.173838 
L 240.073705 405.445124 
L 244.189508 405.034225 
L 247.005554 403.401781 
L 248.305311 402.418 
L 250.998074 399.285978 
L 252.421114 395.713594 
L 252.665953 395.170175 
L 253.179703 391.054372 
L 252.421114 387.267294 
L 252.374147 386.938569 
L 250.803084 382.822766 
L 248.305311 379.425672 
L 247.667514 378.706963 
L 244.189508 375.936449 
L 240.073705 374.974914 
L 235.957902 375.493599 
L 231.842098 376.904823 
L 228.821644 378.706963 
L 227.726295 379.022676 
L 223.610492 380.176799 
L 219.494689 381.55288 
L 216.442214 382.822766 
L 215.378886 383.102951 
L 211.263083 384.712214 
L 208.539188 386.938569 
L 208.114544 391.054372 
L 211.263083 393.773233 
L 214.544968 395.170175 
L 215.378886 395.55621 
L 219.494689 397.293022 
L 223.610492 398.46834 
L 226.461089 399.285978 
L 227.726295 400.162865 
L 231.842098 402.345188 
L 234.846547 403.401781 
z
M 228.92512 399.285978 
L 227.726295 398.912555 
L 223.610492 397.66257 
L 219.494689 396.073943 
L 217.529676 395.170175 
L 215.378886 394.388753 
L 211.263083 391.890743 
L 210.294535 391.054372 
L 211.023717 386.938569 
L 211.263083 386.742925 
L 215.378886 384.156045 
L 219.494689 382.987143 
L 220.110464 382.822766 
L 223.610492 381.306242 
L 227.726295 379.941339 
L 231.842098 378.757411 
L 232.111403 378.706963 
L 235.957902 377.332457 
L 240.073705 377.28561 
L 243.273121 378.706963 
L 244.189508 379.226724 
L 247.523288 382.822766 
L 248.305311 384.472367 
L 249.523793 386.938569 
L 250.242703 391.054372 
L 249.634668 395.170175 
L 248.305311 397.660754 
L 247.352535 399.285978 
L 244.189508 401.971297 
L 240.073705 403.01839 
L 235.957902 402.459753 
L 231.842098 401.036347 
z
" style="fill:#0000fa;"/>
   </g>
   <g id="PathCollection_34">
    <path clip-path="url(#p8811a10baa)" d="M 231.842098 401.036347 
L 235.957902 402.459753 
L 240.073705 403.01839 
L 244.189508 401.971297 
L 247.352535 399.285978 
L 248.305311 397.660754 
L 249.634668 395.170175 
L 250.242703 391.054372 
L 249.523793 386.938569 
L 248.305311 384.472367 
L 247.523288 382.822766 
L 244.189508 379.226724 
L 243.273121 378.706963 
L 240.073705 377.28561 
L 235.957902 377.332457 
L 232.111403 378.706963 
L 231.842098 378.757411 
L 227.726295 379.941339 
L 223.610492 381.306242 
L 220.110464 382.822766 
L 219.494689 382.987143 
L 215.378886 384.156045 
L 211.263083 386.742925 
L 211.023717 386.938569 
L 210.294535 391.054372 
L 211.263083 391.890743 
L 215.378886 394.388753 
L 217.529676 395.170175 
L 219.494689 396.073943 
L 223.610492 397.66257 
L 227.726295 398.912555 
L 228.92512 399.285978 
z
M 231.106295 399.285978 
L 227.726295 398.233139 
L 223.610492 396.8568 
L 219.947333 395.170175 
L 219.494689 395.003266 
L 215.378886 393.425749 
L 212.020887 391.054372 
L 212.723976 386.938569 
L 215.378886 385.20914 
L 219.494689 383.682976 
L 222.717137 382.822766 
L 223.610492 382.435685 
L 227.726295 380.860003 
L 231.842098 379.721393 
L 235.957902 379.024982 
L 240.073705 379.428305 
L 244.189508 382.176822 
L 244.788342 382.822766 
L 247.085734 386.938569 
L 247.746729 391.054372 
L 247.048393 395.170175 
L 244.189508 399.204795 
L 244.094779 399.285978 
L 240.073705 401.214011 
L 235.957902 401.11666 
L 231.842098 399.727506 
z
" style="fill:#0034ff;"/>
   </g>
   <g id="PathCollection_35">
    <path clip-path="url(#p8811a10baa)" d="M 231.842098 399.727506 
L 235.957902 401.11666 
L 240.073705 401.214011 
L 244.094779 399.285978 
L 244.189508 399.204795 
L 247.048393 395.170175 
L 247.746729 391.054372 
L 247.085734 386.938569 
L 244.788342 382.822766 
L 244.189508 382.176822 
L 240.073705 379.428305 
L 235.957902 379.024982 
L 231.842098 379.721393 
L 227.726295 380.860003 
L 223.610492 382.435685 
L 222.717137 382.822766 
L 219.494689 383.682976 
L 215.378886 385.20914 
L 212.723976 386.938569 
L 212.020887 391.054372 
L 215.378886 393.425749 
L 219.494689 395.003266 
L 219.947333 395.170175 
L 223.610492 396.8568 
L 227.726295 398.233139 
L 231.106295 399.285978 
z
M 234.501151 399.285978 
L 231.842098 398.769245 
L 227.726295 397.553723 
L 223.610492 396.05103 
L 221.697375 395.170175 
L 219.494689 394.357949 
L 215.378886 392.462745 
L 213.384554 391.054372 
L 214.34062 386.938569 
L 215.378886 386.262235 
L 219.494689 384.378809 
L 223.610492 383.212469 
L 225.118578 382.822766 
L 227.726295 381.778666 
L 231.842098 380.685374 
L 235.957902 380.284353 
L 240.073705 381.302503 
L 242.170524 382.822766 
L 244.189508 385.641024 
L 244.955525 386.938569 
L 245.747993 391.054372 
L 244.763132 395.170175 
L 244.189508 395.979706 
L 240.331594 399.285978 
L 240.073705 399.409632 
L 235.957902 399.773566 
z
" style="fill:#0080ff;"/>
   </g>
   <g id="PathCollection_36">
    <path clip-path="url(#p8811a10baa)" d="M 235.957902 399.773566 
L 240.073705 399.409632 
L 240.331594 399.285978 
L 244.189508 395.979706 
L 244.763132 395.170175 
L 245.747993 391.054372 
L 244.955525 386.938569 
L 244.189508 385.641024 
L 242.170524 382.822766 
L 240.073705 381.302503 
L 235.957902 380.284353 
L 231.842098 380.685374 
L 227.726295 381.778666 
L 225.118578 382.822766 
L 223.610492 383.212469 
L 219.494689 384.378809 
L 215.378886 386.262235 
L 214.34062 386.938569 
L 213.384554 391.054372 
L 215.378886 392.462745 
L 219.494689 394.357949 
L 221.697375 395.170175 
L 223.610492 396.05103 
L 227.726295 397.553723 
L 231.842098 398.769245 
L 234.501151 399.285978 
z
M 223.447418 395.170175 
L 219.494689 393.712632 
L 215.378886 391.49974 
L 214.74822 391.054372 
L 215.378886 388.733756 
L 215.863822 386.938569 
L 219.494689 385.074642 
L 223.610492 383.80537 
L 227.413008 382.822766 
L 227.726295 382.697329 
L 231.842098 381.649355 
L 235.957902 381.543725 
L 239.428395 382.822766 
L 240.073705 383.2413 
L 243.04781 386.938569 
L 243.8281 391.054372 
L 242.652837 395.170175 
L 240.073705 397.534262 
L 235.957902 398.560994 
L 231.842098 397.989456 
L 227.726295 396.874307 
L 223.610492 395.245259 
z
" style="fill:#00c8ff;"/>
   </g>
   <g id="PathCollection_37">
    <path clip-path="url(#p8811a10baa)" d="M 223.610492 395.245259 
L 227.726295 396.874307 
L 231.842098 397.989456 
L 235.957902 398.560994 
L 240.073705 397.534262 
L 242.652837 395.170175 
L 243.8281 391.054372 
L 243.04781 386.938569 
L 240.073705 383.2413 
L 239.428395 382.822766 
L 235.957902 381.543725 
L 231.842098 381.649355 
L 227.726295 382.697329 
L 227.413008 382.822766 
L 223.610492 383.80537 
L 219.494689 385.074642 
L 215.863822 386.938569 
L 215.378886 388.733756 
L 214.74822 391.054372 
L 215.378886 391.49974 
L 219.494689 393.712632 
L 223.447418 395.170175 
z
M 225.155919 395.170175 
L 223.610492 394.63913 
L 219.494689 393.067315 
L 215.983873 391.054372 
L 217.219281 386.938569 
L 219.494689 385.770475 
L 223.610492 384.398271 
L 227.726295 383.383768 
L 231.014703 382.822766 
L 231.842098 382.613337 
L 235.957902 382.803097 
L 236.011272 382.822766 
L 240.073705 385.457572 
L 241.265027 386.938569 
L 242.187309 391.054372 
L 240.601178 395.170175 
L 240.073705 395.653669 
L 235.957902 397.42281 
L 231.842098 397.209667 
L 227.726295 396.194891 
z
" style="fill:#23ffd4;"/>
   </g>
   <g id="PathCollection_38">
    <path clip-path="url(#p8811a10baa)" d="M 227.726295 396.194891 
L 231.842098 397.209667 
L 235.957902 397.42281 
L 240.073705 395.653669 
L 240.601178 395.170175 
L 242.187309 391.054372 
L 241.265027 386.938569 
L 240.073705 385.457572 
L 236.011272 382.822766 
L 235.957902 382.803097 
L 231.842098 382.613337 
L 231.014703 382.822766 
L 227.726295 383.383768 
L 223.610492 384.398271 
L 219.494689 385.770475 
L 217.219281 386.938569 
L 215.983873 391.054372 
L 219.494689 393.067315 
L 223.610492 394.63913 
L 225.155919 395.170175 
z
M 226.860152 395.170175 
L 223.610492 394.053516 
L 219.494689 392.421998 
L 217.109384 391.054372 
L 218.574741 386.938569 
L 219.494689 386.466308 
L 223.610492 384.991172 
L 227.726295 384.033485 
L 231.842098 383.510899 
L 235.957902 384.160993 
L 239.498749 386.938569 
L 240.073705 389.141205 
L 240.546518 391.054372 
L 240.073705 392.204656 
L 238.298122 395.170175 
L 235.957902 396.284626 
L 231.842098 396.429878 
L 227.726295 395.515475 
z
" style="fill:#5dff9a;"/>
   </g>
   <g id="PathCollection_39">
    <path clip-path="url(#p8811a10baa)" d="M 227.726295 395.515475 
L 231.842098 396.429878 
L 235.957902 396.284626 
L 238.298122 395.170175 
L 240.073705 392.204656 
L 240.546518 391.054372 
L 240.073705 389.141205 
L 239.498749 386.938569 
L 235.957902 384.160993 
L 231.842098 383.510899 
L 227.726295 384.033485 
L 223.610492 384.991172 
L 219.494689 386.466308 
L 218.574741 386.938569 
L 217.109384 391.054372 
L 219.494689 392.421998 
L 223.610492 394.053516 
L 226.860152 395.170175 
z
M 229.554338 395.170175 
L 227.726295 394.815926 
L 223.610492 393.467902 
L 219.494689 391.776681 
L 218.234895 391.054372 
L 219.494689 387.856522 
L 220.002173 386.938569 
L 223.610492 385.584073 
L 227.726295 384.683201 
L 231.842098 384.390026 
L 235.957902 385.520452 
L 237.765714 386.938569 
L 238.98242 391.054372 
L 235.957902 395.127129 
L 235.823024 395.170175 
L 231.842098 395.650089 
z
" style="fill:#9aff5d;"/>
   </g>
   <g id="PathCollection_40">
    <path clip-path="url(#p8811a10baa)" d="M 231.842098 395.650089 
L 235.823024 395.170175 
L 235.957902 395.127129 
L 238.98242 391.054372 
L 237.765714 386.938569 
L 235.957902 385.520452 
L 231.842098 384.390026 
L 227.726295 384.683201 
L 223.610492 385.584073 
L 220.002173 386.938569 
L 219.494689 387.856522 
L 218.234895 391.054372 
L 219.494689 391.776681 
L 223.610492 393.467902 
L 227.726295 394.815926 
L 229.554338 395.170175 
z
M 219.360406 391.054372 
L 219.494689 390.713508 
L 221.581636 386.938569 
L 223.610492 386.176974 
L 227.726295 385.332917 
L 231.842098 385.269153 
L 235.957902 386.879911 
L 236.032679 386.938569 
L 237.449367 391.054372 
L 235.957902 393.06275 
L 231.842098 394.73461 
L 227.726295 394.095571 
L 223.610492 392.882287 
L 219.494689 391.131364 
z
" style="fill:#d4ff23;"/>
   </g>
   <g id="PathCollection_41">
    <path clip-path="url(#p8811a10baa)" d="M 219.494689 391.131364 
L 223.610492 392.882287 
L 227.726295 394.095571 
L 231.842098 394.73461 
L 235.957902 393.06275 
L 237.449367 391.054372 
L 236.032679 386.938569 
L 235.957902 386.879911 
L 231.842098 385.269153 
L 227.726295 385.332917 
L 223.610492 386.176974 
L 221.581636 386.938569 
L 219.494689 390.713508 
L 219.360406 391.054372 
z
M 220.702113 391.054372 
L 223.161099 386.938569 
L 223.610492 386.769875 
L 227.726295 385.982633 
L 231.842098 386.14828 
L 233.835791 386.938569 
L 235.908855 391.054372 
L 231.842098 393.601974 
L 227.726295 393.375216 
L 223.610492 392.296673 
z
" style="fill:#ffdb00;"/>
   </g>
   <g id="PathCollection_42">
    <path clip-path="url(#p8811a10baa)" d="M 223.610492 392.296673 
L 227.726295 393.375216 
L 231.842098 393.601974 
L 235.908855 391.054372 
L 233.835791 386.938569 
L 231.842098 386.14828 
L 227.726295 385.982633 
L 223.610492 386.769875 
L 223.161099 386.938569 
L 220.702113 391.054372 
z
M 222.073108 391.054372 
L 223.610492 388.541736 
L 226.091776 386.938569 
L 227.726295 386.632349 
L 231.115447 386.938569 
L 231.842098 387.246577 
L 234.10082 391.054372 
L 231.842098 392.469339 
L 227.726295 392.654861 
L 223.610492 391.711059 
z
" style="fill:#ff9400;"/>
   </g>
   <g id="PathCollection_43">
    <path clip-path="url(#p8811a10baa)" d="M 223.610492 391.711059 
L 227.726295 392.654861 
L 231.842098 392.469339 
L 234.10082 391.054372 
L 231.842098 387.246577 
L 231.115447 386.938569 
L 227.726295 386.632349 
L 226.091776 386.938569 
L 223.610492 388.541736 
L 222.073108 391.054372 
z
M 223.444104 391.054372 
L 223.610492 390.782433 
L 227.726295 388.181632 
L 231.842098 390.294595 
L 232.292786 391.054372 
L 231.842098 391.336703 
L 227.726295 391.934506 
L 223.610492 391.125444 
z
" style="fill:#ff5200;"/>
   </g>
   <g id="PathCollection_44">
    <path clip-path="url(#p8811a10baa)" d="M 223.610492 391.125444 
L 227.726295 391.934506 
L 231.842098 391.336703 
L 232.292786 391.054372 
L 231.842098 390.294595 
L 227.726295 388.181632 
L 223.610492 390.782433 
L 223.444104 391.054372 
z
M 226.896715 391.054372 
L 227.726295 390.532859 
L 228.664981 391.054372 
L 227.726295 391.21415 
z
" style="fill:#fa0f00;"/>
   </g>
   <g id="PathCollection_45">
    <path clip-path="url(#p8811a10baa)" d="M 227.726295 391.21415 
L 228.664981 391.054372 
L 227.726295 390.532859 
L 226.896715 391.054372 
z
" style="fill:#a80000;"/>
   </g>
   <g id="patch_23">
    <path d="M 168.252941 454.22 
L 168.252941 323.772941 
" style="fill:none;stroke:#000000;stroke-linecap:square;stroke-linejoin:miter;stroke-width:0.5;"/>
   </g>
   <g id="patch_24">
    <path d="M 299.547059 454.22 
L 299.547059 323.772941 
" style="fill:none;stroke:#000000;stroke-linecap:square;stroke-linejoin:miter;stroke-width:0.5;"/>
   </g>
   <g id="patch_25">
    <path d="M 168.252941 454.22 
L 299.547059 454.22 
" style="fill:none;stroke:#000000;stroke-linecap:square;stroke-linejoin:miter;stroke-width:0.5;"/>
   </g>
   <g id="patch_26">
    <path d="M 168.252941 323.772941 
L 299.547059 323.772941 
" style="fill:none;stroke:#000000;stroke-linecap:square;stroke-linejoin:miter;stroke-width:0.5;"/>
   </g>
  </g>
  <g id="axes_6">
   <g id="patch_27">
    <path d="M 325.805882 454.22 
L 457.1 454.22 
L 457.1 323.772941 
L 325.805882 323.772941 
z
" style="fill:#ffffff;"/>
   </g>
   <g id="line2d_5">
    <path clip-path="url(#p86c46278f0)" d="M 331.773797 448.290588 
L 335.8896 448.290588 
L 340.005403 448.290588 
L 344.121206 448.290588 
L 348.237009 448.290588 
L 352.352812 448.290579 
L 356.468615 448.290321 
L 360.584418 448.285495 
L 364.700221 448.223871 
L 368.816024 447.689687 
L 372.931827 444.573378 
L 377.04763 432.629987 
L 381.163434 403.984157 
L 385.279237 364.535253 
L 389.39504 340.483102 
L 393.510843 350.457516 
L 397.626646 384.067839 
L 401.742449 417.778678 
L 405.858252 438.026878 
L 409.974055 445.914593 
L 414.089858 447.918966 
L 418.205661 448.251449 
L 422.321464 448.287798 
L 426.437267 448.290453 
L 430.55307 448.290584 
L 434.668873 448.290588 
L 438.784676 448.290588 
L 442.900479 448.290588 
L 447.016283 448.290588 
L 451.132086 448.290588 
" style="fill:none;stroke:#1f77b4;stroke-linecap:square;stroke-width:1.5;"/>
   </g>
   <g id="line2d_6">
    <path clip-path="url(#p86c46278f0)" d="M 331.773797 329.702353 
" style="fill:none;stroke:#ffffff;stroke-linecap:square;stroke-width:1.5;"/>
   </g>
   <g id="patch_28">
    <path d="M 325.805882 454.22 
L 325.805882 323.772941 
" style="fill:none;stroke:#000000;stroke-linecap:square;stroke-linejoin:miter;stroke-width:0.5;"/>
   </g>
   <g id="patch_29">
    <path d="M 457.1 454.22 
L 457.1 323.772941 
" style="fill:none;stroke:#000000;stroke-linecap:square;stroke-linejoin:miter;stroke-width:0.5;"/>
   </g>
   <g id="patch_30">
    <path d="M 325.805882 454.22 
L 457.1 454.22 
" style="fill:none;stroke:#000000;stroke-linecap:square;stroke-linejoin:miter;stroke-width:0.5;"/>
   </g>
   <g id="patch_31">
    <path d="M 325.805882 323.772941 
L 457.1 323.772941 
" style="fill:none;stroke:#000000;stroke-linecap:square;stroke-linejoin:miter;stroke-width:0.5;"/>
   </g>
  </g>
 </g>
 <defs>
  <clipPath id="pbfe2c7f0d3">
   <rect height="130.447059" width="131.294118" x="10.7" y="10.7"/>
  </clipPath>
  <clipPath id="p3429130a95">
   <rect height="130.447059" width="131.294118" x="10.7" y="167.236471"/>
  </clipPath>
  <clipPath id="p4da7a16c98">
   <rect height="130.447059" width="131.294118" x="168.252941" y="167.236471"/>
  </clipPath>
  <clipPath id="pa9da85395e">
   <rect height="130.447059" width="131.294118" x="10.7" y="323.772941"/>
  </clipPath>
  <clipPath id="p8811a10baa">
   <rect height="130.447059" width="131.294118" x="168.252941" y="323.772941"/>
  </clipPath>
  <clipPath id="p86c46278f0">
   <rect height="130.447059" width="131.294118" x="325.805882" y="323.772941"/>
  </clipPath>
 </defs>
</svg>
