<?xml version="1.0" encoding="utf-8" standalone="no"?>
<!DOCTYPE svg PUBLIC "-//W3C//DTD SVG 1.1//EN"
  "http://www.w3.org/Graphics/SVG/1.1/DTD/svg11.dtd">
<!-- Created with matplotlib (http://matplotlib.org/) -->
<svg height="464pt" version="1.1" viewBox="0 0 467 464" width="467pt" xmlns="http://www.w3.org/2000/svg" xmlns:xlink="http://www.w3.org/1999/xlink">
 <defs>
  <style type="text/css">
*{stroke-linecap:butt;stroke-linejoin:round;}
  </style>
 </defs>
 <g id="figure_1">
  <g id="patch_1">
   <path d="M 0 464.92 
L 467.8 464.92 
L 467.8 0 
L 0 0 
z
" style="fill:#ffffff;"/>
  </g>
  <g id="axes_1">
   <g id="patch_2">
    <path d="M 10.7 141.147059 
L 141.994118 141.147059 
L 141.994118 10.7 
L 10.7 10.7 
z
" style="fill:#ffffff;"/>
   </g>
   <g id="line2d_1">
    <path clip-path="url(#p01b970dee6)" d="M 16.667914 135.217647 
L 20.783717 135.217647 
L 24.899521 135.217647 
L 29.015324 135.217647 
L 33.131127 135.217647 
L 37.24693 135.217647 
L 41.362733 135.217646 
L 45.478536 135.21743 
L 49.594339 135.207726 
L 53.710142 135.046579 
L 57.825945 133.648021 
L 61.941748 126.333249 
L 66.057551 103.206041 
L 70.173354 61.99031 
L 74.289157 27.41016 
L 78.40496 30.591918 
L 82.520763 68.108866 
L 86.636566 107.890476 
L 90.75237 128.700211 
L 94.868173 134.38413 
L 98.983976 135.162513 
L 103.099779 135.215605 
L 107.215582 135.217594 
L 111.331385 135.217646 
L 115.447188 135.217647 
L 119.562991 135.217647 
L 123.678794 135.217647 
L 127.794597 135.217647 
L 131.9104 135.217647 
L 136.026203 135.217647 
" style="fill:none;stroke:#1f77b4;stroke-linecap:square;stroke-width:1.5;"/>
   </g>
   <g id="line2d_2">
    <path clip-path="url(#p01b970dee6)" d="M 16.667914 16.629412 
" style="fill:none;stroke:#ffffff;stroke-linecap:square;stroke-width:1.5;"/>
   </g>
   <g id="patch_3">
    <path d="M 10.7 141.147059 
L 10.7 10.7 
" style="fill:none;stroke:#000000;stroke-linecap:square;stroke-linejoin:miter;stroke-width:0.5;"/>
   </g>
   <g id="patch_4">
    <path d="M 141.994118 141.147059 
L 141.994118 10.7 
" style="fill:none;stroke:#000000;stroke-linecap:square;stroke-linejoin:miter;stroke-width:0.5;"/>
   </g>
   <g id="patch_5">
    <path d="M 10.7 141.147059 
L 141.994118 141.147059 
" style="fill:none;stroke:#000000;stroke-linecap:square;stroke-linejoin:miter;stroke-width:0.5;"/>
   </g>
   <g id="patch_6">
    <path d="M 10.7 10.7 
L 141.994118 10.7 
" style="fill:none;stroke:#000000;stroke-linecap:square;stroke-linejoin:miter;stroke-width:0.5;"/>
   </g>
  </g>
  <g id="axes_2">
   <g id="patch_7">
    <path d="M 10.7 297.683529 
L 141.994118 297.683529 
L 141.994118 167.236471 
L 10.7 167.236471 
z
" style="fill:#ffffff;"/>
   </g>
   <g id="PathCollection_1">
    <path clip-path="url(#pf88a50d787)" d="M 20.783717 292.139144 
L 24.899521 292.139144 
L 29.015324 292.139144 
L 33.131127 292.139144 
L 37.24693 292.139144 
L 41.362733 292.139144 
L 45.478536 292.139144 
L 49.594339 292.139144 
L 53.710142 292.139144 
L 57.825945 292.139144 
L 61.941748 292.139144 
L 66.057551 292.139144 
L 70.173354 292.139144 
L 74.289157 292.139144 
L 78.40496 292.139144 
L 82.520763 292.139144 
L 86.636566 292.139144 
L 90.75237 292.139144 
L 94.868173 292.139144 
L 98.983976 292.139144 
L 103.099779 292.139144 
L 107.215582 292.139144 
L 111.331385 292.139144 
L 115.447188 292.139144 
L 119.562991 292.139144 
L 123.678794 292.139144 
L 127.794597 292.139144 
L 131.9104 292.139144 
L 136.026203 292.139144 
L 136.026203 288.023341 
L 136.026203 283.907538 
L 136.026203 279.791735 
L 136.026203 275.675932 
L 136.026203 271.560129 
L 136.026203 267.444326 
L 136.026203 263.328523 
L 136.026203 259.21272 
L 136.026203 255.096917 
L 136.026203 250.981114 
L 136.026203 246.865311 
L 136.026203 242.749508 
L 136.026203 238.633705 
L 136.026203 234.517902 
L 136.026203 230.402098 
L 136.026203 226.286295 
L 136.026203 222.170492 
L 136.026203 218.054689 
L 136.026203 213.938886 
L 136.026203 209.823083 
L 136.026203 205.70728 
L 136.026203 201.591477 
L 136.026203 197.475674 
L 136.026203 193.359871 
L 136.026203 189.244068 
L 136.026203 185.128265 
L 136.026203 181.012462 
L 136.026203 176.896659 
L 136.026203 172.780856 
L 131.9104 172.780856 
L 127.794597 172.780856 
L 123.678794 172.780856 
L 119.562991 172.780856 
L 115.447188 172.780856 
L 111.331385 172.780856 
L 107.215582 172.780856 
L 103.099779 172.780856 
L 98.983976 172.780856 
L 94.868173 172.780856 
L 90.75237 172.780856 
L 86.636566 172.780856 
L 82.520763 172.780856 
L 78.40496 172.780856 
L 74.289157 172.780856 
L 70.173354 172.780856 
L 66.057551 172.780856 
L 61.941748 172.780856 
L 57.825945 172.780856 
L 53.710142 172.780856 
L 49.594339 172.780856 
L 45.478536 172.780856 
L 41.362733 172.780856 
L 37.24693 172.780856 
L 33.131127 172.780856 
L 29.015324 172.780856 
L 24.899521 172.780856 
L 20.783717 172.780856 
L 16.667914 172.780856 
L 16.667914 176.896659 
L 16.667914 181.012462 
L 16.667914 185.128265 
L 16.667914 189.244068 
L 16.667914 193.359871 
L 16.667914 197.475674 
L 16.667914 201.591477 
L 16.667914 205.70728 
L 16.667914 209.823083 
L 16.667914 213.938886 
L 16.667914 218.054689 
L 16.667914 222.170492 
L 16.667914 226.286295 
L 16.667914 230.402098 
L 16.667914 234.517902 
L 16.667914 238.633705 
L 16.667914 242.749508 
L 16.667914 246.865311 
L 16.667914 250.981114 
L 16.667914 255.096917 
L 16.667914 259.21272 
L 16.667914 263.328523 
L 16.667914 267.444326 
L 16.667914 271.560129 
L 16.667914 275.675932 
L 16.667914 279.791735 
L 16.667914 283.907538 
L 16.667914 288.023341 
L 16.667914 292.139144 
z
M 71.670104 259.21272 
L 70.173354 255.744443 
L 69.863927 255.096917 
L 68.145109 250.981114 
L 67.085545 246.865311 
L 66.263378 242.749508 
L 66.057551 241.920252 
L 63.919664 238.633705 
L 62.459497 234.517902 
L 61.941748 232.200078 
L 60.940483 230.402098 
L 60.155075 226.286295 
L 60.690792 222.170492 
L 61.941748 219.588557 
L 62.607303 218.054689 
L 66.057551 214.218126 
L 66.445015 213.938886 
L 70.173354 211.356864 
L 74.289157 210.104481 
L 77.21485 209.823083 
L 78.40496 209.623549 
L 79.643477 209.823083 
L 82.520763 210.156185 
L 86.636566 212.414972 
L 88.000225 213.938886 
L 90.235202 218.054689 
L 90.75237 220.368341 
L 91.265317 222.170492 
L 91.443432 226.286295 
L 90.75237 228.991632 
L 90.61651 230.402098 
L 89.80669 234.517902 
L 88.374527 238.633705 
L 86.636566 241.446943 
L 86.336593 242.749508 
L 85.408273 246.865311 
L 83.898578 250.981114 
L 82.520763 253.596989 
L 82.039084 255.096917 
L 79.986178 259.21272 
L 78.40496 261.216307 
L 74.289157 262.217425 
z
" style="fill:#ffffff;"/>
   </g>
   <g id="PathCollection_2">
    <path clip-path="url(#pf88a50d787)" d="M 74.289157 262.217425 
L 78.40496 261.216307 
L 79.986178 259.21272 
L 82.039084 255.096917 
L 82.520763 253.596989 
L 83.898578 250.981114 
L 85.408273 246.865311 
L 86.336593 242.749508 
L 86.636566 241.446943 
L 88.374527 238.633705 
L 89.80669 234.517902 
L 90.61651 230.402098 
L 90.75237 228.991632 
L 91.443432 226.286295 
L 91.265317 222.170492 
L 90.75237 220.368341 
L 90.235202 218.054689 
L 88.000225 213.938886 
L 86.636566 212.414972 
L 82.520763 210.156185 
L 79.643477 209.823083 
L 78.40496 209.623549 
L 77.21485 209.823083 
L 74.289157 210.104481 
L 70.173354 211.356864 
L 66.445015 213.938886 
L 66.057551 214.218126 
L 62.607303 218.054689 
L 61.941748 219.588557 
L 60.690792 222.170492 
L 60.155075 226.286295 
L 60.940483 230.402098 
L 61.941748 232.200078 
L 62.459497 234.517902 
L 63.919664 238.633705 
L 66.057551 241.920252 
L 66.263378 242.749508 
L 67.085545 246.865311 
L 68.145109 250.981114 
L 69.863927 255.096917 
L 70.173354 255.744443 
L 71.670104 259.21272 
z
M 71.765309 255.096917 
L 70.314269 250.981114 
L 70.173354 250.520195 
L 68.532014 246.865311 
L 67.242582 242.749508 
L 66.191583 238.633705 
L 66.057551 238.089726 
L 64.176035 234.517902 
L 63.175339 230.402098 
L 63.028311 226.286295 
L 64.041103 222.170492 
L 66.057551 219.117002 
L 67.00327 218.054689 
L 70.173354 215.419886 
L 74.289157 213.953576 
L 74.509662 213.938886 
L 78.40496 213.536526 
L 79.747749 213.938886 
L 82.520763 214.685421 
L 86.127373 218.054689 
L 86.636566 218.843296 
L 88.251892 222.170492 
L 88.999271 226.286295 
L 88.844277 230.402098 
L 87.887076 234.517902 
L 86.636566 237.080057 
L 86.301211 238.633705 
L 85.26569 242.749508 
L 83.712634 246.865311 
L 82.520763 249.167803 
L 81.940367 250.981114 
L 80.157394 255.096917 
L 78.40496 257.590199 
L 74.289157 258.539662 
z
" style="fill:#0000a8;"/>
   </g>
   <g id="PathCollection_3">
    <path clip-path="url(#pf88a50d787)" d="M 74.289157 258.539662 
L 78.40496 257.590199 
L 80.157394 255.096917 
L 81.940367 250.981114 
L 82.520763 249.167803 
L 83.712634 246.865311 
L 85.26569 242.749508 
L 86.301211 238.633705 
L 86.636566 237.080057 
L 87.887076 234.517902 
L 88.844277 230.402098 
L 88.999271 226.286295 
L 88.251892 222.170492 
L 86.636566 218.843296 
L 86.127373 218.054689 
L 82.520763 214.685421 
L 79.747749 213.938886 
L 78.40496 213.536526 
L 74.509662 213.938886 
L 74.289157 213.953576 
L 70.173354 215.419886 
L 67.00327 218.054689 
L 66.057551 219.117002 
L 64.041103 222.170492 
L 63.028311 226.286295 
L 63.175339 230.402098 
L 64.176035 234.517902 
L 66.057551 238.089726 
L 66.191583 238.633705 
L 67.242582 242.749508 
L 68.532014 246.865311 
L 70.173354 250.520195 
L 70.314269 250.981114 
L 71.765309 255.096917 
z
M 73.488473 255.096917 
L 71.298995 250.981114 
L 70.173354 247.299242 
L 69.978484 246.865311 
L 68.221787 242.749508 
L 66.994486 238.633705 
L 66.057551 234.831092 
L 65.892573 234.517902 
L 64.785718 230.402098 
L 64.961438 226.286295 
L 66.057551 223.506217 
L 66.658646 222.170492 
L 70.173354 218.412185 
L 70.940301 218.054689 
L 74.289157 216.421711 
L 78.40496 216.224984 
L 82.408463 218.054689 
L 82.520763 218.110867 
L 85.719368 222.170492 
L 86.636566 225.198449 
L 86.943967 226.286295 
L 87.072044 230.402098 
L 86.636566 232.103885 
L 86.337106 234.517902 
L 85.452255 238.633705 
L 84.194787 242.749508 
L 82.520763 246.207998 
L 82.307639 246.865311 
L 80.891901 250.981114 
L 78.40496 254.981079 
L 77.874876 255.096917 
L 74.289157 256.189118 
z
" style="fill:#0000ff;"/>
   </g>
   <g id="PathCollection_4">
    <path clip-path="url(#pf88a50d787)" d="M 74.289157 256.189118 
L 77.874876 255.096917 
L 78.40496 254.981079 
L 80.891901 250.981114 
L 82.307639 246.865311 
L 82.520763 246.207998 
L 84.194787 242.749508 
L 85.452255 238.633705 
L 86.337106 234.517902 
L 86.636566 232.103885 
L 87.072044 230.402098 
L 86.943967 226.286295 
L 86.636566 225.198449 
L 85.719368 222.170492 
L 82.520763 218.110867 
L 82.408463 218.054689 
L 78.40496 216.224984 
L 74.289157 216.421711 
L 70.940301 218.054689 
L 70.173354 218.412185 
L 66.658646 222.170492 
L 66.057551 223.506217 
L 64.961438 226.286295 
L 64.785718 230.402098 
L 65.892573 234.517902 
L 66.057551 234.831092 
L 66.994486 238.633705 
L 68.221787 242.749508 
L 69.978484 246.865311 
L 70.173354 247.299242 
L 71.298995 250.981114 
L 73.488473 255.096917 
z
M 72.283722 250.981114 
L 70.776513 246.865311 
L 70.173354 244.948864 
L 69.200992 242.749508 
L 67.797388 238.633705 
L 66.80289 234.517902 
L 66.27186 230.402098 
L 66.677159 226.286295 
L 68.865066 222.170492 
L 70.173354 220.771529 
L 74.289157 218.676855 
L 78.40496 218.606812 
L 82.520763 220.907137 
L 83.516169 222.170492 
L 85.40188 226.286295 
L 85.844819 230.402098 
L 85.477974 234.517902 
L 84.6033 238.633705 
L 83.123883 242.749508 
L 82.520763 243.995539 
L 81.590281 246.865311 
L 79.843434 250.981114 
L 78.40496 253.294738 
L 74.289157 254.240206 
z
" style="fill:#0044ff;"/>
   </g>
   <g id="PathCollection_5">
    <path clip-path="url(#pf88a50d787)" d="M 74.289157 254.240206 
L 78.40496 253.294738 
L 79.843434 250.981114 
L 81.590281 246.865311 
L 82.520763 243.995539 
L 83.123883 242.749508 
L 84.6033 238.633705 
L 85.477974 234.517902 
L 85.844819 230.402098 
L 85.40188 226.286295 
L 83.516169 222.170492 
L 82.520763 220.907137 
L 78.40496 218.606812 
L 74.289157 218.676855 
L 70.173354 220.771529 
L 68.865066 222.170492 
L 66.677159 226.286295 
L 66.27186 230.402098 
L 66.80289 234.517902 
L 67.797388 238.633705 
L 69.200992 242.749508 
L 70.173354 244.948864 
L 70.776513 246.865311 
L 72.283722 250.981114 
z
M 73.268449 250.981114 
L 71.473581 246.865311 
L 70.177672 242.749508 
L 70.173354 242.734881 
L 68.600291 238.633705 
L 67.627481 234.517902 
L 67.291272 230.402098 
L 68.108176 226.286295 
L 70.173354 223.075987 
L 71.455058 222.170492 
L 74.289157 220.515537 
L 78.40496 220.552375 
L 80.885653 222.170492 
L 82.520763 223.642613 
L 83.950052 226.286295 
L 84.795142 230.402098 
L 84.618842 234.517902 
L 83.754344 238.633705 
L 82.520763 241.798208 
L 82.250826 242.749508 
L 80.872923 246.865311 
L 78.794968 250.981114 
L 78.40496 251.608397 
L 74.289157 252.639897 
z
" style="fill:#0090ff;"/>
   </g>
   <g id="PathCollection_6">
    <path clip-path="url(#pf88a50d787)" d="M 74.289157 252.639897 
L 78.40496 251.608397 
L 78.794968 250.981114 
L 80.872923 246.865311 
L 82.250826 242.749508 
L 82.520763 241.798208 
L 83.754344 238.633705 
L 84.618842 234.517902 
L 84.795142 230.402098 
L 83.950052 226.286295 
L 82.520763 223.642613 
L 80.885653 222.170492 
L 78.40496 220.552375 
L 74.289157 220.515537 
L 71.455058 222.170492 
L 70.173354 223.075987 
L 68.108176 226.286295 
L 67.291272 230.402098 
L 67.627481 234.517902 
L 68.600291 238.633705 
L 70.173354 242.734881 
L 70.177672 242.749508 
L 71.473581 246.865311 
L 73.268449 250.981114 
z
M 74.253176 250.981114 
L 72.170649 246.865311 
L 70.795576 242.749508 
L 70.173354 240.641612 
L 69.403193 238.633705 
L 68.452072 234.517902 
L 68.310684 230.402098 
L 69.539192 226.286295 
L 70.173354 225.300494 
L 74.289157 222.329437 
L 78.40496 222.454717 
L 82.492792 226.286295 
L 82.520763 226.340343 
L 83.745465 230.402098 
L 83.75971 234.517902 
L 82.905388 238.633705 
L 82.520763 239.620382 
L 81.632853 242.749508 
L 80.155565 246.865311 
L 78.40496 250.138709 
L 74.515458 250.981114 
L 74.289157 251.039589 
z
" style="fill:#00e0fb;"/>
   </g>
   <g id="PathCollection_7">
    <path clip-path="url(#pf88a50d787)" d="M 74.289157 251.039589 
L 74.515458 250.981114 
L 78.40496 250.138709 
L 80.155565 246.865311 
L 81.632853 242.749508 
L 82.520763 239.620382 
L 82.905388 238.633705 
L 83.75971 234.517902 
L 83.745465 230.402098 
L 82.520763 226.340343 
L 82.492792 226.286295 
L 78.40496 222.454717 
L 74.289157 222.329437 
L 70.173354 225.300494 
L 69.539192 226.286295 
L 68.310684 230.402098 
L 68.452072 234.517902 
L 69.403193 238.633705 
L 70.173354 240.641612 
L 70.795576 242.749508 
L 72.170649 246.865311 
L 74.253176 250.981114 
z
M 72.867718 246.865311 
L 71.413481 242.749508 
L 70.201107 238.633705 
L 70.173354 238.48494 
L 69.276664 234.517902 
L 69.330097 230.402098 
L 70.173354 227.942213 
L 71.294408 226.286295 
L 74.289157 223.920108 
L 78.40496 224.143478 
L 80.691087 226.286295 
L 82.520763 229.821624 
L 82.695788 230.402098 
L 82.900578 234.517902 
L 82.520763 236.357636 
L 82.157962 238.633705 
L 81.01488 242.749508 
L 79.438207 246.865311 
L 78.40496 248.797344 
L 74.289157 249.660467 
z
" style="fill:#3cffba;"/>
   </g>
   <g id="PathCollection_8">
    <path clip-path="url(#pf88a50d787)" d="M 74.289157 249.660467 
L 78.40496 248.797344 
L 79.438207 246.865311 
L 81.01488 242.749508 
L 82.157962 238.633705 
L 82.520763 236.357636 
L 82.900578 234.517902 
L 82.695788 230.402098 
L 82.520763 229.821624 
L 80.691087 226.286295 
L 78.40496 224.143478 
L 74.289157 223.920108 
L 71.294408 226.286295 
L 70.173354 227.942213 
L 69.330097 230.402098 
L 69.276664 234.517902 
L 70.173354 238.48494 
L 70.201107 238.633705 
L 71.413481 242.749508 
L 72.867718 246.865311 
z
M 73.564786 246.865311 
L 72.031386 242.749508 
L 70.881677 238.633705 
L 70.173354 234.836876 
L 70.101255 234.517902 
L 70.173354 233.135036 
L 70.399685 230.402098 
L 73.307631 226.286295 
L 74.289157 225.51078 
L 78.40496 225.83224 
L 78.889383 226.286295 
L 81.533337 230.402098 
L 82.051543 234.517902 
L 81.494637 238.633705 
L 80.396907 242.749508 
L 78.720848 246.865311 
L 78.40496 247.45598 
L 74.289157 248.289733 
z
" style="fill:#7dff7a;"/>
   </g>
   <g id="PathCollection_9">
    <path clip-path="url(#pf88a50d787)" d="M 74.289157 248.289733 
L 78.40496 247.45598 
L 78.720848 246.865311 
L 80.396907 242.749508 
L 81.494637 238.633705 
L 82.051543 234.517902 
L 81.533337 230.402098 
L 78.889383 226.286295 
L 78.40496 225.83224 
L 74.289157 225.51078 
L 73.307631 226.286295 
L 70.399685 230.402098 
L 70.173354 233.135036 
L 70.101255 234.517902 
L 70.173354 234.836876 
L 70.881677 238.633705 
L 72.031386 242.749508 
L 73.564786 246.865311 
z
M 74.261854 246.865311 
L 72.64929 242.749508 
L 71.562246 238.633705 
L 70.989013 234.517902 
L 71.709469 230.402098 
L 74.289157 227.136083 
L 78.40496 227.555423 
L 80.348319 230.402098 
L 81.210509 234.517902 
L 80.831312 238.633705 
L 79.778934 242.749508 
L 78.40496 246.03764 
L 74.558369 246.865311 
L 74.289157 246.919 
z
" style="fill:#baff3c;"/>
   </g>
   <g id="PathCollection_10">
    <path clip-path="url(#pf88a50d787)" d="M 74.289157 246.919 
L 74.558369 246.865311 
L 78.40496 246.03764 
L 79.778934 242.749508 
L 80.831312 238.633705 
L 81.210509 234.517902 
L 80.348319 230.402098 
L 78.40496 227.555423 
L 74.289157 227.136083 
L 71.709469 230.402098 
L 70.989013 234.517902 
L 71.562246 238.633705 
L 72.64929 242.749508 
L 74.261854 246.865311 
z
M 73.267195 242.749508 
L 72.242816 238.633705 
L 71.882824 234.517902 
L 73.019252 230.402098 
L 74.289157 228.794335 
L 78.40496 229.291264 
L 79.163301 230.402098 
L 80.369474 234.517902 
L 80.167986 238.633705 
L 79.160961 242.749508 
L 78.40496 244.558736 
L 74.289157 245.352892 
z
" style="fill:#fbf100;"/>
   </g>
   <g id="PathCollection_11">
    <path clip-path="url(#pf88a50d787)" d="M 74.289157 245.352892 
L 78.40496 244.558736 
L 79.160961 242.749508 
L 80.167986 238.633705 
L 80.369474 234.517902 
L 79.163301 230.402098 
L 78.40496 229.291264 
L 74.289157 228.794335 
L 73.019252 230.402098 
L 71.882824 234.517902 
L 72.242816 238.633705 
L 73.267195 242.749508 
z
M 73.885099 242.749508 
L 72.923385 238.633705 
L 72.776635 234.517902 
L 74.289157 230.474843 
L 78.40496 231.275938 
L 79.52844 234.517902 
L 79.504661 238.633705 
L 78.542989 242.749508 
L 78.40496 243.079831 
L 74.289157 243.778819 
z
" style="fill:#ffa700;"/>
   </g>
   <g id="PathCollection_12">
    <path clip-path="url(#pf88a50d787)" d="M 74.289157 243.778819 
L 78.40496 243.079831 
L 78.542989 242.749508 
L 79.504661 238.633705 
L 79.52844 234.517902 
L 78.40496 231.275938 
L 74.289157 230.474843 
L 72.776635 234.517902 
L 72.923385 238.633705 
L 73.885099 242.749508 
z
M 73.603954 238.633705 
L 73.670446 234.517902 
L 74.289157 232.864051 
L 78.40496 233.702865 
L 78.687406 234.517902 
L 78.841336 238.633705 
L 78.40496 240.521203 
L 74.289157 241.696643 
z
" style="fill:#ff6000;"/>
   </g>
   <g id="PathCollection_13">
    <path clip-path="url(#pf88a50d787)" d="M 74.289157 241.696643 
L 78.40496 240.521203 
L 78.841336 238.633705 
L 78.687406 234.517902 
L 78.40496 233.702865 
L 74.289157 232.864051 
L 73.670446 234.517902 
L 73.603954 238.633705 
z
M 74.284524 238.633705 
L 74.289157 238.544632 
L 74.36946 238.633705 
L 74.289157 238.654417 
z
" style="fill:#ff1600;"/>
   </g>
   <g id="PathCollection_14">
    <path clip-path="url(#pf88a50d787)" d="M 74.289157 238.654417 
L 74.36946 238.633705 
L 74.289157 238.544632 
L 74.284524 238.633705 
z
" style="fill:#a80000;"/>
   </g>
   <g id="patch_8">
    <path d="M 10.7 297.683529 
L 10.7 167.236471 
" style="fill:none;stroke:#000000;stroke-linecap:square;stroke-linejoin:miter;stroke-width:0.5;"/>
   </g>
   <g id="patch_9">
    <path d="M 141.994118 297.683529 
L 141.994118 167.236471 
" style="fill:none;stroke:#000000;stroke-linecap:square;stroke-linejoin:miter;stroke-width:0.5;"/>
   </g>
   <g id="patch_10">
    <path d="M 10.7 297.683529 
L 141.994118 297.683529 
" style="fill:none;stroke:#000000;stroke-linecap:square;stroke-linejoin:miter;stroke-width:0.5;"/>
   </g>
   <g id="patch_11">
    <path d="M 10.7 167.236471 
L 141.994118 167.236471 
" style="fill:none;stroke:#000000;stroke-linecap:square;stroke-linejoin:miter;stroke-width:0.5;"/>
   </g>
  </g>
  <g id="axes_3">
   <g id="patch_12">
    <path d="M 168.252941 297.683529 
L 299.547059 297.683529 
L 299.547059 167.236471 
L 168.252941 167.236471 
z
" style="fill:#ffffff;"/>
   </g>
   <g id="line2d_3">
    <path clip-path="url(#pd02b659cc1)" d="M 174.220856 291.753644 
L 178.336659 291.751528 
L 182.452462 291.741571 
L 186.568265 291.700173 
L 190.684068 291.547718 
L 194.799871 291.049909 
L 198.915674 289.610675 
L 203.031477 285.951022 
L 207.14728 277.890482 
L 211.263083 262.919554 
L 215.378886 240.385041 
L 219.494689 214.321617 
L 223.610492 193.046402 
L 227.726295 183.946631 
L 231.842098 188.779261 
L 235.957902 204.044736 
L 240.073705 224.292244 
L 244.189508 244.742841 
L 248.305311 262.276268 
L 252.421114 275.416912 
L 256.536917 283.981387 
L 260.65272 288.697376 
L 264.768523 290.798314 
L 268.884326 291.523419 
L 273.000129 291.711753 
L 277.115932 291.748215 
L 281.231735 291.753494 
L 285.347538 291.754068 
L 289.463341 291.754115 
L 293.579144 291.754118 
" style="fill:none;stroke:#1f77b4;stroke-linecap:square;stroke-width:1.5;"/>
   </g>
   <g id="line2d_4">
    <path clip-path="url(#pd02b659cc1)" d="M 174.220856 173.165882 
" style="fill:none;stroke:#ffffff;stroke-linecap:square;stroke-width:1.5;"/>
   </g>
   <g id="patch_13">
    <path d="M 168.252941 297.683529 
L 168.252941 167.236471 
" style="fill:none;stroke:#000000;stroke-linecap:square;stroke-linejoin:miter;stroke-width:0.5;"/>
   </g>
   <g id="patch_14">
    <path d="M 299.547059 297.683529 
L 299.547059 167.236471 
" style="fill:none;stroke:#000000;stroke-linecap:square;stroke-linejoin:miter;stroke-width:0.5;"/>
   </g>
   <g id="patch_15">
    <path d="M 168.252941 297.683529 
L 299.547059 297.683529 
" style="fill:none;stroke:#000000;stroke-linecap:square;stroke-linejoin:miter;stroke-width:0.5;"/>
   </g>
   <g id="patch_16">
    <path d="M 168.252941 167.236471 
L 299.547059 167.236471 
" style="fill:none;stroke:#000000;stroke-linecap:square;stroke-linejoin:miter;stroke-width:0.5;"/>
   </g>
  </g>
  <g id="axes_4">
   <g id="patch_17">
    <path d="M 10.7 454.22 
L 141.994118 454.22 
L 141.994118 323.772941 
L 10.7 323.772941 
z
" style="fill:#ffffff;"/>
   </g>
   <g id="PathCollection_15">
    <path clip-path="url(#p758fe7663d)" d="M 20.783717 448.675615 
L 24.899521 448.675615 
L 29.015324 448.675615 
L 33.131127 448.675615 
L 37.24693 448.675615 
L 41.362733 448.675615 
L 45.478536 448.675615 
L 49.594339 448.675615 
L 53.710142 448.675615 
L 57.825945 448.675615 
L 61.941748 448.675615 
L 66.057551 448.675615 
L 70.173354 448.675615 
L 74.289157 448.675615 
L 78.40496 448.675615 
L 82.520763 448.675615 
L 86.636566 448.675615 
L 90.75237 448.675615 
L 94.868173 448.675615 
L 98.983976 448.675615 
L 103.099779 448.675615 
L 107.215582 448.675615 
L 111.331385 448.675615 
L 115.447188 448.675615 
L 119.562991 448.675615 
L 123.678794 448.675615 
L 127.794597 448.675615 
L 131.9104 448.675615 
L 136.026203 448.675615 
L 136.026203 444.559812 
L 136.026203 440.444009 
L 136.026203 436.328206 
L 136.026203 432.212403 
L 136.026203 428.0966 
L 136.026203 423.980797 
L 136.026203 419.864994 
L 136.026203 415.74919 
L 136.026203 411.633387 
L 136.026203 407.517584 
L 136.026203 403.401781 
L 136.026203 399.285978 
L 136.026203 395.170175 
L 136.026203 391.054372 
L 136.026203 386.938569 
L 136.026203 382.822766 
L 136.026203 378.706963 
L 136.026203 374.59116 
L 136.026203 370.475357 
L 136.026203 366.359554 
L 136.026203 362.243751 
L 136.026203 358.127948 
L 136.026203 354.012145 
L 136.026203 349.896342 
L 136.026203 345.780538 
L 136.026203 341.664735 
L 136.026203 337.548932 
L 136.026203 333.433129 
L 136.026203 329.317326 
L 131.9104 329.317326 
L 127.794597 329.317326 
L 123.678794 329.317326 
L 119.562991 329.317326 
L 115.447188 329.317326 
L 111.331385 329.317326 
L 107.215582 329.317326 
L 103.099779 329.317326 
L 98.983976 329.317326 
L 94.868173 329.317326 
L 90.75237 329.317326 
L 86.636566 329.317326 
L 82.520763 329.317326 
L 78.40496 329.317326 
L 74.289157 329.317326 
L 70.173354 329.317326 
L 66.057551 329.317326 
L 61.941748 329.317326 
L 57.825945 329.317326 
L 53.710142 329.317326 
L 49.594339 329.317326 
L 45.478536 329.317326 
L 41.362733 329.317326 
L 37.24693 329.317326 
L 33.131127 329.317326 
L 29.015324 329.317326 
L 24.899521 329.317326 
L 20.783717 329.317326 
L 16.667914 329.317326 
L 16.667914 333.433129 
L 16.667914 337.548932 
L 16.667914 341.664735 
L 16.667914 345.780538 
L 16.667914 349.896342 
L 16.667914 354.012145 
L 16.667914 358.127948 
L 16.667914 362.243751 
L 16.667914 366.359554 
L 16.667914 370.475357 
L 16.667914 374.59116 
L 16.667914 378.706963 
L 16.667914 382.822766 
L 16.667914 386.938569 
L 16.667914 391.054372 
L 16.667914 395.170175 
L 16.667914 399.285978 
L 16.667914 403.401781 
L 16.667914 407.517584 
L 16.667914 411.633387 
L 16.667914 415.74919 
L 16.667914 419.864994 
L 16.667914 423.980797 
L 16.667914 428.0966 
L 16.667914 432.212403 
L 16.667914 436.328206 
L 16.667914 440.444009 
L 16.667914 444.559812 
L 16.667914 448.675615 
z
M 54.427869 415.74919 
L 53.710142 415.455707 
L 51.064408 411.633387 
L 51.032947 407.517584 
L 52.265151 403.401781 
L 53.710142 401.147007 
L 54.334002 399.285978 
L 56.853975 395.170175 
L 57.825945 394.036628 
L 59.654826 391.054372 
L 61.941748 388.558614 
L 63.245183 386.938569 
L 66.057551 384.041792 
L 67.310409 382.822766 
L 70.173354 380.027106 
L 71.871096 378.706963 
L 74.289157 376.473454 
L 77.286346 374.59116 
L 78.40496 373.620249 
L 82.520763 371.091934 
L 84.221174 370.475357 
L 86.636566 368.963468 
L 90.75237 367.908987 
L 94.868173 369.143447 
L 95.820544 370.475357 
L 96.306468 374.59116 
L 95.064471 378.706963 
L 94.868173 379.036278 
L 93.756856 382.822766 
L 91.458174 386.938569 
L 90.75237 387.845137 
L 89.283638 391.054372 
L 86.636566 394.305451 
L 86.13707 395.170175 
L 82.664149 399.285978 
L 82.520763 399.441494 
L 79.287605 403.401781 
L 78.40496 404.309463 
L 74.966845 407.517584 
L 74.289157 408.171455 
L 70.173354 411.385493 
L 69.692018 411.633387 
L 66.057551 414.424048 
L 61.941748 415.746514 
L 61.917974 415.74919 
L 57.825945 416.826046 
z
" style="fill:#ffffff;"/>
   </g>
   <g id="PathCollection_16">
    <path clip-path="url(#p758fe7663d)" d="M 57.825945 416.826046 
L 61.917974 415.74919 
L 61.941748 415.746514 
L 66.057551 414.424048 
L 69.692018 411.633387 
L 70.173354 411.385493 
L 74.289157 408.171455 
L 74.966845 407.517584 
L 78.40496 404.309463 
L 79.287605 403.401781 
L 82.520763 399.441494 
L 82.664149 399.285978 
L 86.13707 395.170175 
L 86.636566 394.305451 
L 89.283638 391.054372 
L 90.75237 387.845137 
L 91.458174 386.938569 
L 93.756856 382.822766 
L 94.868173 379.036278 
L 95.064471 378.706963 
L 96.306468 374.59116 
L 95.820544 370.475357 
L 94.868173 369.143447 
L 90.75237 367.908987 
L 86.636566 368.963468 
L 84.221174 370.475357 
L 82.520763 371.091934 
L 78.40496 373.620249 
L 77.286346 374.59116 
L 74.289157 376.473454 
L 71.871096 378.706963 
L 70.173354 380.027106 
L 67.310409 382.822766 
L 66.057551 384.041792 
L 63.245183 386.938569 
L 61.941748 388.558614 
L 59.654826 391.054372 
L 57.825945 394.036628 
L 56.853975 395.170175 
L 54.334002 399.285978 
L 53.710142 401.147007 
L 52.265151 403.401781 
L 51.032947 407.517584 
L 51.064408 411.633387 
L 53.710142 415.455707 
L 54.427869 415.74919 
z
M 54.990308 411.633387 
L 54.004204 407.517584 
L 54.662651 403.401781 
L 56.353889 399.285978 
L 57.825945 397.273557 
L 58.846299 395.170175 
L 61.941748 391.406361 
L 62.183744 391.054372 
L 65.806764 386.938569 
L 66.057551 386.680255 
L 70.022096 382.822766 
L 70.173354 382.675063 
L 74.289157 379.079574 
L 74.900793 378.706963 
L 78.40496 375.90248 
L 81.186389 374.59116 
L 82.520763 373.641281 
L 86.636566 372.081087 
L 90.75237 372.345723 
L 92.561187 374.59116 
L 92.703985 378.706963 
L 91.319858 382.822766 
L 90.75237 383.723223 
L 89.549349 386.938569 
L 86.821213 391.054372 
L 86.636566 391.281151 
L 84.390125 395.170175 
L 82.520763 397.329241 
L 81.075646 399.285978 
L 78.40496 402.142588 
L 77.184653 403.401781 
L 74.289157 406.229682 
L 72.578639 407.517584 
L 70.173354 409.627734 
L 66.278969 411.633387 
L 66.057551 411.803399 
L 61.941748 413.757794 
L 57.825945 413.737539 
z
" style="fill:#0000a8;"/>
   </g>
   <g id="PathCollection_17">
    <path clip-path="url(#p758fe7663d)" d="M 57.825945 413.737539 
L 61.941748 413.757794 
L 66.057551 411.803399 
L 66.278969 411.633387 
L 70.173354 409.627734 
L 72.578639 407.517584 
L 74.289157 406.229682 
L 77.184653 403.401781 
L 78.40496 402.142588 
L 81.075646 399.285978 
L 82.520763 397.329241 
L 84.390125 395.170175 
L 86.636566 391.281151 
L 86.821213 391.054372 
L 89.549349 386.938569 
L 90.75237 383.723223 
L 91.319858 382.822766 
L 92.703985 378.706963 
L 92.561187 374.59116 
L 90.75237 372.345723 
L 86.636566 372.081087 
L 82.520763 373.641281 
L 81.186389 374.59116 
L 78.40496 375.90248 
L 74.900793 378.706963 
L 74.289157 379.079574 
L 70.173354 382.675063 
L 70.022096 382.822766 
L 66.057551 386.680255 
L 65.806764 386.938569 
L 62.183744 391.054372 
L 61.941748 391.406361 
L 58.846299 395.170175 
L 57.825945 397.273557 
L 56.353889 399.285978 
L 54.662651 403.401781 
L 54.004204 407.517584 
L 54.990308 411.633387 
z
M 60.880143 411.633387 
L 57.825945 411.029893 
L 55.788063 407.517584 
L 56.184729 403.401781 
L 57.825945 400.113167 
L 58.081886 399.285978 
L 60.185837 395.170175 
L 61.941748 393.03513 
L 63.303541 391.054372 
L 66.057551 388.043097 
L 67.101619 386.938569 
L 70.173354 383.902793 
L 71.533729 382.822766 
L 74.289157 380.364786 
L 77.010447 378.706963 
L 78.40496 377.590895 
L 82.520763 375.5319 
L 86.471833 374.59116 
L 86.636566 374.527174 
L 86.853994 374.59116 
L 90.460925 378.706963 
L 89.7064 382.822766 
L 88.102557 386.938569 
L 86.636566 389.090172 
L 85.69427 391.054372 
L 82.643181 395.170175 
L 82.520763 395.311564 
L 79.585523 399.285978 
L 78.40496 400.548727 
L 75.640013 403.401781 
L 74.289157 404.721101 
L 70.57503 407.517584 
L 70.173354 407.869974 
L 66.057551 410.550013 
L 62.221624 411.633387 
L 61.941748 411.769074 
z
" style="fill:#0000fa;"/>
   </g>
   <g id="PathCollection_18">
    <path clip-path="url(#p758fe7663d)" d="M 61.941748 411.769074 
L 62.221624 411.633387 
L 66.057551 410.550013 
L 70.173354 407.869974 
L 70.57503 407.517584 
L 74.289157 404.721101 
L 75.640013 403.401781 
L 78.40496 400.548727 
L 79.585523 399.285978 
L 82.520763 395.311564 
L 82.643181 395.170175 
L 85.69427 391.054372 
L 86.636566 389.090172 
L 88.102557 386.938569 
L 89.7064 382.822766 
L 90.460925 378.706963 
L 86.853994 374.59116 
L 86.636566 374.527174 
L 86.471833 374.59116 
L 82.520763 375.5319 
L 78.40496 377.590895 
L 77.010447 378.706963 
L 74.289157 380.364786 
L 71.533729 382.822766 
L 70.173354 383.902793 
L 67.101619 386.938569 
L 66.057551 388.043097 
L 63.303541 391.054372 
L 61.941748 393.03513 
L 60.185837 395.170175 
L 58.081886 399.285978 
L 57.825945 400.113167 
L 56.184729 403.401781 
L 55.788063 407.517584 
L 57.825945 411.029893 
L 60.880143 411.633387 
z
M 57.571923 407.517584 
L 57.706807 403.401781 
L 57.825945 403.163056 
L 59.025553 399.285978 
L 61.525375 395.170175 
L 61.941748 394.663899 
L 64.423337 391.054372 
L 66.057551 389.267499 
L 68.258998 386.938569 
L 70.173354 385.046623 
L 72.974469 382.822766 
L 74.289157 381.649998 
L 78.40496 379.064087 
L 79.36286 378.706963 
L 82.520763 377.031319 
L 86.636566 376.90528 
L 88.285763 378.706963 
L 88.342926 382.822766 
L 86.655764 386.938569 
L 86.636566 386.966745 
L 84.675588 391.054372 
L 82.520763 393.913328 
L 81.733976 395.170175 
L 78.40496 399.07957 
L 78.230351 399.285978 
L 74.289157 403.294532 
L 74.158931 403.401781 
L 70.173354 406.808247 
L 68.811878 407.517584 
L 66.057551 409.39148 
L 61.941748 410.369449 
L 57.825945 407.955394 
z
" style="fill:#0034ff;"/>
   </g>
   <g id="PathCollection_19">
    <path clip-path="url(#p758fe7663d)" d="M 57.825945 407.955394 
L 61.941748 410.369449 
L 66.057551 409.39148 
L 68.811878 407.517584 
L 70.173354 406.808247 
L 74.158931 403.401781 
L 74.289157 403.294532 
L 78.230351 399.285978 
L 78.40496 399.07957 
L 81.733976 395.170175 
L 82.520763 393.913328 
L 84.675588 391.054372 
L 86.636566 386.966745 
L 86.655764 386.938569 
L 88.342926 382.822766 
L 88.285763 378.706963 
L 86.636566 376.90528 
L 82.520763 377.031319 
L 79.36286 378.706963 
L 78.40496 379.064087 
L 74.289157 381.649998 
L 72.974469 382.822766 
L 70.173354 385.046623 
L 68.258998 386.938569 
L 66.057551 389.267499 
L 64.423337 391.054372 
L 61.941748 394.663899 
L 61.525375 395.170175 
L 59.025553 399.285978 
L 57.825945 403.163056 
L 57.706807 403.401781 
L 57.571923 407.517584 
z
M 59.626831 407.517584 
L 58.793546 403.401781 
L 59.96922 399.285978 
L 61.941748 396.190693 
L 62.467999 395.170175 
L 65.543133 391.054372 
L 66.057551 390.4919 
L 69.416376 386.938569 
L 70.173354 386.190453 
L 74.289157 382.897562 
L 74.424773 382.822766 
L 78.40496 380.117596 
L 82.18865 378.706963 
L 82.520763 378.530737 
L 83.866938 378.706963 
L 86.636566 380.724506 
L 86.979453 382.822766 
L 86.636566 383.658683 
L 85.680977 386.938569 
L 83.656905 391.054372 
L 82.520763 392.561771 
L 80.8879 395.170175 
L 78.40496 398.085989 
L 77.389841 399.285978 
L 74.289157 402.439657 
L 73.120904 403.401781 
L 70.173354 405.921047 
L 67.10902 407.517584 
L 66.057551 408.232947 
L 61.941748 409.01296 
z
" style="fill:#0080ff;"/>
   </g>
   <g id="PathCollection_20">
    <path clip-path="url(#p758fe7663d)" d="M 61.941748 409.01296 
L 66.057551 408.232947 
L 67.10902 407.517584 
L 70.173354 405.921047 
L 73.120904 403.401781 
L 74.289157 402.439657 
L 77.389841 399.285978 
L 78.40496 398.085989 
L 80.8879 395.170175 
L 82.520763 392.561771 
L 83.656905 391.054372 
L 85.680977 386.938569 
L 86.636566 383.658683 
L 86.979453 382.822766 
L 86.636566 380.724506 
L 83.866938 378.706963 
L 82.520763 378.530737 
L 82.18865 378.706963 
L 78.40496 380.117596 
L 74.424773 382.822766 
L 74.289157 382.897562 
L 70.173354 386.190453 
L 69.416376 386.938569 
L 66.057551 390.4919 
L 65.543133 391.054372 
L 62.467999 395.170175 
L 61.941748 396.190693 
L 59.96922 399.285978 
L 58.793546 403.401781 
L 59.626831 407.517584 
z
M 61.726744 407.517584 
L 59.843316 403.401781 
L 60.912888 399.285978 
L 61.941748 397.671493 
L 63.231604 395.170175 
L 66.057551 391.578976 
L 66.484732 391.054372 
L 70.173354 387.222547 
L 70.522962 386.938569 
L 74.289157 383.752468 
L 75.974829 382.822766 
L 78.40496 381.171105 
L 82.520763 380.087541 
L 85.402725 382.822766 
L 84.712538 386.938569 
L 82.638223 391.054372 
L 82.520763 391.210213 
L 80.041824 395.170175 
L 78.40496 397.092409 
L 76.549331 399.285978 
L 74.289157 401.584781 
L 72.082877 403.401781 
L 70.173354 405.033847 
L 66.057551 407.15874 
L 62.810777 407.517584 
L 61.941748 407.656471 
z
" style="fill:#00c8ff;"/>
   </g>
   <g id="PathCollection_21">
    <path clip-path="url(#p758fe7663d)" d="M 61.941748 407.656471 
L 62.810777 407.517584 
L 66.057551 407.15874 
L 70.173354 405.033847 
L 72.082877 403.401781 
L 74.289157 401.584781 
L 76.549331 399.285978 
L 78.40496 397.092409 
L 80.041824 395.170175 
L 82.520763 391.210213 
L 82.638223 391.054372 
L 84.712538 386.938569 
L 85.402725 382.822766 
L 82.520763 380.087541 
L 78.40496 381.171105 
L 75.974829 382.822766 
L 74.289157 383.752468 
L 70.522962 386.938569 
L 70.173354 387.222547 
L 66.484732 391.054372 
L 66.057551 391.578976 
L 63.231604 395.170175 
L 61.941748 397.671493 
L 60.912888 399.285978 
L 59.843316 403.401781 
L 61.726744 407.517584 
z
M 60.893087 403.401781 
L 61.856555 399.285978 
L 61.941748 399.152293 
L 63.995209 395.170175 
L 66.057551 392.549361 
L 67.274909 391.054372 
L 70.173354 388.043401 
L 71.53352 386.938569 
L 74.289157 384.607373 
L 77.524884 382.822766 
L 78.40496 382.224614 
L 82.520763 381.651987 
L 83.754351 382.822766 
L 83.744098 386.938569 
L 82.520763 389.359118 
L 81.808632 391.054372 
L 79.195748 395.170175 
L 78.40496 396.098829 
L 75.708821 399.285978 
L 74.289157 400.729906 
L 71.04485 403.401781 
L 70.173354 404.146647 
L 66.057551 406.22065 
L 61.941748 405.569634 
z
" style="fill:#23ffd4;"/>
   </g>
   <g id="PathCollection_22">
    <path clip-path="url(#p758fe7663d)" d="M 61.941748 405.569634 
L 66.057551 406.22065 
L 70.173354 404.146647 
L 71.04485 403.401781 
L 74.289157 400.729906 
L 75.708821 399.285978 
L 78.40496 396.098829 
L 79.195748 395.170175 
L 81.808632 391.054372 
L 82.520763 389.359118 
L 83.744098 386.938569 
L 83.754351 382.822766 
L 82.520763 381.651987 
L 78.40496 382.224614 
L 77.524884 382.822766 
L 74.289157 384.607373 
L 71.53352 386.938569 
L 70.173354 388.043401 
L 67.274909 391.054372 
L 66.057551 392.549361 
L 63.995209 395.170175 
L 61.941748 399.152293 
L 61.856555 399.285978 
L 60.893087 403.401781 
z
M 61.943915 403.401781 
L 62.718928 399.285978 
L 64.758813 395.170175 
L 66.057551 393.519746 
L 68.065085 391.054372 
L 70.173354 388.864254 
L 72.544078 386.938569 
L 74.289157 385.462278 
L 78.40496 383.342369 
L 82.520763 384.834428 
L 82.775658 386.938569 
L 82.520763 387.442917 
L 81.003685 391.054372 
L 78.40496 395.088521 
L 78.352591 395.170175 
L 74.868311 399.285978 
L 74.289157 399.87503 
L 70.173354 403.266757 
L 69.868413 403.401781 
L 66.057551 405.282561 
z
" style="fill:#5dff9a;"/>
   </g>
   <g id="PathCollection_23">
    <path clip-path="url(#p758fe7663d)" d="M 66.057551 405.282561 
L 69.868413 403.401781 
L 70.173354 403.266757 
L 74.289157 399.87503 
L 74.868311 399.285978 
L 78.352591 395.170175 
L 78.40496 395.088521 
L 81.003685 391.054372 
L 82.520763 387.442917 
L 82.775658 386.938569 
L 82.520763 384.834428 
L 78.40496 383.342369 
L 74.289157 385.462278 
L 72.544078 386.938569 
L 70.173354 388.864254 
L 68.065085 391.054372 
L 66.057551 393.519746 
L 64.758813 395.170175 
L 62.718928 399.285978 
L 61.943915 403.401781 
z
M 63.9957 403.401781 
L 63.573233 399.285978 
L 65.522418 395.170175 
L 66.057551 394.490131 
L 68.855261 391.054372 
L 70.173354 389.685107 
L 73.554636 386.938569 
L 74.289157 386.317183 
L 78.40496 384.544516 
L 81.409251 386.938569 
L 80.198739 391.054372 
L 78.40496 393.838957 
L 77.551174 395.170175 
L 74.289157 398.993869 
L 73.972432 399.285978 
L 70.173354 402.425121 
L 67.967645 403.401781 
L 66.057551 404.344472 
z
" style="fill:#9aff5d;"/>
   </g>
   <g id="PathCollection_24">
    <path clip-path="url(#p758fe7663d)" d="M 66.057551 404.344472 
L 67.967645 403.401781 
L 70.173354 402.425121 
L 73.972432 399.285978 
L 74.289157 398.993869 
L 77.551174 395.170175 
L 78.40496 393.838957 
L 80.198739 391.054372 
L 81.409251 386.938569 
L 78.40496 384.544516 
L 74.289157 386.317183 
L 73.554636 386.938569 
L 70.173354 389.685107 
L 68.855261 391.054372 
L 66.057551 394.490131 
L 65.522418 395.170175 
L 63.573233 399.285978 
L 63.9957 403.401781 
z
M 66.047486 403.401781 
L 64.427538 399.285978 
L 66.057551 395.728102 
L 66.343591 395.170175 
L 69.645438 391.054372 
L 70.173354 390.50596 
L 74.289157 387.237639 
L 75.178143 386.938569 
L 78.40496 385.746662 
L 79.900681 386.938569 
L 79.393793 391.054372 
L 78.40496 392.589393 
L 76.749758 395.170175 
L 74.289157 398.054459 
L 72.95386 399.285978 
L 70.173354 401.583485 
L 66.066876 403.401781 
L 66.057551 403.406383 
z
" style="fill:#d4ff23;"/>
   </g>
   <g id="PathCollection_25">
    <path clip-path="url(#p758fe7663d)" d="M 66.057551 403.406383 
L 66.066876 403.401781 
L 70.173354 401.583485 
L 72.95386 399.285978 
L 74.289157 398.054459 
L 76.749758 395.170175 
L 78.40496 392.589393 
L 79.393793 391.054372 
L 79.900681 386.938569 
L 78.40496 385.746662 
L 75.178143 386.938569 
L 74.289157 387.237639 
L 70.173354 390.50596 
L 69.645438 391.054372 
L 66.343591 395.170175 
L 66.057551 395.728102 
L 64.427538 399.285978 
L 66.047486 403.401781 
z
M 65.281844 399.285978 
L 66.057551 397.592819 
L 67.299602 395.170175 
L 70.173354 391.463625 
L 70.658129 391.054372 
L 74.289157 388.332521 
L 78.40496 387.086513 
L 78.588847 391.054372 
L 78.40496 391.33983 
L 75.948341 395.170175 
L 74.289157 397.115049 
L 71.935289 399.285978 
L 70.173354 400.741848 
L 66.057551 401.249698 
z
" style="fill:#ffdb00;"/>
   </g>
   <g id="PathCollection_26">
    <path clip-path="url(#p758fe7663d)" d="M 66.057551 401.249698 
L 70.173354 400.741848 
L 71.935289 399.285978 
L 74.289157 397.115049 
L 75.948341 395.170175 
L 78.40496 391.33983 
L 78.588847 391.054372 
L 78.40496 387.086513 
L 74.289157 388.332521 
L 70.658129 391.054372 
L 70.173354 391.463625 
L 67.299602 395.170175 
L 66.057551 397.592819 
L 65.281844 399.285978 
z
M 66.518317 399.285978 
L 68.255614 395.170175 
L 70.173354 392.696683 
L 72.118734 391.054372 
L 74.289157 389.427403 
L 76.998306 391.054372 
L 75.146925 395.170175 
L 74.289157 396.175639 
L 70.916717 399.285978 
L 70.173354 399.900212 
z
" style="fill:#ff9400;"/>
   </g>
   <g id="PathCollection_27">
    <path clip-path="url(#p758fe7663d)" d="M 70.173354 399.900212 
L 70.916717 399.285978 
L 74.289157 396.175639 
L 75.146925 395.170175 
L 76.998306 391.054372 
L 74.289157 389.427403 
L 72.118734 391.054372 
L 70.173354 392.696683 
L 68.255614 395.170175 
L 66.518317 399.285978 
z
M 69.211625 395.170175 
L 70.173354 393.929741 
L 73.579338 391.054372 
L 74.289157 390.522285 
L 75.175163 391.054372 
L 74.345509 395.170175 
L 74.289157 395.236229 
L 70.173354 398.41458 
z
" style="fill:#ff5200;"/>
   </g>
   <g id="PathCollection_28">
    <path clip-path="url(#p758fe7663d)" d="M 70.173354 398.41458 
L 74.289157 395.236229 
L 74.345509 395.170175 
L 75.175163 391.054372 
L 74.289157 390.522285 
L 73.579338 391.054372 
L 70.173354 393.929741 
L 69.211625 395.170175 
z
M 70.167636 395.170175 
L 70.173354 395.1628 
L 70.199666 395.170175 
L 70.173354 395.189466 
z
" style="fill:#fa0f00;"/>
   </g>
   <g id="PathCollection_29">
    <path clip-path="url(#p758fe7663d)" d="M 70.173354 395.189466 
L 70.199666 395.170175 
L 70.173354 395.1628 
L 70.167636 395.170175 
z
" style="fill:#a80000;"/>
   </g>
   <g id="patch_18">
    <path d="M 10.7 454.22 
L 10.7 323.772941 
" style="fill:none;stroke:#000000;stroke-linecap:square;stroke-linejoin:miter;stroke-width:0.5;"/>
   </g>
   <g id="patch_19">
    <path d="M 141.994118 454.22 
L 141.994118 323.772941 
" style="fill:none;stroke:#000000;stroke-linecap:square;stroke-linejoin:miter;stroke-width:0.5;"/>
   </g>
   <g id="patch_20">
    <path d="M 10.7 454.22 
L 141.994118 454.22 
" style="fill:none;stroke:#000000;stroke-linecap:square;stroke-linejoin:miter;stroke-width:0.5;"/>
   </g>
   <g id="patch_21">
    <path d="M 10.7 323.772941 
L 141.994118 323.772941 
" style="fill:none;stroke:#000000;stroke-linecap:square;stroke-linejoin:miter;stroke-width:0.5;"/>
   </g>
  </g>
  <g id="axes_5">
   <g id="patch_22">
    <path d="M 168.252941 454.22 
L 299.547059 454.22 
L 299.547059 323.772941 
L 168.252941 323.772941 
z
" style="fill:#ffffff;"/>
   </g>
   <g id="PathCollection_30">
    <path clip-path="url(#p7fac439249)" d="M 178.336659 448.675615 
L 182.452462 448.675615 
L 186.568265 448.675615 
L 190.684068 448.675615 
L 194.799871 448.675615 
L 198.915674 448.675615 
L 203.031477 448.675615 
L 207.14728 448.675615 
L 211.263083 448.675615 
L 215.378886 448.675615 
L 219.494689 448.675615 
L 223.610492 448.675615 
L 227.726295 448.675615 
L 231.842098 448.675615 
L 235.957902 448.675615 
L 240.073705 448.675615 
L 244.189508 448.675615 
L 248.305311 448.675615 
L 252.421114 448.675615 
L 256.536917 448.675615 
L 260.65272 448.675615 
L 264.768523 448.675615 
L 268.884326 448.675615 
L 273.000129 448.675615 
L 277.115932 448.675615 
L 281.231735 448.675615 
L 285.347538 448.675615 
L 289.463341 448.675615 
L 293.579144 448.675615 
L 293.579144 444.559812 
L 293.579144 440.444009 
L 293.579144 436.328206 
L 293.579144 432.212403 
L 293.579144 428.0966 
L 293.579144 423.980797 
L 293.579144 419.864994 
L 293.579144 415.74919 
L 293.579144 411.633387 
L 293.579144 407.517584 
L 293.579144 403.401781 
L 293.579144 399.285978 
L 293.579144 395.170175 
L 293.579144 391.054372 
L 293.579144 386.938569 
L 293.579144 382.822766 
L 293.579144 378.706963 
L 293.579144 374.59116 
L 293.579144 370.475357 
L 293.579144 366.359554 
L 293.579144 362.243751 
L 293.579144 358.127948 
L 293.579144 354.012145 
L 293.579144 349.896342 
L 293.579144 345.780538 
L 293.579144 341.664735 
L 293.579144 337.548932 
L 293.579144 333.433129 
L 293.579144 329.317326 
L 289.463341 329.317326 
L 285.347538 329.317326 
L 281.231735 329.317326 
L 277.115932 329.317326 
L 273.000129 329.317326 
L 268.884326 329.317326 
L 264.768523 329.317326 
L 260.65272 329.317326 
L 256.536917 329.317326 
L 252.421114 329.317326 
L 248.305311 329.317326 
L 244.189508 329.317326 
L 240.073705 329.317326 
L 235.957902 329.317326 
L 231.842098 329.317326 
L 227.726295 329.317326 
L 223.610492 329.317326 
L 219.494689 329.317326 
L 215.378886 329.317326 
L 211.263083 329.317326 
L 207.14728 329.317326 
L 203.031477 329.317326 
L 198.915674 329.317326 
L 194.799871 329.317326 
L 190.684068 329.317326 
L 186.568265 329.317326 
L 182.452462 329.317326 
L 178.336659 329.317326 
L 174.220856 329.317326 
L 174.220856 333.433129 
L 174.220856 337.548932 
L 174.220856 341.664735 
L 174.220856 345.780538 
L 174.220856 349.896342 
L 174.220856 354.012145 
L 174.220856 358.127948 
L 174.220856 362.243751 
L 174.220856 366.359554 
L 174.220856 370.475357 
L 174.220856 374.59116 
L 174.220856 378.706963 
L 174.220856 382.822766 
L 174.220856 386.938569 
L 174.220856 391.054372 
L 174.220856 395.170175 
L 174.220856 399.285978 
L 174.220856 403.401781 
L 174.220856 407.517584 
L 174.220856 411.633387 
L 174.220856 415.74919 
L 174.220856 419.864994 
L 174.220856 423.980797 
L 174.220856 428.0966 
L 174.220856 432.212403 
L 174.220856 436.328206 
L 174.220856 440.444009 
L 174.220856 444.559812 
L 174.220856 448.675615 
z
M 236.875697 407.517584 
L 235.957902 407.28474 
L 231.842098 405.40765 
L 229.334444 403.401781 
L 227.726295 402.764477 
L 223.610492 400.732757 
L 221.490256 399.285978 
L 219.494689 398.761038 
L 215.378886 397.660018 
L 211.263083 395.732816 
L 210.245606 395.170175 
L 207.14728 393.467149 
L 204.464797 391.054372 
L 204.621395 386.938569 
L 207.14728 384.692217 
L 211.240746 382.822766 
L 211.263083 382.811507 
L 215.378886 380.975726 
L 219.494689 379.893404 
L 223.610492 379.081754 
L 225.34681 378.706963 
L 227.726295 377.297528 
L 231.842098 375.672862 
L 235.957902 374.7552 
L 238.587752 374.59116 
L 240.073705 374.34916 
L 240.836693 374.59116 
L 244.189508 375.295692 
L 248.305311 378.127929 
L 248.910772 378.706963 
L 252.421114 382.584053 
L 252.630216 382.822766 
L 255.639963 386.938569 
L 256.536917 389.108836 
L 257.676218 391.054372 
L 258.653819 395.170175 
L 257.908049 399.285978 
L 256.536917 401.252651 
L 255.077263 403.401781 
L 252.421114 405.746869 
L 249.441704 407.517584 
L 248.305311 408.214131 
L 244.189508 409.509672 
L 240.073705 409.191419 
z
" style="fill:#ffffff;"/>
   </g>
   <g id="PathCollection_31">
    <path clip-path="url(#p7fac439249)" d="M 240.073705 409.191419 
L 244.189508 409.509672 
L 248.305311 408.214131 
L 249.441704 407.517584 
L 252.421114 405.746869 
L 255.077263 403.401781 
L 256.536917 401.252651 
L 257.908049 399.285978 
L 258.653819 395.170175 
L 257.676218 391.054372 
L 256.536917 389.108836 
L 255.639963 386.938569 
L 252.630216 382.822766 
L 252.421114 382.584053 
L 248.910772 378.706963 
L 248.305311 378.127929 
L 244.189508 375.295692 
L 240.836693 374.59116 
L 240.073705 374.34916 
L 238.587752 374.59116 
L 235.957902 374.7552 
L 231.842098 375.672862 
L 227.726295 377.297528 
L 225.34681 378.706963 
L 223.610492 379.081754 
L 219.494689 379.893404 
L 215.378886 380.975726 
L 211.263083 382.811507 
L 211.240746 382.822766 
L 207.14728 384.692217 
L 204.621395 386.938569 
L 204.464797 391.054372 
L 207.14728 393.467149 
L 210.245606 395.170175 
L 211.263083 395.732816 
L 215.378886 397.660018 
L 219.494689 398.761038 
L 221.490256 399.285978 
L 223.610492 400.732757 
L 227.726295 402.764477 
L 229.334444 403.401781 
L 231.842098 405.40765 
L 235.957902 407.28474 
L 236.875697 407.517584 
z
M 233.039165 403.401781 
L 231.842098 403.012958 
L 227.726295 401.236647 
L 224.815463 399.285978 
L 223.610492 398.872564 
L 219.494689 397.578072 
L 215.378886 395.564028 
L 214.640318 395.170175 
L 211.263083 393.581468 
L 208.065988 391.054372 
L 208.337903 386.938569 
L 211.263083 384.75555 
L 215.378886 383.172305 
L 216.691228 382.822766 
L 219.494689 381.631642 
L 223.610492 380.302525 
L 227.726295 379.289304 
L 230.404579 378.706963 
L 231.842098 377.987362 
L 235.957902 376.927593 
L 240.073705 377.086535 
L 243.657939 378.706963 
L 244.189508 378.935477 
L 248.305311 382.363949 
L 248.739506 382.822766 
L 251.777772 386.938569 
L 252.421114 388.541866 
L 253.726512 391.054372 
L 254.323649 395.170175 
L 253.011633 399.285978 
L 252.421114 400.032947 
L 249.32478 403.401781 
L 248.305311 404.157636 
L 244.189508 406.01995 
L 240.073705 406.230246 
L 235.957902 405.188437 
z
" style="fill:#0000a8;"/>
   </g>
   <g id="PathCollection_32">
    <path clip-path="url(#p7fac439249)" d="M 235.957902 405.188437 
L 240.073705 406.230246 
L 244.189508 406.01995 
L 248.305311 404.157636 
L 249.32478 403.401781 
L 252.421114 400.032947 
L 253.011633 399.285978 
L 254.323649 395.170175 
L 253.726512 391.054372 
L 252.421114 388.541866 
L 251.777772 386.938569 
L 248.739506 382.822766 
L 248.305311 382.363949 
L 244.189508 378.935477 
L 243.657939 378.706963 
L 240.073705 377.086535 
L 235.957902 376.927593 
L 231.842098 377.987362 
L 230.404579 378.706963 
L 227.726295 379.289304 
L 223.610492 380.302525 
L 219.494689 381.631642 
L 216.691228 382.822766 
L 215.378886 383.172305 
L 211.263083 384.75555 
L 208.337903 386.938569 
L 208.065988 391.054372 
L 211.263083 393.581468 
L 214.640318 395.170175 
L 215.378886 395.564028 
L 219.494689 397.578072 
L 223.610492 398.872564 
L 224.815463 399.285978 
L 227.726295 401.236647 
L 231.842098 403.012958 
L 233.039165 403.401781 
z
M 237.187347 403.401781 
L 235.957902 403.232384 
L 231.842098 401.900606 
L 227.726295 399.708817 
L 227.095326 399.285978 
L 223.610492 398.090365 
L 219.494689 396.395107 
L 217.187974 395.170175 
L 215.378886 394.323366 
L 211.263083 391.732507 
L 210.405157 391.054372 
L 210.93416 386.938569 
L 211.263083 386.693098 
L 215.378886 384.261974 
L 219.494689 383.058908 
L 220.433957 382.822766 
L 223.610492 381.523295 
L 227.726295 380.294614 
L 231.842098 379.403947 
L 235.957902 378.927306 
L 240.073705 379.336535 
L 244.189508 381.413998 
L 245.798154 382.822766 
L 248.305311 385.907323 
L 249.09875 386.938569 
L 250.973541 391.054372 
L 251.288281 395.170175 
L 249.645856 399.285978 
L 248.305311 400.698151 
L 244.189508 403.380476 
L 244.076073 403.401781 
L 240.073705 404.130076 
z
" style="fill:#0000fa;"/>
   </g>
   <g id="PathCollection_33">
    <path clip-path="url(#p7fac439249)" d="M 240.073705 404.130076 
L 244.076073 403.401781 
L 244.189508 403.380476 
L 248.305311 400.698151 
L 249.645856 399.285978 
L 251.288281 395.170175 
L 250.973541 391.054372 
L 249.09875 386.938569 
L 248.305311 385.907323 
L 245.798154 382.822766 
L 244.189508 381.413998 
L 240.073705 379.336535 
L 235.957902 378.927306 
L 231.842098 379.403947 
L 227.726295 380.294614 
L 223.610492 381.523295 
L 220.433957 382.822766 
L 219.494689 383.058908 
L 215.378886 384.261974 
L 211.263083 386.693098 
L 210.93416 386.938569 
L 210.405157 391.054372 
L 211.263083 391.732507 
L 215.378886 394.323366 
L 217.187974 395.170175 
L 219.494689 396.395107 
L 223.610492 398.090365 
L 227.095326 399.285978 
L 227.726295 399.708817 
L 231.842098 401.900606 
L 235.957902 403.232384 
L 237.187347 403.401781 
z
M 229.161703 399.285978 
L 227.726295 398.801859 
L 223.610492 397.308166 
L 219.494689 395.212141 
L 219.415661 395.170175 
L 215.378886 393.280615 
L 212.204584 391.054372 
L 212.805965 386.938569 
L 215.378886 385.351644 
L 219.494689 383.809157 
L 223.418111 382.822766 
L 223.610492 382.744066 
L 227.726295 381.299924 
L 231.842098 380.415404 
L 235.957902 380.145226 
L 240.073705 381.0006 
L 243.025877 382.822766 
L 244.189508 383.814547 
L 246.901372 386.938569 
L 248.305311 390.332932 
L 248.652519 391.054372 
L 248.823887 395.170175 
L 248.305311 396.263348 
L 246.676949 399.285978 
L 244.189508 401.21269 
L 240.073705 402.432142 
L 235.957902 402.085569 
L 231.842098 400.788254 
z
" style="fill:#0034ff;"/>
   </g>
   <g id="PathCollection_34">
    <path clip-path="url(#p7fac439249)" d="M 231.842098 400.788254 
L 235.957902 402.085569 
L 240.073705 402.432142 
L 244.189508 401.21269 
L 246.676949 399.285978 
L 248.305311 396.263348 
L 248.823887 395.170175 
L 248.652519 391.054372 
L 248.305311 390.332932 
L 246.901372 386.938569 
L 244.189508 383.814547 
L 243.025877 382.822766 
L 240.073705 381.0006 
L 235.957902 380.145226 
L 231.842098 380.415404 
L 227.726295 381.299924 
L 223.610492 382.744066 
L 223.418111 382.822766 
L 219.494689 383.809157 
L 215.378886 385.351644 
L 212.805965 386.938569 
L 212.204584 391.054372 
L 215.378886 393.280615 
L 219.415661 395.170175 
L 219.494689 395.212141 
L 223.610492 397.308166 
L 227.726295 398.801859 
L 229.161703 399.285978 
z
M 231.146388 399.285978 
L 227.726295 398.132485 
L 223.610492 396.525966 
L 220.966165 395.170175 
L 219.494689 394.453577 
L 215.378886 392.237864 
L 213.691396 391.054372 
L 214.572673 386.938569 
L 215.378886 386.441314 
L 219.494689 384.559406 
L 223.610492 383.417805 
L 226.265383 382.822766 
L 227.726295 382.305235 
L 231.842098 381.42686 
L 235.957902 381.363146 
L 240.073705 382.664665 
L 240.329851 382.822766 
L 244.189508 386.112413 
L 244.906668 386.938569 
L 246.807706 391.054372 
L 246.756201 395.170175 
L 244.189508 398.96352 
L 243.817597 399.285978 
L 240.073705 400.947745 
L 235.957902 400.938753 
L 231.842098 399.675902 
z
" style="fill:#0080ff;"/>
   </g>
   <g id="PathCollection_35">
    <path clip-path="url(#p7fac439249)" d="M 231.842098 399.675902 
L 235.957902 400.938753 
L 240.073705 400.947745 
L 243.817597 399.285978 
L 244.189508 398.96352 
L 246.756201 395.170175 
L 246.807706 391.054372 
L 244.906668 386.938569 
L 244.189508 386.112413 
L 240.329851 382.822766 
L 240.073705 382.664665 
L 235.957902 381.363146 
L 231.842098 381.42686 
L 227.726295 382.305235 
L 226.265383 382.822766 
L 223.610492 383.417805 
L 219.494689 384.559406 
L 215.378886 386.441314 
L 214.572673 386.938569 
L 213.691396 391.054372 
L 215.378886 392.237864 
L 219.494689 394.453577 
L 220.966165 395.170175 
L 223.610492 396.525966 
L 227.726295 398.132485 
L 231.146388 399.285978 
z
M 234.292986 399.285978 
L 231.842098 398.793493 
L 227.726295 397.463111 
L 223.610492 395.743767 
L 222.491762 395.170175 
L 219.494689 393.710623 
L 215.378886 391.195114 
L 215.178209 391.054372 
L 215.378886 390.235793 
L 216.203105 386.938569 
L 219.494689 385.309655 
L 223.610492 384.053848 
L 227.726295 383.141775 
L 230.03417 382.822766 
L 231.842098 382.438317 
L 235.957902 382.581066 
L 236.698123 382.822766 
L 240.073705 384.235864 
L 243.077894 386.938569 
L 244.189508 389.277147 
L 245.046661 391.054372 
L 244.794241 395.170175 
L 244.189508 396.063917 
L 240.473312 399.285978 
L 240.073705 399.463348 
L 235.957902 399.791937 
z
" style="fill:#00c8ff;"/>
   </g>
   <g id="PathCollection_36">
    <path clip-path="url(#p7fac439249)" d="M 235.957902 399.791937 
L 240.073705 399.463348 
L 240.473312 399.285978 
L 244.189508 396.063917 
L 244.794241 395.170175 
L 245.046661 391.054372 
L 244.189508 389.277147 
L 243.077894 386.938569 
L 240.073705 384.235864 
L 236.698123 382.822766 
L 235.957902 382.581066 
L 231.842098 382.438317 
L 230.03417 382.822766 
L 227.726295 383.141775 
L 223.610492 384.053848 
L 219.494689 385.309655 
L 216.203105 386.938569 
L 215.378886 390.235793 
L 215.178209 391.054372 
L 215.378886 391.195114 
L 219.494689 393.710623 
L 222.491762 395.170175 
L 223.610492 395.743767 
L 227.726295 397.463111 
L 231.842098 398.793493 
L 234.292986 399.285978 
z
M 224.018212 395.170175 
L 223.610492 394.984731 
L 219.494689 392.967668 
L 216.413769 391.054372 
L 217.719151 386.938569 
L 219.494689 386.059904 
L 223.610492 384.689892 
L 227.726295 383.799251 
L 231.842098 383.319122 
L 235.957902 383.694546 
L 240.073705 385.797313 
L 241.342267 386.938569 
L 243.4098 391.054372 
L 242.912488 395.170175 
L 240.073705 397.787402 
L 235.957902 398.690131 
L 231.842098 398.035194 
L 227.726295 396.793738 
z
" style="fill:#23ffd4;"/>
   </g>
   <g id="PathCollection_37">
    <path clip-path="url(#p7fac439249)" d="M 227.726295 396.793738 
L 231.842098 398.035194 
L 235.957902 398.690131 
L 240.073705 397.787402 
L 242.912488 395.170175 
L 243.4098 391.054372 
L 241.342267 386.938569 
L 240.073705 385.797313 
L 235.957902 383.694546 
L 231.842098 383.319122 
L 227.726295 383.799251 
L 223.610492 384.689892 
L 219.494689 386.059904 
L 217.719151 386.938569 
L 216.413769 391.054372 
L 219.494689 392.967668 
L 223.610492 394.984731 
L 224.018212 395.170175 
z
M 225.547007 395.170175 
L 223.610492 394.289387 
L 219.494689 392.224713 
L 217.610125 391.054372 
L 219.235196 386.938569 
L 219.494689 386.810153 
L 223.610492 385.325935 
L 227.726295 384.456727 
L 231.842098 384.119818 
L 235.957902 384.782168 
L 239.581835 386.938569 
L 240.073705 387.694491 
L 241.890701 391.054372 
L 241.066473 395.170175 
L 240.073705 396.085462 
L 235.957902 397.62386 
L 231.842098 397.276895 
L 227.726295 396.124364 
z
" style="fill:#5dff9a;"/>
   </g>
   <g id="PathCollection_38">
    <path clip-path="url(#p7fac439249)" d="M 227.726295 396.124364 
L 231.842098 397.276895 
L 235.957902 397.62386 
L 240.073705 396.085462 
L 241.066473 395.170175 
L 241.890701 391.054372 
L 240.073705 387.694491 
L 239.581835 386.938569 
L 235.957902 384.782168 
L 231.842098 384.119818 
L 227.726295 384.456727 
L 223.610492 385.325935 
L 219.494689 386.810153 
L 219.235196 386.938569 
L 217.610125 391.054372 
L 219.494689 392.224713 
L 223.610492 394.289387 
L 225.547007 395.170175 
z
M 227.075802 395.170175 
L 223.610492 393.594042 
L 219.494689 391.481759 
L 218.806482 391.054372 
L 219.494689 389.368134 
L 220.937566 386.938569 
L 223.610492 385.961978 
L 227.726295 385.114203 
L 231.842098 384.920515 
L 235.957902 385.86979 
L 237.754035 386.938569 
L 240.073705 390.503519 
L 240.371601 391.054372 
L 240.073705 392.280408 
L 238.994895 395.170175 
L 235.957902 396.557589 
L 231.842098 396.518596 
L 227.726295 395.45499 
z
" style="fill:#9aff5d;"/>
   </g>
   <g id="PathCollection_39">
    <path clip-path="url(#p7fac439249)" d="M 227.726295 395.45499 
L 231.842098 396.518596 
L 235.957902 396.557589 
L 238.994895 395.170175 
L 240.073705 392.280408 
L 240.371601 391.054372 
L 240.073705 390.503519 
L 237.754035 386.938569 
L 235.957902 385.86979 
L 231.842098 384.920515 
L 227.726295 385.114203 
L 223.610492 385.961978 
L 220.937566 386.938569 
L 219.494689 389.368134 
L 218.806482 391.054372 
L 219.494689 391.481759 
L 223.610492 393.594042 
L 227.075802 395.170175 
z
M 229.474289 395.170175 
L 227.726295 394.674585 
L 223.610492 392.898697 
L 220.062807 391.054372 
L 222.678415 386.938569 
L 223.610492 386.598022 
L 227.726295 385.771679 
L 231.842098 385.721211 
L 235.911528 386.938569 
L 235.957902 386.976685 
L 238.828627 391.054372 
L 236.660871 395.170175 
L 235.957902 395.491318 
L 231.842098 395.760297 
z
" style="fill:#d4ff23;"/>
   </g>
   <g id="PathCollection_40">
    <path clip-path="url(#p7fac439249)" d="M 231.842098 395.760297 
L 235.957902 395.491318 
L 236.660871 395.170175 
L 238.828627 391.054372 
L 235.957902 386.976685 
L 235.911528 386.938569 
L 231.842098 385.721211 
L 227.726295 385.771679 
L 223.610492 386.598022 
L 222.678415 386.938569 
L 220.062807 391.054372 
L 223.610492 392.898697 
L 227.726295 394.674585 
L 229.474289 395.170175 
z
M 221.40035 391.054372 
L 223.610492 387.84181 
L 225.153303 386.938569 
L 227.726295 386.429156 
L 231.842098 386.521908 
L 233.23493 386.938569 
L 235.957902 389.176658 
L 237.279828 391.054372 
L 235.957902 393.317357 
L 231.842098 394.866292 
L 227.726295 393.811948 
L 223.610492 392.203352 
z
" style="fill:#ffdb00;"/>
   </g>
   <g id="PathCollection_41">
    <path clip-path="url(#p7fac439249)" d="M 223.610492 392.203352 
L 227.726295 393.811948 
L 231.842098 394.866292 
L 235.957902 393.317357 
L 237.279828 391.054372 
L 235.957902 389.176658 
L 233.23493 386.938569 
L 231.842098 386.521908 
L 227.726295 386.429156 
L 225.153303 386.938569 
L 223.610492 387.84181 
L 221.40035 391.054372 
z
M 222.737893 391.054372 
L 223.610492 389.786002 
L 227.726295 387.321277 
L 231.842098 387.811397 
L 235.645282 391.054372 
L 231.842098 393.496104 
L 227.726295 392.949311 
L 223.610492 391.508008 
z
" style="fill:#ff9400;"/>
   </g>
   <g id="PathCollection_42">
    <path clip-path="url(#p7fac439249)" d="M 223.610492 391.508008 
L 227.726295 392.949311 
L 231.842098 393.496104 
L 235.645282 391.054372 
L 231.842098 387.811397 
L 227.726295 387.321277 
L 223.610492 389.786002 
L 222.737893 391.054372 
z
M 224.536935 391.054372 
L 227.726295 389.020703 
L 231.842098 389.631205 
L 233.51111 391.054372 
L 231.842098 392.125917 
L 227.726295 392.086673 
z
" style="fill:#ff5200;"/>
   </g>
   <g id="PathCollection_43">
    <path clip-path="url(#p7fac439249)" d="M 227.726295 392.086673 
L 231.842098 392.125917 
L 233.51111 391.054372 
L 231.842098 389.631205 
L 227.726295 389.020703 
L 224.536935 391.054372 
z
M 227.202108 391.054372 
L 227.726295 390.720128 
L 229.678594 391.054372 
L 227.726295 391.224036 
z
" style="fill:#fa0f00;"/>
   </g>
   <g id="PathCollection_44">
    <path clip-path="url(#p7fac439249)" d="M 227.726295 391.224036 
L 229.678594 391.054372 
L 227.726295 390.720128 
L 227.202108 391.054372 
z
" style="fill:#a80000;"/>
   </g>
   <g id="patch_23">
    <path d="M 168.252941 454.22 
L 168.252941 323.772941 
" style="fill:none;stroke:#000000;stroke-linecap:square;stroke-linejoin:miter;stroke-width:0.5;"/>
   </g>
   <g id="patch_24">
    <path d="M 299.547059 454.22 
L 299.547059 323.772941 
" style="fill:none;stroke:#000000;stroke-linecap:square;stroke-linejoin:miter;stroke-width:0.5;"/>
   </g>
   <g id="patch_25">
    <path d="M 168.252941 454.22 
L 299.547059 454.22 
" style="fill:none;stroke:#000000;stroke-linecap:square;stroke-linejoin:miter;stroke-width:0.5;"/>
   </g>
   <g id="patch_26">
    <path d="M 168.252941 323.772941 
L 299.547059 323.772941 
" style="fill:none;stroke:#000000;stroke-linecap:square;stroke-linejoin:miter;stroke-width:0.5;"/>
   </g>
  </g>
  <g id="axes_6">
   <g id="patch_27">
    <path d="M 325.805882 454.22 
L 457.1 454.22 
L 457.1 323.772941 
L 325.805882 323.772941 
z
" style="fill:#ffffff;"/>
   </g>
   <g id="line2d_5">
    <path clip-path="url(#pf7a79f2c23)" d="M 331.773797 448.290588 
L 335.8896 448.290588 
L 340.005403 448.290588 
L 344.121206 448.290588 
L 348.237009 448.290588 
L 352.352812 448.290576 
L 356.468615 448.29023 
L 360.584418 448.283621 
L 364.700221 448.199218 
L 368.816024 447.482925 
L 372.931827 443.488658 
L 377.04763 429.194132 
L 381.163434 397.750752 
L 385.279237 358.856209 
L 389.39504 340.483102 
L 393.510843 357.77466 
L 397.626646 394.832911 
L 401.742449 426.283414 
L 405.858252 442.104231 
L 409.974055 447.124591 
L 414.089858 448.144315 
L 418.205661 448.278354 
L 422.321464 448.289903 
L 426.437267 448.290562 
L 430.55307 448.290588 
L 434.668873 448.290588 
L 438.784676 448.290588 
L 442.900479 448.290588 
L 447.016283 448.290588 
L 451.132086 448.290588 
" style="fill:none;stroke:#1f77b4;stroke-linecap:square;stroke-width:1.5;"/>
   </g>
   <g id="line2d_6">
    <path clip-path="url(#pf7a79f2c23)" d="M 331.773797 329.702353 
" style="fill:none;stroke:#ffffff;stroke-linecap:square;stroke-width:1.5;"/>
   </g>
   <g id="patch_28">
    <path d="M 325.805882 454.22 
L 325.805882 323.772941 
" style="fill:none;stroke:#000000;stroke-linecap:square;stroke-linejoin:miter;stroke-width:0.5;"/>
   </g>
   <g id="patch_29">
    <path d="M 457.1 454.22 
L 457.1 323.772941 
" style="fill:none;stroke:#000000;stroke-linecap:square;stroke-linejoin:miter;stroke-width:0.5;"/>
   </g>
   <g id="patch_30">
    <path d="M 325.805882 454.22 
L 457.1 454.22 
" style="fill:none;stroke:#000000;stroke-linecap:square;stroke-linejoin:miter;stroke-width:0.5;"/>
   </g>
   <g id="patch_31">
    <path d="M 325.805882 323.772941 
L 457.1 323.772941 
" style="fill:none;stroke:#000000;stroke-linecap:square;stroke-linejoin:miter;stroke-width:0.5;"/>
   </g>
  </g>
 </g>
 <defs>
  <clipPath id="p01b970dee6">
   <rect height="130.447059" width="131.294118" x="10.7" y="10.7"/>
  </clipPath>
  <clipPath id="pf88a50d787">
   <rect height="130.447059" width="131.294118" x="10.7" y="167.236471"/>
  </clipPath>
  <clipPath id="pd02b659cc1">
   <rect height="130.447059" width="131.294118" x="168.252941" y="167.236471"/>
  </clipPath>
  <clipPath id="p758fe7663d">
   <rect height="130.447059" width="131.294118" x="10.7" y="323.772941"/>
  </clipPath>
  <clipPath id="p7fac439249">
   <rect height="130.447059" width="131.294118" x="168.252941" y="323.772941"/>
  </clipPath>
  <clipPath id="pf7a79f2c23">
   <rect height="130.447059" width="131.294118" x="325.805882" y="323.772941"/>
  </clipPath>
 </defs>
</svg>
