<?xml version="1.0" encoding="iso-8859-1"?>
<!-- Generator: Adobe Illustrator 19.0.0, SVG Export Plug-In . SVG Version: 6.00 Build 0)  -->
<svg version="1.1" id="Layer_1" xmlns="http://www.w3.org/2000/svg" xmlns:xlink="http://www.w3.org/1999/xlink" x="0px" y="0px"
	 viewBox="0 0 512 512" style="enable-background:new 0 0 512 512;" xml:space="preserve">
<circle style="fill:#263A7A;" cx="256" cy="256" r="256"/>
<g>
	<polygon style="fill:#121149;" points="166.662,56.699 334.829,224.866 184.306,224.866 	"/>
	<path style="fill:#121149;" d="M505.811,199.87L365.034,59.092L180.784,419.681l91.772,91.772C406.223,502.917,512,391.821,512,256
		C512,236.715,509.854,217.934,505.811,199.87z"/>
</g>
<path style="fill:#C4C4C4;" d="M310.456,263.689c-24.083-5.399-35.659-45.216-25.855-88.936
	c6.778-30.229,39.722-79.498,59.408-107.027c7.639-10.681,17.442-8.483,19.789,4.436c6.046,33.297,14.796,91.913,8.016,122.142
	C362.012,238.023,334.539,269.088,310.456,263.689z"/>
<path style="fill:#878787;" d="M316.009,271.329c-2.372,0-4.737-0.257-7.089-0.784l0,0c-14.258-3.196-25.214-15.624-30.844-34.992
	c-5.208-17.918-5.325-40.055-0.328-62.336c6.722-29.986,36.636-76.138,60.547-109.577c5.363-7.501,12.352-10.928,19.134-9.4
	c6.794,1.524,11.636,7.599,13.283,16.668c7.344,40.445,14.686,94.949,7.959,124.933
	C368.752,240.064,342.169,271.329,316.009,271.329z M311.994,256.833c19.928,4.46,44.177-24.876,52.967-64.067
	c6.537-29.146-2.253-87.287-8.075-119.349c-0.765-4.218-2.269-5.408-2.534-5.467c-0.233-0.071-2.127,0.367-4.627,3.863
	c-18.956,26.508-51.733,75.33-58.268,104.476c-4.487,20.006-4.448,39.66,0.11,55.341
	C295.703,245.857,302.957,254.809,311.994,256.833L311.994,256.833z"/>
<path style="fill:#E5E5E5;" d="M201.544,263.689c24.083-5.399,35.659-45.216,25.855-88.936
	c-6.778-30.229-39.722-79.498-59.408-107.027c-7.639-10.681-17.442-8.483-19.789,4.436c-6.046,33.297-14.796,91.913-8.016,122.142
	C149.988,238.023,177.461,269.088,201.544,263.689z"/>
<path style="fill:#AFAFAF;" d="M195.993,271.329c-26.165,0-52.746-31.261-62.662-75.488c-6.725-29.984,0.615-84.489,7.959-124.935
	c1.646-9.068,6.489-15.143,13.283-16.667c6.789-1.527,13.767,1.903,19.134,9.399c23.911,33.439,53.826,79.593,60.547,109.577
	c4.996,22.281,4.88,44.42-0.328,62.336c-5.63,19.368-16.584,31.794-30.844,34.992l0,0
	C200.732,271.07,198.361,271.329,195.993,271.329z M157.705,67.944c-0.024,0-0.041,0.002-0.055,0.005
	c-0.264,0.059-1.767,1.248-2.534,5.467c-5.822,32.065-14.612,90.203-8.075,119.349c8.79,39.193,33.04,68.532,52.967,64.067
	c9.035-2.026,16.289-10.976,20.425-25.203c4.56-15.681,4.598-35.333,0.11-55.341c-6.535-29.146-39.312-77.969-58.268-104.477
	C159.913,68.508,158.111,67.944,157.705,67.944z"/>
<path style="fill:#B7B7B7;" d="M152.566,311.106c0,96.089,46.309,128.245,103.434,128.245s103.434-32.156,103.434-128.245
	S313.125,173.783,256,173.783S152.566,215.019,152.566,311.106z"/>
<path style="fill:#878787;" d="M359.434,311.106c0-95.925-46.154-137.176-103.146-137.316v265.556
	C313.28,439.237,359.434,407.033,359.434,311.106z"/>
<ellipse style="fill:#727272;" cx="254.276" cy="388.913" rx="87.616" ry="56.523"/>
<path style="fill:#595959;" d="M341.892,388.911c0-30.782-38.147-55.799-85.604-56.491v112.983
	C303.744,444.711,341.892,419.693,341.892,388.911z"/>
<g>
	<circle style="fill:#3A3A3A;" cx="209.248" cy="388.913" r="11.864"/>
	<circle style="fill:#3A3A3A;" cx="299.305" cy="388.913" r="11.864"/>
	<circle style="fill:#3A3A3A;" cx="210.851" cy="283.307" r="7.961"/>
	<circle style="fill:#3A3A3A;" cx="301.149" cy="283.307" r="7.961"/>
</g>
<g>
</g>
<g>
</g>
<g>
</g>
<g>
</g>
<g>
</g>
<g>
</g>
<g>
</g>
<g>
</g>
<g>
</g>
<g>
</g>
<g>
</g>
<g>
</g>
<g>
</g>
<g>
</g>
<g>
</g>
</svg>
