<?xml version="1.0" encoding="UTF-8" standalone="no"?>
<!-- Created with Inkscape (http://www.inkscape.org/) -->

<svg
   xmlns:ns0="http://www.iki.fi/pav/software/textext/"
   xmlns:dc="http://purl.org/dc/elements/1.1/"
   xmlns:cc="http://creativecommons.org/ns#"
   xmlns:rdf="http://www.w3.org/1999/02/22-rdf-syntax-ns#"
   xmlns:svg="http://www.w3.org/2000/svg"
   xmlns="http://www.w3.org/2000/svg"
   xmlns:sodipodi="http://sodipodi.sourceforge.net/DTD/sodipodi-0.dtd"
   xmlns:inkscape="http://www.inkscape.org/namespaces/inkscape"
   id="svg2"
   version="1.1"
   inkscape:version="0.91 r13725"
   xml:space="preserve"
   width="245.16423"
   height="81.165215"
   viewBox="0 0 245.16423 81.165214"
   sodipodi:docname="dataAssimilation.svg"><sodipodi:namedview
     pagecolor="#ffffff"
     bordercolor="#666666"
     borderopacity="1"
     objecttolerance="10"
     gridtolerance="10"
     guidetolerance="10"
     inkscape:pageopacity="0"
     inkscape:pageshadow="2"
     inkscape:window-width="1920"
     inkscape:window-height="1056"
     id="namedview4"
     showgrid="false"
     inkscape:zoom="2.6970053"
     inkscape:cx="54.340358"
     inkscape:cy="37.641986"
     inkscape:window-x="0"
     inkscape:window-y="24"
     inkscape:window-maximized="1"
     inkscape:current-layer="g10"
     fit-margin-top="0"
     fit-margin-left="0"
     fit-margin-right="0"
     fit-margin-bottom="0" /><metadata
     id="metadata8"><rdf:RDF><cc:Work
         rdf:about=""><dc:format>image/svg+xml</dc:format><dc:type
           rdf:resource="http://purl.org/dc/dcmitype/StillImage" /><dc:title></dc:title></cc:Work></rdf:RDF></metadata><defs
     id="defs6" /><g
     transform="matrix(1.25,0,0,-1.25,-259.91954,822.84421)"
     inkscape:label="dataAssimilationHyper"
     inkscape:groupmode="layer"
     id="g10"><g
       id="g20"
       transform="translate(218.539,647.672)"><path
         inkscape:connector-curvature="0"
         id="path22"
         style="fill:#ccccff;fill-opacity:1;fill-rule:nonzero;stroke:#8080ff;stroke-width:0.79701;stroke-linecap:butt;stroke-linejoin:miter;stroke-miterlimit:10;stroke-dasharray:none;stroke-opacity:1"
         d="M 10.20486,0 C 10.20486,5.63605 5.63605,10.20486 0,10.20486 -5.63605,10.20486 -10.20486,5.63605 -10.20486,0 c 0,-5.63605 4.56881,-10.20486 10.20486,-10.20486 5.63605,0 10.20486,4.56881 10.20486,10.20486 z" /></g><g
       id="g44"
       transform="translate(218.539,647.672)"><path
         inkscape:connector-curvature="0"
         id="path46"
         style="fill:#ccccff;fill-opacity:1;fill-rule:nonzero;stroke:#8080ff;stroke-width:0.79701;stroke-linecap:butt;stroke-linejoin:miter;stroke-miterlimit:10;stroke-dasharray:none;stroke-opacity:1"
         d="m 53.93028,0 c 0,5.63605 -4.56881,10.20486 -10.20486,10.20486 -5.63606,0 -10.20488,-4.56881 -10.20488,-10.20486 0,-5.63605 4.56882,-10.20486 10.20488,-10.20486 5.63605,0 10.20486,4.56881 10.20486,10.20486 z" /></g><g
       transform="translate(218.539,647.672)"
       id="g66"><g
         id="g68"><path
           d="M 33.20348,0 10.52422,0"
           style="fill:none;stroke:#000000;stroke-width:0.59776002;stroke-linecap:butt;stroke-linejoin:miter;stroke-miterlimit:10;stroke-dasharray:none;stroke-opacity:1"
           id="path70"
           inkscape:connector-curvature="0" /></g></g><g
       id="g74"
       transform="translate(218.539,647.672)"><path
         inkscape:connector-curvature="0"
         id="path76"
         style="fill:#ccccff;fill-opacity:1;fill-rule:nonzero;stroke:#8080ff;stroke-width:0.79701;stroke-linecap:butt;stroke-linejoin:miter;stroke-miterlimit:10;stroke-dasharray:none;stroke-opacity:1"
         d="m 97.658,0 c 0,5.63605 -4.56881,10.20486 -10.20487,10.20486 -5.63605,0 -10.20488,-4.56881 -10.20488,-10.20486 0,-5.63605 4.56883,-10.20486 10.20488,-10.20486 5.63606,0 10.20487,4.56881 10.20487,10.20486 z" /></g><g
       transform="translate(218.539,647.672)"
       id="g96"><g
         id="g98"><path
           d="M 76.9335,0 54.25194,0"
           style="fill:none;stroke:#000000;stroke-width:0.59776002;stroke-linecap:butt;stroke-linejoin:miter;stroke-miterlimit:10;stroke-dasharray:none;stroke-opacity:1"
           id="path100"
           inkscape:connector-curvature="0" /></g></g><g
       id="g104"
       transform="translate(218.539,647.672)"><path
         inkscape:connector-curvature="0"
         id="path106"
         style="fill:#ccccff;fill-opacity:1;fill-rule:nonzero;stroke:#8080ff;stroke-width:0.79701;stroke-linecap:butt;stroke-linejoin:miter;stroke-miterlimit:10;stroke-dasharray:none;stroke-opacity:1"
         d="m 141.38802,0 c 0,5.63605 -4.56882,10.20486 -10.20488,10.20486 -5.63605,0 -10.20488,-4.56881 -10.20488,-10.20486 0,-5.63605 4.56883,-10.20486 10.20488,-10.20486 5.63606,0 10.20488,4.56881 10.20488,10.20486 z" /></g><g
       transform="translate(218.539,647.672)"
       id="g126"><g
         id="g128"><path
           d="M 120.6658,0 97.98195,0"
           style="fill:none;stroke:#000000;stroke-width:0.59776002;stroke-linecap:butt;stroke-linejoin:miter;stroke-miterlimit:10;stroke-dasharray:none;stroke-opacity:1"
           id="path130"
           inkscape:connector-curvature="0" /></g></g><g
       id="g134"
       transform="translate(218.539,647.672)"><path
         inkscape:connector-curvature="0"
         id="path136"
         style="fill:#ccccff;fill-opacity:1;fill-rule:nonzero;stroke:#8080ff;stroke-width:0.79701;stroke-linecap:butt;stroke-linejoin:miter;stroke-miterlimit:10;stroke-dasharray:none;stroke-opacity:1"
         d="m 185.12032,0 c 0,5.63605 -4.56882,10.20486 -10.20487,10.20486 -5.63606,0 -10.20488,-4.56881 -10.20488,-10.20486 0,-5.63605 4.56882,-10.20486 10.20488,-10.20486 5.63605,0 10.20487,4.56881 10.20487,10.20486 z" /></g><g
       transform="translate(218.539,647.672)"
       id="g156"><g
         id="g158"><path
           d="M 164.40042,0 141.71425,0"
           style="fill:none;stroke:#000000;stroke-width:0.59776002;stroke-linecap:butt;stroke-linejoin:miter;stroke-miterlimit:10;stroke-dasharray:2.98883, 2.98883;stroke-dashoffset:0;stroke-opacity:1"
           id="path160"
           inkscape:connector-curvature="0" /></g></g><g
       id="g164"
       transform="translate(218.539,647.672)"><path
         inkscape:connector-curvature="0"
         id="path166"
         style="fill:#ffcccc;fill-opacity:1;fill-rule:nonzero;stroke:#ff8080;stroke-width:0.79701;stroke-linecap:butt;stroke-linejoin:miter;stroke-miterlimit:10;stroke-dasharray:none;stroke-opacity:1"
         d="m 10.20486,-43.72543 c 0,5.63606 -4.56881,10.20488 -10.20486,10.20488 -5.63605,0 -10.20486,-4.56882 -10.20486,-10.20488 0,-5.63605 4.56881,-10.20487 10.20486,-10.20487 5.63605,0 10.20486,4.56882 10.20486,10.20487 z" /></g><g
       transform="translate(218.539,647.672)"
       id="g186"><g
         id="g188"><path
           d="m 0,-33.20348 0,22.67926"
           style="fill:none;stroke:#000000;stroke-width:0.59776002;stroke-linecap:butt;stroke-linejoin:miter;stroke-miterlimit:10;stroke-dasharray:none;stroke-opacity:1"
           id="path190"
           inkscape:connector-curvature="0" /></g></g><g
       id="g194"
       transform="translate(218.539,647.672)"><path
         inkscape:connector-curvature="0"
         id="path196"
         style="fill:#ffcccc;fill-opacity:1;fill-rule:nonzero;stroke:#ff8080;stroke-width:0.79701;stroke-linecap:butt;stroke-linejoin:miter;stroke-miterlimit:10;stroke-dasharray:none;stroke-opacity:1"
         d="m 53.93259,-43.72543 c 0,5.63606 -4.56882,10.20488 -10.20489,10.20488 -5.63606,0 -10.20487,-4.56882 -10.20487,-10.20488 0,-5.63605 4.56881,-10.20487 10.20487,-10.20487 5.63607,0 10.20489,4.56882 10.20489,10.20487 z" /></g><g
       transform="translate(218.539,647.672)"
       id="g216"><g
         id="g218"><path
           d="m 43.73015,-33.20348 -0.0015,22.67926"
           style="fill:none;stroke:#000000;stroke-width:0.59776002;stroke-linecap:butt;stroke-linejoin:miter;stroke-miterlimit:10;stroke-dasharray:none;stroke-opacity:1"
           id="path220"
           inkscape:connector-curvature="0" /></g></g><g
       id="g224"
       transform="translate(218.539,647.672)"><path
         inkscape:connector-curvature="0"
         id="path226"
         style="fill:#ffcccc;fill-opacity:1;fill-rule:nonzero;stroke:#ff8080;stroke-width:0.79701;stroke-linecap:butt;stroke-linejoin:miter;stroke-miterlimit:10;stroke-dasharray:none;stroke-opacity:1"
         d="m 97.6626,-43.72543 c 0,5.63606 -4.56882,10.20488 -10.20488,10.20488 -5.63606,0 -10.20488,-4.56882 -10.20488,-10.20488 0,-5.63605 4.56882,-10.20487 10.20488,-10.20487 5.63606,0 10.20488,4.56882 10.20488,10.20487 z" /></g><g
       transform="translate(218.539,647.672)"
       id="g246"><g
         id="g248"><path
           d="m 87.46278,-33.20348 -0.003,22.67926"
           style="fill:none;stroke:#000000;stroke-width:0.59776002;stroke-linecap:butt;stroke-linejoin:miter;stroke-miterlimit:10;stroke-dasharray:none;stroke-opacity:1"
           id="path250"
           inkscape:connector-curvature="0" /></g></g><g
       id="g254"
       transform="translate(218.539,647.672)"><path
         inkscape:connector-curvature="0"
         id="path256"
         style="fill:#ffcccc;fill-opacity:1;fill-rule:nonzero;stroke:#ff8080;stroke-width:0.79701;stroke-linecap:butt;stroke-linejoin:miter;stroke-miterlimit:10;stroke-dasharray:none;stroke-opacity:1"
         d="m 141.3949,-43.72543 c 0,5.63606 -4.56882,10.20488 -10.20487,10.20488 -5.63606,0 -10.20488,-4.56882 -10.20488,-10.20488 0,-5.63605 4.56882,-10.20487 10.20488,-10.20487 5.63605,0 10.20487,4.56882 10.20487,10.20487 z" /></g><g
       transform="translate(218.539,647.672)"
       id="g276"><g
         id="g278"><path
           d="m 131.19772,-33.20348 -0.004,22.67926"
           style="fill:none;stroke:#000000;stroke-width:0.59776002;stroke-linecap:butt;stroke-linejoin:miter;stroke-miterlimit:10;stroke-dasharray:none;stroke-opacity:1"
           id="path280"
           inkscape:connector-curvature="0" /></g></g><g
       id="g284"
       transform="translate(218.539,647.672)"><path
         inkscape:connector-curvature="0"
         id="path286"
         style="fill:#ffcccc;fill-opacity:1;fill-rule:nonzero;stroke:#ff8080;stroke-width:0.79701;stroke-linecap:butt;stroke-linejoin:miter;stroke-miterlimit:10;stroke-dasharray:none;stroke-opacity:1"
         d="m 185.12952,-43.72543 c 0,5.63606 -4.56882,10.20488 -10.20488,10.20488 -5.63605,0 -10.20487,-4.56882 -10.20487,-10.20488 0,-5.63605 4.56882,-10.20487 10.20487,-10.20487 5.63606,0 10.20488,4.56882 10.20488,10.20487 z" /></g><g
       transform="translate(218.539,647.672)"
       id="g306"><g
         id="g308"><path
           d="m 174.93512,-33.20348 -0.006,22.67926"
           style="fill:none;stroke:#000000;stroke-width:0.59776002;stroke-linecap:butt;stroke-linejoin:miter;stroke-miterlimit:10;stroke-dasharray:none;stroke-opacity:1"
           id="path310"
           inkscape:connector-curvature="0" /></g></g><g
       style="font-style:normal;font-variant:normal;font-weight:normal;font-stretch:normal;letter-spacing:normal;word-spacing:normal;text-anchor:start;fill:none;fill-opacity:1;fill-rule:evenodd;stroke:#000000;stroke-linecap:butt;stroke-linejoin:miter;stroke-miterlimit:10.43299961;stroke-dasharray:none;stroke-dashoffset:0;stroke-opacity:1"
       id="g4426"
       transform="matrix(1.3,0,0,1.3,-79.199155,23.170511)"
       xml:space="preserve"
       stroke-miterlimit="10.433"
       font-style="normal"
       font-variant="normal"
       font-weight="normal"
       font-stretch="normal"
       font-size-adjust="none"
       letter-spacing="normal"
       word-spacing="normal"
       ns0:text="${\\bf Z}_0$"
       ns0:preamble="/home/dabi/VC-Projects/Presentations/TransportMaps/2016 - SIAM CSE Atlanta/Presentation/Figures/working/inkscape-preamble.tex"><path
         style="fill:#000000;stroke-width:0"
         inkscape:connector-curvature="0"
         d="m 229.71,483.58 0,0 0.01,0.01 0,0.01 0.01,0.01 0.01,0.01 0,0.01 0.01,0.01 0,0 0.01,0.01 0,0.01 0,0.01 0.01,0 0,0.01 0,0 0,0.01 0.01,0.01 0,0 0,0.01 0,0 0,0.01 0,0.01 0.01,0 0,0.01 0,0 0,0.01 0,0.01 0,0.01 0,0 0,0.01 0,0.01 0,0.01 0,0.01 0,0.01 c 0,0.25 -0.11,0.25 -0.32,0.25 l -5.12,0 -0.12,-2.4 0.47,0 c 0.08,1.32 0.75,1.93 2.14,1.93 l 1.29,0 -3.98,-5.85 c -0.08,-0.12 -0.08,-0.15 -0.08,-0.26 0,-0.26 0.1,-0.26 0.32,-0.26 l 5.29,0 0.18,2.83 -0.47,0 c -0.08,-1.1 -0.22,-2.32 -2.26,-2.32 l -1.4,0 z"
         id="path4428" /><path
         style="fill:#000000;stroke-width:0"
         inkscape:connector-curvature="0"
         d="m 234.04,477.96 -0.01,0.15 0,0.13 0,0.13 -0.01,0.13 -0.01,0.13 -0.02,0.11 -0.02,0.12 -0.02,0.11 -0.02,0.11 -0.03,0.11 -0.04,0.1 -0.04,0.1 -0.04,0.1 -0.05,0.09 -0.05,0.1 -0.03,0.05 -0.03,0.04 c -0.21,0.32 -0.64,0.6 -1.2,0.6 -1.62,0 -1.62,-1.9 -1.62,-2.41 0,-0.5 0,-2.36 1.62,-2.36 l 0,0.2 c -0.32,0 -0.75,0.18 -0.89,0.76 -0.1,0.41 -0.1,0.98 -0.1,1.49 0,0.51 0,1.04 0.11,1.43 0.15,0.55 0.59,0.69 0.88,0.69 0.37,0 0.74,-0.22 0.86,-0.63 0.11,-0.38 0.12,-0.88 0.12,-1.49 0,-0.51 0,-1.03 -0.09,-1.47 -0.14,-0.63 -0.61,-0.78 -0.89,-0.78 l 0,0 0,-0.2 c 1.62,0 1.62,1.86 1.62,2.36 z"
         id="path4430" /></g><g
       style="font-style:normal;font-variant:normal;font-weight:normal;font-stretch:normal;letter-spacing:normal;word-spacing:normal;text-anchor:start;fill:none;fill-opacity:1;fill-rule:evenodd;stroke:#000000;stroke-linecap:butt;stroke-linejoin:miter;stroke-miterlimit:10.43299961;stroke-dasharray:none;stroke-dashoffset:0;stroke-opacity:1"
       ns0:preamble="/home/dabi/VC-Projects/Presentations/TransportMaps/2016 - SIAM CSE Atlanta/Presentation/Figures/working/inkscape-preamble.tex"
       ns0:text="${\\bf y}_n$"
       word-spacing="normal"
       letter-spacing="normal"
       font-size-adjust="none"
       font-stretch="normal"
       font-weight="normal"
       font-variant="normal"
       font-style="normal"
       stroke-miterlimit="10.433"
       xml:space="preserve"
       transform="matrix(1.3,0,0,1.3,96.148194,-18.873922)"
       id="g4719"><path
         id="path4721"
         d="m 228.47,480.98 0.02,0.02 0.01,0.03 0.01,0.01 0,0.01 0.01,0.01 0.01,0.01 0.01,0.01 0.01,0.01 0.01,0.01 0.01,0.01 0.01,0 0.02,0.01 0.01,0.01 0.02,0.01 0.02,0 0.02,0.01 0.02,0 0.03,0.01 0.02,0 0.02,0.01 0.01,0 0.02,0 0.01,0 0.02,0 0.02,0 0.01,0.01 0.02,0 0.02,0 0.02,0 0.02,0 0.02,0 0.03,0 0.02,0 0.02,0.01 0.03,0 0.02,0 0.03,0 0.03,0 0.02,0 0.03,0 0.03,0 0,0.47 c -0.24,-0.02 -0.54,-0.03 -0.79,-0.03 -0.24,0 -0.69,0.02 -0.9,0.03 l 0,-0.47 c 0.02,0 0.47,0 0.47,-0.12 0,-0.01 -0.04,-0.11 -0.05,-0.12 l -1.15,-2.45 -1.27,2.69 0.54,0 0,0.47 c -0.33,-0.02 -1.22,-0.03 -1.23,-0.03 -0.28,0 -0.73,0.02 -1.14,0.03 l 0,-0.47 0.64,0 1.86,-3.96 -0.23,-0.48 c -0.22,-0.47 -0.53,-1.15 -1.24,-1.15 -0.14,0 -0.16,0.01 -0.24,0.04 0.09,0.04 0.32,0.18 0.32,0.53 0,0.32 -0.24,0.56 -0.58,0.56 -0.28,0 -0.57,-0.18 -0.57,-0.57 0,-0.51 0.47,-0.92 1.07,-0.92 0.77,0 1.34,0.62 1.61,1.19 z"
         inkscape:connector-curvature="0"
         style="fill:#000000;stroke-width:0" /><path
         id="path4723"
         d="m 230.33,476.18 0,-0.01 -0.01,-0.01 0,-0.01 0,-0.01 -0.01,-0.01 0,-0.01 0,-0.01 0,-0.01 -0.01,-0.02 -0.01,-0.03 0,-0.02 -0.01,-0.02 0,-0.01 0,-0.01 0,-0.01 -0.01,-0.01 0,-0.01 0,-0.01 0,-0.01 0,-0.01 -0.01,0 0,-0.01 0,-0.01 0,0 0,-0.01 0,0 0,0 0,0 0,-0.01 0,0 c 0,-0.15 0.12,-0.22 0.24,-0.22 0.12,0 0.23,0.09 0.27,0.15 0.03,0.07 0.09,0.29 0.12,0.44 0.04,0.13 0.12,0.45 0.16,0.62 0.04,0.16 0.08,0.31 0.11,0.47 0.08,0.29 0.1,0.34 0.3,0.63 0.19,0.28 0.52,0.64 1.04,0.64 0.41,0 0.42,-0.35 0.42,-0.49 0,-0.42 -0.3,-1.19 -0.42,-1.48 -0.07,-0.2 -0.1,-0.26 -0.1,-0.38 0,-0.37 0.31,-0.6 0.66,-0.6 0.7,0 1.01,0.96 1.01,1.07 0,0.09 -0.09,0.09 -0.11,0.09 -0.1,0 -0.11,-0.04 -0.14,-0.12 -0.16,-0.56 -0.46,-0.84 -0.74,-0.84 -0.14,0 -0.17,0.09 -0.17,0.24 0,0.16 0.03,0.25 0.16,0.56 0.08,0.22 0.37,0.96 0.37,1.35 0,0.68 -0.54,0.8 -0.91,0.8 -0.58,0 -0.97,-0.36 -1.18,-0.64 -0.05,0.48 -0.46,0.64 -0.74,0.64 -0.3,0 -0.46,-0.22 -0.55,-0.38 -0.16,-0.26 -0.26,-0.66 -0.26,-0.69 0,-0.09 0.1,-0.09 0.12,-0.09 0.1,0 0.11,0.02 0.16,0.21 0.1,0.41 0.23,0.75 0.51,0.75 0.18,0 0.23,-0.15 0.23,-0.34 0,-0.13 -0.07,-0.39 -0.11,-0.58 -0.05,-0.19 -0.12,-0.47 -0.16,-0.63 z"
         inkscape:connector-curvature="0"
         style="fill:#000000;stroke-width:0" /></g><g
       id="g4924"
       transform="matrix(1.3,0,0,1.3,-78.267481,-18.873922)"
       xml:space="preserve"
       stroke-miterlimit="10.433"
       font-style="normal"
       font-variant="normal"
       font-weight="normal"
       font-stretch="normal"
       font-size-adjust="none"
       letter-spacing="normal"
       word-spacing="normal"
       ns0:text="${\\bf y}_0$"
       ns0:preamble="/home/dabi/VC-Projects/Presentations/TransportMaps/2016 - SIAM CSE Atlanta/Presentation/Figures/working/inkscape-preamble.tex"
       style="font-style:normal;font-variant:normal;font-weight:normal;font-stretch:normal;letter-spacing:normal;word-spacing:normal;text-anchor:start;fill:none;fill-opacity:1;fill-rule:evenodd;stroke:#000000;stroke-linecap:butt;stroke-linejoin:miter;stroke-miterlimit:10.43299961;stroke-dasharray:none;stroke-dashoffset:0;stroke-opacity:1"><path
         style="fill:#000000;stroke-width:0"
         inkscape:connector-curvature="0"
         d="m 228.47,480.98 0.02,0.02 0.01,0.03 0.01,0.01 0,0.01 0.01,0.01 0.01,0.01 0.01,0.01 0.01,0.01 0.01,0.01 0.01,0.01 0.01,0 0.02,0.01 0.01,0.01 0.02,0.01 0.02,0 0.02,0.01 0.02,0 0.03,0.01 0.02,0 0.02,0.01 0.01,0 0.02,0 0.01,0 0.02,0 0.02,0 0.01,0.01 0.02,0 0.02,0 0.02,0 0.02,0 0.02,0 0.03,0 0.02,0 0.02,0.01 0.03,0 0.02,0 0.03,0 0.03,0 0.02,0 0.03,0 0.03,0 0,0.47 c -0.24,-0.02 -0.54,-0.03 -0.79,-0.03 -0.24,0 -0.69,0.02 -0.9,0.03 l 0,-0.47 c 0.02,0 0.47,0 0.47,-0.12 0,-0.01 -0.04,-0.11 -0.05,-0.12 l -1.15,-2.45 -1.27,2.69 0.54,0 0,0.47 c -0.33,-0.02 -1.22,-0.03 -1.23,-0.03 -0.28,0 -0.73,0.02 -1.14,0.03 l 0,-0.47 0.64,0 1.86,-3.96 -0.23,-0.48 c -0.22,-0.47 -0.53,-1.15 -1.24,-1.15 -0.14,0 -0.16,0.01 -0.24,0.04 0.09,0.04 0.32,0.18 0.32,0.53 0,0.32 -0.24,0.56 -0.58,0.56 -0.28,0 -0.57,-0.18 -0.57,-0.57 0,-0.51 0.47,-0.92 1.07,-0.92 0.77,0 1.34,0.62 1.61,1.19 z"
         id="path4926" /><path
         style="fill:#000000;stroke-width:0"
         inkscape:connector-curvature="0"
         d="m 233.08,477.96 -0.01,0.15 0,0.13 0,0.13 -0.01,0.13 -0.01,0.13 -0.02,0.11 -0.02,0.12 -0.02,0.11 -0.02,0.11 -0.03,0.11 -0.04,0.1 -0.04,0.1 -0.04,0.1 -0.05,0.09 -0.05,0.1 -0.03,0.05 -0.03,0.04 c -0.21,0.32 -0.64,0.6 -1.2,0.6 -1.62,0 -1.62,-1.9 -1.62,-2.41 0,-0.5 0,-2.36 1.62,-2.36 l 0,0.2 c -0.32,0 -0.75,0.18 -0.89,0.76 -0.09,0.41 -0.09,0.98 -0.09,1.49 0,0.51 0,1.04 0.1,1.43 0.15,0.55 0.59,0.69 0.88,0.69 0.38,0 0.74,-0.22 0.86,-0.63 0.11,-0.38 0.12,-0.88 0.12,-1.49 0,-0.51 0,-1.03 -0.09,-1.47 -0.14,-0.63 -0.61,-0.78 -0.89,-0.78 l 0,0 0,-0.2 c 1.62,0 1.62,1.86 1.62,2.36 z"
         id="path4928" /></g><g
       style="font-style:normal;font-variant:normal;font-weight:normal;font-stretch:normal;letter-spacing:normal;word-spacing:normal;text-anchor:start;fill:none;fill-opacity:1;fill-rule:evenodd;stroke:#000000;stroke-linecap:butt;stroke-linejoin:miter;stroke-miterlimit:10.43299961;stroke-dasharray:none;stroke-dashoffset:0;stroke-opacity:1"
       ns0:preamble="/home/dabi/VC-Projects/Presentations/TransportMaps/2016 - SIAM CSE Atlanta/Presentation/Figures/working/inkscape-preamble.tex"
       ns0:text="${\\bf y}_1$"
       word-spacing="normal"
       letter-spacing="normal"
       font-size-adjust="none"
       font-stretch="normal"
       font-weight="normal"
       font-variant="normal"
       font-style="normal"
       stroke-miterlimit="10.433"
       xml:space="preserve"
       transform="matrix(1.3,0,0,1.3,-34.663562,-18.280672)"
       id="g5129"><path
         id="path5131"
         d="m 228.47,480.98 0.02,0.02 0.01,0.03 0.01,0.01 0,0.01 0.01,0.01 0.01,0.01 0.01,0.01 0.01,0.01 0.01,0.01 0.01,0.01 0.01,0 0.02,0.01 0.01,0.01 0.02,0.01 0.02,0 0.02,0.01 0.02,0 0.03,0.01 0.02,0 0.02,0.01 0.01,0 0.02,0 0.01,0 0.02,0 0.02,0 0.01,0.01 0.02,0 0.02,0 0.02,0 0.02,0 0.02,0 0.03,0 0.02,0 0.02,0.01 0.03,0 0.02,0 0.03,0 0.03,0 0.02,0 0.03,0 0.03,0 0,0.47 c -0.24,-0.02 -0.54,-0.03 -0.79,-0.03 -0.24,0 -0.69,0.02 -0.9,0.03 l 0,-0.47 c 0.02,0 0.47,0 0.47,-0.12 0,-0.01 -0.04,-0.11 -0.05,-0.12 l -1.15,-2.45 -1.27,2.69 0.54,0 0,0.47 c -0.33,-0.02 -1.22,-0.03 -1.23,-0.03 -0.28,0 -0.73,0.02 -1.14,0.03 l 0,-0.47 0.64,0 1.86,-3.96 -0.23,-0.48 c -0.22,-0.47 -0.53,-1.15 -1.24,-1.15 -0.14,0 -0.16,0.01 -0.24,0.04 0.09,0.04 0.32,0.18 0.32,0.53 0,0.32 -0.24,0.56 -0.58,0.56 -0.28,0 -0.57,-0.18 -0.57,-0.57 0,-0.51 0.47,-0.92 1.07,-0.92 0.77,0 1.34,0.62 1.61,1.19 z"
         inkscape:connector-curvature="0"
         style="fill:#000000;stroke-width:0" /><path
         id="path5133"
         d="m 231.81,480.17 0,0.01 0,0.01 0,0.01 0,0.01 0,0.01 0,0 0,0.01 0,0.01 0,0 0,0.01 0,0.01 0,0 0,0.01 0,0 0,0.01 0,0.01 0,0 0,0.01 -0.01,0 0,0.01 0,0.01 0,0.01 -0.01,0 0,0.01 -0.01,0 0,0.01 -0.01,0 -0.01,0.01 0,0 -0.01,0 -0.01,0 -0.01,0.01 0,0 -0.01,0 -0.01,0 0,0 -0.01,0 0,0 -0.01,0 -0.01,0 0,0 -0.01,0 -0.01,0 0,0 -0.01,0 -0.01,0 -0.01,0 -0.01,0 -0.01,0 -0.01,0 c -0.44,-0.44 -1.08,-0.45 -1.36,-0.45 l 0,-0.25 c 0.16,0 0.63,0 1.01,0.2 l 0,-3.56 c 0,-0.23 0,-0.32 -0.7,-0.32 l -0.26,0 0,-0.25 c 0.12,0.01 0.98,0.03 1.24,0.03 0.21,0 1.09,-0.02 1.25,-0.03 l 0,0.25 -0.27,0 c -0.7,0 -0.7,0.09 -0.7,0.32 z"
         inkscape:connector-curvature="0"
         style="fill:#000000;stroke-width:0" /></g><g
       id="g5334"
       transform="matrix(1.3,0,0,1.3,9.2369815,-18.280671)"
       xml:space="preserve"
       stroke-miterlimit="10.433"
       font-style="normal"
       font-variant="normal"
       font-weight="normal"
       font-stretch="normal"
       font-size-adjust="none"
       letter-spacing="normal"
       word-spacing="normal"
       ns0:text="${\\bf y}_2$"
       ns0:preamble="/home/dabi/VC-Projects/Presentations/TransportMaps/2016 - SIAM CSE Atlanta/Presentation/Figures/working/inkscape-preamble.tex"
       style="font-style:normal;font-variant:normal;font-weight:normal;font-stretch:normal;letter-spacing:normal;word-spacing:normal;text-anchor:start;fill:none;fill-opacity:1;fill-rule:evenodd;stroke:#000000;stroke-linecap:butt;stroke-linejoin:miter;stroke-miterlimit:10.43299961;stroke-dasharray:none;stroke-dashoffset:0;stroke-opacity:1"><path
         style="fill:#000000;stroke-width:0"
         inkscape:connector-curvature="0"
         d="m 228.47,480.98 0.02,0.02 0.01,0.03 0.01,0.01 0,0.01 0.01,0.01 0.01,0.01 0.01,0.01 0.01,0.01 0.01,0.01 0.01,0.01 0.01,0 0.02,0.01 0.01,0.01 0.02,0.01 0.02,0 0.02,0.01 0.02,0 0.03,0.01 0.02,0 0.02,0.01 0.01,0 0.02,0 0.01,0 0.02,0 0.02,0 0.01,0.01 0.02,0 0.02,0 0.02,0 0.02,0 0.02,0 0.03,0 0.02,0 0.02,0.01 0.03,0 0.02,0 0.03,0 0.03,0 0.02,0 0.03,0 0.03,0 0,0.47 c -0.24,-0.02 -0.54,-0.03 -0.79,-0.03 -0.24,0 -0.69,0.02 -0.9,0.03 l 0,-0.47 c 0.02,0 0.47,0 0.47,-0.12 0,-0.01 -0.04,-0.11 -0.05,-0.12 l -1.15,-2.45 -1.27,2.69 0.54,0 0,0.47 c -0.33,-0.02 -1.22,-0.03 -1.23,-0.03 -0.28,0 -0.73,0.02 -1.14,0.03 l 0,-0.47 0.64,0 1.86,-3.96 -0.23,-0.48 c -0.22,-0.47 -0.53,-1.15 -1.24,-1.15 -0.14,0 -0.16,0.01 -0.24,0.04 0.09,0.04 0.32,0.18 0.32,0.53 0,0.32 -0.24,0.56 -0.58,0.56 -0.28,0 -0.57,-0.18 -0.57,-0.57 0,-0.51 0.47,-0.92 1.07,-0.92 0.77,0 1.34,0.62 1.61,1.19 z"
         id="path5336" /><path
         style="fill:#000000;stroke-width:0"
         inkscape:connector-curvature="0"
         d="m 233,477.01 -0.24,0 c -0.02,-0.15 -0.09,-0.57 -0.18,-0.63 -0.06,-0.05 -0.59,-0.05 -0.69,-0.05 l -1.28,0 c 0.73,0.65 0.97,0.85 1.39,1.17 0.52,0.42 1,0.85 1,1.51 0,0.85 -0.74,1.36 -1.63,1.36 -0.87,0 -1.45,-0.61 -1.45,-1.25 0,-0.35 0.3,-0.39 0.37,-0.39 0.16,0 0.37,0.12 0.37,0.37 0,0.13 -0.05,0.37 -0.42,0.37 0.22,0.5 0.69,0.65 1.02,0.65 0.7,0 1.06,-0.54 1.06,-1.11 0,-0.61 -0.43,-1.09 -0.65,-1.34 l -1.68,-1.66 c -0.07,-0.06 -0.07,-0.08 -0.07,-0.27 l 2.87,0 z"
         id="path5338" /></g><g
       style="font-style:normal;font-variant:normal;font-weight:normal;font-stretch:normal;letter-spacing:normal;word-spacing:normal;text-anchor:start;fill:none;fill-opacity:1;fill-rule:evenodd;stroke:#000000;stroke-linecap:butt;stroke-linejoin:miter;stroke-miterlimit:10.43299961;stroke-dasharray:none;stroke-dashoffset:0;stroke-opacity:1"
       ns0:preamble="/home/dabi/VC-Projects/Presentations/TransportMaps/2016 - SIAM CSE Atlanta/Presentation/Figures/working/inkscape-preamble.tex"
       ns0:text="${\\bf y}_3$"
       word-spacing="normal"
       letter-spacing="normal"
       font-size-adjust="none"
       font-stretch="normal"
       font-weight="normal"
       font-variant="normal"
       font-style="normal"
       stroke-miterlimit="10.433"
       xml:space="preserve"
       transform="matrix(1.3,0,0,1.3,53.137525,-18.873922)"
       id="g5539"><path
         id="path5541"
         d="m 228.47,480.98 0.02,0.02 0.01,0.03 0.01,0.01 0,0.01 0.01,0.01 0.01,0.01 0.01,0.01 0.01,0.01 0.01,0.01 0.01,0.01 0.01,0 0.02,0.01 0.01,0.01 0.02,0.01 0.02,0 0.02,0.01 0.02,0 0.03,0.01 0.02,0 0.02,0.01 0.01,0 0.02,0 0.01,0 0.02,0 0.02,0 0.01,0.01 0.02,0 0.02,0 0.02,0 0.02,0 0.02,0 0.03,0 0.02,0 0.02,0.01 0.03,0 0.02,0 0.03,0 0.03,0 0.02,0 0.03,0 0.03,0 0,0.47 c -0.24,-0.02 -0.54,-0.03 -0.79,-0.03 -0.24,0 -0.69,0.02 -0.9,0.03 l 0,-0.47 c 0.02,0 0.47,0 0.47,-0.12 0,-0.01 -0.04,-0.11 -0.05,-0.12 l -1.15,-2.45 -1.27,2.69 0.54,0 0,0.47 c -0.33,-0.02 -1.22,-0.03 -1.23,-0.03 -0.28,0 -0.73,0.02 -1.14,0.03 l 0,-0.47 0.64,0 1.86,-3.96 -0.23,-0.48 c -0.22,-0.47 -0.53,-1.15 -1.24,-1.15 -0.14,0 -0.16,0.01 -0.24,0.04 0.09,0.04 0.32,0.18 0.32,0.53 0,0.32 -0.24,0.56 -0.58,0.56 -0.28,0 -0.57,-0.18 -0.57,-0.57 0,-0.51 0.47,-0.92 1.07,-0.92 0.77,0 1.34,0.62 1.61,1.19 z"
         inkscape:connector-curvature="0"
         style="fill:#000000;stroke-width:0" /><path
         id="path5543"
         d="m 231.38,478.07 0.05,0 0.05,-0.01 0.05,0 0.05,-0.01 0.04,-0.01 0.05,-0.01 0.04,-0.01 0.05,-0.02 0.04,-0.02 0.04,-0.02 0.04,-0.02 0.04,-0.03 0.03,-0.03 0.04,-0.03 0.03,-0.03 0.03,-0.03 0.03,-0.04 0.03,-0.04 0.03,-0.04 0.02,-0.04 0.03,-0.05 0.02,-0.04 0.02,-0.05 0.02,-0.05 0.01,-0.06 0.02,-0.05 0.01,-0.06 0.01,-0.06 0.01,-0.06 0,-0.07 0,-0.06 0.01,-0.07 c 0,-0.87 -0.51,-1.13 -0.91,-1.13 -0.28,0 -0.89,0.08 -1.19,0.49 0.33,0.02 0.41,0.25 0.41,0.39 0,0.23 -0.17,0.39 -0.39,0.39 -0.19,0 -0.39,-0.12 -0.39,-0.41 0,-0.65 0.73,-1.08 1.57,-1.08 0.97,0 1.64,0.65 1.64,1.35 0,0.54 -0.44,1.08 -1.21,1.25 0.73,0.26 1,0.78 1,1.21 0,0.55 -0.64,0.96 -1.41,0.96 -0.78,0 -1.37,-0.38 -1.37,-0.93 0,-0.24 0.15,-0.37 0.36,-0.37 0.22,0 0.36,0.16 0.36,0.35 0,0.2 -0.14,0.35 -0.36,0.37 0.25,0.3 0.73,0.38 0.99,0.38 0.31,0 0.75,-0.15 0.75,-0.76 0,-0.3 -0.1,-0.61 -0.28,-0.83 -0.23,-0.27 -0.43,-0.28 -0.77,-0.3 -0.18,-0.01 -0.19,-0.01 -0.23,-0.02 -0.01,0 -0.07,-0.02 -0.07,-0.09 0,-0.1 0.07,-0.1 0.19,-0.1 z"
         inkscape:connector-curvature="0"
         style="fill:#000000;stroke-width:0" /></g><g
       id="g5744"
       transform="matrix(1.3,0,0,1.3,-35.256813,23.84012)"
       xml:space="preserve"
       stroke-miterlimit="10.433"
       font-style="normal"
       font-variant="normal"
       font-weight="normal"
       font-stretch="normal"
       font-size-adjust="none"
       letter-spacing="normal"
       word-spacing="normal"
       ns0:text="${\\bf Z}_1$"
       ns0:preamble="/home/dabi/VC-Projects/Presentations/TransportMaps/2016 - SIAM CSE Atlanta/Presentation/Figures/working/inkscape-preamble.tex"
       style="font-style:normal;font-variant:normal;font-weight:normal;font-stretch:normal;letter-spacing:normal;word-spacing:normal;text-anchor:start;fill:none;fill-opacity:1;fill-rule:evenodd;stroke:#000000;stroke-linecap:butt;stroke-linejoin:miter;stroke-miterlimit:10.43299961;stroke-dasharray:none;stroke-dashoffset:0;stroke-opacity:1"><path
         d="m 229.71,483.58 0,0 0.01,0.01 0,0.01 0.01,0.01 0.01,0.01 0,0.01 0.01,0.01 0,0 0.01,0.01 0,0.01 0,0.01 0.01,0 0,0.01 0,0 0,0.01 0.01,0.01 0,0 0,0.01 0,0 0,0.01 0,0.01 0.01,0 0,0.01 0,0 0,0.01 0,0.01 0,0.01 0,0 0,0.01 0,0.01 0,0.01 0,0.01 0,0.01 c 0,0.25 -0.11,0.25 -0.32,0.25 l -5.12,0 -0.12,-2.4 0.47,0 c 0.08,1.32 0.75,1.93 2.14,1.93 l 1.29,0 -3.98,-5.85 c -0.08,-0.12 -0.08,-0.15 -0.08,-0.26 0,-0.26 0.1,-0.26 0.32,-0.26 l 5.29,0 0.18,2.83 -0.47,0 c -0.08,-1.1 -0.22,-2.32 -2.26,-2.32 l -1.4,0 z"
         id="path5746"
         inkscape:connector-curvature="0"
         style="fill:#000000;stroke-width:0" /><path
         d="m 232.77,480.17 0,0.01 0,0.01 0,0.01 0,0.01 0,0.01 0,0 0,0.01 0,0.01 0,0 0,0.01 0,0.01 0,0 0,0.01 0,0 0,0.01 0,0.01 0,0 0,0.01 -0.01,0 0,0.01 0,0.01 0,0.01 -0.01,0 0,0.01 -0.01,0 0,0.01 -0.01,0 -0.01,0.01 0,0 -0.01,0 -0.01,0 -0.01,0.01 0,0 -0.01,0 -0.01,0 0,0 -0.01,0 0,0 -0.01,0 -0.01,0 0,0 -0.01,0 -0.01,0 0,0 -0.01,0 -0.01,0 -0.01,0 -0.01,0 -0.01,0 0,0 c -0.45,-0.44 -1.09,-0.45 -1.37,-0.45 l 0,-0.25 c 0.17,0 0.62,0 1.01,0.2 l 0,-3.56 c 0,-0.23 0,-0.32 -0.7,-0.32 l -0.26,0 0,-0.25 c 0.12,0.01 0.98,0.03 1.24,0.03 0.21,0 1.09,-0.02 1.25,-0.03 l 0,0.25 -0.27,0 c -0.7,0 -0.7,0.09 -0.7,0.32 z"
         id="path5748"
         inkscape:connector-curvature="0"
         style="fill:#000000;stroke-width:0" /></g><g
       style="font-style:normal;font-variant:normal;font-weight:normal;font-stretch:normal;letter-spacing:normal;word-spacing:normal;text-anchor:start;fill:none;fill-opacity:1;fill-rule:evenodd;stroke:#000000;stroke-linecap:butt;stroke-linejoin:miter;stroke-miterlimit:10.43299961;stroke-dasharray:none;stroke-dashoffset:0;stroke-opacity:1"
       ns0:preamble="/home/dabi/VC-Projects/Presentations/TransportMaps/2016 - SIAM CSE Atlanta/Presentation/Figures/working/inkscape-preamble.tex"
       ns0:text="${\\bf Z}_2$"
       word-spacing="normal"
       letter-spacing="normal"
       font-size-adjust="none"
       font-stretch="normal"
       font-weight="normal"
       font-variant="normal"
       font-style="normal"
       stroke-miterlimit="10.433"
       xml:space="preserve"
       transform="matrix(1.3,0,0,1.3,8.6437308,23.840121)"
       id="g5949"><path
         id="path5951"
         d="m 229.71,483.58 0,0 0.01,0.01 0,0.01 0.01,0.01 0.01,0.01 0,0.01 0.01,0.01 0,0 0.01,0.01 0,0.01 0,0.01 0.01,0 0,0.01 0,0 0,0.01 0.01,0.01 0,0 0,0.01 0,0 0,0.01 0,0.01 0.01,0 0,0.01 0,0 0,0.01 0,0.01 0,0.01 0,0 0,0.01 0,0.01 0,0.01 0,0.01 0,0.01 c 0,0.25 -0.11,0.25 -0.32,0.25 l -5.12,0 -0.12,-2.4 0.47,0 c 0.08,1.32 0.75,1.93 2.14,1.93 l 1.29,0 -3.98,-5.85 c -0.08,-0.12 -0.08,-0.15 -0.08,-0.26 0,-0.26 0.1,-0.26 0.32,-0.26 l 5.29,0 0.18,2.83 -0.47,0 c -0.08,-1.1 -0.22,-2.32 -2.26,-2.32 l -1.4,0 z"
         inkscape:connector-curvature="0"
         style="fill:#000000;stroke-width:0" /><path
         id="path5953"
         d="m 233.96,477.01 -0.24,0 c -0.02,-0.15 -0.09,-0.57 -0.18,-0.63 -0.05,-0.05 -0.59,-0.05 -0.69,-0.05 l -1.28,0 c 0.73,0.65 0.97,0.85 1.39,1.17 0.52,0.42 1,0.85 1,1.51 0,0.85 -0.74,1.36 -1.63,1.36 -0.87,0 -1.45,-0.61 -1.45,-1.25 0,-0.35 0.3,-0.39 0.37,-0.39 0.16,0 0.37,0.12 0.37,0.37 0,0.13 -0.05,0.37 -0.41,0.37 0.21,0.5 0.69,0.65 1.01,0.65 0.7,0 1.06,-0.54 1.06,-1.11 0,-0.61 -0.43,-1.09 -0.65,-1.34 l -1.68,-1.66 c -0.07,-0.06 -0.07,-0.08 -0.07,-0.27 l 2.87,0 z"
         inkscape:connector-curvature="0"
         style="fill:#000000;stroke-width:0" /></g><g
       id="g6154"
       transform="matrix(1.3,0,0,1.3,51.654399,23.543496)"
       xml:space="preserve"
       stroke-miterlimit="10.433"
       font-style="normal"
       font-variant="normal"
       font-weight="normal"
       font-stretch="normal"
       font-size-adjust="none"
       letter-spacing="normal"
       word-spacing="normal"
       ns0:text="${\\bf Z}_3$"
       ns0:preamble="/home/dabi/VC-Projects/Presentations/TransportMaps/2016 - SIAM CSE Atlanta/Presentation/Figures/working/inkscape-preamble.tex"
       style="font-style:normal;font-variant:normal;font-weight:normal;font-stretch:normal;letter-spacing:normal;word-spacing:normal;text-anchor:start;fill:none;fill-opacity:1;fill-rule:evenodd;stroke:#000000;stroke-linecap:butt;stroke-linejoin:miter;stroke-miterlimit:10.43299961;stroke-dasharray:none;stroke-dashoffset:0;stroke-opacity:1"><path
         d="m 229.71,483.58 0,0 0.01,0.01 0,0.01 0.01,0.01 0.01,0.01 0,0.01 0.01,0.01 0,0 0.01,0.01 0,0.01 0,0.01 0.01,0 0,0.01 0,0 0,0.01 0.01,0.01 0,0 0,0.01 0,0 0,0.01 0,0.01 0.01,0 0,0.01 0,0 0,0.01 0,0.01 0,0.01 0,0 0,0.01 0,0.01 0,0.01 0,0.01 0,0.01 c 0,0.25 -0.11,0.25 -0.32,0.25 l -5.12,0 -0.12,-2.4 0.47,0 c 0.08,1.32 0.75,1.93 2.14,1.93 l 1.29,0 -3.98,-5.85 c -0.08,-0.12 -0.08,-0.15 -0.08,-0.26 0,-0.26 0.1,-0.26 0.32,-0.26 l 5.29,0 0.18,2.83 -0.47,0 c -0.08,-1.1 -0.22,-2.32 -2.26,-2.32 l -1.4,0 z"
         id="path6156"
         inkscape:connector-curvature="0"
         style="fill:#000000;stroke-width:0" /><path
         d="m 232.34,478.07 0.05,0 0.05,-0.01 0.05,0 0.05,-0.01 0.04,-0.01 0.05,-0.01 0.04,-0.01 0.05,-0.02 0.04,-0.02 0.04,-0.02 0.04,-0.02 0.04,-0.03 0.03,-0.03 0.04,-0.03 0.03,-0.03 0.03,-0.03 0.03,-0.04 0.03,-0.04 0.03,-0.04 0.02,-0.04 0.03,-0.05 0.02,-0.04 0.02,-0.05 0.02,-0.05 0.01,-0.06 0.02,-0.05 0.01,-0.06 0.01,-0.06 0.01,-0.06 0,-0.07 0,-0.06 0.01,-0.07 c 0,-0.87 -0.51,-1.13 -0.91,-1.13 -0.28,0 -0.89,0.08 -1.19,0.49 0.33,0.02 0.41,0.25 0.41,0.39 0,0.23 -0.17,0.39 -0.38,0.39 -0.2,0 -0.4,-0.12 -0.4,-0.41 0,-0.65 0.73,-1.08 1.57,-1.08 0.97,0 1.64,0.65 1.64,1.35 0,0.54 -0.44,1.08 -1.21,1.25 0.73,0.26 1,0.78 1,1.21 0,0.55 -0.64,0.96 -1.41,0.96 -0.78,0 -1.37,-0.38 -1.37,-0.93 0,-0.24 0.15,-0.37 0.36,-0.37 0.22,0 0.36,0.16 0.36,0.35 0,0.2 -0.14,0.35 -0.36,0.37 0.25,0.3 0.73,0.38 0.99,0.38 0.31,0 0.75,-0.15 0.75,-0.76 0,-0.3 -0.1,-0.61 -0.28,-0.83 -0.23,-0.27 -0.42,-0.28 -0.77,-0.3 -0.18,-0.01 -0.19,-0.01 -0.23,-0.02 -0.01,0 -0.07,-0.02 -0.07,-0.09 0,-0.1 0.07,-0.1 0.18,-0.1 z"
         id="path6158"
         inkscape:connector-curvature="0"
         style="fill:#000000;stroke-width:0" /></g><g
       style="font-style:normal;font-variant:normal;font-weight:normal;font-stretch:normal;letter-spacing:normal;word-spacing:normal;text-anchor:start;fill:none;fill-opacity:1;fill-rule:evenodd;stroke:#000000;stroke-linecap:butt;stroke-linejoin:miter;stroke-miterlimit:10.43299961;stroke-dasharray:none;stroke-dashoffset:0;stroke-opacity:1"
       ns0:preamble="/home/dabi/VC-Projects/Presentations/TransportMaps/2016 - SIAM CSE Atlanta/Presentation/Figures/working/inkscape-preamble.tex"
       ns0:text="${\\bf Z}_n$"
       word-spacing="normal"
       letter-spacing="normal"
       font-size-adjust="none"
       font-stretch="normal"
       font-weight="normal"
       font-variant="normal"
       font-style="normal"
       stroke-miterlimit="10.433"
       xml:space="preserve"
       transform="matrix(1.3,0,0,1.3,95.554943,22.950245)"
       id="g6359"><path
         id="path6361"
         d="m 229.71,483.58 0,0 0.01,0.01 0,0.01 0.01,0.01 0.01,0.01 0,0.01 0.01,0.01 0,0 0.01,0.01 0,0.01 0,0.01 0.01,0 0,0.01 0,0 0,0.01 0.01,0.01 0,0 0,0.01 0,0 0,0.01 0,0.01 0.01,0 0,0.01 0,0 0,0.01 0,0.01 0,0.01 0,0 0,0.01 0,0.01 0,0.01 0,0.01 0,0.01 c 0,0.25 -0.11,0.25 -0.32,0.25 l -5.12,0 -0.12,-2.4 0.47,0 c 0.08,1.32 0.75,1.93 2.14,1.93 l 1.29,0 -3.98,-5.85 c -0.08,-0.12 -0.08,-0.15 -0.08,-0.26 0,-0.26 0.1,-0.26 0.32,-0.26 l 5.29,0 0.18,2.83 -0.47,0 c -0.08,-1.1 -0.22,-2.32 -2.26,-2.32 l -1.4,0 z"
         inkscape:connector-curvature="0"
         style="fill:#000000;stroke-width:0" /><path
         id="path6363"
         d="m 231.29,476.18 0,-0.01 -0.01,-0.01 0,-0.01 0,-0.01 -0.01,-0.01 0,-0.01 0,-0.01 0,-0.01 -0.01,-0.02 -0.01,-0.03 0,-0.02 -0.01,-0.02 0,-0.01 0,-0.01 0,-0.01 -0.01,-0.01 0,-0.01 0,-0.01 0,-0.01 0,-0.01 -0.01,0 0,-0.01 0,-0.01 0,0 0,-0.01 0,0 0,0 0,0 0,-0.01 0,0 c 0,-0.15 0.12,-0.22 0.24,-0.22 0.12,0 0.23,0.09 0.27,0.15 0.03,0.07 0.09,0.29 0.12,0.44 0.04,0.13 0.11,0.45 0.16,0.62 0.04,0.16 0.08,0.31 0.11,0.47 0.08,0.29 0.1,0.34 0.3,0.63 0.19,0.28 0.52,0.64 1.04,0.64 0.41,0 0.42,-0.35 0.42,-0.49 0,-0.42 -0.3,-1.19 -0.42,-1.48 -0.07,-0.2 -0.1,-0.26 -0.1,-0.38 0,-0.37 0.31,-0.6 0.66,-0.6 0.7,0 1.01,0.96 1.01,1.07 0,0.09 -0.09,0.09 -0.12,0.09 -0.09,0 -0.1,-0.04 -0.13,-0.12 -0.16,-0.56 -0.46,-0.84 -0.74,-0.84 -0.14,0 -0.17,0.09 -0.17,0.24 0,0.16 0.03,0.25 0.16,0.56 0.08,0.22 0.37,0.96 0.37,1.35 0,0.68 -0.54,0.8 -0.91,0.8 -0.58,0 -0.97,-0.36 -1.18,-0.64 -0.05,0.48 -0.46,0.64 -0.74,0.64 -0.3,0 -0.46,-0.22 -0.55,-0.38 -0.16,-0.26 -0.26,-0.66 -0.26,-0.69 0,-0.09 0.1,-0.09 0.12,-0.09 0.1,0 0.11,0.02 0.16,0.21 0.1,0.41 0.23,0.75 0.51,0.75 0.18,0 0.23,-0.15 0.23,-0.34 0,-0.13 -0.07,-0.39 -0.12,-0.58 -0.04,-0.19 -0.11,-0.47 -0.15,-0.63 z"
         inkscape:connector-curvature="0"
         style="fill:#000000;stroke-width:0" /></g></g></svg>