<?xml version="1.0" encoding="UTF-8" standalone="no"?>
<!-- Created with Inkscape (http://www.inkscape.org/) -->

<svg
   xmlns:ns0="http://www.iki.fi/pav/software/textext/"
   xmlns:dc="http://purl.org/dc/elements/1.1/"
   xmlns:cc="http://creativecommons.org/ns#"
   xmlns:rdf="http://www.w3.org/1999/02/22-rdf-syntax-ns#"
   xmlns:svg="http://www.w3.org/2000/svg"
   xmlns="http://www.w3.org/2000/svg"
   xmlns:sodipodi="http://sodipodi.sourceforge.net/DTD/sodipodi-0.dtd"
   xmlns:inkscape="http://www.inkscape.org/namespaces/inkscape"
   id="svg2"
   version="1.1"
   inkscape:version="0.91 r13725"
   xml:space="preserve"
   width="245.16423"
   height="135.82199"
   viewBox="0 0 245.16423 135.82199"
   sodipodi:docname="dataAssimilationHyper.svg"><sodipodi:namedview
     pagecolor="#ffffff"
     bordercolor="#666666"
     borderopacity="1"
     objecttolerance="10"
     gridtolerance="10"
     guidetolerance="10"
     inkscape:pageopacity="0"
     inkscape:pageshadow="2"
     inkscape:window-width="1920"
     inkscape:window-height="1056"
     id="namedview4"
     showgrid="false"
     inkscape:zoom="2.6970053"
     inkscape:cx="31.320611"
     inkscape:cy="37.641991"
     inkscape:window-x="0"
     inkscape:window-y="24"
     inkscape:window-maximized="1"
     inkscape:current-layer="g10"
     fit-margin-top="0"
     fit-margin-left="0"
     fit-margin-right="0"
     fit-margin-bottom="0" /><metadata
     id="metadata8"><rdf:RDF><cc:Work
         rdf:about=""><dc:format>image/svg+xml</dc:format><dc:type
           rdf:resource="http://purl.org/dc/dcmitype/StillImage" /><dc:title /></cc:Work></rdf:RDF></metadata><defs
     id="defs6" /><g
     transform="matrix(1.25,0,0,-1.25,-259.91954,877.50098)"
     inkscape:label="dataAssimilationHyper"
     inkscape:groupmode="layer"
     id="g10"><g
       id="g20"
       transform="translate(218.539,647.672)"><path
         inkscape:connector-curvature="0"
         id="path22"
         style="fill:#ccccff;fill-opacity:1;fill-rule:nonzero;stroke:#8080ff;stroke-width:0.79701;stroke-linecap:butt;stroke-linejoin:miter;stroke-miterlimit:10;stroke-dasharray:none;stroke-opacity:1"
         d="M 10.20486,0 C 10.20486,5.63605 5.63605,10.20486 0,10.20486 -5.63605,10.20486 -10.20486,5.63605 -10.20486,0 c 0,-5.63605 4.56881,-10.20486 10.20486,-10.20486 5.63605,0 10.20486,4.56881 10.20486,10.20486 z" /></g><g
       id="g44"
       transform="translate(218.539,647.672)"><path
         inkscape:connector-curvature="0"
         id="path46"
         style="fill:#ccccff;fill-opacity:1;fill-rule:nonzero;stroke:#8080ff;stroke-width:0.79701;stroke-linecap:butt;stroke-linejoin:miter;stroke-miterlimit:10;stroke-dasharray:none;stroke-opacity:1"
         d="m 53.93028,0 c 0,5.63605 -4.56881,10.20486 -10.20486,10.20486 -5.63606,0 -10.20488,-4.56881 -10.20488,-10.20486 0,-5.63605 4.56882,-10.20486 10.20488,-10.20486 5.63605,0 10.20486,4.56881 10.20486,10.20486 z" /></g><g
       transform="translate(218.539,647.672)"
       id="g66"><g
         id="g68"><path
           d="M 33.20348,0 10.52422,0"
           style="fill:none;stroke:#000000;stroke-width:0.59776002;stroke-linecap:butt;stroke-linejoin:miter;stroke-miterlimit:10;stroke-dasharray:none;stroke-opacity:1"
           id="path70"
           inkscape:connector-curvature="0" /></g></g><g
       id="g74"
       transform="translate(218.539,647.672)"><path
         inkscape:connector-curvature="0"
         id="path76"
         style="fill:#ccccff;fill-opacity:1;fill-rule:nonzero;stroke:#8080ff;stroke-width:0.79701;stroke-linecap:butt;stroke-linejoin:miter;stroke-miterlimit:10;stroke-dasharray:none;stroke-opacity:1"
         d="m 97.658,0 c 0,5.63605 -4.56881,10.20486 -10.20487,10.20486 -5.63605,0 -10.20488,-4.56881 -10.20488,-10.20486 0,-5.63605 4.56883,-10.20486 10.20488,-10.20486 5.63606,0 10.20487,4.56881 10.20487,10.20486 z" /></g><g
       transform="translate(218.539,647.672)"
       id="g96"><g
         id="g98"><path
           d="M 76.9335,0 54.25194,0"
           style="fill:none;stroke:#000000;stroke-width:0.59776002;stroke-linecap:butt;stroke-linejoin:miter;stroke-miterlimit:10;stroke-dasharray:none;stroke-opacity:1"
           id="path100"
           inkscape:connector-curvature="0" /></g></g><g
       id="g104"
       transform="translate(218.539,647.672)"><path
         inkscape:connector-curvature="0"
         id="path106"
         style="fill:#ccccff;fill-opacity:1;fill-rule:nonzero;stroke:#8080ff;stroke-width:0.79701;stroke-linecap:butt;stroke-linejoin:miter;stroke-miterlimit:10;stroke-dasharray:none;stroke-opacity:1"
         d="m 141.38802,0 c 0,5.63605 -4.56882,10.20486 -10.20488,10.20486 -5.63605,0 -10.20488,-4.56881 -10.20488,-10.20486 0,-5.63605 4.56883,-10.20486 10.20488,-10.20486 5.63606,0 10.20488,4.56881 10.20488,10.20486 z" /></g><g
       transform="translate(218.539,647.672)"
       id="g126"><g
         id="g128"><path
           d="M 120.6658,0 97.98195,0"
           style="fill:none;stroke:#000000;stroke-width:0.59776002;stroke-linecap:butt;stroke-linejoin:miter;stroke-miterlimit:10;stroke-dasharray:none;stroke-opacity:1"
           id="path130"
           inkscape:connector-curvature="0" /></g></g><g
       id="g134"
       transform="translate(218.539,647.672)"><path
         inkscape:connector-curvature="0"
         id="path136"
         style="fill:#ccccff;fill-opacity:1;fill-rule:nonzero;stroke:#8080ff;stroke-width:0.79701;stroke-linecap:butt;stroke-linejoin:miter;stroke-miterlimit:10;stroke-dasharray:none;stroke-opacity:1"
         d="m 185.12032,0 c 0,5.63605 -4.56882,10.20486 -10.20487,10.20486 -5.63606,0 -10.20488,-4.56881 -10.20488,-10.20486 0,-5.63605 4.56882,-10.20486 10.20488,-10.20486 5.63605,0 10.20487,4.56881 10.20487,10.20486 z" /></g><g
       transform="translate(218.539,647.672)"
       id="g156"><g
         id="g158"><path
           d="M 164.40042,0 141.71425,0"
           style="fill:none;stroke:#000000;stroke-width:0.59776002;stroke-linecap:butt;stroke-linejoin:miter;stroke-miterlimit:10;stroke-dasharray:2.98883, 2.98883;stroke-dashoffset:0;stroke-opacity:1"
           id="path160"
           inkscape:connector-curvature="0" /></g></g><g
       id="g164"
       transform="translate(218.539,647.672)"><path
         inkscape:connector-curvature="0"
         id="path166"
         style="fill:#ffcccc;fill-opacity:1;fill-rule:nonzero;stroke:#ff8080;stroke-width:0.79701;stroke-linecap:butt;stroke-linejoin:miter;stroke-miterlimit:10;stroke-dasharray:none;stroke-opacity:1"
         d="m 10.20486,-43.72543 c 0,5.63606 -4.56881,10.20488 -10.20486,10.20488 -5.63605,0 -10.20486,-4.56882 -10.20486,-10.20488 0,-5.63605 4.56881,-10.20487 10.20486,-10.20487 5.63605,0 10.20486,4.56882 10.20486,10.20487 z" /></g><g
       transform="translate(218.539,647.672)"
       id="g186"><g
         id="g188"><path
           d="m 0,-33.20348 0,22.67926"
           style="fill:none;stroke:#000000;stroke-width:0.59776002;stroke-linecap:butt;stroke-linejoin:miter;stroke-miterlimit:10;stroke-dasharray:none;stroke-opacity:1"
           id="path190"
           inkscape:connector-curvature="0" /></g></g><g
       id="g194"
       transform="translate(218.539,647.672)"><path
         inkscape:connector-curvature="0"
         id="path196"
         style="fill:#ffcccc;fill-opacity:1;fill-rule:nonzero;stroke:#ff8080;stroke-width:0.79701;stroke-linecap:butt;stroke-linejoin:miter;stroke-miterlimit:10;stroke-dasharray:none;stroke-opacity:1"
         d="m 53.93259,-43.72543 c 0,5.63606 -4.56882,10.20488 -10.20489,10.20488 -5.63606,0 -10.20487,-4.56882 -10.20487,-10.20488 0,-5.63605 4.56881,-10.20487 10.20487,-10.20487 5.63607,0 10.20489,4.56882 10.20489,10.20487 z" /></g><g
       transform="translate(218.539,647.672)"
       id="g216"><g
         id="g218"><path
           d="m 43.73015,-33.20348 -0.0015,22.67926"
           style="fill:none;stroke:#000000;stroke-width:0.59776002;stroke-linecap:butt;stroke-linejoin:miter;stroke-miterlimit:10;stroke-dasharray:none;stroke-opacity:1"
           id="path220"
           inkscape:connector-curvature="0" /></g></g><g
       id="g224"
       transform="translate(218.539,647.672)"><path
         inkscape:connector-curvature="0"
         id="path226"
         style="fill:#ffcccc;fill-opacity:1;fill-rule:nonzero;stroke:#ff8080;stroke-width:0.79701;stroke-linecap:butt;stroke-linejoin:miter;stroke-miterlimit:10;stroke-dasharray:none;stroke-opacity:1"
         d="m 97.6626,-43.72543 c 0,5.63606 -4.56882,10.20488 -10.20488,10.20488 -5.63606,0 -10.20488,-4.56882 -10.20488,-10.20488 0,-5.63605 4.56882,-10.20487 10.20488,-10.20487 5.63606,0 10.20488,4.56882 10.20488,10.20487 z" /></g><g
       transform="translate(218.539,647.672)"
       id="g246"><g
         id="g248"><path
           d="m 87.46278,-33.20348 -0.003,22.67926"
           style="fill:none;stroke:#000000;stroke-width:0.59776002;stroke-linecap:butt;stroke-linejoin:miter;stroke-miterlimit:10;stroke-dasharray:none;stroke-opacity:1"
           id="path250"
           inkscape:connector-curvature="0" /></g></g><g
       id="g254"
       transform="translate(218.539,647.672)"><path
         inkscape:connector-curvature="0"
         id="path256"
         style="fill:#ffcccc;fill-opacity:1;fill-rule:nonzero;stroke:#ff8080;stroke-width:0.79701;stroke-linecap:butt;stroke-linejoin:miter;stroke-miterlimit:10;stroke-dasharray:none;stroke-opacity:1"
         d="m 141.3949,-43.72543 c 0,5.63606 -4.56882,10.20488 -10.20487,10.20488 -5.63606,0 -10.20488,-4.56882 -10.20488,-10.20488 0,-5.63605 4.56882,-10.20487 10.20488,-10.20487 5.63605,0 10.20487,4.56882 10.20487,10.20487 z" /></g><g
       transform="translate(218.539,647.672)"
       id="g276"><g
         id="g278"><path
           d="m 131.19772,-33.20348 -0.004,22.67926"
           style="fill:none;stroke:#000000;stroke-width:0.59776002;stroke-linecap:butt;stroke-linejoin:miter;stroke-miterlimit:10;stroke-dasharray:none;stroke-opacity:1"
           id="path280"
           inkscape:connector-curvature="0" /></g></g><g
       id="g284"
       transform="translate(218.539,647.672)"><path
         inkscape:connector-curvature="0"
         id="path286"
         style="fill:#ffcccc;fill-opacity:1;fill-rule:nonzero;stroke:#ff8080;stroke-width:0.79701;stroke-linecap:butt;stroke-linejoin:miter;stroke-miterlimit:10;stroke-dasharray:none;stroke-opacity:1"
         d="m 185.12952,-43.72543 c 0,5.63606 -4.56882,10.20488 -10.20488,10.20488 -5.63605,0 -10.20487,-4.56882 -10.20487,-10.20488 0,-5.63605 4.56882,-10.20487 10.20487,-10.20487 5.63606,0 10.20488,4.56882 10.20488,10.20487 z" /></g><g
       transform="translate(218.539,647.672)"
       id="g306"><g
         id="g308"><path
           d="m 174.93512,-33.20348 -0.006,22.67926"
           style="fill:none;stroke:#000000;stroke-width:0.59776002;stroke-linecap:butt;stroke-linejoin:miter;stroke-miterlimit:10;stroke-dasharray:none;stroke-opacity:1"
           id="path310"
           inkscape:connector-curvature="0" /></g></g><g
       transform="translate(218.539,647.672)"
       id="g314"><path
         inkscape:connector-curvature="0"
         id="path316"
         style="fill:#ffe6cc;fill-opacity:1;fill-rule:nonzero;stroke:#ffbf80;stroke-width:0.79701;stroke-linecap:butt;stroke-linejoin:miter;stroke-miterlimit:10;stroke-dasharray:none;stroke-opacity:1"
         d="m 97.6626,43.72542 c 0,5.63605 -4.56882,10.20486 -10.20488,10.20486 -5.63606,0 -10.20488,-4.56881 -10.20488,-10.20486 0,-5.63606 4.56882,-10.20488 10.20488,-10.20488 5.63606,0 10.20488,4.56882 10.20488,10.20488 z" /></g><g
       transform="translate(218.539,647.672)"
       id="g332"><g
         id="g334"><path
           d="M 78.01161,39.00308 9.45068,4.72508"
           style="fill:none;stroke:#000000;stroke-width:0.59776002;stroke-linecap:butt;stroke-linejoin:miter;stroke-miterlimit:10;stroke-dasharray:none;stroke-opacity:1"
           id="path336"
           inkscape:connector-curvature="0" /></g></g><g
       transform="translate(218.539,647.672)"
       id="g338"><g
         id="g340"><path
           d="M 79.9833,36.24934 51.2067,7.47739"
           style="fill:none;stroke:#000000;stroke-width:0.59776002;stroke-linecap:butt;stroke-linejoin:miter;stroke-miterlimit:10;stroke-dasharray:none;stroke-opacity:1"
           id="path342"
           inkscape:connector-curvature="0" /></g></g><g
       transform="translate(218.539,647.672)"
       id="g344"><g
         id="g346"><path
           d="M 87.46278,33.20348 87.4598,10.52422"
           style="fill:none;stroke:#000000;stroke-width:0.59776002;stroke-linecap:butt;stroke-linejoin:miter;stroke-miterlimit:10;stroke-dasharray:none;stroke-opacity:1"
           id="path348"
           inkscape:connector-curvature="0" /></g></g><g
       transform="translate(218.539,647.672)"
       id="g350"><g
         id="g352"><path
           d="M 94.94131,36.25046 123.71214,7.479"
           style="fill:none;stroke:#000000;stroke-width:0.59776002;stroke-linecap:butt;stroke-linejoin:miter;stroke-miterlimit:10;stroke-dasharray:none;stroke-opacity:1"
           id="path354"
           inkscape:connector-curvature="0" /></g></g><g
       transform="translate(218.539,647.672)"
       id="g356"><g
         id="g358"><path
           d="M 96.91302,39.0034 165.51152,4.70697"
           style="fill:none;stroke:#000000;stroke-width:0.59776002;stroke-linecap:butt;stroke-linejoin:miter;stroke-miterlimit:10;stroke-dasharray:none;stroke-opacity:1"
           id="path360"
           inkscape:connector-curvature="0" /></g></g><g
       ns0:preamble="/home/dabi/VC-Projects/Presentations/TransportMaps/2016 - SIAM CSE Atlanta/Presentation/Figures/working/inkscape-preamble.tex"
       ns0:text="$\\Theta$"
       word-spacing="normal"
       letter-spacing="normal"
       font-size-adjust="none"
       font-stretch="normal"
       font-weight="normal"
       font-variant="normal"
       font-style="normal"
       stroke-miterlimit="10.433"
       xml:space="preserve"
       transform="matrix(1.5,0,0,-1.5,-35.113605,1412.7266)"
       id="content"
       style="font-style:normal;font-variant:normal;font-weight:normal;font-stretch:normal;letter-spacing:normal;word-spacing:normal;text-anchor:start;fill:none;fill-opacity:1;fill-rule:evenodd;stroke:#000000;stroke-linecap:butt;stroke-linejoin:miter;stroke-miterlimit:10.43299961;stroke-dasharray:none;stroke-dashoffset:0;stroke-opacity:1"><path
         id="path5199"
         d="m 230.62,480.61 -0.01,0.19 -0.01,0.19 -0.02,0.18 -0.03,0.18 -0.04,0.18 -0.04,0.17 -0.06,0.17 -0.06,0.17 -0.06,0.16 -0.08,0.16 -0.08,0.15 -0.09,0.15 -0.09,0.14 -0.1,0.14 -0.1,0.13 -0.11,0.13 -0.12,0.12 -0.12,0.11 -0.13,0.11 -0.13,0.1 -0.13,0.09 -0.14,0.09 -0.14,0.08 -0.15,0.07 -0.15,0.07 -0.15,0.05 -0.16,0.05 -0.16,0.04 -0.16,0.03 -0.17,0.03 -0.16,0.01 -0.17,0.01 0,-0.22 c 1,0 2.35,-0.91 2.35,-3.43 0,-2.54 -1.41,-3.37 -2.34,-3.37 l 0,0 c -0.99,0 -2.35,0.86 -2.35,3.37 0,2.56 1.38,3.43 2.34,3.43 l 0,0.22 c -1.79,0 -3.31,-1.6 -3.31,-3.65 0,-2.04 1.53,-3.6 3.31,-3.6 1.81,0 3.32,1.59 3.32,3.6 z"
         inkscape:connector-curvature="0"
         style="fill:#000000;stroke-width:0" /><polygon
         id="polygon5201"
         points="225.77,480.26 228.83,480.26 228.83,479.92 229.08,479.92 229.08,481.36 228.83,481.36 228.83,481.02 225.77,481.02 225.77,481.36 225.52,481.36 225.52,479.92 225.77,479.92 "
         style="fill:#000000;stroke-width:0" /></g><g
       style="font-style:normal;font-variant:normal;font-weight:normal;font-stretch:normal;letter-spacing:normal;word-spacing:normal;text-anchor:start;fill:none;fill-opacity:1;fill-rule:evenodd;stroke:#000000;stroke-linecap:butt;stroke-linejoin:miter;stroke-miterlimit:10.43299961;stroke-dasharray:none;stroke-dashoffset:0;stroke-opacity:1"
       id="g4426"
       transform="matrix(1.3,0,0,1.3,-79.199155,23.170511)"
       xml:space="preserve"
       stroke-miterlimit="10.433"
       font-style="normal"
       font-variant="normal"
       font-weight="normal"
       font-stretch="normal"
       font-size-adjust="none"
       letter-spacing="normal"
       word-spacing="normal"
       ns0:text="${\\bf Z}_0$"
       ns0:preamble="/home/dabi/VC-Projects/Presentations/TransportMaps/2016 - SIAM CSE Atlanta/Presentation/Figures/working/inkscape-preamble.tex"><path
         style="fill:#000000;stroke-width:0"
         inkscape:connector-curvature="0"
         d="m 229.71,483.58 0,0 0.01,0.01 0,0.01 0.01,0.01 0.01,0.01 0,0.01 0.01,0.01 0,0 0.01,0.01 0,0.01 0,0.01 0.01,0 0,0.01 0,0 0,0.01 0.01,0.01 0,0 0,0.01 0,0 0,0.01 0,0.01 0.01,0 0,0.01 0,0 0,0.01 0,0.01 0,0.01 0,0 0,0.01 0,0.01 0,0.01 0,0.01 0,0.01 c 0,0.25 -0.11,0.25 -0.32,0.25 l -5.12,0 -0.12,-2.4 0.47,0 c 0.08,1.32 0.75,1.93 2.14,1.93 l 1.29,0 -3.98,-5.85 c -0.08,-0.12 -0.08,-0.15 -0.08,-0.26 0,-0.26 0.1,-0.26 0.32,-0.26 l 5.29,0 0.18,2.83 -0.47,0 c -0.08,-1.1 -0.22,-2.32 -2.26,-2.32 l -1.4,0 z"
         id="path4428" /><path
         style="fill:#000000;stroke-width:0"
         inkscape:connector-curvature="0"
         d="m 234.04,477.96 -0.01,0.15 0,0.13 0,0.13 -0.01,0.13 -0.01,0.13 -0.02,0.11 -0.02,0.12 -0.02,0.11 -0.02,0.11 -0.03,0.11 -0.04,0.1 -0.04,0.1 -0.04,0.1 -0.05,0.09 -0.05,0.1 -0.03,0.05 -0.03,0.04 c -0.21,0.32 -0.64,0.6 -1.2,0.6 -1.62,0 -1.62,-1.9 -1.62,-2.41 0,-0.5 0,-2.36 1.62,-2.36 l 0,0.2 c -0.32,0 -0.75,0.18 -0.89,0.76 -0.1,0.41 -0.1,0.98 -0.1,1.49 0,0.51 0,1.04 0.11,1.43 0.15,0.55 0.59,0.69 0.88,0.69 0.37,0 0.74,-0.22 0.86,-0.63 0.11,-0.38 0.12,-0.88 0.12,-1.49 0,-0.51 0,-1.03 -0.09,-1.47 -0.14,-0.63 -0.61,-0.78 -0.89,-0.78 l 0,0 0,-0.2 c 1.62,0 1.62,1.86 1.62,2.36 z"
         id="path4430" /></g><g
       style="font-style:normal;font-variant:normal;font-weight:normal;font-stretch:normal;letter-spacing:normal;word-spacing:normal;text-anchor:start;fill:none;fill-opacity:1;fill-rule:evenodd;stroke:#000000;stroke-linecap:butt;stroke-linejoin:miter;stroke-miterlimit:10.43299961;stroke-dasharray:none;stroke-dashoffset:0;stroke-opacity:1"
       ns0:preamble="/home/dabi/VC-Projects/Presentations/TransportMaps/2016 - SIAM CSE Atlanta/Presentation/Figures/working/inkscape-preamble.tex"
       ns0:text="${\\bf y}_n$"
       word-spacing="normal"
       letter-spacing="normal"
       font-size-adjust="none"
       font-stretch="normal"
       font-weight="normal"
       font-variant="normal"
       font-style="normal"
       stroke-miterlimit="10.433"
       xml:space="preserve"
       transform="matrix(1.3,0,0,1.3,96.148194,-18.873922)"
       id="g4719"><path
         id="path4721"
         d="m 228.47,480.98 0.02,0.02 0.01,0.03 0.01,0.01 0,0.01 0.01,0.01 0.01,0.01 0.01,0.01 0.01,0.01 0.01,0.01 0.01,0.01 0.01,0 0.02,0.01 0.01,0.01 0.02,0.01 0.02,0 0.02,0.01 0.02,0 0.03,0.01 0.02,0 0.02,0.01 0.01,0 0.02,0 0.01,0 0.02,0 0.02,0 0.01,0.01 0.02,0 0.02,0 0.02,0 0.02,0 0.02,0 0.03,0 0.02,0 0.02,0.01 0.03,0 0.02,0 0.03,0 0.03,0 0.02,0 0.03,0 0.03,0 0,0.47 c -0.24,-0.02 -0.54,-0.03 -0.79,-0.03 -0.24,0 -0.69,0.02 -0.9,0.03 l 0,-0.47 c 0.02,0 0.47,0 0.47,-0.12 0,-0.01 -0.04,-0.11 -0.05,-0.12 l -1.15,-2.45 -1.27,2.69 0.54,0 0,0.47 c -0.33,-0.02 -1.22,-0.03 -1.23,-0.03 -0.28,0 -0.73,0.02 -1.14,0.03 l 0,-0.47 0.64,0 1.86,-3.96 -0.23,-0.48 c -0.22,-0.47 -0.53,-1.15 -1.24,-1.15 -0.14,0 -0.16,0.01 -0.24,0.04 0.09,0.04 0.32,0.18 0.32,0.53 0,0.32 -0.24,0.56 -0.58,0.56 -0.28,0 -0.57,-0.18 -0.57,-0.57 0,-0.51 0.47,-0.92 1.07,-0.92 0.77,0 1.34,0.62 1.61,1.19 z"
         inkscape:connector-curvature="0"
         style="fill:#000000;stroke-width:0" /><path
         id="path4723"
         d="m 230.33,476.18 0,-0.01 -0.01,-0.01 0,-0.01 0,-0.01 -0.01,-0.01 0,-0.01 0,-0.01 0,-0.01 -0.01,-0.02 -0.01,-0.03 0,-0.02 -0.01,-0.02 0,-0.01 0,-0.01 0,-0.01 -0.01,-0.01 0,-0.01 0,-0.01 0,-0.01 0,-0.01 -0.01,0 0,-0.01 0,-0.01 0,0 0,-0.01 0,0 0,0 0,0 0,-0.01 0,0 c 0,-0.15 0.12,-0.22 0.24,-0.22 0.12,0 0.23,0.09 0.27,0.15 0.03,0.07 0.09,0.29 0.12,0.44 0.04,0.13 0.12,0.45 0.16,0.62 0.04,0.16 0.08,0.31 0.11,0.47 0.08,0.29 0.1,0.34 0.3,0.63 0.19,0.28 0.52,0.64 1.04,0.64 0.41,0 0.42,-0.35 0.42,-0.49 0,-0.42 -0.3,-1.19 -0.42,-1.48 -0.07,-0.2 -0.1,-0.26 -0.1,-0.38 0,-0.37 0.31,-0.6 0.66,-0.6 0.7,0 1.01,0.96 1.01,1.07 0,0.09 -0.09,0.09 -0.11,0.09 -0.1,0 -0.11,-0.04 -0.14,-0.12 -0.16,-0.56 -0.46,-0.84 -0.74,-0.84 -0.14,0 -0.17,0.09 -0.17,0.24 0,0.16 0.03,0.25 0.16,0.56 0.08,0.22 0.37,0.96 0.37,1.35 0,0.68 -0.54,0.8 -0.91,0.8 -0.58,0 -0.97,-0.36 -1.18,-0.64 -0.05,0.48 -0.46,0.64 -0.74,0.64 -0.3,0 -0.46,-0.22 -0.55,-0.38 -0.16,-0.26 -0.26,-0.66 -0.26,-0.69 0,-0.09 0.1,-0.09 0.12,-0.09 0.1,0 0.11,0.02 0.16,0.21 0.1,0.41 0.23,0.75 0.51,0.75 0.18,0 0.23,-0.15 0.23,-0.34 0,-0.13 -0.07,-0.39 -0.11,-0.58 -0.05,-0.19 -0.12,-0.47 -0.16,-0.63 z"
         inkscape:connector-curvature="0"
         style="fill:#000000;stroke-width:0" /></g><g
       id="g4924"
       transform="matrix(1.3,0,0,1.3,-78.267481,-18.873922)"
       xml:space="preserve"
       stroke-miterlimit="10.433"
       font-style="normal"
       font-variant="normal"
       font-weight="normal"
       font-stretch="normal"
       font-size-adjust="none"
       letter-spacing="normal"
       word-spacing="normal"
       ns0:text="${\\bf y}_0$"
       ns0:preamble="/home/dabi/VC-Projects/Presentations/TransportMaps/2016 - SIAM CSE Atlanta/Presentation/Figures/working/inkscape-preamble.tex"
       style="font-style:normal;font-variant:normal;font-weight:normal;font-stretch:normal;letter-spacing:normal;word-spacing:normal;text-anchor:start;fill:none;fill-opacity:1;fill-rule:evenodd;stroke:#000000;stroke-linecap:butt;stroke-linejoin:miter;stroke-miterlimit:10.43299961;stroke-dasharray:none;stroke-dashoffset:0;stroke-opacity:1"><path
         style="fill:#000000;stroke-width:0"
         inkscape:connector-curvature="0"
         d="m 228.47,480.98 0.02,0.02 0.01,0.03 0.01,0.01 0,0.01 0.01,0.01 0.01,0.01 0.01,0.01 0.01,0.01 0.01,0.01 0.01,0.01 0.01,0 0.02,0.01 0.01,0.01 0.02,0.01 0.02,0 0.02,0.01 0.02,0 0.03,0.01 0.02,0 0.02,0.01 0.01,0 0.02,0 0.01,0 0.02,0 0.02,0 0.01,0.01 0.02,0 0.02,0 0.02,0 0.02,0 0.02,0 0.03,0 0.02,0 0.02,0.01 0.03,0 0.02,0 0.03,0 0.03,0 0.02,0 0.03,0 0.03,0 0,0.47 c -0.24,-0.02 -0.54,-0.03 -0.79,-0.03 -0.24,0 -0.69,0.02 -0.9,0.03 l 0,-0.47 c 0.02,0 0.47,0 0.47,-0.12 0,-0.01 -0.04,-0.11 -0.05,-0.12 l -1.15,-2.45 -1.27,2.69 0.54,0 0,0.47 c -0.33,-0.02 -1.22,-0.03 -1.23,-0.03 -0.28,0 -0.73,0.02 -1.14,0.03 l 0,-0.47 0.64,0 1.86,-3.96 -0.23,-0.48 c -0.22,-0.47 -0.53,-1.15 -1.24,-1.15 -0.14,0 -0.16,0.01 -0.24,0.04 0.09,0.04 0.32,0.18 0.32,0.53 0,0.32 -0.24,0.56 -0.58,0.56 -0.28,0 -0.57,-0.18 -0.57,-0.57 0,-0.51 0.47,-0.92 1.07,-0.92 0.77,0 1.34,0.62 1.61,1.19 z"
         id="path4926" /><path
         style="fill:#000000;stroke-width:0"
         inkscape:connector-curvature="0"
         d="m 233.08,477.96 -0.01,0.15 0,0.13 0,0.13 -0.01,0.13 -0.01,0.13 -0.02,0.11 -0.02,0.12 -0.02,0.11 -0.02,0.11 -0.03,0.11 -0.04,0.1 -0.04,0.1 -0.04,0.1 -0.05,0.09 -0.05,0.1 -0.03,0.05 -0.03,0.04 c -0.21,0.32 -0.64,0.6 -1.2,0.6 -1.62,0 -1.62,-1.9 -1.62,-2.41 0,-0.5 0,-2.36 1.62,-2.36 l 0,0.2 c -0.32,0 -0.75,0.18 -0.89,0.76 -0.09,0.41 -0.09,0.98 -0.09,1.49 0,0.51 0,1.04 0.1,1.43 0.15,0.55 0.59,0.69 0.88,0.69 0.38,0 0.74,-0.22 0.86,-0.63 0.11,-0.38 0.12,-0.88 0.12,-1.49 0,-0.51 0,-1.03 -0.09,-1.47 -0.14,-0.63 -0.61,-0.78 -0.89,-0.78 l 0,0 0,-0.2 c 1.62,0 1.62,1.86 1.62,2.36 z"
         id="path4928" /></g><g
       style="font-style:normal;font-variant:normal;font-weight:normal;font-stretch:normal;letter-spacing:normal;word-spacing:normal;text-anchor:start;fill:none;fill-opacity:1;fill-rule:evenodd;stroke:#000000;stroke-linecap:butt;stroke-linejoin:miter;stroke-miterlimit:10.43299961;stroke-dasharray:none;stroke-dashoffset:0;stroke-opacity:1"
       ns0:preamble="/home/dabi/VC-Projects/Presentations/TransportMaps/2016 - SIAM CSE Atlanta/Presentation/Figures/working/inkscape-preamble.tex"
       ns0:text="${\\bf y}_1$"
       word-spacing="normal"
       letter-spacing="normal"
       font-size-adjust="none"
       font-stretch="normal"
       font-weight="normal"
       font-variant="normal"
       font-style="normal"
       stroke-miterlimit="10.433"
       xml:space="preserve"
       transform="matrix(1.3,0,0,1.3,-34.663562,-18.280672)"
       id="g5129"><path
         id="path5131"
         d="m 228.47,480.98 0.02,0.02 0.01,0.03 0.01,0.01 0,0.01 0.01,0.01 0.01,0.01 0.01,0.01 0.01,0.01 0.01,0.01 0.01,0.01 0.01,0 0.02,0.01 0.01,0.01 0.02,0.01 0.02,0 0.02,0.01 0.02,0 0.03,0.01 0.02,0 0.02,0.01 0.01,0 0.02,0 0.01,0 0.02,0 0.02,0 0.01,0.01 0.02,0 0.02,0 0.02,0 0.02,0 0.02,0 0.03,0 0.02,0 0.02,0.01 0.03,0 0.02,0 0.03,0 0.03,0 0.02,0 0.03,0 0.03,0 0,0.47 c -0.24,-0.02 -0.54,-0.03 -0.79,-0.03 -0.24,0 -0.69,0.02 -0.9,0.03 l 0,-0.47 c 0.02,0 0.47,0 0.47,-0.12 0,-0.01 -0.04,-0.11 -0.05,-0.12 l -1.15,-2.45 -1.27,2.69 0.54,0 0,0.47 c -0.33,-0.02 -1.22,-0.03 -1.23,-0.03 -0.28,0 -0.73,0.02 -1.14,0.03 l 0,-0.47 0.64,0 1.86,-3.96 -0.23,-0.48 c -0.22,-0.47 -0.53,-1.15 -1.24,-1.15 -0.14,0 -0.16,0.01 -0.24,0.04 0.09,0.04 0.32,0.18 0.32,0.53 0,0.32 -0.24,0.56 -0.58,0.56 -0.28,0 -0.57,-0.18 -0.57,-0.57 0,-0.51 0.47,-0.92 1.07,-0.92 0.77,0 1.34,0.62 1.61,1.19 z"
         inkscape:connector-curvature="0"
         style="fill:#000000;stroke-width:0" /><path
         id="path5133"
         d="m 231.81,480.17 0,0.01 0,0.01 0,0.01 0,0.01 0,0.01 0,0 0,0.01 0,0.01 0,0 0,0.01 0,0.01 0,0 0,0.01 0,0 0,0.01 0,0.01 0,0 0,0.01 -0.01,0 0,0.01 0,0.01 0,0.01 -0.01,0 0,0.01 -0.01,0 0,0.01 -0.01,0 -0.01,0.01 0,0 -0.01,0 -0.01,0 -0.01,0.01 0,0 -0.01,0 -0.01,0 0,0 -0.01,0 0,0 -0.01,0 -0.01,0 0,0 -0.01,0 -0.01,0 0,0 -0.01,0 -0.01,0 -0.01,0 -0.01,0 -0.01,0 -0.01,0 c -0.44,-0.44 -1.08,-0.45 -1.36,-0.45 l 0,-0.25 c 0.16,0 0.63,0 1.01,0.2 l 0,-3.56 c 0,-0.23 0,-0.32 -0.7,-0.32 l -0.26,0 0,-0.25 c 0.12,0.01 0.98,0.03 1.24,0.03 0.21,0 1.09,-0.02 1.25,-0.03 l 0,0.25 -0.27,0 c -0.7,0 -0.7,0.09 -0.7,0.32 z"
         inkscape:connector-curvature="0"
         style="fill:#000000;stroke-width:0" /></g><g
       id="g5334"
       transform="matrix(1.3,0,0,1.3,9.2369815,-18.280671)"
       xml:space="preserve"
       stroke-miterlimit="10.433"
       font-style="normal"
       font-variant="normal"
       font-weight="normal"
       font-stretch="normal"
       font-size-adjust="none"
       letter-spacing="normal"
       word-spacing="normal"
       ns0:text="${\\bf y}_2$"
       ns0:preamble="/home/dabi/VC-Projects/Presentations/TransportMaps/2016 - SIAM CSE Atlanta/Presentation/Figures/working/inkscape-preamble.tex"
       style="font-style:normal;font-variant:normal;font-weight:normal;font-stretch:normal;letter-spacing:normal;word-spacing:normal;text-anchor:start;fill:none;fill-opacity:1;fill-rule:evenodd;stroke:#000000;stroke-linecap:butt;stroke-linejoin:miter;stroke-miterlimit:10.43299961;stroke-dasharray:none;stroke-dashoffset:0;stroke-opacity:1"><path
         style="fill:#000000;stroke-width:0"
         inkscape:connector-curvature="0"
         d="m 228.47,480.98 0.02,0.02 0.01,0.03 0.01,0.01 0,0.01 0.01,0.01 0.01,0.01 0.01,0.01 0.01,0.01 0.01,0.01 0.01,0.01 0.01,0 0.02,0.01 0.01,0.01 0.02,0.01 0.02,0 0.02,0.01 0.02,0 0.03,0.01 0.02,0 0.02,0.01 0.01,0 0.02,0 0.01,0 0.02,0 0.02,0 0.01,0.01 0.02,0 0.02,0 0.02,0 0.02,0 0.02,0 0.03,0 0.02,0 0.02,0.01 0.03,0 0.02,0 0.03,0 0.03,0 0.02,0 0.03,0 0.03,0 0,0.47 c -0.24,-0.02 -0.54,-0.03 -0.79,-0.03 -0.24,0 -0.69,0.02 -0.9,0.03 l 0,-0.47 c 0.02,0 0.47,0 0.47,-0.12 0,-0.01 -0.04,-0.11 -0.05,-0.12 l -1.15,-2.45 -1.27,2.69 0.54,0 0,0.47 c -0.33,-0.02 -1.22,-0.03 -1.23,-0.03 -0.28,0 -0.73,0.02 -1.14,0.03 l 0,-0.47 0.64,0 1.86,-3.96 -0.23,-0.48 c -0.22,-0.47 -0.53,-1.15 -1.24,-1.15 -0.14,0 -0.16,0.01 -0.24,0.04 0.09,0.04 0.32,0.18 0.32,0.53 0,0.32 -0.24,0.56 -0.58,0.56 -0.28,0 -0.57,-0.18 -0.57,-0.57 0,-0.51 0.47,-0.92 1.07,-0.92 0.77,0 1.34,0.62 1.61,1.19 z"
         id="path5336" /><path
         style="fill:#000000;stroke-width:0"
         inkscape:connector-curvature="0"
         d="m 233,477.01 -0.24,0 c -0.02,-0.15 -0.09,-0.57 -0.18,-0.63 -0.06,-0.05 -0.59,-0.05 -0.69,-0.05 l -1.28,0 c 0.73,0.65 0.97,0.85 1.39,1.17 0.52,0.42 1,0.85 1,1.51 0,0.85 -0.74,1.36 -1.63,1.36 -0.87,0 -1.45,-0.61 -1.45,-1.25 0,-0.35 0.3,-0.39 0.37,-0.39 0.16,0 0.37,0.12 0.37,0.37 0,0.13 -0.05,0.37 -0.42,0.37 0.22,0.5 0.69,0.65 1.02,0.65 0.7,0 1.06,-0.54 1.06,-1.11 0,-0.61 -0.43,-1.09 -0.65,-1.34 l -1.68,-1.66 c -0.07,-0.06 -0.07,-0.08 -0.07,-0.27 l 2.87,0 z"
         id="path5338" /></g><g
       style="font-style:normal;font-variant:normal;font-weight:normal;font-stretch:normal;letter-spacing:normal;word-spacing:normal;text-anchor:start;fill:none;fill-opacity:1;fill-rule:evenodd;stroke:#000000;stroke-linecap:butt;stroke-linejoin:miter;stroke-miterlimit:10.43299961;stroke-dasharray:none;stroke-dashoffset:0;stroke-opacity:1"
       ns0:preamble="/home/dabi/VC-Projects/Presentations/TransportMaps/2016 - SIAM CSE Atlanta/Presentation/Figures/working/inkscape-preamble.tex"
       ns0:text="${\\bf y}_3$"
       word-spacing="normal"
       letter-spacing="normal"
       font-size-adjust="none"
       font-stretch="normal"
       font-weight="normal"
       font-variant="normal"
       font-style="normal"
       stroke-miterlimit="10.433"
       xml:space="preserve"
       transform="matrix(1.3,0,0,1.3,53.137525,-18.873922)"
       id="g5539"><path
         id="path5541"
         d="m 228.47,480.98 0.02,0.02 0.01,0.03 0.01,0.01 0,0.01 0.01,0.01 0.01,0.01 0.01,0.01 0.01,0.01 0.01,0.01 0.01,0.01 0.01,0 0.02,0.01 0.01,0.01 0.02,0.01 0.02,0 0.02,0.01 0.02,0 0.03,0.01 0.02,0 0.02,0.01 0.01,0 0.02,0 0.01,0 0.02,0 0.02,0 0.01,0.01 0.02,0 0.02,0 0.02,0 0.02,0 0.02,0 0.03,0 0.02,0 0.02,0.01 0.03,0 0.02,0 0.03,0 0.03,0 0.02,0 0.03,0 0.03,0 0,0.47 c -0.24,-0.02 -0.54,-0.03 -0.79,-0.03 -0.24,0 -0.69,0.02 -0.9,0.03 l 0,-0.47 c 0.02,0 0.47,0 0.47,-0.12 0,-0.01 -0.04,-0.11 -0.05,-0.12 l -1.15,-2.45 -1.27,2.69 0.54,0 0,0.47 c -0.33,-0.02 -1.22,-0.03 -1.23,-0.03 -0.28,0 -0.73,0.02 -1.14,0.03 l 0,-0.47 0.64,0 1.86,-3.96 -0.23,-0.48 c -0.22,-0.47 -0.53,-1.15 -1.24,-1.15 -0.14,0 -0.16,0.01 -0.24,0.04 0.09,0.04 0.32,0.18 0.32,0.53 0,0.32 -0.24,0.56 -0.58,0.56 -0.28,0 -0.57,-0.18 -0.57,-0.57 0,-0.51 0.47,-0.92 1.07,-0.92 0.77,0 1.34,0.62 1.61,1.19 z"
         inkscape:connector-curvature="0"
         style="fill:#000000;stroke-width:0" /><path
         id="path5543"
         d="m 231.38,478.07 0.05,0 0.05,-0.01 0.05,0 0.05,-0.01 0.04,-0.01 0.05,-0.01 0.04,-0.01 0.05,-0.02 0.04,-0.02 0.04,-0.02 0.04,-0.02 0.04,-0.03 0.03,-0.03 0.04,-0.03 0.03,-0.03 0.03,-0.03 0.03,-0.04 0.03,-0.04 0.03,-0.04 0.02,-0.04 0.03,-0.05 0.02,-0.04 0.02,-0.05 0.02,-0.05 0.01,-0.06 0.02,-0.05 0.01,-0.06 0.01,-0.06 0.01,-0.06 0,-0.07 0,-0.06 0.01,-0.07 c 0,-0.87 -0.51,-1.13 -0.91,-1.13 -0.28,0 -0.89,0.08 -1.19,0.49 0.33,0.02 0.41,0.25 0.41,0.39 0,0.23 -0.17,0.39 -0.39,0.39 -0.19,0 -0.39,-0.12 -0.39,-0.41 0,-0.65 0.73,-1.08 1.57,-1.08 0.97,0 1.64,0.65 1.64,1.35 0,0.54 -0.44,1.08 -1.21,1.25 0.73,0.26 1,0.78 1,1.21 0,0.55 -0.64,0.96 -1.41,0.96 -0.78,0 -1.37,-0.38 -1.37,-0.93 0,-0.24 0.15,-0.37 0.36,-0.37 0.22,0 0.36,0.16 0.36,0.35 0,0.2 -0.14,0.35 -0.36,0.37 0.25,0.3 0.73,0.38 0.99,0.38 0.31,0 0.75,-0.15 0.75,-0.76 0,-0.3 -0.1,-0.61 -0.28,-0.83 -0.23,-0.27 -0.43,-0.28 -0.77,-0.3 -0.18,-0.01 -0.19,-0.01 -0.23,-0.02 -0.01,0 -0.07,-0.02 -0.07,-0.09 0,-0.1 0.07,-0.1 0.19,-0.1 z"
         inkscape:connector-curvature="0"
         style="fill:#000000;stroke-width:0" /></g><g
       id="g5744"
       transform="matrix(1.3,0,0,1.3,-35.256813,23.84012)"
       xml:space="preserve"
       stroke="black"
       stroke-linecap="butt"
       stroke-linejoin="miter"
       stroke-miterlimit="10.433"
       stroke-dasharray="none"
       stroke-dashoffset="0"
       stroke-opacity="1"
       fill="none"
       fill-rule="evenodd"
       fill-opacity="1"
       font-style="normal"
       font-variant="normal"
       font-weight="normal"
       font-stretch="normal"
       font-size-adjust="none"
       letter-spacing="normal"
       word-spacing="normal"
       text-anchor="start"
       ns0:text="${\\bf Z}_1$"
       ns0:preamble="/home/dabi/VC-Projects/Presentations/TransportMaps/2016 - SIAM CSE Atlanta/Presentation/Figures/working/inkscape-preamble.tex"
       style="font-style:normal;font-variant:normal;font-weight:normal;font-stretch:normal;letter-spacing:normal;word-spacing:normal;text-anchor:start;fill:none;fill-opacity:1;fill-rule:evenodd;stroke:#000000;stroke-linecap:butt;stroke-linejoin:miter;stroke-miterlimit:10.43299961;stroke-dasharray:none;stroke-dashoffset:0;stroke-opacity:1"><path
         d="M229.71,483.58 L229.71,483.58 L229.72,483.59 L229.72,483.6 L229.73,483.61 L229.74,483.62 L229.74,483.63 L229.75,483.64 L229.75,483.64 L229.76,483.65 L229.76,483.66 L229.76,483.67 L229.77,483.67 L229.77,483.68 L229.77,483.68 L229.77,483.69 L229.78,483.7 L229.78,483.7 L229.78,483.71 L229.78,483.71 L229.78,483.72 L229.78,483.73 L229.79,483.73 L229.79,483.74 L229.79,483.74 L229.79,483.75 L229.79,483.76 L229.79,483.77 L229.79,483.77 L229.79,483.78 L229.79,483.79 L229.79,483.8 L229.79,483.81 L229.79,483.82 C229.79,484.07,229.68,484.07,229.47,484.07 H224.35 L224.23,481.67 H224.7 C224.78,482.99,225.45,483.6,226.84,483.6 H228.13 L224.15,477.75 C224.07,477.63,224.07,477.6,224.07,477.49 C224.07,477.23,224.17,477.23,224.39,477.23 H229.68 L229.86,480.06 H229.39 C229.31,478.96,229.17,477.74,227.13,477.74 H225.73 Z "
         stroke-width="0"
         fill="black"
         id="path5746" /><path
         d="M232.77,480.17 L232.77,480.18 L232.77,480.19 L232.77,480.2 L232.77,480.21 L232.77,480.22 L232.77,480.22 L232.77,480.23 L232.77,480.24 L232.77,480.24 L232.77,480.25 L232.77,480.26 L232.77,480.26 L232.77,480.27 L232.77,480.27 L232.77,480.28 L232.77,480.29 L232.77,480.29 L232.77,480.3 L232.76,480.3 L232.76,480.31 L232.76,480.32 L232.76,480.33 L232.75,480.33 L232.75,480.34 L232.74,480.34 L232.74,480.35 L232.73,480.35 L232.72,480.36 L232.72,480.36 L232.71,480.36 L232.7,480.36 L232.69,480.37 L232.69,480.37 L232.68,480.37 L232.67,480.37 L232.67,480.37 L232.66,480.37 L232.66,480.37 L232.65,480.37 L232.64,480.37 L232.64,480.37 L232.63,480.37 L232.62,480.37 L232.62,480.37 L232.61,480.37 L232.6,480.37 L232.59,480.37 L232.58,480.37 L232.57,480.37 L232.57,480.37 C232.12,479.93,231.48,479.92,231.2,479.92 V479.67 C231.37,479.67,231.82,479.67,232.21,479.87 V476.31 C232.21,476.08,232.21,475.99,231.51,475.99 H231.25 V475.74 C231.37,475.75,232.23,475.77,232.49,475.77 C232.7,475.77,233.58,475.75,233.74,475.74 V475.99 H233.47 C232.77,475.99,232.77,476.08,232.77,476.31 Z "
         stroke-width="0"
         fill="black"
         id="path5748" /></g><g
       style="font-style:normal;font-variant:normal;font-weight:normal;font-stretch:normal;letter-spacing:normal;word-spacing:normal;text-anchor:start;fill:none;fill-opacity:1;fill-rule:evenodd;stroke:#000000;stroke-linecap:butt;stroke-linejoin:miter;stroke-miterlimit:10.43299961;stroke-dasharray:none;stroke-dashoffset:0;stroke-opacity:1"
       ns0:preamble="/home/dabi/VC-Projects/Presentations/TransportMaps/2016 - SIAM CSE Atlanta/Presentation/Figures/working/inkscape-preamble.tex"
       ns0:text="${\\bf Z}_2$"
       text-anchor="start"
       word-spacing="normal"
       letter-spacing="normal"
       font-size-adjust="none"
       font-stretch="normal"
       font-weight="normal"
       font-variant="normal"
       font-style="normal"
       fill-opacity="1"
       fill-rule="evenodd"
       fill="none"
       stroke-opacity="1"
       stroke-dashoffset="0"
       stroke-dasharray="none"
       stroke-miterlimit="10.433"
       stroke-linejoin="miter"
       stroke-linecap="butt"
       stroke="black"
       xml:space="preserve"
       transform="matrix(1.3,0,0,1.3,8.6437308,23.840121)"
       id="g5949"><path
         id="path5951"
         fill="black"
         stroke-width="0"
         d="M229.71,483.58 L229.71,483.58 L229.72,483.59 L229.72,483.6 L229.73,483.61 L229.74,483.62 L229.74,483.63 L229.75,483.64 L229.75,483.64 L229.76,483.65 L229.76,483.66 L229.76,483.67 L229.77,483.67 L229.77,483.68 L229.77,483.68 L229.77,483.69 L229.78,483.7 L229.78,483.7 L229.78,483.71 L229.78,483.71 L229.78,483.72 L229.78,483.73 L229.79,483.73 L229.79,483.74 L229.79,483.74 L229.79,483.75 L229.79,483.76 L229.79,483.77 L229.79,483.77 L229.79,483.78 L229.79,483.79 L229.79,483.8 L229.79,483.81 L229.79,483.82 C229.79,484.07,229.68,484.07,229.47,484.07 H224.35 L224.23,481.67 H224.7 C224.78,482.99,225.45,483.6,226.84,483.6 H228.13 L224.15,477.75 C224.07,477.63,224.07,477.6,224.07,477.49 C224.07,477.23,224.17,477.23,224.39,477.23 H229.68 L229.86,480.06 H229.39 C229.31,478.96,229.17,477.74,227.13,477.74 H225.73 Z " /><path
         id="path5953"
         fill="black"
         stroke-width="0"
         d="M233.96,477.01 H233.72 C233.7,476.86,233.63,476.44,233.54,476.38 C233.49,476.33,232.95,476.33,232.85,476.33 H231.57 C232.3,476.98,232.54,477.18,232.96,477.5 C233.48,477.92,233.96,478.35,233.96,479.01 C233.96,479.86,233.22,480.37,232.33,480.37 C231.46,480.37,230.88,479.76,230.88,479.12 C230.88,478.77,231.18,478.73,231.25,478.73 C231.41,478.73,231.62,478.85,231.62,479.1 C231.62,479.23,231.57,479.47,231.21,479.47 C231.42,479.97,231.9,480.12,232.22,480.12 C232.92,480.12,233.28,479.58,233.28,479.01 C233.28,478.4,232.85,477.92,232.63,477.67 L230.95,476.01 C230.88,475.95,230.88,475.93,230.88,475.74 H233.75 Z " /></g><g
       id="g6154"
       transform="matrix(1.3,0,0,1.3,51.654399,23.543496)"
       xml:space="preserve"
       stroke="black"
       stroke-linecap="butt"
       stroke-linejoin="miter"
       stroke-miterlimit="10.433"
       stroke-dasharray="none"
       stroke-dashoffset="0"
       stroke-opacity="1"
       fill="none"
       fill-rule="evenodd"
       fill-opacity="1"
       font-style="normal"
       font-variant="normal"
       font-weight="normal"
       font-stretch="normal"
       font-size-adjust="none"
       letter-spacing="normal"
       word-spacing="normal"
       text-anchor="start"
       ns0:text="${\\bf Z}_3$"
       ns0:preamble="/home/dabi/VC-Projects/Presentations/TransportMaps/2016 - SIAM CSE Atlanta/Presentation/Figures/working/inkscape-preamble.tex"
       style="font-style:normal;font-variant:normal;font-weight:normal;font-stretch:normal;letter-spacing:normal;word-spacing:normal;text-anchor:start;fill:none;fill-opacity:1;fill-rule:evenodd;stroke:#000000;stroke-linecap:butt;stroke-linejoin:miter;stroke-miterlimit:10.43299961;stroke-dasharray:none;stroke-dashoffset:0;stroke-opacity:1"><path
         d="M229.71,483.58 L229.71,483.58 L229.72,483.59 L229.72,483.6 L229.73,483.61 L229.74,483.62 L229.74,483.63 L229.75,483.64 L229.75,483.64 L229.76,483.65 L229.76,483.66 L229.76,483.67 L229.77,483.67 L229.77,483.68 L229.77,483.68 L229.77,483.69 L229.78,483.7 L229.78,483.7 L229.78,483.71 L229.78,483.71 L229.78,483.72 L229.78,483.73 L229.79,483.73 L229.79,483.74 L229.79,483.74 L229.79,483.75 L229.79,483.76 L229.79,483.77 L229.79,483.77 L229.79,483.78 L229.79,483.79 L229.79,483.8 L229.79,483.81 L229.79,483.82 C229.79,484.07,229.68,484.07,229.47,484.07 H224.35 L224.23,481.67 H224.7 C224.78,482.99,225.45,483.6,226.84,483.6 H228.13 L224.15,477.75 C224.07,477.63,224.07,477.6,224.07,477.49 C224.07,477.23,224.17,477.23,224.39,477.23 H229.68 L229.86,480.06 H229.39 C229.31,478.96,229.17,477.74,227.13,477.74 H225.73 Z "
         stroke-width="0"
         fill="black"
         id="path6156" /><path
         d="M232.34,478.07 L232.39,478.07 L232.44,478.06 L232.49,478.06 L232.54,478.05 L232.58,478.04 L232.63,478.03 L232.67,478.02 L232.72,478 L232.76,477.98 L232.8,477.96 L232.84,477.94 L232.88,477.91 L232.91,477.88 L232.95,477.85 L232.98,477.82 L233.01,477.79 L233.04,477.75 L233.07,477.71 L233.1,477.67 L233.12,477.63 L233.15,477.58 L233.17,477.54 L233.19,477.49 L233.21,477.44 L233.22,477.38 L233.24,477.33 L233.25,477.27 L233.26,477.21 L233.27,477.15 L233.27,477.08 L233.27,477.02 L233.28,476.95 C233.28,476.08,232.77,475.82,232.37,475.82 C232.09,475.82,231.48,475.9,231.18,476.31 C231.51,476.33,231.59,476.56,231.59,476.7 C231.59,476.93,231.42,477.09,231.21,477.09 C231.01,477.09,230.81,476.97,230.81,476.68 C230.81,476.03,231.54,475.6,232.38,475.6 C233.35,475.6,234.02,476.25,234.02,476.95 C234.02,477.49,233.58,478.03,232.81,478.2 C233.54,478.46,233.81,478.98,233.81,479.41 C233.81,479.96,233.17,480.37,232.4,480.37 C231.62,480.37,231.03,479.99,231.03,479.44 C231.03,479.2,231.18,479.07,231.39,479.07 C231.61,479.07,231.75,479.23,231.75,479.42 C231.75,479.62,231.61,479.77,231.39,479.79 C231.64,480.09,232.12,480.17,232.38,480.17 C232.69,480.17,233.13,480.02,233.13,479.41 C233.13,479.11,233.03,478.8,232.85,478.58 C232.62,478.31,232.43,478.3,232.08,478.28 C231.9,478.27,231.89,478.27,231.85,478.26 C231.84,478.26,231.78,478.24,231.78,478.17 C231.78,478.07,231.85,478.07,231.96,478.07 Z "
         stroke-width="0"
         fill="black"
         id="path6158" /></g><g
       style="font-style:normal;font-variant:normal;font-weight:normal;font-stretch:normal;letter-spacing:normal;word-spacing:normal;text-anchor:start;fill:none;fill-opacity:1;fill-rule:evenodd;stroke:#000000;stroke-linecap:butt;stroke-linejoin:miter;stroke-miterlimit:10.43299961;stroke-dasharray:none;stroke-dashoffset:0;stroke-opacity:1"
       ns0:preamble="/home/dabi/VC-Projects/Presentations/TransportMaps/2016 - SIAM CSE Atlanta/Presentation/Figures/working/inkscape-preamble.tex"
       ns0:text="${\\bf Z}_n$"
       text-anchor="start"
       word-spacing="normal"
       letter-spacing="normal"
       font-size-adjust="none"
       font-stretch="normal"
       font-weight="normal"
       font-variant="normal"
       font-style="normal"
       fill-opacity="1"
       fill-rule="evenodd"
       fill="none"
       stroke-opacity="1"
       stroke-dashoffset="0"
       stroke-dasharray="none"
       stroke-miterlimit="10.433"
       stroke-linejoin="miter"
       stroke-linecap="butt"
       stroke="black"
       xml:space="preserve"
       transform="matrix(1.3,0,0,1.3,95.554943,22.950245)"
       id="g6359"><path
         id="path6361"
         fill="black"
         stroke-width="0"
         d="M229.71,483.58 L229.71,483.58 L229.72,483.59 L229.72,483.6 L229.73,483.61 L229.74,483.62 L229.74,483.63 L229.75,483.64 L229.75,483.64 L229.76,483.65 L229.76,483.66 L229.76,483.67 L229.77,483.67 L229.77,483.68 L229.77,483.68 L229.77,483.69 L229.78,483.7 L229.78,483.7 L229.78,483.71 L229.78,483.71 L229.78,483.72 L229.78,483.73 L229.79,483.73 L229.79,483.74 L229.79,483.74 L229.79,483.75 L229.79,483.76 L229.79,483.77 L229.79,483.77 L229.79,483.78 L229.79,483.79 L229.79,483.8 L229.79,483.81 L229.79,483.82 C229.79,484.07,229.68,484.07,229.47,484.07 H224.35 L224.23,481.67 H224.7 C224.78,482.99,225.45,483.6,226.84,483.6 H228.13 L224.15,477.75 C224.07,477.63,224.07,477.6,224.07,477.49 C224.07,477.23,224.17,477.23,224.39,477.23 H229.68 L229.86,480.06 H229.39 C229.31,478.96,229.17,477.74,227.13,477.74 H225.73 Z " /><path
         id="path6363"
         fill="black"
         stroke-width="0"
         d="M231.29,476.18 L231.29,476.17 L231.28,476.16 L231.28,476.15 L231.28,476.14 L231.27,476.13 L231.27,476.12 L231.27,476.11 L231.27,476.1 L231.26,476.08 L231.25,476.05 L231.25,476.03 L231.24,476.01 L231.24,476 L231.24,475.99 L231.24,475.98 L231.23,475.97 L231.23,475.96 L231.23,475.95 L231.23,475.94 L231.23,475.93 L231.22,475.93 L231.22,475.92 L231.22,475.91 L231.22,475.91 L231.22,475.9 L231.22,475.9 L231.22,475.9 L231.22,475.9 L231.22,475.89 L231.22,475.89 C231.22,475.74,231.34,475.67,231.46,475.67 C231.58,475.67,231.69,475.76,231.73,475.82 C231.76,475.89,231.82,476.11,231.85,476.26 C231.89,476.39,231.96,476.71,232.01,476.88 C232.05,477.04,232.09,477.19,232.12,477.35 C232.2,477.64,232.22,477.69,232.42,477.98 C232.61,478.26,232.94,478.62,233.46,478.62 C233.87,478.62,233.88,478.27,233.88,478.13 C233.88,477.71,233.58,476.94,233.46,476.65 C233.39,476.45,233.36,476.39,233.36,476.27 C233.36,475.9,233.67,475.67,234.02,475.67 C234.72,475.67,235.03,476.63,235.03,476.74 C235.03,476.83,234.94,476.83,234.91,476.83 C234.82,476.83,234.81,476.79,234.78,476.71 C234.62,476.15,234.32,475.87,234.04,475.87 C233.9,475.87,233.87,475.96,233.87,476.11 C233.87,476.27,233.9,476.36,234.03,476.67 C234.11,476.89,234.4,477.63,234.4,478.02 C234.4,478.7,233.86,478.82,233.49,478.82 C232.91,478.82,232.52,478.46,232.31,478.18 C232.26,478.66,231.85,478.82,231.57,478.82 C231.27,478.82,231.11,478.6,231.02,478.44 C230.86,478.18,230.76,477.78,230.76,477.75 C230.76,477.66,230.86,477.66,230.88,477.66 C230.98,477.66,230.99,477.68,231.04,477.87 C231.14,478.28,231.27,478.62,231.55,478.62 C231.73,478.62,231.78,478.47,231.78,478.28 C231.78,478.15,231.71,477.89,231.66,477.7 C231.62,477.51,231.55,477.23,231.51,477.07 Z " /></g></g></svg>