<svg xmlns="http://www.w3.org/2000/svg" xmlns:xlink="http://www.w3.org/1999/xlink" width="0" height="0" style="position:absolute">
	
		<symbol id="check" viewBox="0 0 1792 1792">
			<path d="M1671 566q0 40-28 68l-724 724-136 136q-28 28-68 28t-68-28l-136-136-362-362q-28-28-28-68t28-68l136-136q28-28 68-28t68 28l294 295 656-657q28-28 68-28t68 28l136 136q28 28 28 68z"></path>
		</symbol>
	
		<symbol id="chevron-left" viewBox="0 0 1792 1792">
			<path d="M1427 301L896 832l531 531q19 19 19 45t-19 45l-166 166q-19 19-45 19t-45-19L429 877q-19-19-19-45t19-45l742-742q19-19 45-19t45 19l166 166q19 19 19 45t-19 45z"></path>
		</symbol>
	
		<symbol id="chevron-right" viewBox="0 0 1792 1792">
			<path d="M1363 877l-742 742q-19 19-45 19t-45-19l-166-166q-19-19-19-45t19-45l531-531-531-531q-19-19-19-45t19-45L531 45q19-19 45-19t45 19l742 742q19 19 19 45t-19 45z"></path>
		</symbol>
	
		<symbol id="circle" viewBox="0 0 80 80">
			<circle cx="40" cy="40" r="40"></circle>
		</symbol>
	
		<symbol id="close" viewBox="0 0 1792 1792">
			<path d="M1490 1322q0 40-28 68l-136 136q-28 28-68 28t-68-28l-294-294-294 294q-28 28-68 28t-68-28l-136-136q-28-28-28-68t28-68l294-294-294-294q-28-28-28-68t28-68l136-136q28-28 68-28t68 28l294 294 294-294q28-28 68-28t68 28l136 136q28 28 28 68t-28 68l-294 294 294 294q28 28 28 68z"></path>
		</symbol>
	
		<symbol id="headphones" viewBox="0 0 1792 1792">
			<path d="M1728 886q0 166-60 314l-20 49-185 33q-22 83-90.5 136.5T1216 1472v32q0 14-9 23t-23 9h-64q-14 0-23-9t-9-23V928q0-14 9-23t23-9h64q14 0 23 9t9 23v32q71 0 130 35.5t93 95.5l68-12q29-95 29-193 0-148-88-279t-236.5-209T896 320t-315.5 78T344 607t-88 279q0 98 29 193l68 12q34-60 93-95.5T576 960v-32q0-14 9-23t23-9h64q14 0 23 9t9 23v576q0 14-9 23t-23 9h-64q-14 0-23-9t-9-23v-32q-88 0-156.5-53.5T329 1282l-185-33-20-49q-60-148-60-314 0-151 67-291t179-242.5T576 189t320-61 320 61 266 163.5T1661 595t67 291z"></path>
		</symbol>
	
		<symbol id="logo" viewBox="0 0 162.535 40.413">
			<path class="a" d="M15.671 19.707c-1.471-1.212-2.771-2.164-4.762-2.164A4.677 4.677 0 1 0 11 26.894c2.6 0 4.242-2.165 4.675-2.684v6.58a11.9 11.9 0 0 1-5.195 1.212 14.826 14.826 0 0 1-4.589-.779A9.551 9.551 0 0 1 0 22.132a9.623 9.623 0 0 1 .866-4.157 9.92 9.92 0 0 1 9.35-5.8 16.7 16.7 0 0 1 5.368 1.126M27.705 22.218l3.464-9.61h6.147L26.489 40.4H20.26l4.5-10.823-7.271-16.969h6.407M45.454 15.292a16.622 16.622 0 0 1 1.3-1.212 7.282 7.282 0 0 1 4.848-1.9 6.841 6.841 0 0 1 3.81 1.126c1.9 1.3 3.9 3.636 3.9 8.831 0 5.368-2.511 8.312-4.416 9.351a7.993 7.993 0 0 1-3.29.779 7.31 7.31 0 0 1-4.853-1.567c-.433-.346-.952-1.039-1.385-1.472v2.511H39.74V.4h5.8m1.385 25.8a4.043 4.043 0 0 0 2.338.779 3.6 3.6 0 0 0 3.55-2.684 7.822 7.822 0 0 0 .26-1.991 6.436 6.436 0 0 0-.26-2.251 3.9 3.9 0 0 0-3.636-2.684 3.571 3.571 0 0 0-1.385.26c-2.165.779-2.6 3.2-2.684 3.983a4.619 4.619 0 0 0 1.818 4.588M67.706 23.604c.173 1.558.433 2.6 1.991 3.29a5.671 5.671 0 0 0 1.991.433c1.818 0 2.684-.952 3.81-2.338l5.368 2.165c-1.472 1.991-3.29 5.021-9.005 5.021a9 9 0 0 1-6.234-2.078c-1.476-1.122-3.376-3.377-3.376-7.879 0-5.714 3.463-10.043 9.351-10.043a10.526 10.526 0 0 1 5.628 1.472 7.926 7.926 0 0 1 2.165 1.991 8.053 8.053 0 0 1 1.645 3.29 27.61 27.61 0 0 1 .433 4.675m-5.714-3.463a5.777 5.777 0 0 0-.606-1.558 4.033 4.033 0 0 0-3.463-1.818 3.647 3.647 0 0 0-3.2 1.558 5.119 5.119 0 0 0-.693 1.9zM90.735 12.781v3.117a8.124 8.124 0 0 1 .779-1.039c.173-.346 1.818-2.684 4.069-2.684a4.047 4.047 0 0 1 1.645.519l-.693 6.667a6.5 6.5 0 0 0-2.6-.779 2.509 2.509 0 0 0-1.818.606c-1.126 1.126-1.126 2.944-1.212 4.329v8.052h-5.97V12.781"></path><path fill="currentColor" d="M99.913.487h5.887v31.169h-5.887zM110.13 3.257a3.612 3.612 0 0 1 6.84 1.645 3.35 3.35 0 0 1-.26 1.385 3.687 3.687 0 0 1-3.377 2.338 3.162 3.162 0 0 1-1.558-.346 3.431 3.431 0 0 1-1.991-3.81c.087-.26.173-.693.346-1.212m6.147 28.4h-5.883V12.695h5.887zM127.013 12.954v2.165a6.919 6.919 0 0 1 1.126-1.126 7.142 7.142 0 0 1 4.156-1.385 6.2 6.2 0 0 1 5.541 3.2 9.494 9.494 0 0 1 .606 3.117v12.731h-5.974V20.747a5.4 5.4 0 0 0-.173-1.472 2.3 2.3 0 0 0-2.165-1.9 3.375 3.375 0 0 0-1.645.519c-1.3.866-1.385 1.991-1.472 3.55v10.3h-5.974v-18.79M148.918.573v18.961l5.368-6.84h7.185l-7.1 8.571 6.84 10.39h-7.273l-5.195-8.4v8.4h-5.972V.573"></path>
		</symbol>
	
		<symbol id="minus" viewBox="0 0 1792 1792">
			<path d="M1600 736v192q0 40-28 68t-68 28H288q-40 0-68-28t-28-68V736q0-40 28-68t68-28h1216q40 0 68 28t28 68z"></path>
		</symbol>
	
		<symbol id="phone" viewBox="0 0 1792 1792">
			<path d="M1600 1240q0 27-10 70.5t-21 68.5q-21 50-122 106-94 51-186 51-27 0-53-3.5t-57.5-12.5-47-14.5-55.5-20.5-49-18q-98-35-175-83-127-79-264-216T344 904q-48-77-83-175-3-9-18-49t-20.5-55.5-14.5-47-12.5-57.5-3.5-53q0-92 51-186 56-101 106-122 25-11 68.5-21t70.5-10q14 0 21 3 18 6 53 76 11 19 30 54t35 63.5 31 53.5q3 4 17.5 25t21.5 35.5 7 28.5q0 20-28.5 50t-62 55-62 53-28.5 46q0 9 5 22.5t8.5 20.5 14 24 11.5 19q76 137 174 235t235 174q2 1 19 11.5t24 14 20.5 8.5 22.5 5q18 0 46-28.5t53-62 55-62 50-28.5q14 0 28.5 7t35.5 21.5 25 17.5q25 15 53.5 31t63.5 35 54 30q70 35 76 53 3 7 3 21z"></path>
		</symbol>
	
		<symbol id="plus" viewBox="0 0 1792 1792">
			<path d="M1600 736v192q0 40-28 68t-68 28h-416v416q0 40-28 68t-68 28H800q-40 0-68-28t-28-68v-416H288q-40 0-68-28t-28-68V736q0-40 28-68t68-28h416V224q0-40 28-68t68-28h192q40 0 68 28t28 68v416h416q40 0 68 28t28 68z"></path>
		</symbol>
	
		<symbol id="twitter" viewBox="0 0 1792 1792">
			<path d="M1684 408q-67 98-162 167 1 14 1 42 0 130-38 259.5T1369.5 1125 1185 1335.5t-258 146-323 54.5q-271 0-496-145 35 4 78 4 225 0 401-138-105-2-188-64.5T285 1033q33 5 61 5 43 0 85-11-112-23-185.5-111.5T172 710v-4q68 38 146 41-66-44-105-115t-39-154q0-88 44-163 121 149 294.5 238.5T884 653q-8-38-8-74 0-134 94.5-228.5T1199 256q140 0 236 102 109-21 205-78-37 115-142 178 93-10 186-50z"></path>
		</symbol>
	
		<symbol id="user" viewBox="0 0 1792 1792">
			<path d="M1536 1399q0 109-62.5 187t-150.5 78H469q-88 0-150.5-78T256 1399q0-85 8.5-160.5t31.5-152 58.5-131 94-89T583 832q131 128 313 128t313-128q76 0 134.5 34.5t94 89 58.5 131 31.5 152 8.5 160.5zm-256-887q0 159-112.5 271.5T896 896 624.5 783.5 512 512t112.5-271.5T896 128t271.5 112.5T1280 512z"></path>
		</symbol>
	
		<symbol id="xing" viewBox="0 0 1792 1792">
			<path d="M789 667q-10 18-257 456-27 46-65 46H228q-21 0-31-17t0-36l253-448q1 0 0-1L289 388q-12-22-1-37 9-15 32-15h239q40 0 66 45zm806-642q11 16 0 37l-528 934v1l336 615q11 20 1 37-10 15-32 15h-239q-42 0-66-45L728 997q18-32 531-942 25-45 64-45h241q22 0 31 15z"></path>
		</symbol>
	
</svg>
