<svg class="icon" fill="currentColor" data-name="Layer 1" viewBox="0 0 100 125" x="0px" y="0px"><title>UI 2 Export</title><circle cx="50" cy="22.93" r="17.43"/><path d="M56.24,44.35H43.76A20.19,20.19,0,0,0,23.6,64.52V84.67a9.82,9.82,0,0,0,9.83,9.83H66.57a9.82,9.82,0,0,0,9.83-9.83V64.52A20.19,20.19,0,0,0,56.24,44.35Z"/><path d="M73.81,49.46a11.8,11.8,0,0,0,3.73.6A11.94,11.94,0,1,0,65.81,35.84a11.28,11.28,0,0,0-.22,2.27,11.93,11.93,0,0,0,8.22,11.35Z"/><path d="M77.54,52.8c-.44,0-.88,0-1.31,0A22.92,22.92,0,0,1,79.4,64.52V84.67a12.18,12.18,0,0,1-.25,2.5h7.66a8.82,8.82,0,0,0,8.82-8.83V70.89A18.1,18.1,0,0,0,77.54,52.8Z"/><path d="M22.46,26.17a11.95,11.95,0,0,0,0,23.89,11.8,11.8,0,0,0,3.73-.6,11.93,11.93,0,0,0,8.22-11.35,11.28,11.28,0,0,0-.22-2.27,11.95,11.95,0,0,0-11.73-9.67Z"/><path d="M20.6,64.52a22.92,22.92,0,0,1,3.17-11.67c-.43,0-.87,0-1.31,0A18.09,18.09,0,0,0,4.37,70.89v7.45a8.82,8.82,0,0,0,8.82,8.83h7.66a12.19,12.19,0,0,1-.25-2.5Z"/><path d="M75.19,20.31l.73.73a2.51,2.51,0,0,0,3.54,0l2.39-2.39L84.24,21a2.5,2.5,0,0,0,3.53,0l.73-.73a2.5,2.5,0,0,0,0-3.53l-2.39-2.39L88.5,12a2.5,2.5,0,0,0,0-3.53l-.73-.73a2.5,2.5,0,0,0-3.53,0l-2.39,2.39L79.46,7.74a2.51,2.51,0,0,0-3.54,0l-.73.73a2.51,2.51,0,0,0,0,3.54l2.39,2.39L75.2,16.77A2.51,2.51,0,0,0,75.19,20.31Z"/></svg>
