<svg class="icon" data-name="Layer 1" viewBox="0 0 100 125" x="0px" y="0px"><title>delete</title><path fill="currentColor" d="M14.12,28.25c0,0.35,0,.64,0,0.93q0,4.6,0,9.21,0,25.33,0,50.65A10.71,10.71,0,0,0,24.82,100q25.1,0,50.2,0a11.24,11.24,0,0,0,2.66-.33A10.64,10.64,0,0,0,85.87,89q0-29.82,0-59.64c0-.37,0-0.73,0-1.16H14.12ZM32,89.3a3.62,3.62,0,0,1-3.62-3.87q0-10.67,0-21.33h0q0-10.78,0-21.56a3.63,3.63,0,0,1,7.12-1.05,4.72,4.72,0,0,1,.15,1.33q0,21.33,0,42.67A3.61,3.61,0,0,1,32,89.3Zm18,0a3.62,3.62,0,0,1-3.62-3.87q0-10.67,0-21.33h0q0-10.78,0-21.56a3.63,3.63,0,0,1,7.12-1.06,4.74,4.74,0,0,1,.15,1.33q0,21.33,0,42.67A3.61,3.61,0,0,1,50,89.3Zm18,0a3.62,3.62,0,0,1-3.61-3.88q0-10.72,0-21.45h0q0-10.72,0-21.45a3.63,3.63,0,0,1,7.12-1,4.78,4.78,0,0,1,.15,1.33q0,21.33,0,42.67A3.61,3.61,0,0,1,67.92,89.3ZM77.29,8H65.56s0-.06,0-0.09A7.88,7.88,0,0,0,57.69,0H42.31a7.88,7.88,0,0,0-7.88,7.88s0,0.06,0,.09H22.71A12.23,12.23,0,0,0,10.48,20.2h0a12.25,12.25,0,0,0,.28,2.59H89.24a12.25,12.25,0,0,0,.28-2.59h0A12.23,12.23,0,0,0,77.29,8Z"/></svg>
