<svg class="icon" version="1.1" x="0px" y="0px" viewBox="0 0 100 125" enable-background="new 0 0 100 100" xml:space="preserve"><path fill="currentColor" d="M51.717,86.25H22.768c-0.961,0-1.742-0.785-1.742-1.75v-69c0-0.965,0.781-1.75,1.742-1.75h28.949  c0.69,0,1.25-0.56,1.25-1.25s-0.56-1.25-1.25-1.25H22.768c-2.339,0-4.242,1.907-4.242,4.25v69c0,2.343,1.903,4.25,4.242,4.25h28.949  c0.69,0,1.25-0.56,1.25-1.25S52.407,86.25,51.717,86.25z M81.108,49.116L63.96,31.969c-0.488-0.488-1.279-0.488-1.768,0  s-0.488,1.28,0,1.768L77.207,48.75H36.4c-0.69,0-1.25,0.56-1.25,1.25s0.56,1.25,1.25,1.25h40.807L62.192,66.264  c-0.488,0.488-0.488,1.279,0,1.768c0.244,0.244,0.563,0.366,0.884,0.366s0.64-0.122,0.884-0.366l17.148-17.147  c0.234-0.234,0.366-0.552,0.366-0.884S81.343,49.351,81.108,49.116z"/></svg>
