<?xml version="1.0" encoding="UTF-8" standalone="no"?>
<!-- Created with Inkscape (http://www.inkscape.org/) -->

<svg
   xmlns:ns0="http://www.iki.fi/pav/software/textext/"
   xmlns:dc="http://purl.org/dc/elements/1.1/"
   xmlns:cc="http://creativecommons.org/ns#"
   xmlns:rdf="http://www.w3.org/1999/02/22-rdf-syntax-ns#"
   xmlns:svg="http://www.w3.org/2000/svg"
   xmlns="http://www.w3.org/2000/svg"
   xmlns:sodipodi="http://sodipodi.sourceforge.net/DTD/sodipodi-0.dtd"
   xmlns:inkscape="http://www.inkscape.org/namespaces/inkscape"
   width="244.09985mm"
   height="93.916718mm"
   viewBox="0 0 864.92074 332.77577"
   id="svg2"
   version="1.1"
   inkscape:version="0.91 r13725"
   sodipodi:docname="DensityTransform.svg">
  <sodipodi:namedview
     id="base"
     pagecolor="#ffffff"
     bordercolor="#666666"
     borderopacity="1.0"
     inkscape:pageopacity="0.0"
     inkscape:pageshadow="2"
     inkscape:zoom="0.61615375"
     inkscape:cx="174.443"
     inkscape:cy="-36.899468"
     inkscape:document-units="px"
     inkscape:current-layer="layer1"
     showgrid="false"
     inkscape:window-width="1920"
     inkscape:window-height="1056"
     inkscape:window-x="0"
     inkscape:window-y="24"
     inkscape:window-maximized="1"
     fit-margin-top="0"
     fit-margin-left="0"
     fit-margin-right="0"
     fit-margin-bottom="0" />
  <defs
     id="defs4">
    <clipPath
       id="p78f83e6134">
      <rect
         id="rect6998"
         y="13.006875"
         x="28.890625"
         width="223.2"
         height="230.39999" />
    </clipPath>
    <clipPath
       id="clipPath7014">
      <rect
         id="rect7016"
         y="13.006875"
         x="28.890625"
         width="223.2"
         height="230.39999" />
    </clipPath>
    <clipPath
       id="clipPath7018">
      <rect
         id="rect7020"
         y="13.006875"
         x="28.890625"
         width="223.2"
         height="230.39999" />
    </clipPath>
    <clipPath
       id="clipPath7022">
      <rect
         id="rect7024"
         y="13.006875"
         x="28.890625"
         width="223.2"
         height="230.39999" />
    </clipPath>
    <clipPath
       id="clipPath7026">
      <rect
         id="rect7028"
         y="13.006875"
         x="28.890625"
         width="223.2"
         height="230.39999" />
    </clipPath>
    <clipPath
       id="clipPath7030">
      <rect
         id="rect7032"
         y="13.006875"
         x="28.890625"
         width="223.2"
         height="230.39999" />
    </clipPath>
    <clipPath
       id="clipPath7034">
      <rect
         id="rect7036"
         y="13.006875"
         x="28.890625"
         width="223.2"
         height="230.39999" />
    </clipPath>
    <clipPath
       id="pb67cea7e9a">
      <rect
         id="rect7232"
         y="13.006875"
         x="28.890625"
         width="223.2"
         height="345.60001" />
    </clipPath>
    <clipPath
       id="clipPath7248">
      <rect
         id="rect7250"
         y="13.006875"
         x="28.890625"
         width="223.2"
         height="345.60001" />
    </clipPath>
    <clipPath
       id="clipPath7252">
      <rect
         id="rect7254"
         y="13.006875"
         x="28.890625"
         width="223.2"
         height="345.60001" />
    </clipPath>
    <clipPath
       id="clipPath7256">
      <rect
         id="rect7258"
         y="13.006875"
         x="28.890625"
         width="223.2"
         height="345.60001" />
    </clipPath>
    <clipPath
       id="clipPath7260">
      <rect
         id="rect7262"
         y="13.006875"
         x="28.890625"
         width="223.2"
         height="345.60001" />
    </clipPath>
    <clipPath
       id="clipPath7264">
      <rect
         id="rect7266"
         y="13.006875"
         x="28.890625"
         width="223.2"
         height="345.60001" />
    </clipPath>
    <marker
       inkscape:stockid="Arrow2Lend"
       orient="auto"
       refY="0"
       refX="0"
       id="Arrow2Lend-2"
       style="overflow:visible"
       inkscape:isstock="true">
      <path
         inkscape:connector-curvature="0"
         id="path6692-7"
         style="fill:#000000;fill-opacity:1;fill-rule:evenodd;stroke:#000000;stroke-width:0.625;stroke-linejoin:round;stroke-opacity:1"
         d="M 8.7185878,4.0337352 -2.2072895,0.01601326 8.7185884,-4.0017078 c -1.7454984,2.3720609 -1.7354408,5.6174519 -6e-7,8.035443 z"
         transform="matrix(-1.1,0,0,-1.1,-1.1,0)" />
    </marker>
    <marker
       inkscape:stockid="Arrow2Lend"
       orient="auto"
       refY="0"
       refX="0"
       id="Arrow2Lend"
       style="overflow:visible"
       inkscape:isstock="true">
      <path
         inkscape:connector-curvature="0"
         id="path6692"
         style="fill:#000000;fill-opacity:1;fill-rule:evenodd;stroke:#000000;stroke-width:0.625;stroke-linejoin:round;stroke-opacity:1"
         d="M 8.7185878,4.0337352 -2.2072895,0.01601326 8.7185884,-4.0017078 c -1.7454984,2.3720609 -1.7354408,5.6174519 -6e-7,8.035443 z"
         transform="matrix(-1.1,0,0,-1.1,-1.1,0)" />
    </marker>
  </defs>
  <metadata
     id="metadata7">
    <rdf:RDF>
      <cc:Work
         rdf:about="">
        <dc:format>image/svg+xml</dc:format>
        <dc:type
           rdf:resource="http://purl.org/dc/dcmitype/StillImage" />
        <dc:title></dc:title>
      </cc:Work>
    </rdf:RDF>
  </metadata>
  <g
     transform="translate(-15.557457,-11.6886)"
     inkscape:label="Layer 1"
     inkscape:groupmode="layer"
     id="layer1">
    <g
       id="figure_1"
       transform="matrix(1.25,0,0,1.25,15.557457,11.6886)">
      <g
         id="patch_1">
        <path
           id="path6971"
           style="fill:#ffffff"
           d="m 0,266.22062 263.10812,0 L 263.10812,0 0,0 Z"
           inkscape:connector-curvature="0" />
      </g>
      <g
         id="axes_1">
        <g
           id="LineCollection_1">
          <path
             id="path6975"
             style="fill:none;stroke:#000080"
             d="m 130.60202,205.76249 2.82531,0.3423 2.82532,0.22494 2.82532,0.11149 2.82531,0 2.82532,-0.11149 2.82532,-0.22494 5.65063,-0.7867 2.82532,-0.53254 2.82531,-0.65965 2.82532,-0.79901 5.65063,-1.94433 5.65063,-2.49341 4.00856,-2.14557 1.64208,-0.93036 3.08509,-1.98609 4.06832,-2.91646 1.32254,-1.02499 2.82531,-2.40227 2.82532,-2.64992 2.82532,-2.93079 2.82531,-3.26411 2.82532,-3.67539 1.11166,-1.55126 1.88695,-2.91646 2.65202,-4.6115 0.66121,-1.22141 2.16411,-4.66376 0.51852,-1.16915 1.15017,-2.91646 1.88357,-5.83291 0.77404,-2.91645 0.63904,-2.91646 0.9464,-5.83291 0.33161,-2.91646 0.32592,-5.83291 -0.10801,-5.83291 -0.21791,-2.91645 -0.76212,-5.83292 -0.51589,-2.91645 -0.63904,-2.91646 -1.50099,-5.23381 -0.17669,-0.5991 -0.97993,-2.91645 -2.41549,-5.832916 -2.07852,-4.137862 -0.90129,-1.695049 -1.92403,-3.184607 -2.82531,-4.199563 -0.99297,-1.365197 -2.32719,-2.916456 -2.56711,-2.916455 -2.8392,-2.916456 -3.16211,-2.916456 -3.56054,-2.916455 -1.50278,-1.147519 -2.82532,-1.947825 -4.46739,-2.737568 -1.18324,-0.682536 -4.51802,-2.23392 -1.13261,-0.53525 -2.82532,-1.187271 -5.65063,-1.944326 -2.82532,-0.799012 -2.82531,-0.659653 -5.65064,-0.976935 -2.82531,-0.342305 -2.82532,-0.224935 -2.82532,-0.111498 -2.82531,0 -2.82532,0.111498 -2.82532,0.224935 -5.65063,0.786704 -2.82532,0.532536 -2.82531,0.659653 -2.82532,0.799012 -5.65063,1.944326 -5.65063,2.493411 -4.00856,2.145566 -1.64208,0.930369 -3.085086,1.986087 -4.068326,2.916456 -1.322535,1.024995 -2.825316,2.402263 -2.825316,2.649926 -2.825317,2.930785 -2.825316,3.264113 -2.825317,3.675393 -1.111658,1.551259 -1.886956,2.916455 -2.652019,4.611505 -0.661207,1.221407 -2.164109,4.663758 -0.518524,1.169153 -1.150169,2.91646 -1.883565,5.83291 -0.774043,2.91645 -0.639039,2.91646 -0.946406,5.83291 -0.331608,2.91646 -0.32592,5.83291 0.108014,5.83291 0.217906,2.91645 0.76212,5.83292 0.515894,2.91645 0.639039,2.91646 1.500984,5.23381 0.176696,0.5991 0.979928,2.91645 2.415492,5.83292 2.078517,4.13786 0.901295,1.69505 1.924022,3.1846 2.825316,4.19957 0.992965,1.36519 2.327192,2.91646 2.567116,2.91645 2.839197,2.91646 3.16211,2.91646 3.560537,2.91645 1.502782,1.14752 2.825316,1.94783 4.467394,2.73756 1.18324,0.68254 4.51801,2.23392 1.13262,0.53525 2.82532,1.18727 5.65063,1.94433 2.82532,0.79901 2.82531,0.65965 5.65064,0.97694 0,0"
             clip-path="url(#p78f83e6134)"
             inkscape:connector-curvature="0" />
        </g>
        <g
           id="LineCollection_2">
          <path
             id="path6978"
             style="fill:none;stroke:#0028ff"
             d="m 130.60202,191.21388 2.82531,0.41462 2.82532,0.27246 2.82532,0.13505 2.82531,0 2.82532,-0.13505 2.82532,-0.27246 4.36012,-0.71783 1.29051,-0.24146 2.82532,-0.66976 2.82531,-0.82963 3.24365,-1.1756 2.40698,-0.9596 4.0209,-1.95686 1.62974,-0.86243 3.34877,-2.05403 2.30186,-1.55651 2.82532,-2.16111 2.82531,-2.43688 2.82532,-2.75132 2.82532,-3.1297 2.82531,-3.60677 1.31745,-1.85644 1.84511,-2.91645 2.48808,-4.59877 0.61502,-1.23415 1.28068,-2.91645 2.06848,-5.83291 0.80371,-2.91646 0.88274,-4.24859 0.29373,-1.58432 0.40167,-2.91646 0.26394,-2.91645 0.13083,-2.91646 0,-2.91645 -0.13083,-2.91646 -0.26394,-2.91645 -0.6954,-4.50078 -0.23391,-1.33214 -0.64883,-2.91645 -0.80371,-2.91646 -1.13887,-3.34827 -0.92961,-2.48464 -1.8957,-4.1506 -0.83548,-1.68231 -1.98984,-3.456793 -1.50787,-2.376118 -2.09358,-2.916456 -2.36073,-2.916456 -2.66534,-2.916455 -3.03189,-2.916456 -3.49407,-2.916456 -1.79842,-1.359941 -2.82532,-1.904635 -4.45505,-2.568335 -1.19558,-0.634865 -2.82532,-1.321993 -5.65063,-2.135201 -2.82531,-0.829634 -4.11583,-0.911218 -1.53481,-0.303211 -2.82531,-0.414622 -2.82532,-0.272455 -2.82532,-0.135053 -2.82531,0 -2.82532,0.135053 -2.82532,0.272455 -4.36012,0.717833 -1.29051,0.241457 -2.82532,0.669761 -2.82531,0.829634 -3.24365,1.175603 -2.40698,0.959598 -4.0209,1.956858 -1.62974,0.862426 -3.34877,2.05403 -2.30186,1.556514 -2.82532,2.161114 -2.825314,2.436881 -2.825316,2.751318 -2.825317,3.129693 -2.825316,3.606778 -1.317443,1.856436 -1.845115,2.916455 -2.488075,4.598766 -0.615026,1.23415 -1.28068,2.91645 -2.068476,5.83291 -0.803708,2.91646 -0.882743,4.24859 -0.293735,1.58432 -0.401665,2.91646 -0.263941,2.91645 -0.130833,2.91646 0,2.91645 0.130833,2.91646 0.263941,2.91645 0.6954,4.50078 0.233912,1.33214 0.648831,2.91645 0.803708,2.91646 1.138866,3.34827 0.92961,2.48464 1.895706,4.1506 0.835476,1.68231 1.989841,3.45679 1.507873,2.37612 2.093579,2.91646 2.360729,2.91645 2.665339,2.91646 3.03189,2.91645 3.494069,2.91646 1.79842,1.35994 2.82532,1.90464 4.45505,2.56833 1.19558,0.63487 2.82532,1.32199 5.65063,2.1352 2.82531,0.82963 4.11583,0.91122 1.53481,0.30321 0,0"
             clip-path="url(#p78f83e6134)"
             inkscape:connector-curvature="0" />
        </g>
        <g
           id="LineCollection_3">
          <path
             id="path6981"
             style="fill:none;stroke:#00d4ff"
             d="m 124.95138,179.39282 2.82532,0.83652 2.82532,0.65206 2.82531,0.47927 2.82532,0.31493 2.82532,0.15611 2.82531,0 2.82532,-0.15611 2.82532,-0.31493 2.82531,-0.47927 2.82532,-0.65206 3.24088,-0.98449 2.40975,-0.85022 2.82532,-1.2014 2.82531,-1.41446 3.93798,-2.36683 1.71266,-1.16153 2.82531,-2.18368 2.82532,-2.51589 2.82532,-2.91889 2.82531,-3.43632 1.70009,-2.36597 1.83262,-2.91646 2.11793,-4.04166 0.83781,-1.79125 1.16385,-2.91645 0.967,-2.91646 0.81038,-2.91645 0.63168,-2.91646 0.46429,-2.91646 0.3051,-2.91645 0.15123,-2.91646 0,-2.91645 -0.15123,-2.91646 -0.3051,-2.91645 -0.46429,-2.91646 -0.63168,-2.91646 -0.95373,-3.34542 -0.82365,-2.48749 -1.16385,-2.91645 -1.37026,-2.91646 -2.29287,-4.065001 -1.12523,-1.767909 -2.11544,-2.916456 -2.43726,-2.916455 -2.82768,-2.916456 -3.32894,-2.916456 -2.29203,-1.754925 -2.82532,-1.891745 -3.91536,-2.186241 -1.73527,-0.864836 -2.82532,-1.201398 -2.82531,-0.998188 -2.82532,-0.836523 -2.82532,-0.652063 -2.82531,-0.479268 -2.82532,-0.314935 -2.82532,-0.15611 -2.82531,0 -2.82532,0.15611 -2.82532,0.314935 -2.82531,0.479268 -2.82532,0.652063 -3.24088,0.984489 -2.40975,0.850222 -2.82532,1.201398 -2.82531,1.414462 -3.93798,2.36683 -1.71266,1.16153 -2.82531,2.183677 -2.82532,2.515886 -2.82532,2.918894 -2.825314,3.436319 -1.700084,2.365972 -1.832627,2.91646 -2.117922,4.04166 -0.83781,1.79125 -1.163854,2.91645 -0.966995,2.91646 -0.810381,2.91645 -0.631686,2.91646 -0.464291,2.91646 -0.305093,2.91645 -0.151232,2.91646 0,2.91645 0.151232,2.91646 0.305093,2.91645 0.464291,2.91646 0.631686,2.91646 0.953724,3.34542 0.823652,2.48749 1.163854,2.91645 1.370261,2.91646 2.292866,4.065 1.125232,1.76791 2.115438,2.91646 2.43726,2.91645 2.82768,2.91646 3.32894,2.91645 2.29203,1.75493 2.82532,1.89174 3.91536,2.18624 1.73527,0.86484 2.82532,1.2014 2.82531,0.99819 0,0"
             clip-path="url(#p78f83e6134)"
             inkscape:connector-curvature="0" />
        </g>
        <g
           id="LineCollection_4">
          <path
             id="path6984"
             style="fill:none;stroke:#7aff7d"
             d="m 127.7767,171.29739 2.82532,0.78427 2.82531,0.57644 2.82532,0.37878 2.82532,0.18776 2.82531,0 2.82532,-0.18776 2.82532,-0.37878 2.82531,-0.57644 2.82532,-0.78427 2.26491,-0.80191 0.56041,-0.20126 2.82531,-1.22821 2.82402,-1.48698 0.001,-7.1e-4 2.82531,-1.76883 1.58669,-1.14692 1.23863,-0.9506 2.2723,-1.96585 0.55302,-0.51745 2.32404,-2.39901 0.50127,-0.57085 1.90443,-2.34561 0.92089,-1.27859 1.11108,-1.63786 1.71355,-2.91646 6.9e-4,-0.001 1.44051,-2.91511 1.18983,-2.91646 0.19497,-0.57848 0.77685,-2.33797 0.75976,-2.91646 0.55842,-2.91646 0.36696,-2.91645 0.18189,-2.91646 0,-2.91645 -0.18189,-2.91646 -0.36696,-2.91645 -0.55842,-2.91646 -0.75976,-2.91646 -0.77685,-2.33797 -0.19497,-0.57848 -1.18983,-2.91646 -1.44051,-2.91511 -6.9e-4,-10e-4 -1.71355,-2.91646 -1.11108,-1.63786 -0.92089,-1.27859 -1.90443,-2.345607 -0.50127,-0.570853 -2.32404,-2.399008 -0.55302,-0.517448 -2.2723,-1.965856 -1.23863,-0.950599 -1.58669,-1.146924 -2.82531,-1.768822 -0.001,-7.1e-4 -2.82402,-1.48698 -2.82531,-1.228217 -0.56041,-0.201259 -2.26491,-0.801906 -2.82532,-0.784268 -2.82531,-0.576439 -2.82532,-0.378787 -2.82532,-0.187762 -2.82531,0 -2.82532,0.187762 -2.82532,0.378787 -2.82531,0.576439 -2.82532,0.784268 -2.26491,0.801906 -0.56041,0.201259 -2.82531,1.228217 -2.82402,1.48698 -10e-4,7.1e-4 -2.82531,1.768822 -1.58669,1.146924 -1.23863,0.950599 -2.2723,1.965856 -0.55302,0.517448 -2.32404,2.399008 -0.50127,0.570853 -1.90443,2.345607 -0.92089,1.27859 -1.11108,1.63786 -1.71355,2.91646 -6.9e-4,10e-4 -1.44051,2.91511 -1.189834,2.91646 -0.19497,0.57848 -0.776847,2.33797 -0.759759,2.91646 -0.558425,2.91646 -0.366951,2.91645 -0.181894,2.91646 0,2.91645 0.181894,2.91646 0.366951,2.91645 0.558425,2.91646 0.759759,2.91646 0.776847,2.33797 0.19497,0.57848 1.189834,2.91646 1.44051,2.91511 6.9e-4,0.001 1.71355,2.91646 1.11108,1.63786 0.92089,1.27859 1.90443,2.34561 0.50127,0.57085 2.32404,2.39901 0.55302,0.51745 2.2723,1.96585 1.23863,0.9506 1.58669,1.14692 2.82531,1.76883 10e-4,7.1e-4 2.82402,1.48698 2.82531,1.22821 0.56041,0.20126 2.26491,0.80191"
             clip-path="url(#p78f83e6134)"
             inkscape:connector-curvature="0" />
        </g>
        <g
           id="LineCollection_5">
          <path
             id="path6987"
             style="fill:none;stroke:#ffe600"
             d="m 136.25265,164.967 2.82532,0.23044 2.82531,0 2.82532,-0.23044 1.85751,-0.30443 0.96781,-0.16174 2.82531,-0.71312 2.82532,-0.97023 2.44154,-1.07136 0.38378,-0.17696 2.82531,-1.57407 1.75399,-1.16543 1.07133,-0.7674 2.58753,-2.14906 0.23778,-0.21754 2.61457,-2.69891 0.21075,-0.24545 2.0819,-2.67101 0.74342,-1.10589 1.12901,-1.81056 1.52487,-2.91646 0.17143,-0.39616 1.03789,-2.52029 0.93991,-2.91646 0.69083,-2.91646 0.15669,-0.99903 0.29491,-1.91742 0.22324,-2.91646 0,-2.91645 -0.22324,-2.91646 -0.29491,-1.91742 -0.15669,-0.99903 -0.69083,-2.91646 -0.93991,-2.91646 -1.03789,-2.52029 -0.17143,-0.39616 -1.52487,-2.91646 -1.12901,-1.81056 -0.74342,-1.10589 -2.0819,-2.67101 -0.21075,-0.24545 -2.61457,-2.69891 -0.23778,-0.21754 -2.58753,-2.149061 -1.07133,-0.767399 -1.75399,-1.165431 -2.82531,-1.574066 -0.38378,-0.176959 -2.44154,-1.071363 -2.82532,-0.97023 -2.82531,-0.713122 -0.96781,-0.16174 -1.85751,-0.304428 -2.82532,-0.230438 -2.82531,0 -2.82532,0.230438 -1.85751,0.304428 -0.96781,0.16174 -2.82531,0.713122 -2.82532,0.97023 -2.44154,1.071363 -0.38378,0.176959 -2.82531,1.574066 -1.75399,1.165431 -1.07133,0.767399 -2.58753,2.149061 -0.23778,0.21754 -2.61457,2.69891 -0.21075,0.24545 -2.0819,2.67101 -0.74342,1.10589 -1.12901,1.81056 -1.52488,2.91646 -0.17142,0.39616 -1.03789,2.52029 -0.93991,2.91646 -0.69083,2.91646 -0.15669,0.99903 -0.29491,1.91742 -0.22324,2.91646 0,2.91645 0.22324,2.91646 0.29491,1.91742 0.15669,0.99903 0.69083,2.91646 0.93991,2.91646 1.03789,2.52029 0.17142,0.39616 1.52488,2.91646 1.12901,1.81056 0.74342,1.10589 2.0819,2.67101 0.21075,0.24545 2.61457,2.69891 0.23778,0.21754 2.58753,2.14906 1.07133,0.7674 1.75399,1.16543 2.82531,1.57407 0.38378,0.17696 2.44154,1.07136 2.82532,0.97023 2.82531,0.71312 0.96781,0.16174 1.85751,0.30443"
             clip-path="url(#p78f83e6134)"
             inkscape:connector-curvature="0" />
        </g>
        <g
           id="LineCollection_6">
          <path
             id="path6990"
             style="fill:none;stroke:#ff4700"
             d="m 133.42733,156.12432 2.82532,0.59441 2.82532,0.29464 2.82531,0 2.82532,-0.29464 2.82532,-0.59441 0.66819,-0.21112 2.15712,-0.72943 2.82532,-1.29455 1.53851,-0.89247 1.28681,-0.823 2.6886,-2.09346 0.13671,-0.12061 2.70847,-2.79584 0.11685,-0.14113 2.02804,-2.77533 0.79727,-1.32831 0.86459,-1.58814 1.2541,-2.91646 0.70663,-2.22671 0.20452,-0.68975 0.57583,-2.91645 0.28543,-2.91646 0,-2.91645 -0.28543,-2.91646 -0.57583,-2.91645 -0.20452,-0.68975 -0.70663,-2.22671 -1.2541,-2.91646 -0.86459,-1.58814 -0.79727,-1.32831 -2.02804,-2.77533 -0.11685,-0.14113 -2.70847,-2.79584 -0.13671,-0.12061 -2.6886,-2.09346 -1.28681,-0.823 -1.53851,-0.89247 -2.82532,-1.29455 -2.15712,-0.72943 -0.66819,-0.21112 -2.82532,-0.594407 -2.82532,-0.29464 -2.82531,0 -2.82532,0.29464 -2.82532,0.594407 -0.66819,0.21112 -2.15712,0.72943 -2.82532,1.29455 -1.53851,0.89247 -1.28681,0.823 -2.6886,2.09346 -0.13671,0.12061 -2.70847,2.79584 -0.11685,0.14113 -2.02804,2.77533 -0.79727,1.32831 -0.86459,1.58814 -1.2541,2.91646 -0.70663,2.22671 -0.20452,0.68975 -0.57583,2.91645 -0.28543,2.91646 0,2.91645 0.28543,2.91646 0.57583,2.91645 0.20452,0.68975 0.70663,2.22671 1.2541,2.91646 0.86459,1.58814 0.79727,1.32831 2.02804,2.77533 0.11685,0.14113 2.70847,2.79584 0.13671,0.12061 2.6886,2.09346 1.28681,0.823 1.53851,0.89247 2.82532,1.29455 2.15712,0.72943 0.66819,0.21112"
             clip-path="url(#p78f83e6134)"
             inkscape:connector-curvature="0" />
        </g>
        <g
           id="LineCollection_7">
          <path
             id="path6993"
             style="fill:none;stroke:#800000"
             d="m 139.07797,147.57973 2.82531,0 2.77207,-0.41589 0.0532,-0.009 2.82532,-0.96107 2.82531,-1.46254 0.69903,-0.48382 2.12629,-1.75083 1.1292,-1.16562 1.69612,-2.19489 0.4687,-0.72157 1.41683,-2.91646 0.93103,-2.91645 0.009,-0.055 0.4029,-2.86149 0,-2.91645 -0.4029,-2.86149 -0.009,-0.055 -0.93103,-2.91645 -1.41683,-2.91646 -0.4687,-0.72157 -1.69612,-2.19489 -1.1292,-1.16562 -2.12629,-1.75083 -0.69903,-0.48382 -2.82531,-1.46254 -2.82532,-0.96107 -0.0532,-0.009 -2.77207,-0.41589 -2.82531,0 -2.77207,0.41589 -0.0533,0.009 -2.82532,0.96107 -2.82531,1.46254 -0.69903,0.48382 -2.12629,1.75083 -1.1292,1.16562 -1.69612,2.19489 -0.46869,0.72157 -1.41684,2.91646 -0.93103,2.91645 -0.009,0.055 -0.4029,2.86149 0,2.91645 0.4029,2.86149 0.009,0.055 0.93103,2.91645 1.41684,2.91646 0.46869,0.72157 1.69612,2.19489 1.1292,1.16562 2.12629,1.75083 0.69903,0.48382 2.82531,1.46254 2.82532,0.96107 0.0533,0.009 2.77207,0.41589"
             clip-path="url(#p78f83e6134)"
             inkscape:connector-curvature="0" />
        </g>
      </g>
    </g>
    <g
       id="figure_1-3"
       transform="matrix(0,-1.25,1.25,0,403.70244,343.99253)">
      <g
         id="patch_1-6">
        <path
           id="path7208"
           style="fill:#ffffff"
           d="m 0,381.42062 259.29062,0 L 259.29062,0 0,0 Z"
           inkscape:connector-curvature="0" />
      </g>
      <g
         id="axes_1-7">
        <g
           id="LineCollection_1-5">
          <path
             id="path7212"
             style="fill:none;stroke:#000080"
             d="m 54.318473,337.6437 1.093643,-5.28493 1.731674,-3.17978 1.31927,-5.56958 1.597926,-4.37469 1.085145,-4.37468 2.587859,-8.74937 1.19587,-4.37468 1.350478,-4.37468 2.164717,-7.5469 4.22195,-14.32652 1.428683,-4.92163 1.226841,-3.82774 1.598476,-5.42811 1.110446,-3.32126 1.71487,-5.6907 1.063193,-3.05866 1.762124,-5.69493 1.101172,-3.05444 1.724144,-5.4324 1.238332,-3.31697 1.586985,-4.90599 1.484753,-3.84338 1.465415,-4.37468 1.721486,-4.37468 1.632602,-4.37469 2.171693,-5.72898 1.311645,-3.02038 1.67107,-4.37469 8.318555,-18.57395 6.21889,-12.04883 2.40984,-4.37468 2.67253,-4.47407 2.82532,-4.37627 3.00832,-4.27372 3.43988,-4.37468 4.85306,-5.42861 3.41969,-3.32076 5.74785,-4.37468 2.13373,-1.17803 2.82532,-1.36177 2.82531,-1.1405 2.82532,-0.80328 2.82532,-0.3506 2.82531,-0.0642 2.82532,0.22647 2.82531,0.57742 2.82532,0.9982 2.82532,1.24828 3.49179,1.84804 4.98416,3.66119 0.86906,0.71349 4.78157,4.4994 3.78738,4.24997 4.68857,5.94012 2.82532,3.90054 2.82531,4.15997 4.9877,7.87279 6.31357,10.71279 1.54186,2.41126 1.28345,2.37315 1.45016,2.00153 1.37516,2.46506 1.9531,1.90963 0.87222,1.31649 0.75165,-1.31649 0.18099,-4.37469 -0.442,-4.37468 -0.76345,-4.37468 -2.90736,-13.12405 -2.47047,-9.5968 -2.19287,-7.90194 -6.28308,-19.66012 -0.73465,-2.2133 -3.19107,-8.74936 -5.39191,-13.12405 -4.80895,-10.16106 -2.82531,-5.389955 -2.82532,-4.906396 -2.82532,-4.464367 -2.82531,-4.036167 -2.82532,-3.588475 -2.82532,-3.070406 -2.82531,-2.745407 -1.32514,-1.009923 -1.50018,-1.289272 -2.82532,-1.853076 -2.82531,-1.303879 -2.82532,-1.125929 -2.82531,-0.615541 -2.82532,-0.168073 -2.82532,0.262725 -2.82531,0.7201 -5.65064,2.558043 -2.82531,1.986361 -0.9232,0.828541 -1.90212,1.459003 -5.65063,5.94747 -4.32528,5.717578 -1.32536,1.859542 -4.2897,6.889825 -2.46852,4.374683 -2.26958,4.374684 -6.23685,13.124051 -1.74415,4.37468 -1.91501,4.37469 -0.8534,2.31176 -0.88136,2.06292 -6.402422,17.49873 -1.342464,4.37469 -1.574205,4.37468 -1.274115,4.37468 -1.503595,4.37469 -1.169041,4.37468 -1.484873,4.37469 -1.319824,5.07299 -1.21339,3.67637 -1.611927,6.28923 -0.79169,2.46014 -1.180932,4.37468 -1.068489,4.37469 -1.26428,4.37468 -1.345242,5.85808 -0.854118,2.89129 -1.070908,4.37468 -0.94504,4.37468 -1.198135,4.37469 -1.973217,8.74936 -1.064648,4.37469 -1.369883,6.65452 -0.546513,2.09485 -0.980601,4.37468 -1.298203,6.52562 -0.548219,2.22375 -1.757219,8.74936 -4.348527,21.87342 -1.821984,10.01491 -0.586401,3.10914 -1.402302,8.74937 -0.882048,4.37468 -1.215748,8.74937 -0.583256,4.37468 -0.980878,4.53107 -0.415465,4.2183 -0.236243,4.37468 0.271394,4.37469 0.380314,0.91024 0,0"
             clip-path="url(#pb67cea7e9a)"
             inkscape:connector-curvature="0" />
        </g>
        <g
           id="LineCollection_2-3">
          <path
             id="path7215"
             style="fill:none;stroke:#004cff"
             d="m 71.270372,262.99576 1.467798,-5.00661 1.357518,-1.75514 0.758131,-2.61954 1.675873,-4.37468 0.391313,-0.68339 1.130192,-3.6913 1.730458,-4.37468 1.411247,-4.37468 1.668695,-4.37469 1.489866,-4.37468 1.656674,-4.37469 3.236903,-8.74936 3.347315,-8.74937 4.105865,-10.26172 5.65063,-13.17319 5.65064,-12.06033 5.65063,-10.7503 3.61634,-6.25066 2.70619,-4.37469 2.92027,-4.37468 3.1854,-4.37468 3.50882,-4.37469 3.84019,-4.28841 0.0858,-0.0863 5.56487,-4.97719 2.82531,-2.01214 2.82532,-1.85162 2.82532,-1.3429 2.82531,-1.09911 2.82532,-0.82151 2.82532,-0.51056 2.82531,-0.17806 2.82532,0.15795 2.82531,0.47931 2.82532,0.77393 2.82532,1.04093 3.37042,1.5916 2.28021,1.37193 4.3571,3.00276 4.11885,3.40863 2.82532,2.60991 7.19,7.10551 1.28595,1.38774 2.82531,2.67338 0.80138,0.31356 2.02394,1.03321 0.72624,-1.03321 0.21436,-4.37468 -0.61562,-4.37469 -1.07968,-4.37468 -2.07062,-7.34283 -0.42886,-1.40654 -2.39645,-6.99654 -2.28919,-6.12751 -3.73466,-8.74936 -2.4521,-5.141187 -2.82532,-5.399679 -2.82532,-4.862417 -2.82531,-4.354135 -2.82532,-3.862457 -2.82532,-3.35836 -3.68177,-3.644554 -1.96886,-1.752507 -2.82532,-1.960118 -2.82531,-1.577481 -2.82532,-1.145405 -2.82531,-0.66995 -2.82532,-0.235073 -2.82532,0.184641 -2.82531,0.612239 -2.82532,1.078604 -2.82532,1.529737 -2.82531,1.834472 -2.82532,2.422483 -2.82532,2.694283 -2.82531,3.181927 -2.82532,3.647303 -2.82532,4.067172 -2.82531,4.472849 -2.82532,4.885896 -2.82531,5.32803 -1.03032,2.023687 -4.62032,9.99556 -1.40116,3.12849 -5.258,13.12405 -6.196475,17.49873 -8.069964,26.2481 -5.872963,21.87342 -5.263347,21.87342 -4.72795,21.87342 -2.236857,13.12405 -0.527712,2.09881 -0.303459,2.27587 -0.325519,4.37468 0.294313,4.37469 0.334665,0.63192 0,0"
             clip-path="url(#pb67cea7e9a)"
             inkscape:connector-curvature="0" />
        </g>
        <g
           id="LineCollection_3-5">
          <path
             id="path7218"
             style="fill:none;stroke:#29ffce"
             d="m 82.571638,217.25097 1.596987,-3.00865 1.228329,-0.37321 1.419135,-4.00148 1.406182,-2.32053 0.753354,-2.05415 2.071962,-4.40649 1.675245,-4.34288 1.150071,-2.35245 0.815707,-2.02223 7.90196,-17.49873 4.22515,-8.74937 4.58045,-8.74937 2.41995,-4.37468 2.65932,-4.55261 2.82531,-4.53307 2.82532,-4.24229 3.00883,-4.17077 3.48648,-4.37468 3.8895,-4.37468 0.91645,-0.9641 3.63103,-3.41059 2.01961,-1.67815 3.72319,-2.69653 1.92744,-1.1876 2.82532,-1.45908 2.82531,-1.19727 2.82532,-0.88354 2.82532,-0.55821 2.82531,-0.27473 2.82532,0.006 2.82531,0.28158 4.04274,0.89822 1.6079,0.47769 2.82531,1.0341 2.82532,1.22904 8.47595,4.31867 2.82532,1.14385 2.82531,-2.37843 0.17371,-1.45024 -0.78096,-4.37468 -1.23426,-4.37469 -1.51528,-4.37468 -2.29384,-5.473508 -1.52855,-3.27586 -2.28151,-4.374683 -2.58247,-4.374684 -2.97419,-4.374683 -1.93455,-2.500488 -2.82531,-3.228726 -3.23518,-3.020153 -2.41546,-1.88466 -2.82531,-1.705848 -2.82532,-1.256744 -2.82531,-0.807131 -2.82532,-0.338723 -2.82532,0.1161 -2.82531,0.573795 -2.82532,1.045928 -2.82532,1.40732 -2.82531,1.894785 -2.82532,2.329962 -2.99442,2.999899 -2.65621,2.972117 -2.82532,3.648449 -2.82532,4.096817 -2.82531,4.537419 -3.69631,6.61862 -2.22969,4.37468 -4.10633,8.74937 -3.68442,8.74936 -3.40449,8.74937 -3.15758,8.74937 -4.303114,13.12405 -1.385702,4.37468 -5.110847,17.77704 -3.275686,12.84575 -0.928716,4.37468 -1.446231,5.77874 -0.557352,2.97063 -1.386485,8.74936 -0.881479,3.4517 -0.107949,0.92299 0.107949,3.00865 0,0"
             clip-path="url(#pb67cea7e9a)"
             inkscape:connector-curvature="0" />
        </g>
        <g
           id="LineCollection_4-6">
          <path
             id="path7221"
             style="fill:none;stroke:#ceff29"
             d="m 93.872903,182.7907 2.825317,-3.50251 0.01876,-0.0433 2.09635,-4.37468 0.710203,-0.93068 1.605227,-3.44401 1.22009,-2.0113 1.13215,-2.36338 1.69317,-3.01423 0.67938,-1.36045 2.14594,-3.89306 0.2524,-0.48163 2.41346,-4.37468 0.15945,-0.26184 2.33017,-4.11285 0.49515,-0.80639 2.13581,-3.56829 0.68951,-1.0899 2.09022,-3.28478 0.73509,-1.1111 2.22196,-3.26359 0.60336,-0.86235 2.5766,-3.51233 0.24871,-0.33319 2.82532,-3.55975 0.40912,-0.48174 2.4162,-2.80211 1.4762,-1.57258 1.34911,-1.42958 2.82532,-2.69016 0.29657,-0.25494 2.52875,-2.15621 2.82531,-2.11287 0.16309,-0.1056 2.66223,-1.72836 2.82532,-1.52679 2.52823,-1.11954 0.29708,-0.13795 2.82532,-0.99505 2.82532,-0.71422 2.82531,-0.45525 2.82532,-0.21705 2.82531,-0.006 2.82532,0.1677 2.82532,0.28176 2.82531,0.28452 2.82532,-0.005 2.82532,-1.58575 0.46353,-0.9929 -0.34014,-4.37468 -0.12339,-0.33136 -1.41269,-4.043328 -1.41263,-2.973877 -0.63579,-1.400806 -2.18953,-3.654539 -0.42659,-0.720145 -2.39872,-3.197987 -0.91881,-1.176696 -1.90651,-2.02733 -2.46999,-2.347354 -0.35533,-0.297012 -2.82531,-1.953955 -2.82532,-1.494074 -1.74806,-0.629642 -1.07725,-0.35405 -2.82532,-0.4668 -2.82532,0.0072 -2.82531,0.479343 -0.97936,0.334328 -1.84596,0.624863 -2.82532,1.402046 -2.82531,1.857238 -0.59006,0.490536 -2.23526,1.840405 -2.57893,2.534279 -0.24639,0.245295 -2.82531,3.224355 -0.69532,0.905033 -2.13,2.792767 -1.08474,1.581917 -1.74058,2.576886 -1.11253,1.797797 -1.71278,2.822709 -0.87612,1.551978 -1.9492,3.53455 -0.43729,0.84013 -2.20804,4.37468 -0.17998,0.36268 -1.8698,4.01201 -0.95552,2.07367 -1.00786,2.30101 -1.81746,4.22621 -0.0618,0.14847 -1.71514,4.37469 -1.04836,2.63147 -0.65817,1.74321 -1.5843,4.37468 -0.58285,1.57061 -0.95435,2.80408 -1.48408,4.37468 -0.38689,1.11349 -0.99494,3.26119 -1.362396,4.37469 -0.467981,1.4306 -0.802506,2.94408 -1.170828,4.37469 -0.851982,2.74831 -0.396786,1.62637 -0.875639,4.37468 -1.009991,4.37469 -0.542901,2.14734 -0.289203,2.22734 0.289203,3.54585"
             clip-path="url(#pb67cea7e9a)"
             inkscape:connector-curvature="0" />
        </g>
        <g
           id="LineCollection_5-2">
          <path
             id="path7224"
             style="fill:none;stroke:#ff6800"
             d="m 105.17417,153.4924 0.30065,-0.49565 2.52467,-2.91987 0.85602,-1.45482 1.96929,-2.69373 1.01185,-1.68095 1.81347,-2.61539 1.1064,-1.75929 1.71892,-2.48853 1.25468,-1.88616 1.57063,-2.22172 1.52955,-2.15296 1.29577,-1.76041 2.00162,-2.61427 0.82369,-1.06229 2.75897,-3.3124 0.0663,-0.0806 2.82532,-3.25137 1.00825,-1.04272 1.81706,-1.93789 2.6359,-2.43679 0.18942,-0.18701 2.82532,-2.47405 2.3225,-1.71363 0.50281,-0.40931 2.82532,-1.94789 2.82532,-1.58808 0.92375,-0.4294 1.90156,-1.03519 2.82532,-1.21751 2.82532,-0.96834 2.82531,-0.78512 1.58869,-0.36852 1.23663,-0.4547 2.82531,-1.129963 2.82532,-1.933657 0.68494,-0.856368 -0.22006,-4.374683 -0.46488,-0.863535 -1.77449,-3.511149 -1.05083,-1.23815 -2.78619,-3.136533 -0.0391,-0.03159 -2.82532,-1.874758 -2.82531,-1.405779 -2.82532,-0.837464 -2.82532,-0.223563 -2.82531,0.364542 -2.82532,0.881615 -2.82532,1.329346 -2.82531,1.751932 -0.0567,0.04572 -2.76861,2.334217 -2.11619,2.040466 -0.70913,0.728527 -2.82531,3.244933 -0.30714,0.401224 -2.51818,3.393942 -0.66358,0.980741 -2.16174,3.2908 -0.6558,1.083887 -2.16951,3.67149 -0.38511,0.70319 -2.34087,4.37468 -0.0993,0.19272 -1.97254,4.18197 -0.85277,1.7833 -1.131,2.59138 -1.69432,3.78256 -0.24304,0.59212 -1.65022,4.37469 -0.93206,2.31206 -0.72494,2.06262 -1.51112,4.37468 -0.58925,1.64659 -0.781,2.7281 -1.18987,4.37468 -0.85445,2.7969 -0.3335,1.57778 -0.004,4.37469 0.33792,0.49565"
             clip-path="url(#pb67cea7e9a)"
             inkscape:connector-curvature="0" />
        </g>
        <g
           id="LineCollection_6-9">
          <path
             id="path7227"
             style="fill:none;stroke:#800000"
             d="m 119.30075,124.53661 2.82532,-2.15076 0.01,-0.0119 2.81529,-3.32376 0.96568,-1.05092 1.85964,-2.11459 2.29735,-2.26009 0.52797,-0.57737 2.82531,-2.85924 1.06766,-0.93808 1.75766,-1.79657 2.82532,-2.28019 0.40978,-0.29792 2.41553,-2.18254 2.82532,-1.9214 0.45733,-0.27074 2.36799,-2.005182 2.82531,-1.839712 0.93206,-0.529794 1.89326,-2.325601 1.79232,-2.049082 -1.47721,-4.374684 -0.31511,-0.195758 -2.82532,-1.109192 -2.82531,-0.308454 -2.82532,0.394215 -2.82532,0.951102 -0.48211,0.268087 -2.3432,1.613979 -2.82532,2.140764 -0.66108,0.619941 -2.16424,2.342915 -1.79628,2.031768 -1.02903,1.349174 -2.22797,3.025514 -0.59735,0.92592 -2.1279,3.44876 -0.69742,1.24412 -1.64053,3.13056 -1.18478,2.35964 -0.91904,2.01505 -1.90628,4.11432 -0.10673,0.26036 -0.99599,4.37468 1.10272,2.16265"
             clip-path="url(#pb67cea7e9a)"
             inkscape:connector-curvature="0" />
        </g>
      </g>
    </g>
    <path
       style="fill:none;fill-rule:evenodd;stroke:#000000;stroke-width:2;stroke-linecap:butt;stroke-linejoin:miter;stroke-miterlimit:4;stroke-dasharray:none;stroke-opacity:1;marker-end:url(#Arrow2Lend)"
       d="m 296.93191,211.18007 c 0,0 39.4229,19.83325 65.414,20.65706 26.9113,0.85297 79.18538,-17.21422 79.18538,-17.21422"
       id="path5865"
       inkscape:connector-curvature="0"
       sodipodi:nodetypes="csc" />
    <path
       style="fill:none;fill-rule:evenodd;stroke:#000000;stroke-width:2;stroke-linecap:butt;stroke-linejoin:miter;stroke-miterlimit:4;stroke-dasharray:none;stroke-opacity:1;marker-end:url(#Arrow2Lend-2)"
       d="m 441.74545,101.57916 c 0,0 -40.56157,-17.386258 -66.55442,-16.619698 -26.91311,0.79369 -77.98499,22.022578 -77.98499,22.022578"
       id="path5865-0"
       inkscape:connector-curvature="0"
       sodipodi:nodetypes="csc" />
    <g
       ns0:preamble="/home/dabi/VC-Projects/Presentations/SIMAI-2016/Presentation/Figures/working/inkscape-preamble.tex"
       ns0:text="$T_\\sharp \\rho$"
       word-spacing="normal"
       letter-spacing="normal"
       font-size-adjust="none"
       font-stretch="normal"
       font-weight="normal"
       font-variant="normal"
       font-style="normal"
       stroke-miterlimit="10.433"
       xml:space="preserve"
       transform="matrix(5,0,0,-5,-791.52562,3561.7295)"
       id="content"
       style="font-style:normal;font-variant:normal;font-weight:normal;font-stretch:normal;letter-spacing:normal;word-spacing:normal;text-anchor:start;fill:#800000;fill-opacity:1;fill-rule:evenodd;stroke:#000000;stroke-linecap:butt;stroke-linejoin:miter;stroke-miterlimit:10.43299961;stroke-dasharray:none;stroke-dashoffset:0;stroke-opacity:1"><path
         id="path7482"
         d="m 227.69,663.28 0,0.03 0.01,0.02 0.01,0.02 0,0.02 0.01,0.03 0,0.02 0.01,0.01 0.01,0.02 0,0.02 0.01,0.01 0,0.02 0.01,0.01 0,0.01 0.01,0.02 0.01,0.01 0,0.01 0.01,0.01 0.01,0.01 0,0 0.01,0.01 0.01,0.01 0,0.01 0.01,0 0.01,0.01 0.01,0 0.01,0.01 0.01,0 0,0.01 0.01,0 0.01,0 0.01,0.01 0.02,0 c 0.09,0.02 0.41,0.02 0.62,0.02 1.01,0 1.46,-0.04 1.46,-0.82 0,-0.15 -0.04,-0.54 -0.08,-0.8 -0.01,-0.03 -0.03,-0.15 -0.03,-0.19 0,-0.06 0.03,-0.12 0.12,-0.12 0.11,0 0.13,0.08 0.15,0.23 l 0.27,1.73 c 0.01,0.04 0.02,0.14 0.02,0.17 0,0.11 -0.1,0.11 -0.27,0.11 l -5.53,0 c -0.24,0 -0.25,-0.01 -0.32,-0.2 l -0.6,-1.75 c -0.01,-0.02 -0.06,-0.17 -0.06,-0.19 0,-0.06 0.05,-0.1 0.12,-0.1 0.1,0 0.11,0.04 0.17,0.21 0.54,1.54 0.8,1.72 2.27,1.72 l 0.39,0 c 0.28,0 0.28,-0.04 0.28,-0.12 0,-0.06 -0.03,-0.18 -0.04,-0.21 l -1.34,-5.32 c -0.09,-0.37 -0.12,-0.48 -1.18,-0.48 -0.36,0 -0.42,0 -0.42,-0.19 0,-0.12 0.11,-0.12 0.17,-0.12 0.27,0 0.55,0.02 0.82,0.02 0.28,0 0.57,0.01 0.84,0.01 0.28,0 0.56,-0.01 0.83,-0.01 0.29,0 0.59,-0.02 0.87,-0.02 0.1,0 0.22,0 0.22,0.2 0,0.11 -0.08,0.11 -0.34,0.11 -0.25,0 -0.38,0 -0.64,0.02 -0.29,0.03 -0.37,0.06 -0.37,0.22 0,0.01 0,0.06 0.04,0.21 z"
         inkscape:connector-curvature="0"
         style="fill:#800000;stroke-width:0" /><path
         id="path7484"
         d="m 231.38,655.59 0,-0.74 c 0,-0.12 0,-0.2 0.1,-0.2 0.14,0 0.14,0.09 0.14,0.22 l 0,0.8 0.22,0.07 c 0.09,0.03 0.09,0.06 0.09,0.21 l 0,0.2 c 0,0.12 0,0.21 -0.1,0.21 -0.05,0 -0.17,-0.05 -0.21,-0.06 l 0,2.38 0.22,0.07 c 0.09,0.02 0.09,0.06 0.09,0.21 l 0,0.2 c 0,0.12 0,0.21 -0.1,0.21 -0.05,0 -0.17,-0.05 -0.21,-0.07 l 0,1.22 c 0,0.12 0,0.21 -0.1,0.21 -0.14,0 -0.14,-0.09 -0.14,-0.22 l 0,-1.28 -1.04,-0.34 0,1.22 c 0,0.13 0,0.21 -0.1,0.21 -0.14,0 -0.14,-0.1 -0.14,-0.22 l 0,-1.28 c -0.1,-0.03 -0.14,-0.05 -0.22,-0.07 -0.09,-0.04 -0.09,-0.06 -0.09,-0.22 l 0,-0.2 c 0,-0.11 0,-0.21 0.1,-0.21 0.05,0 0.17,0.05 0.21,0.07 l 0,-2.38 0.24,0.08 0,2.38 1.04,0.33 0,-2.38 -1.04,-0.33 -0.24,-0.08 c -0.1,-0.03 -0.14,-0.04 -0.22,-0.07 -0.09,-0.03 -0.09,-0.06 -0.09,-0.22 l 0,-0.19 c 0,-0.12 0,-0.21 0.1,-0.21 0.05,0 0.17,0.05 0.21,0.06 l 0,-0.73 c 0,-0.13 0,-0.22 0.1,-0.22 0.14,0 0.14,0.1 0.14,0.23 l 0,0.8 z"
         inkscape:connector-curvature="0"
         style="fill:#800000;stroke-width:0" /><path
         id="path7486"
         d="m 233.3,655.51 0,-0.01 0,0 0,-0.01 0,0 -0.01,-0.01 0,0 0,-0.01 0,0 0,-0.01 0,0 0,0 0,-0.01 0,0 0,-0.01 -0.01,0 0,-0.01 0,-0.01 0,0 0,-0.01 0,0 0,-0.01 0,0 -0.01,-0.01 0,0 0,-0.01 0,0 0,0 0,-0.01 0,0 0,0 0,0 0,-0.01 0,0 0,0 0,-0.01 0,0 c 0,-0.15 0.11,-0.27 0.28,-0.27 0.21,0 0.33,0.18 0.35,0.21 0.05,0.09 0.37,1.42 0.64,2.5 0.2,-0.4 0.51,-0.67 0.98,-0.67 l -0.01,0.22 c -0.69,0 -0.85,0.8 -0.85,0.89 0,0.04 0.05,0.24 0.08,0.37 0.27,1.11 0.37,1.47 0.59,1.87 0.43,0.73 0.93,0.95 1.24,0.95 0.37,0 0.69,-0.29 0.69,-0.98 0,-0.55 -0.29,-1.66 -0.56,-2.15 -0.33,-0.63 -0.81,-0.95 -1.19,-0.95 l 0,0 0.01,-0.22 c 1.17,0 2.45,1.41 2.45,2.89 0,1.06 -0.65,1.63 -1.38,1.63 -0.97,0 -2.01,-1 -2.31,-2.22 z"
         inkscape:connector-curvature="0"
         style="fill:#800000;stroke-width:0" /></g>    <g
       style="font-style:normal;font-variant:normal;font-weight:normal;font-stretch:normal;letter-spacing:normal;word-spacing:normal;text-anchor:start;fill:#0000ff;fill-opacity:1;fill-rule:evenodd;stroke:#000000;stroke-linecap:butt;stroke-linejoin:miter;stroke-miterlimit:10.43299961;stroke-dasharray:none;stroke-dashoffset:0;stroke-opacity:1"
       id="g7636"
       transform="matrix(5,0,0,-5,-787.59583,3359.2519)"
       xml:space="preserve"
       stroke-miterlimit="10.433"
       font-style="normal"
       font-variant="normal"
       font-weight="normal"
       font-stretch="normal"
       font-size-adjust="none"
       letter-spacing="normal"
       word-spacing="normal"
       ns0:text="$T^\\sharp \\pi$"
       ns0:preamble="/home/dabi/VC-Projects/Presentations/SIMAI-2016/Presentation/Figures/working/inkscape-preamble.tex"><path
         style="fill:#0000ff;stroke-width:0"
         inkscape:connector-curvature="0"
         d="m 227.69,663.28 0,0.03 0.01,0.02 0.01,0.02 0,0.02 0.01,0.03 0,0.02 0.01,0.01 0.01,0.02 0,0.02 0.01,0.01 0,0.02 0.01,0.01 0,0.01 0.01,0.02 0.01,0.01 0,0.01 0.01,0.01 0.01,0.01 0,0 0.01,0.01 0.01,0.01 0,0.01 0.01,0 0.01,0.01 0.01,0 0.01,0.01 0.01,0 0,0.01 0.01,0 0.01,0 0.01,0.01 0.02,0 c 0.09,0.02 0.41,0.02 0.62,0.02 1.01,0 1.46,-0.04 1.46,-0.82 0,-0.15 -0.04,-0.54 -0.08,-0.8 -0.01,-0.03 -0.03,-0.15 -0.03,-0.19 0,-0.06 0.03,-0.12 0.12,-0.12 0.11,0 0.13,0.08 0.15,0.23 l 0.27,1.73 c 0.01,0.04 0.02,0.14 0.02,0.17 0,0.11 -0.1,0.11 -0.27,0.11 l -5.53,0 c -0.24,0 -0.25,-0.01 -0.32,-0.2 l -0.6,-1.75 c -0.01,-0.02 -0.06,-0.17 -0.06,-0.19 0,-0.06 0.05,-0.1 0.12,-0.1 0.1,0 0.11,0.04 0.17,0.21 0.54,1.54 0.8,1.72 2.27,1.72 l 0.39,0 c 0.28,0 0.28,-0.04 0.28,-0.12 0,-0.06 -0.03,-0.18 -0.04,-0.21 l -1.34,-5.32 c -0.09,-0.37 -0.12,-0.48 -1.18,-0.48 -0.36,0 -0.42,0 -0.42,-0.19 0,-0.12 0.11,-0.12 0.17,-0.12 0.27,0 0.55,0.02 0.82,0.02 0.28,0 0.57,0.01 0.84,0.01 0.28,0 0.56,-0.01 0.83,-0.01 0.29,0 0.59,-0.02 0.87,-0.02 0.1,0 0.22,0 0.22,0.2 0,0.11 -0.08,0.11 -0.34,0.11 -0.25,0 -0.38,0 -0.64,0.02 -0.29,0.03 -0.37,0.06 -0.37,0.22 0,0.01 0,0.06 0.04,0.21 z"
         id="path7638" /><path
         style="fill:#0000ff;stroke-width:0"
         inkscape:connector-curvature="0"
         d="m 232.77,660.7 0,-0.74 c 0,-0.12 0,-0.21 0.1,-0.21 0.13,0 0.13,0.1 0.13,0.23 l 0,0.8 0.23,0.07 c 0.09,0.03 0.09,0.06 0.09,0.21 l 0,0.2 c 0,0.12 0,0.21 -0.1,0.21 -0.05,0 -0.17,-0.05 -0.22,-0.06 l -0.23,-0.08 -1.04,-0.34 0,2.38 1.04,0.34 0,-2.38 0.23,0.08 0,2.37 0.23,0.07 c 0.09,0.03 0.09,0.07 0.09,0.21 l 0,0.21 c 0,0.11 0,0.2 -0.1,0.2 -0.05,0 -0.17,-0.05 -0.22,-0.06 l 0,1.21 c 0,0.13 0,0.22 -0.09,0.22 -0.14,0 -0.14,-0.1 -0.14,-0.22 l 0,-1.29 -1.04,-0.33 0,1.22 c 0,0.13 0,0.21 -0.1,0.21 -0.14,0 -0.14,-0.1 -0.14,-0.22 l 0,-1.29 c -0.1,-0.02 -0.14,-0.04 -0.22,-0.07 -0.09,-0.03 -0.09,-0.05 -0.09,-0.21 l 0,-0.2 c 0,-0.12 0,-0.21 0.09,-0.21 0.05,0 0.18,0.05 0.22,0.06 l 0,-2.37 c -0.1,-0.03 -0.14,-0.04 -0.22,-0.07 -0.09,-0.04 -0.09,-0.06 -0.09,-0.22 l 0,-0.19 c 0,-0.12 0,-0.21 0.09,-0.21 0.05,0 0.18,0.05 0.22,0.06 l 0,-0.73 c 0,-0.13 0,-0.22 0.1,-0.22 0.14,0 0.14,0.1 0.14,0.22 l 0,0.81 z"
         id="path7640" /><path
         style="fill:#0000ff;stroke-width:0"
         inkscape:connector-curvature="0"
         d="m 237,660.95 1.13,0 c -0.33,-1.48 -0.42,-1.9 -0.42,-2.57 0,-0.15 0,-0.42 0.08,-0.76 0.1,-0.44 0.21,-0.5 0.36,-0.5 0.2,0 0.4,0.18 0.4,0.38 0,0.06 0,0.08 -0.06,0.22 -0.28,0.72 -0.28,1.37 -0.28,1.64 0,0.53 0.06,1.07 0.17,1.59 l 1.14,0 c 0.13,0 0.49,0 0.49,0.34 0,0.24 -0.21,0.24 -0.4,0.24 l -3.34,0 c -0.22,0 -0.59,0 -1.03,-0.47 -0.35,-0.39 -0.61,-0.85 -0.61,-0.9 0,-0.01 0,-0.1 0.12,-0.1 0.08,0 0.1,0.04 0.16,0.12 0.49,0.77 1.06,0.77 1.26,0.77 l 0.57,0 c -0.32,-1.21 -0.86,-2.41 -1.27,-3.32 -0.08,-0.15 -0.08,-0.17 -0.08,-0.24 0,-0.19 0.16,-0.27 0.29,-0.27 0.29,0 0.37,0.28 0.49,0.65 0.14,0.46 0.14,0.48 0.27,0.98 z"
         id="path7642" /></g>    <g
       style="font-style:normal;font-variant:normal;font-weight:normal;font-stretch:normal;letter-spacing:normal;word-spacing:normal;text-anchor:start;fill:none;fill-opacity:1;fill-rule:evenodd;stroke:#000000;stroke-linecap:butt;stroke-linejoin:miter;stroke-miterlimit:10.43299961;stroke-dasharray:none;stroke-dashoffset:0;stroke-opacity:1"
       id="g4784"
       transform="matrix(5,0,0,-5,-1043.6093,3623.7624)"
       xml:space="preserve"
       stroke-miterlimit="10.433"
       font-style="normal"
       font-variant="normal"
       font-weight="normal"
       font-stretch="normal"
       font-size-adjust="none"
       letter-spacing="normal"
       word-spacing="normal"
       ns0:text="$\\rho$"
       ns0:preamble="/home/dabi/VC-Projects/Presentations/SIMAI-2016/Presentation/Figures/working/inkscape-preamble.tex"><path
         style="fill:#000000;stroke-width:0"
         inkscape:connector-curvature="0"
         d="m 223.76,705.4 0,-0.01 0,0 0,-0.01 0,0 -0.01,-0.01 0,0 0,-0.01 0,0 0,-0.01 0,0 0,0 0,-0.01 0,0 0,-0.01 -0.01,0 0,-0.01 0,-0.01 0,0 0,-0.01 0,0 0,-0.01 0,0 -0.01,-0.01 0,0 0,-0.01 0,0 0,0 0,-0.01 0,0 0,0 0,0 0,-0.01 0,0 0,0 0,-0.01 0,0 c 0,-0.15 0.11,-0.27 0.28,-0.27 0.21,0 0.33,0.18 0.35,0.21 0.05,0.09 0.37,1.42 0.64,2.5 0.2,-0.4 0.51,-0.67 0.98,-0.67 l -0.01,0.22 c -0.69,0 -0.85,0.8 -0.85,0.89 0,0.04 0.05,0.24 0.08,0.37 0.28,1.11 0.37,1.47 0.59,1.87 0.43,0.73 0.93,0.95 1.24,0.95 0.37,0 0.69,-0.29 0.69,-0.98 0,-0.55 -0.29,-1.66 -0.56,-2.15 -0.33,-0.63 -0.81,-0.95 -1.19,-0.95 l 0,0 0.01,-0.22 c 1.17,0 2.45,1.41 2.45,2.89 0,1.06 -0.65,1.63 -1.38,1.63 -0.97,0 -2.01,-1 -2.31,-2.22 z"
         id="path4786" /></g>    <g
       ns0:preamble="/home/dabi/VC-Projects/Presentations/SIMAI-2016/Presentation/Figures/working/inkscape-preamble.tex"
       ns0:text="$\\pi$"
       word-spacing="normal"
       letter-spacing="normal"
       font-size-adjust="none"
       font-stretch="normal"
       font-weight="normal"
       font-variant="normal"
       font-style="normal"
       stroke-miterlimit="10.433"
       xml:space="preserve"
       transform="matrix(5,0,0,-5,-513.08875,3700.9344)"
       id="g4948"
       style="font-style:normal;font-variant:normal;font-weight:normal;font-stretch:normal;letter-spacing:normal;word-spacing:normal;text-anchor:start;fill:none;fill-opacity:1;fill-rule:evenodd;stroke:#000000;stroke-linecap:butt;stroke-linejoin:miter;stroke-miterlimit:10.43299961;stroke-dasharray:none;stroke-dashoffset:0;stroke-opacity:1"><path
         id="path4950"
         d="m 226.07,710.84 1.13,0 c -0.33,-1.48 -0.42,-1.9 -0.42,-2.57 0,-0.15 0,-0.42 0.08,-0.76 0.1,-0.44 0.21,-0.5 0.36,-0.5 0.2,0 0.41,0.18 0.41,0.38 0,0.06 0,0.08 -0.06,0.22 -0.29,0.72 -0.29,1.37 -0.29,1.65 0,0.52 0.07,1.06 0.18,1.58 l 1.13,0 c 0.13,0 0.49,0 0.49,0.34 0,0.24 -0.21,0.24 -0.4,0.24 l -3.33,0 c -0.22,0 -0.6,0 -1.04,-0.47 -0.35,-0.39 -0.61,-0.85 -0.61,-0.9 0,-0.01 0,-0.1 0.12,-0.1 0.08,0 0.1,0.04 0.16,0.12 0.49,0.77 1.07,0.77 1.27,0.77 l 0.56,0 c -0.32,-1.21 -0.85,-2.41 -1.27,-3.32 -0.08,-0.15 -0.08,-0.17 -0.08,-0.24 0,-0.19 0.16,-0.27 0.29,-0.27 0.3,0 0.38,0.28 0.5,0.65 0.13,0.46 0.13,0.48 0.26,0.98 z"
         inkscape:connector-curvature="0"
         style="fill:#000000;stroke-width:0" /></g>  </g>
</svg>
