<?xml version="1.0" encoding="UTF-8" standalone="no"?>
<!-- Created with Inkscape (http://www.inkscape.org/) -->

<svg
   xmlns:ns0="http://www.iki.fi/pav/software/textext/"
   xmlns:dc="http://purl.org/dc/elements/1.1/"
   xmlns:cc="http://creativecommons.org/ns#"
   xmlns:rdf="http://www.w3.org/1999/02/22-rdf-syntax-ns#"
   xmlns:svg="http://www.w3.org/2000/svg"
   xmlns="http://www.w3.org/2000/svg"
   xmlns:xlink="http://www.w3.org/1999/xlink"
   xmlns:sodipodi="http://sodipodi.sourceforge.net/DTD/sodipodi-0.dtd"
   xmlns:inkscape="http://www.inkscape.org/namespaces/inkscape"
   width="118.90659mm"
   height="225.58003mm"
   viewBox="0 0 421.32257 799.29932"
   id="svg8082"
   version="1.1"
   inkscape:version="0.91 r13725"
   sodipodi:docname="SG-Transform.svg">
  <defs
     id="defs8084">
    <clipPath
       id="p2e07fd7aa0">
      <rect
         height="230.39999"
         width="223.2"
         x="28.890625"
         y="13.006875"
         id="rect7999" />
    </clipPath>
    <clipPath
       id="clipPath8015">
      <rect
         height="230.39999"
         width="223.2"
         x="28.890625"
         y="13.006875"
         id="rect8017" />
    </clipPath>
    <clipPath
       id="clipPath8019">
      <rect
         height="230.39999"
         width="223.2"
         x="28.890625"
         y="13.006875"
         id="rect8021" />
    </clipPath>
    <clipPath
       id="clipPath8023">
      <rect
         height="230.39999"
         width="223.2"
         x="28.890625"
         y="13.006875"
         id="rect8025" />
    </clipPath>
    <clipPath
       id="clipPath8027">
      <rect
         height="230.39999"
         width="223.2"
         x="28.890625"
         y="13.006875"
         id="rect8029" />
    </clipPath>
    <clipPath
       id="clipPath8031">
      <rect
         height="230.39999"
         width="223.2"
         x="28.890625"
         y="13.006875"
         id="rect8033" />
    </clipPath>
    <clipPath
       id="clipPath8035">
      <rect
         height="230.39999"
         width="223.2"
         x="28.890625"
         y="13.006875"
         id="rect8037" />
    </clipPath>
    <clipPath
       id="clipPath8039">
      <rect
         height="230.39999"
         width="223.2"
         x="28.890625"
         y="13.006875"
         id="rect8041" />
    </clipPath>
    <clipPath
       id="pef0dccab32">
      <rect
         height="345.60001"
         width="223.2"
         x="28.890625"
         y="13.006875"
         id="rect8396" />
    </clipPath>
    <clipPath
       id="clipPath8412">
      <rect
         height="345.60001"
         width="223.2"
         x="28.890625"
         y="13.006875"
         id="rect8414" />
    </clipPath>
    <clipPath
       id="clipPath8416">
      <rect
         height="345.60001"
         width="223.2"
         x="28.890625"
         y="13.006875"
         id="rect8418" />
    </clipPath>
    <clipPath
       id="clipPath8420">
      <rect
         height="345.60001"
         width="223.2"
         x="28.890625"
         y="13.006875"
         id="rect8422" />
    </clipPath>
    <clipPath
       id="clipPath8424">
      <rect
         height="345.60001"
         width="223.2"
         x="28.890625"
         y="13.006875"
         id="rect8426" />
    </clipPath>
    <clipPath
       id="clipPath8428">
      <rect
         height="345.60001"
         width="223.2"
         x="28.890625"
         y="13.006875"
         id="rect8430" />
    </clipPath>
    <clipPath
       id="clipPath8432">
      <rect
         height="345.60001"
         width="223.2"
         x="28.890625"
         y="13.006875"
         id="rect8434" />
    </clipPath>
    <clipPath
       id="clipPath8436">
      <rect
         height="345.60001"
         width="223.2"
         x="28.890625"
         y="13.006875"
         id="rect8438" />
    </clipPath>
    <marker
       inkscape:isstock="true"
       style="overflow:visible"
       id="Arrow2Lend-2"
       refX="0"
       refY="0"
       orient="auto"
       inkscape:stockid="Arrow2Lend">
      <path
         transform="matrix(-1.1,0,0,-1.1,-1.1,0)"
         d="M 8.7185878,4.0337352 -2.2072895,0.01601326 8.7185884,-4.0017078 c -1.7454984,2.3720609 -1.7354408,5.6174519 -6e-7,8.035443 z"
         style="fill:#000000;fill-opacity:1;fill-rule:evenodd;stroke:#000000;stroke-width:0.625;stroke-linejoin:round;stroke-opacity:1"
         id="path6692-7"
         inkscape:connector-curvature="0" />
    </marker>
    <marker
       inkscape:isstock="true"
       style="overflow:visible"
       id="Arrow2Lend"
       refX="0"
       refY="0"
       orient="auto"
       inkscape:stockid="Arrow2Lend">
      <path
         transform="matrix(-1.1,0,0,-1.1,-1.1,0)"
         d="M 8.7185878,4.0337352 -2.2072895,0.01601326 8.7185884,-4.0017078 c -1.7454984,2.3720609 -1.7354408,5.6174519 -6e-7,8.035443 z"
         style="fill:#000000;fill-opacity:1;fill-rule:evenodd;stroke:#000000;stroke-width:0.625;stroke-linejoin:round;stroke-opacity:1"
         id="path6692"
         inkscape:connector-curvature="0" />
    </marker>
  </defs>
  <sodipodi:namedview
     id="base"
     pagecolor="#ffffff"
     bordercolor="#666666"
     borderopacity="1.0"
     inkscape:pageopacity="0.0"
     inkscape:pageshadow="2"
     inkscape:zoom="0.87137299"
     inkscape:cx="369.25227"
     inkscape:cy="281.94969"
     inkscape:document-units="px"
     inkscape:current-layer="layer1"
     showgrid="false"
     fit-margin-top="0"
     fit-margin-left="0"
     fit-margin-right="0"
     fit-margin-bottom="0"
     inkscape:window-width="1920"
     inkscape:window-height="1056"
     inkscape:window-x="0"
     inkscape:window-y="24"
     inkscape:window-maximized="1" />
  <metadata
     id="metadata8087">
    <rdf:RDF>
      <cc:Work
         rdf:about="">
        <dc:format>image/svg+xml</dc:format>
        <dc:type
           rdf:resource="http://purl.org/dc/dcmitype/StillImage" />
        <dc:title></dc:title>
      </cc:Work>
    </rdf:RDF>
  </metadata>
  <g
     inkscape:label="Layer 1"
     inkscape:groupmode="layer"
     id="layer1"
     transform="translate(-2.7949728,-8.8314586)">
    <g
       transform="matrix(1.25,0,0,1.25,6.9859929,8.8314586)"
       id="figure_1">
      <g
         id="patch_1">
        <path
           inkscape:connector-curvature="0"
           d="m 0,266.22062 263.10812,0 L 263.10812,0 0,0 Z"
           style="fill:#ffffff"
           id="path7932" />
      </g>
      <g
         id="axes_1">
        <g
           id="PathCollection_1">
          <defs
             id="defs7936">
            <path
               inkscape:connector-curvature="0"
               d="m 0,2.236068 c 0.593012,0 1.161816,-0.235606 1.581139,-0.654929 C 2.000462,1.161816 2.236068,0.593012 2.236068,0 c 0,-0.593012 -0.235606,-1.161816 -0.654929,-1.581139 C 1.161816,-2.000462 0.593012,-2.236068 0,-2.236068 c -0.593012,0 -1.161816,0.235606 -1.581139,0.654929 C -2.000462,-1.161816 -2.236068,-0.593012 -2.236068,0 c 0,0.593012 0.235606,1.161816 0.654929,1.581139 C -1.161816,2.000462 -0.593012,2.236068 0,2.236068 Z"
               id="mc906d3ff23"
               style="stroke:#000000" />
          </defs>
          <g
             clip-path="url(#p2e07fd7aa0)"
             id="g7939">
            <use
               height="100%"
               width="100%"
               style="fill:#0000ff;stroke:#000000"
               x="62.650444"
               xlink:href="#mc906d3ff23"
               y="128.20688"
               id="use7941" />
            <use
               height="100%"
               width="100%"
               style="fill:#0000ff;stroke:#000000"
               x="108.27448"
               xlink:href="#mc906d3ff23"
               y="161.46225"
               id="use7943" />
            <use
               height="100%"
               width="100%"
               style="fill:#0000ff;stroke:#000000"
               x="108.27448"
               xlink:href="#mc906d3ff23"
               y="128.20688"
               id="use7945" />
            <use
               height="100%"
               width="100%"
               style="fill:#0000ff;stroke:#000000"
               x="108.27448"
               xlink:href="#mc906d3ff23"
               y="94.9515"
               id="use7947" />
            <use
               height="100%"
               width="100%"
               style="fill:#0000ff;stroke:#000000"
               x="126.70625"
               xlink:href="#mc906d3ff23"
               y="128.20688"
               id="use7949" />
            <use
               height="100%"
               width="100%"
               style="fill:#0000ff;stroke:#000000"
               x="140.49063"
               xlink:href="#mc906d3ff23"
               y="208.55803"
               id="use7951" />
            <use
               height="100%"
               width="100%"
               style="fill:#0000ff;stroke:#000000"
               x="140.49063"
               xlink:href="#mc906d3ff23"
               y="161.46225"
               id="use7953" />
            <use
               height="100%"
               width="100%"
               style="fill:#0000ff;stroke:#000000"
               x="140.49063"
               xlink:href="#mc906d3ff23"
               y="142.43591"
               id="use7955" />
            <use
               height="100%"
               width="100%"
               style="fill:#0000ff;stroke:#000000"
               x="140.49063"
               xlink:href="#mc906d3ff23"
               y="128.20688"
               id="use7957" />
            <use
               height="100%"
               width="100%"
               style="fill:#0000ff;stroke:#000000"
               x="140.49063"
               xlink:href="#mc906d3ff23"
               y="113.97784"
               id="use7959" />
            <use
               height="100%"
               width="100%"
               style="fill:#0000ff;stroke:#000000"
               x="140.49063"
               xlink:href="#mc906d3ff23"
               y="94.9515"
               id="use7961" />
            <use
               height="100%"
               width="100%"
               style="fill:#0000ff;stroke:#000000"
               x="140.49063"
               xlink:href="#mc906d3ff23"
               y="47.855721"
               id="use7963" />
            <use
               height="100%"
               width="100%"
               style="fill:#0000ff;stroke:#000000"
               x="154.27499"
               xlink:href="#mc906d3ff23"
               y="128.20688"
               id="use7965" />
            <use
               height="100%"
               width="100%"
               style="fill:#0000ff;stroke:#000000"
               x="172.70677"
               xlink:href="#mc906d3ff23"
               y="161.46225"
               id="use7967" />
            <use
               height="100%"
               width="100%"
               style="fill:#0000ff;stroke:#000000"
               x="172.70677"
               xlink:href="#mc906d3ff23"
               y="128.20688"
               id="use7969" />
            <use
               height="100%"
               width="100%"
               style="fill:#0000ff;stroke:#000000"
               x="172.70677"
               xlink:href="#mc906d3ff23"
               y="94.9515"
               id="use7971" />
            <use
               height="100%"
               width="100%"
               style="fill:#0000ff;stroke:#000000"
               x="218.33081"
               xlink:href="#mc906d3ff23"
               y="128.20688"
               id="use7973" />
          </g>
        </g>
        <g
           id="LineCollection_1">
          <path
             inkscape:connector-curvature="0"
             clip-path="url(#p2e07fd7aa0)"
             d="m 130.60202,205.76249 2.82531,0.3423 2.82532,0.22494 2.82532,0.11149 2.82531,0 2.82532,-0.11149 2.82532,-0.22494 5.65063,-0.7867 2.82532,-0.53254 2.82531,-0.65965 2.82532,-0.79901 5.65063,-1.94433 5.65063,-2.49341 4.00856,-2.14557 1.64208,-0.93036 3.08509,-1.98609 4.06832,-2.91646 1.32254,-1.02499 2.82531,-2.40227 2.82532,-2.64992 2.82532,-2.93079 2.82531,-3.26411 2.82532,-3.67539 1.11166,-1.55126 1.88695,-2.91646 2.65202,-4.6115 0.66121,-1.22141 2.16411,-4.66376 0.51852,-1.16915 1.15017,-2.91646 1.88357,-5.83291 0.77404,-2.91645 0.63904,-2.91646 0.9464,-5.83291 0.33161,-2.91646 0.32592,-5.83291 -0.10801,-5.83291 -0.21791,-2.91645 -0.76212,-5.83292 -0.51589,-2.91645 -0.63904,-2.91646 -1.50099,-5.23381 -0.17669,-0.5991 -0.97993,-2.91645 -2.41549,-5.832916 -2.07852,-4.137862 -0.90129,-1.695049 -1.92403,-3.184607 -2.82531,-4.199563 -0.99297,-1.365197 -2.32719,-2.916456 -2.56711,-2.916455 -2.8392,-2.916456 -3.16211,-2.916456 -3.56054,-2.916455 -1.50278,-1.147519 -2.82532,-1.947825 -4.46739,-2.737568 -1.18324,-0.682536 -4.51802,-2.23392 -1.13261,-0.53525 -2.82532,-1.187271 -5.65063,-1.944326 -2.82532,-0.799012 -2.82531,-0.659653 -5.65064,-0.976935 -2.82531,-0.342305 -2.82532,-0.224935 -2.82532,-0.111498 -2.82531,0 -2.82532,0.111498 -2.82532,0.224935 -5.65063,0.786704 -2.82532,0.532536 -2.82531,0.659653 -2.82532,0.799012 -5.65063,1.944326 -5.65063,2.493411 -4.00856,2.145566 -1.64208,0.930369 -3.085086,1.986087 -4.068326,2.916456 -1.322535,1.024995 -2.825316,2.402263 -2.825316,2.649926 -2.825317,2.930785 -2.825316,3.264113 -2.825317,3.675393 -1.111658,1.551259 -1.886956,2.916455 -2.652019,4.611505 -0.661207,1.221407 -2.164109,4.663758 -0.518524,1.169153 -1.150169,2.91646 -1.883565,5.83291 -0.774043,2.91645 -0.639039,2.91646 -0.946406,5.83291 -0.331608,2.91646 -0.32592,5.83291 0.108014,5.83291 0.217906,2.91645 0.76212,5.83292 0.515894,2.91645 0.639039,2.91646 1.500984,5.23381 0.176696,0.5991 0.979928,2.91645 2.415492,5.83292 2.078517,4.13786 0.901295,1.69505 1.924022,3.1846 2.825316,4.19957 0.992965,1.36519 2.327192,2.91646 2.567116,2.91645 2.839197,2.91646 3.16211,2.91646 3.560537,2.91645 1.502782,1.14752 2.825316,1.94783 4.467394,2.73756 1.18324,0.68254 4.51801,2.23392 1.13262,0.53525 2.82532,1.18727 5.65063,1.94433 2.82532,0.79901 2.82531,0.65965 5.65064,0.97694 0,0"
             style="fill:none;stroke:#000080"
             id="path7976" />
        </g>
        <g
           id="LineCollection_2">
          <path
             inkscape:connector-curvature="0"
             clip-path="url(#p2e07fd7aa0)"
             d="m 130.60202,191.21388 2.82531,0.41462 2.82532,0.27246 2.82532,0.13505 2.82531,0 2.82532,-0.13505 2.82532,-0.27246 4.36012,-0.71783 1.29051,-0.24146 2.82532,-0.66976 2.82531,-0.82963 3.24365,-1.1756 2.40698,-0.9596 4.0209,-1.95686 1.62974,-0.86243 3.34877,-2.05403 2.30186,-1.55651 2.82532,-2.16111 2.82531,-2.43688 2.82532,-2.75132 2.82532,-3.1297 2.82531,-3.60677 1.31745,-1.85644 1.84511,-2.91645 2.48808,-4.59877 0.61502,-1.23415 1.28068,-2.91645 2.06848,-5.83291 0.80371,-2.91646 0.88274,-4.24859 0.29373,-1.58432 0.40167,-2.91646 0.26394,-2.91645 0.13083,-2.91646 0,-2.91645 -0.13083,-2.91646 -0.26394,-2.91645 -0.6954,-4.50078 -0.23391,-1.33214 -0.64883,-2.91645 -0.80371,-2.91646 -1.13887,-3.34827 -0.92961,-2.48464 -1.8957,-4.1506 -0.83548,-1.68231 -1.98984,-3.456793 -1.50787,-2.376118 -2.09358,-2.916456 -2.36073,-2.916456 -2.66534,-2.916455 -3.03189,-2.916456 -3.49407,-2.916456 -1.79842,-1.359941 -2.82532,-1.904635 -4.45505,-2.568335 -1.19558,-0.634865 -2.82532,-1.321993 -5.65063,-2.135201 -2.82531,-0.829634 -4.11583,-0.911218 -1.53481,-0.303211 -2.82531,-0.414622 -2.82532,-0.272455 -2.82532,-0.135053 -2.82531,0 -2.82532,0.135053 -2.82532,0.272455 -4.36012,0.717833 -1.29051,0.241457 -2.82532,0.669761 -2.82531,0.829634 -3.24365,1.175603 -2.40698,0.959598 -4.0209,1.956858 -1.62974,0.862426 -3.34877,2.05403 -2.30186,1.556514 -2.82532,2.161114 -2.825314,2.436881 -2.825316,2.751318 -2.825317,3.129693 -2.825316,3.606778 -1.317443,1.856436 -1.845115,2.916455 -2.488075,4.598766 -0.615026,1.23415 -1.28068,2.91645 -2.068476,5.83291 -0.803708,2.91646 -0.882743,4.24859 -0.293735,1.58432 -0.401665,2.91646 -0.263941,2.91645 -0.130833,2.91646 0,2.91645 0.130833,2.91646 0.263941,2.91645 0.6954,4.50078 0.233912,1.33214 0.648831,2.91645 0.803708,2.91646 1.138866,3.34827 0.92961,2.48464 1.895706,4.1506 0.835476,1.68231 1.989841,3.45679 1.507873,2.37612 2.093579,2.91646 2.360729,2.91645 2.665339,2.91646 3.03189,2.91645 3.494069,2.91646 1.79842,1.35994 2.82532,1.90464 4.45505,2.56833 1.19558,0.63487 2.82532,1.32199 5.65063,2.1352 2.82531,0.82963 4.11583,0.91122 1.53481,0.30321 0,0"
             style="fill:none;stroke:#0028ff"
             id="path7979" />
        </g>
        <g
           id="LineCollection_3">
          <path
             inkscape:connector-curvature="0"
             clip-path="url(#p2e07fd7aa0)"
             d="m 124.95138,179.39282 2.82532,0.83652 2.82532,0.65206 2.82531,0.47927 2.82532,0.31493 2.82532,0.15611 2.82531,0 2.82532,-0.15611 2.82532,-0.31493 2.82531,-0.47927 2.82532,-0.65206 3.24088,-0.98449 2.40975,-0.85022 2.82532,-1.2014 2.82531,-1.41446 3.93798,-2.36683 1.71266,-1.16153 2.82531,-2.18368 2.82532,-2.51589 2.82532,-2.91889 2.82531,-3.43632 1.70009,-2.36597 1.83262,-2.91646 2.11793,-4.04166 0.83781,-1.79125 1.16385,-2.91645 0.967,-2.91646 0.81038,-2.91645 0.63168,-2.91646 0.46429,-2.91646 0.3051,-2.91645 0.15123,-2.91646 0,-2.91645 -0.15123,-2.91646 -0.3051,-2.91645 -0.46429,-2.91646 -0.63168,-2.91646 -0.95373,-3.34542 -0.82365,-2.48749 -1.16385,-2.91645 -1.37026,-2.91646 -2.29287,-4.065001 -1.12523,-1.767909 -2.11544,-2.916456 -2.43726,-2.916455 -2.82768,-2.916456 -3.32894,-2.916456 -2.29203,-1.754925 -2.82532,-1.891745 -3.91536,-2.186241 -1.73527,-0.864836 -2.82532,-1.201398 -2.82531,-0.998188 -2.82532,-0.836523 -2.82532,-0.652063 -2.82531,-0.479268 -2.82532,-0.314935 -2.82532,-0.15611 -2.82531,0 -2.82532,0.15611 -2.82532,0.314935 -2.82531,0.479268 -2.82532,0.652063 -3.24088,0.984489 -2.40975,0.850222 -2.82532,1.201398 -2.82531,1.414462 -3.93798,2.36683 -1.71266,1.16153 -2.82531,2.183677 -2.82532,2.515886 -2.82532,2.918894 -2.825314,3.436319 -1.700084,2.365972 -1.832627,2.91646 -2.117922,4.04166 -0.83781,1.79125 -1.163854,2.91645 -0.966995,2.91646 -0.810381,2.91645 -0.631686,2.91646 -0.464291,2.91646 -0.305093,2.91645 -0.151232,2.91646 0,2.91645 0.151232,2.91646 0.305093,2.91645 0.464291,2.91646 0.631686,2.91646 0.953724,3.34542 0.823652,2.48749 1.163854,2.91645 1.370261,2.91646 2.292866,4.065 1.125232,1.76791 2.115438,2.91646 2.43726,2.91645 2.82768,2.91646 3.32894,2.91645 2.29203,1.75493 2.82532,1.89174 3.91536,2.18624 1.73527,0.86484 2.82532,1.2014 2.82531,0.99819 0,0"
             style="fill:none;stroke:#00d4ff"
             id="path7982" />
        </g>
        <g
           id="LineCollection_4">
          <path
             inkscape:connector-curvature="0"
             clip-path="url(#p2e07fd7aa0)"
             d="m 127.7767,171.29739 2.82532,0.78427 2.82531,0.57644 2.82532,0.37878 2.82532,0.18776 2.82531,0 2.82532,-0.18776 2.82532,-0.37878 2.82531,-0.57644 2.82532,-0.78427 2.26491,-0.80191 0.56041,-0.20126 2.82531,-1.22821 2.82402,-1.48698 0.001,-7.1e-4 2.82531,-1.76883 1.58669,-1.14692 1.23863,-0.9506 2.2723,-1.96585 0.55302,-0.51745 2.32404,-2.39901 0.50127,-0.57085 1.90443,-2.34561 0.92089,-1.27859 1.11108,-1.63786 1.71355,-2.91646 6.9e-4,-0.001 1.44051,-2.91511 1.18983,-2.91646 0.19497,-0.57848 0.77685,-2.33797 0.75976,-2.91646 0.55842,-2.91646 0.36696,-2.91645 0.18189,-2.91646 0,-2.91645 -0.18189,-2.91646 -0.36696,-2.91645 -0.55842,-2.91646 -0.75976,-2.91646 -0.77685,-2.33797 -0.19497,-0.57848 -1.18983,-2.91646 -1.44051,-2.91511 -6.9e-4,-10e-4 -1.71355,-2.91646 -1.11108,-1.63786 -0.92089,-1.27859 -1.90443,-2.345607 -0.50127,-0.570853 -2.32404,-2.399008 -0.55302,-0.517448 -2.2723,-1.965856 -1.23863,-0.950599 -1.58669,-1.146924 -2.82531,-1.768822 -0.001,-7.1e-4 -2.82402,-1.48698 -2.82531,-1.228217 -0.56041,-0.201259 -2.26491,-0.801906 -2.82532,-0.784268 -2.82531,-0.576439 -2.82532,-0.378787 -2.82532,-0.187762 -2.82531,0 -2.82532,0.187762 -2.82532,0.378787 -2.82531,0.576439 -2.82532,0.784268 -2.26491,0.801906 -0.56041,0.201259 -2.82531,1.228217 -2.82402,1.48698 -10e-4,7.1e-4 -2.82531,1.768822 -1.58669,1.146924 -1.23863,0.950599 -2.2723,1.965856 -0.55302,0.517448 -2.32404,2.399008 -0.50127,0.570853 -1.90443,2.345607 -0.92089,1.27859 -1.11108,1.63786 -1.71355,2.91646 -6.9e-4,10e-4 -1.44051,2.91511 -1.189834,2.91646 -0.19497,0.57848 -0.776847,2.33797 -0.759759,2.91646 -0.558425,2.91646 -0.366951,2.91645 -0.181894,2.91646 0,2.91645 0.181894,2.91646 0.366951,2.91645 0.558425,2.91646 0.759759,2.91646 0.776847,2.33797 0.19497,0.57848 1.189834,2.91646 1.44051,2.91511 6.9e-4,0.001 1.71355,2.91646 1.11108,1.63786 0.92089,1.27859 1.90443,2.34561 0.50127,0.57085 2.32404,2.39901 0.55302,0.51745 2.2723,1.96585 1.23863,0.9506 1.58669,1.14692 2.82531,1.76883 10e-4,7.1e-4 2.82402,1.48698 2.82531,1.22821 0.56041,0.20126 2.26491,0.80191"
             style="fill:none;stroke:#7aff7d"
             id="path7985" />
        </g>
        <g
           id="LineCollection_5">
          <path
             inkscape:connector-curvature="0"
             clip-path="url(#p2e07fd7aa0)"
             d="m 136.25265,164.967 2.82532,0.23044 2.82531,0 2.82532,-0.23044 1.85751,-0.30443 0.96781,-0.16174 2.82531,-0.71312 2.82532,-0.97023 2.44154,-1.07136 0.38378,-0.17696 2.82531,-1.57407 1.75399,-1.16543 1.07133,-0.7674 2.58753,-2.14906 0.23778,-0.21754 2.61457,-2.69891 0.21075,-0.24545 2.0819,-2.67101 0.74342,-1.10589 1.12901,-1.81056 1.52487,-2.91646 0.17143,-0.39616 1.03789,-2.52029 0.93991,-2.91646 0.69083,-2.91646 0.15669,-0.99903 0.29491,-1.91742 0.22324,-2.91646 0,-2.91645 -0.22324,-2.91646 -0.29491,-1.91742 -0.15669,-0.99903 -0.69083,-2.91646 -0.93991,-2.91646 -1.03789,-2.52029 -0.17143,-0.39616 -1.52487,-2.91646 -1.12901,-1.81056 -0.74342,-1.10589 -2.0819,-2.67101 -0.21075,-0.24545 -2.61457,-2.69891 -0.23778,-0.21754 -2.58753,-2.149061 -1.07133,-0.767399 -1.75399,-1.165431 -2.82531,-1.574066 -0.38378,-0.176959 -2.44154,-1.071363 -2.82532,-0.97023 -2.82531,-0.713122 -0.96781,-0.16174 -1.85751,-0.304428 -2.82532,-0.230438 -2.82531,0 -2.82532,0.230438 -1.85751,0.304428 -0.96781,0.16174 -2.82531,0.713122 -2.82532,0.97023 -2.44154,1.071363 -0.38378,0.176959 -2.82531,1.574066 -1.75399,1.165431 -1.07133,0.767399 -2.58753,2.149061 -0.23778,0.21754 -2.61457,2.69891 -0.21075,0.24545 -2.0819,2.67101 -0.74342,1.10589 -1.12901,1.81056 -1.52488,2.91646 -0.17142,0.39616 -1.03789,2.52029 -0.93991,2.91646 -0.69083,2.91646 -0.15669,0.99903 -0.29491,1.91742 -0.22324,2.91646 0,2.91645 0.22324,2.91646 0.29491,1.91742 0.15669,0.99903 0.69083,2.91646 0.93991,2.91646 1.03789,2.52029 0.17142,0.39616 1.52488,2.91646 1.12901,1.81056 0.74342,1.10589 2.0819,2.67101 0.21075,0.24545 2.61457,2.69891 0.23778,0.21754 2.58753,2.14906 1.07133,0.7674 1.75399,1.16543 2.82531,1.57407 0.38378,0.17696 2.44154,1.07136 2.82532,0.97023 2.82531,0.71312 0.96781,0.16174 1.85751,0.30443"
             style="fill:none;stroke:#ffe600"
             id="path7988" />
        </g>
        <g
           id="LineCollection_6">
          <path
             inkscape:connector-curvature="0"
             clip-path="url(#p2e07fd7aa0)"
             d="m 133.42733,156.12432 2.82532,0.59441 2.82532,0.29464 2.82531,0 2.82532,-0.29464 2.82532,-0.59441 0.66819,-0.21112 2.15712,-0.72943 2.82532,-1.29455 1.53851,-0.89247 1.28681,-0.823 2.6886,-2.09346 0.13671,-0.12061 2.70847,-2.79584 0.11685,-0.14113 2.02804,-2.77533 0.79727,-1.32831 0.86459,-1.58814 1.2541,-2.91646 0.70663,-2.22671 0.20452,-0.68975 0.57583,-2.91645 0.28543,-2.91646 0,-2.91645 -0.28543,-2.91646 -0.57583,-2.91645 -0.20452,-0.68975 -0.70663,-2.22671 -1.2541,-2.91646 -0.86459,-1.58814 -0.79727,-1.32831 -2.02804,-2.77533 -0.11685,-0.14113 -2.70847,-2.79584 -0.13671,-0.12061 -2.6886,-2.09346 -1.28681,-0.823 -1.53851,-0.89247 -2.82532,-1.29455 -2.15712,-0.72943 -0.66819,-0.21112 -2.82532,-0.594407 -2.82532,-0.29464 -2.82531,0 -2.82532,0.29464 -2.82532,0.594407 -0.66819,0.21112 -2.15712,0.72943 -2.82532,1.29455 -1.53851,0.89247 -1.28681,0.823 -2.6886,2.09346 -0.13671,0.12061 -2.70847,2.79584 -0.11685,0.14113 -2.02804,2.77533 -0.79727,1.32831 -0.86459,1.58814 -1.2541,2.91646 -0.70663,2.22671 -0.20452,0.68975 -0.57583,2.91645 -0.28543,2.91646 0,2.91645 0.28543,2.91646 0.57583,2.91645 0.20452,0.68975 0.70663,2.22671 1.2541,2.91646 0.86459,1.58814 0.79727,1.32831 2.02804,2.77533 0.11685,0.14113 2.70847,2.79584 0.13671,0.12061 2.6886,2.09346 1.28681,0.823 1.53851,0.89247 2.82532,1.29455 2.15712,0.72943 0.66819,0.21112"
             style="fill:none;stroke:#ff4700"
             id="path7991" />
        </g>
        <g
           id="LineCollection_7">
          <path
             inkscape:connector-curvature="0"
             clip-path="url(#p2e07fd7aa0)"
             d="m 139.07797,147.57973 2.82531,0 2.77207,-0.41589 0.0532,-0.009 2.82532,-0.96107 2.82531,-1.46254 0.69903,-0.48382 2.12629,-1.75083 1.1292,-1.16562 1.69612,-2.19489 0.4687,-0.72157 1.41683,-2.91646 0.93103,-2.91645 0.009,-0.055 0.4029,-2.86149 0,-2.91645 -0.4029,-2.86149 -0.009,-0.055 -0.93103,-2.91645 -1.41683,-2.91646 -0.4687,-0.72157 -1.69612,-2.19489 -1.1292,-1.16562 -2.12629,-1.75083 -0.69903,-0.48382 -2.82531,-1.46254 -2.82532,-0.96107 -0.0532,-0.009 -2.77207,-0.41589 -2.82531,0 -2.77207,0.41589 -0.0533,0.009 -2.82532,0.96107 -2.82531,1.46254 -0.69903,0.48382 -2.12629,1.75083 -1.1292,1.16562 -1.69612,2.19489 -0.46869,0.72157 -1.41684,2.91646 -0.93103,2.91645 -0.009,0.055 -0.4029,2.86149 0,2.91645 0.4029,2.86149 0.009,0.055 0.93103,2.91645 1.41684,2.91646 0.46869,0.72157 1.69612,2.19489 1.1292,1.16562 2.12629,1.75083 0.69903,0.48382 2.82531,1.46254 2.82532,0.96107 0.0533,0.009 2.77207,0.41589"
             style="fill:none;stroke:#800000"
             id="path7994" />
        </g>
      </g>
    </g>
    <g
       transform="matrix(1.25,0,0,1.25,4.243344,331.35502)"
       id="figure_1-1">
      <g
         id="patch_1-2">
        <path
           inkscape:connector-curvature="0"
           d="m 0,381.42062 259.29062,0 L 259.29062,0 0,0 Z"
           style="fill:#ffffff"
           id="path8330" />
      </g>
      <g
         id="axes_1-7">
        <g
           id="PathCollection_1-0">
          <defs
             id="defs8334">
            <path
               inkscape:connector-curvature="0"
               d="m 0,2.236068 c 0.593012,0 1.161816,-0.235606 1.581139,-0.654929 C 2.000462,1.161816 2.236068,0.593012 2.236068,0 c 0,-0.593012 -0.235606,-1.161816 -0.654929,-1.581139 C 1.161816,-2.000462 0.593012,-2.236068 0,-2.236068 c -0.593012,0 -1.161816,0.235606 -1.581139,0.654929 C -2.000462,-1.161816 -2.236068,-0.593012 -2.236068,0 c 0,0.593012 0.235606,1.161816 0.654929,1.581139 C -1.161816,2.000462 -0.593012,2.236068 0,2.236068 Z"
               id="m5664041d5c"
               style="stroke:#000000" />
          </defs>
          <g
             clip-path="url(#pef0dccab32)"
             id="g8337">
            <use
               height="100%"
               width="100%"
               style="fill:#0000ff;stroke:#000000"
               x="46.645042"
               xlink:href="#m5664041d5c"
               y="368.51254"
               id="use8339" />
            <use
               height="100%"
               width="100%"
               style="fill:#0000ff;stroke:#000000"
               x="99.139038"
               xlink:href="#m5664041d5c"
               y="181.38985"
               id="use8341" />
            <use
               height="100%"
               width="100%"
               style="fill:#0000ff;stroke:#000000"
               x="99.139038"
               xlink:href="#m5664041d5c"
               y="165.10019"
               id="use8343" />
            <use
               height="100%"
               width="100%"
               style="fill:#0000ff;stroke:#000000"
               x="99.139038"
               xlink:href="#m5664041d5c"
               y="148.81053"
               id="use8345" />
            <use
               height="100%"
               width="100%"
               style="fill:#0000ff;stroke:#000000"
               x="120.40196"
               xlink:href="#m5664041d5c"
               y="119.62794"
               id="use8347" />
            <use
               height="100%"
               width="100%"
               style="fill:#0000ff;stroke:#000000"
               x="136.31438"
               xlink:href="#m5664041d5c"
               y="138.84787"
               id="use8349" />
            <use
               height="100%"
               width="100%"
               style="fill:#0000ff;stroke:#000000"
               x="136.31438"
               xlink:href="#m5664041d5c"
               y="115.7104"
               id="use8351" />
            <use
               height="100%"
               width="100%"
               style="fill:#0000ff;stroke:#000000"
               x="136.31438"
               xlink:href="#m5664041d5c"
               y="106.39101"
               id="use8353" />
            <use
               height="100%"
               width="100%"
               style="fill:#0000ff;stroke:#000000"
               x="136.31438"
               xlink:href="#m5664041d5c"
               y="99.426773"
               id="use8355" />
            <use
               height="100%"
               width="100%"
               style="fill:#0000ff;stroke:#000000"
               x="136.31438"
               xlink:href="#m5664041d5c"
               y="92.46254"
               id="use8357" />
            <use
               height="100%"
               width="100%"
               style="fill:#0000ff;stroke:#000000"
               x="136.31438"
               xlink:href="#m5664041d5c"
               y="83.143143"
               id="use8359" />
            <use
               height="100%"
               width="100%"
               style="fill:#0000ff;stroke:#000000"
               x="136.31438"
               xlink:href="#m5664041d5c"
               y="60.00568"
               id="use8361" />
            <use
               height="100%"
               width="100%"
               style="fill:#0000ff;stroke:#000000"
               x="152.22679"
               xlink:href="#m5664041d5c"
               y="91.039742"
               id="use8363" />
            <use
               height="100%"
               width="100%"
               style="fill:#0000ff;stroke:#000000"
               x="173.48972"
               xlink:href="#m5664041d5c"
               y="114.57495"
               id="use8365" />
            <use
               height="100%"
               width="100%"
               style="fill:#0000ff;stroke:#000000"
               x="173.48972"
               xlink:href="#m5664041d5c"
               y="98.285301"
               id="use8367" />
            <use
               height="100%"
               width="100%"
               style="fill:#0000ff;stroke:#000000"
               x="173.48972"
               xlink:href="#m5664041d5c"
               y="81.995651"
               id="use8369" />
            <use
               height="100%"
               width="100%"
               style="fill:#0000ff;stroke:#000000"
               x="225.9837"
               xlink:href="#m5664041d5c"
               y="207.07539"
               id="use8371" />
          </g>
        </g>
        <g
           id="LineCollection_1-9">
          <path
             inkscape:connector-curvature="0"
             clip-path="url(#pef0dccab32)"
             d="m 53.068814,339.05756 0.264945,-2.3241 -0.264945,-2.30532 -0.115416,2.30532 0.115416,2.3241"
             style="fill:none;stroke:#000080"
             id="path8374" />
          <path
             inkscape:connector-curvature="0"
             clip-path="url(#pef0dccab32)"
             d="m 56.328794,331.8575 0.815882,-3.87341 1.109143,-4.37468 1.334956,-2.74268 1.46838,-6.00669 1.336932,-4.37468 0.454668,-1.05513 2.034223,-7.69424 1.405285,-4.37468 3.080454,-10.74012 0.739834,-2.38394 2.520146,-8.77955 1.388274,-4.3445 1.871707,-6.41782 0.798964,-2.33154 2.657211,-8.74937 1.497231,-4.37468 1.566555,-5.22071 1.307176,-3.52866 1.952804,-6.20298 0.991973,-2.54639 3.048901,-8.74937 5.739068,-15.65512 0.819157,-1.84361 3.565707,-8.74937 2.135095,-5.36507 1.63822,-3.38429 1.81145,-4.37469 4.32567,-8.74936 2.0549,-4.37469 6.46966,-11.39248 6.90284,-10.48094 3.38768,-4.37468 3.86733,-4.37468 4.47744,-4.37469 0.9246,-0.79501 4.8371,-3.57967 1.68286,-0.98168 3.25998,-1.58238 3.25998,-1.2856 3.25998,-0.77911 3.25998,-0.27268 3.25998,0.11345 3.25998,0.52039 3.25998,1.10631 3.25998,1.44435 3.28119,1.71695 5.78809,4.37468 0.71066,0.62658 3.91261,3.74811 3.9265,4.37468 3.52824,4.37468 3.23676,4.37469 3.02458,4.37468 5.58727,8.74937 9.38385,15.94843 1.29395,1.5503 1.96603,3.50708 2.31976,0.86761 0.94022,0.83877 0.14292,-0.83877 -0.14292,-4.77658 -1.55659,-8.34747 -0.78272,-4.37469 -0.92067,-4.44824 -4.49164,-17.42518 -2.02832,-6.93266 -1.8218,-6.19139 -5.9327,-17.49873 -3.34134,-8.74937 -5.70608,-13.124048 -2.75796,-5.674489 -1.52539,-3.074878 -2.44203,-4.374683 -2.65918,-4.374684 -3.15335,-4.819727 -3.25998,-4.371636 -3.43856,-3.932687 -3.0814,-3.138315 -3.25998,-2.65133 -3.25998,-2.041271 -3.25998,-1.466899 -3.25998,-1.027148 -3.25998,-0.397903 -3.25998,0.178274 -3.25998,0.778403 -3.25998,1.359903 -3.25998,1.716721 -3.25998,2.542517 -3.25998,2.840609 -5.01209,5.681122 -1.50787,1.860015 -3.25998,4.615339 -3.25998,5.196805 -0.87315,1.451892 -6.98896,13.12405 -1.91784,4.435438 -2.09907,4.31393 -1.82228,4.37468 -1.81855,4.37469 -0.78006,2.17326 -0.97633,2.20142 -4.826904,13.12405 -0.716725,2.3466 -0.820134,2.02808 -1.497862,4.37469 -1.348048,4.37468 -1.533493,4.37468 -1.320424,4.90735 -1.39432,3.84202 -2.503545,8.74937 -1.332372,4.37468 -1.289724,5.34166 -1.137127,3.40771 -1.152442,4.37468 -0.973353,4.37469 -1.371513,4.37468 -2.035597,8.74937 -1.265581,4.37468 -1.916448,8.74937 -1.21862,4.37468 -7.590974,34.99747 -0.898228,4.605 -0.959033,4.14437 -6.516923,34.99747 -1.294979,8.74936 -1.009007,4.66454 -0.579069,4.08483 -0.866493,8.74937 -0.278742,4.37468 1.724304,3.87341 0,0"
             style="fill:none;stroke:#000080"
             id="path8376" />
        </g>
        <g
           id="LineCollection_2-3">
          <path
             inkscape:connector-curvature="0"
             clip-path="url(#pef0dccab32)"
             d="m 72.628697,259.92693 0.511843,-1.93778 1.339341,-4.37468 1.408797,-2.22411 2.022762,-6.52526 1.237218,-2.61857 1.976065,-6.13079 1.729886,-4.37469 1.467053,-4.37468 1.697359,-4.37469 1.543181,-4.37468 8.551302,-21.87342 2.595037,-6.32056 6.972349,-15.55285 2.80759,-5.81358 6.51996,-12.27831 5.01456,-8.15622 2.91457,-4.37468 3.16868,-4.37468 3.51579,-4.37469 1.68631,-1.9395 3.25998,-3.41578 3.75701,-3.39408 2.76295,-2.04757 3.49804,-2.32712 3.02192,-1.45801 3.25998,-1.23864 3.25998,-0.86095 3.25998,-0.43583 3.25998,0.0116 3.25998,0.44843 3.25998,0.84876 3.25998,1.20654 3.25998,1.55472 3.25998,2.03074 3.25998,2.28853 5.16983,4.35351 4.61012,4.47988 6.51996,6.52825 3.25998,2.75488 1.67587,-0.63896 0.66654,-4.37468 -0.70707,-4.37469 -0.91411,-4.37468 -1.18935,-4.37468 -2.79186,-8.86104 -3.25998,-8.74163 -3.25998,-7.6717 -0.42767,-0.97373 -2.83232,-5.898683 -1.45671,-2.850688 -2.4527,-4.374684 -2.70255,-4.374683 -3.16798,-4.579551 -3.35598,-4.169816 -3.16398,-3.383584 -3.25998,-2.872584 -3.89961,-2.493199 -2.62035,-1.393 -3.25998,-1.071774 -3.25998,-0.470694 -3.25998,0.09225 -3.25998,0.658267 -3.25998,1.279442 -3.25998,1.818394 -3.25998,2.368916 -3.25998,2.929922 -3.25998,3.553815 -3.25998,4.108287 -3.25998,4.646021 -3.25998,5.20499 -1.47306,2.523269 -2.36526,4.374683 -4.38127,8.749364 -5.72245,13.12405 -3.44666,8.74937 -4.677246,13.12405 -1.504331,4.37468 -4.203675,13.12405 -1.565878,5.48162 -1.052215,3.26775 -6.002731,21.87342 -3.308107,13.12405 -4.013694,17.49873 -0.889979,4.37468 -1.081528,4.37469 -2.40512,13.12405 -0.806509,3.03078 -0.234478,1.3439 -0.558614,4.37469 -0.404954,4.37468 -0.03308,4.37468 1.231123,1.93778 0,0"
             style="fill:none;stroke:#004cff"
             id="path8379" />
        </g>
        <g
           id="LineCollection_3-6">
          <path
             inkscape:connector-curvature="0"
             clip-path="url(#pef0dccab32)"
             d="m 82.408639,215.45859 0.226659,-1.21627 3.033321,-1.03763 1.093939,-3.33706 2.354933,-4.37468 1.603779,-4.37468 1.46731,-2.78478 2.413157,-5.96459 0.846824,-1.63095 1.126415,-2.74373 8.062624,-17.49874 7.11086,-13.79977 4.66522,-8.07365 2.71377,-4.37468 2.8894,-4.37468 3.1339,-4.37469 3.46765,-4.37468 3.91686,-4.37468 2.03307,-2.07149 3.25998,-2.9854 3.25998,-2.51622 3.25998,-2.14778 3.25998,-1.70069 3.25998,-1.35109 3.25998,-0.91796 3.25998,-0.51179 3.25998,-0.13586 3.25998,0.23372 3.25998,0.59666 3.25998,0.95241 3.25998,1.23196 5.34109,2.57416 1.17887,0.64358 3.25998,1.64553 3.25998,1.42759 3.25999,-2.55615 0.12651,-1.16055 -0.81728,-4.37468 -1.23873,-4.37469 -1.45464,-4.37468 -3.13583,-7.205353 -0.71593,-1.544015 -2.54405,-4.861217 -3.25998,-5.331696 -3.25998,-4.552738 -3.25998,-3.822995 -3.50175,-3.304771 -3.01821,-2.28645 -3.25998,-1.808465 -3.25998,-1.231354 -3.25998,-0.606487 -3.25998,0.0032 -3.25998,0.610856 -3.25998,1.22517 -3.25998,1.735783 -3.25998,2.421863 -3.25998,2.8999 -3.25998,3.535963 -3.25998,4.128369 -3.25998,4.711265 -3.25998,5.311245 -3.07866,5.597227 -2.25747,4.37468 -2.11977,4.37468 -3.88414,8.74937 -3.53075,8.74937 -3.2583,8.74936 -3.03437,8.74937 -2.844326,8.74937 -5.332044,18.01331 -3.365785,12.60947 -1.905354,8.74937 -1.256103,4.37468 -0.747856,4.37469 -1.188576,8.74936 -1.334062,4.37469 0.01779,1.21627 0,0"
             style="fill:none;stroke:#29ffce"
             id="path8382" />
        </g>
        <g
           id="LineCollection_4-0">
          <path
             inkscape:connector-curvature="0"
             clip-path="url(#pef0dccab32)"
             d="m 95.448561,181.01881 0.724054,-1.77396 2.535926,-3.71728 0.284577,-0.6574 2.089602,-4.37469 0.8858,-1.26385 1.44305,-3.11083 1.81693,-3.11319 0.6224,-1.26149 2.36598,-4.37469 0.2716,-0.42938 2.09551,-3.9453 1.16447,-1.92522 1.3888,-2.44947 1.87118,-3.06747 0.79509,-1.30721 2.46489,-3.88703 0.31987,-0.48765 2.94012,-4.36877 0.004,-0.006 3.17034,-4.37468 0.0854,-0.11399 3.25998,-4.10957 0.13034,-0.15112 3.12964,-3.57453 0.77373,-0.80016 2.48625,-2.54562 2.01414,-1.82906 1.24584,-1.13452 3.25998,-2.54962 1.03377,-0.69054 2.22621,-1.5007 3.25998,-1.7811 2.52933,-1.09289 0.73065,-0.33151 3.25998,-1.06469 3.25998,-0.70101 3.25998,-0.36912 3.25998,-0.0736 3.25998,0.16899 3.25998,0.32503 3.25998,0.30067 3.25998,-0.32822 2.03309,-2.30126 -0.34389,-4.37468 -1.37851,-4.374688 -0.31069,-0.638451 -1.80897,-3.736232 -1.45101,-2.444705 -1.16421,-1.929979 -2.09577,-2.837484 -1.20621,-1.537199 -2.05377,-2.190627 -2.34244,-2.184057 -0.91754,-0.748259 -3.25998,-2.102962 -3.25998,-1.479892 -0.16926,-0.04357 -3.09072,-0.720633 -3.25998,-0.128029 -3.25998,0.500629 -0.98971,0.348033 -2.27027,0.788435 -3.25998,1.724946 -2.57917,1.861302 -0.68081,0.492507 -3.25998,2.939142 -0.86348,0.943035 -2.3965,2.621847 -1.37809,1.752836 -1.88189,2.420714 -1.34557,1.95397 -1.91441,2.828489 -0.94972,1.546194 -2.31026,3.852326 -0.29117,0.522362 -2.35046,4.37468 -0.61836,1.15981 -1.58647,3.21487 -1.67351,3.44672 -0.42841,0.92797 -1.91401,4.37468 -0.91756,2.06967 -0.95515,2.30501 -1.74568,4.37469 -0.55915,1.36661 -1.12066,3.00807 -1.60011,4.37468 -0.53921,1.41405 -0.99712,2.96064 -1.43607,4.37468 -0.82679,2.30597 -0.63675,2.06871 -1.24087,4.37469 -1.382359,4.07114 -0.08681,0.30354 -1.032596,4.37469 -1.075127,4.37468 -1.065448,3.28178 -0.239804,1.0929 -0.637313,4.37469 -0.201097,4.37468 1.078214,1.77396"
             style="fill:none;stroke:#ceff29"
             id="path8385" />
        </g>
        <g
           id="LineCollection_5-6">
          <path
             inkscape:connector-curvature="0"
             clip-path="url(#pef0dccab32)"
             d="m 105.2285,153.46921 0.25575,-0.47246 3.00423,-3.52317 0.46839,-0.85152 2.79159,-3.96633 0.23683,-0.40835 2.87947,-4.37468 0.14368,-0.17504 2.73094,-4.19965 0.52904,-0.69202 2.55456,-3.68266 0.70543,-0.92266 2.59051,-3.45202 0.66947,-0.84483 2.89981,-3.52986 0.36017,-0.42927 3.25998,-3.63158 0.30981,-0.31383 2.95017,-3.03285 1.50685,-1.34183 1.75313,-1.6314 3.25998,-2.53377 0.31451,-0.20952 2.94547,-2.11882 3.25998,-1.85415 0.88131,-0.40171 2.37867,-1.26702 3.25998,-1.32634 3.25998,-1.02393 3.00951,-0.75739 0.25047,-0.0978 3.25998,-1.213626 3.25998,-2.047823 0.82554,-1.015469 -0.21538,-4.374683 -0.61016,-1.157458 -1.63388,-3.217226 -1.6261,-1.911796 -2.26475,-2.462887 -0.99523,-0.763977 -3.25998,-1.937846 -3.25998,-1.240794 -3.23296,-0.432067 -0.027,-0.0028 -0.0286,0.0028 -3.23143,0.353932 -3.25998,1.047795 -3.25998,1.636738 -1.93186,1.336219 -1.32812,0.975214 -3.25998,2.913497 -0.44655,0.485972 -2.81343,3.144072 -0.95831,1.230612 -2.30167,3.02497 -0.90978,1.349713 -2.3502,3.540111 -0.49701,0.834577 -2.55427,4.37468 -0.2087,0.36395 -2.02579,4.01073 -1.2342,2.36426 -0.93139,2.01043 -2.04093,4.37468 -0.28766,0.61855 -1.47098,3.75613 -1.789,4.0937 -0.10668,0.28099 -1.43427,4.37468 -1.71903,4.27508 -0.0329,0.0996 -1.1255,4.37469 -1.22666,4.37468 -0.87491,2.59695 -0.34793,1.77773 0.0555,4.37469 0.29242,0.47246"
             style="fill:none;stroke:#ff6800"
             id="path8388" />
        </g>
        <g
           id="LineCollection_6-2">
          <path
             inkscape:connector-curvature="0"
             clip-path="url(#pef0dccab32)"
             d="m 118.26842,124.87703 3.25999,-2.00775 0.40673,-0.49532 2.85325,-3.16873 1.07191,-1.20595 2.18807,-2.39933 1.93581,-1.97535 1.32417,-1.40415 3.25379,-2.97054 0.006,-0.006 3.25998,-3.13369 1.62256,-1.23464 1.63742,-1.5217 3.25998,-2.34858 0.83953,-0.5044 2.42045,-2.044824 3.25998,-2.084766 0.44095,-0.245098 2.81903,-3.366494 0.86668,-1.008189 -0.86668,-2.823955 -0.66779,-1.550729 -2.59219,-1.170965 -3.25998,-0.443607 -3.25998,0.493883 -2.96539,1.120689 -0.29459,0.147248 -3.25998,2.39736 -2.1637,1.830076 -1.09628,1.081557 -3.02805,3.293126 -0.23193,0.287282 -2.97433,4.087406 -0.28565,0.42396 -2.33764,3.95072 -0.92234,1.56756 -1.40721,2.80712 -1.85277,3.47258 -0.4015,0.90211 -1.54858,4.37468 -1.30991,3.21534 -0.33611,1.15934 0.33611,2.50307"
             style="fill:none;stroke:#800000"
             id="path8391" />
        </g>
      </g>
    </g>
    <path
       sodipodi:nodetypes="csc"
       inkscape:connector-curvature="0"
       id="path5865"
       d="m 136.91057,269.27021 c 0,0 -19.83325,39.4229 -20.65706,65.414 -0.85297,26.9113 17.21422,79.18538 17.21422,79.18538"
       style="fill:none;fill-rule:evenodd;stroke:#000000;stroke-width:2;stroke-linecap:butt;stroke-linejoin:miter;stroke-miterlimit:4;stroke-dasharray:none;stroke-opacity:1;marker-end:url(#Arrow2Lend)" />
    <path
       sodipodi:nodetypes="csc"
       inkscape:connector-curvature="0"
       id="path5865-0"
       d="m 236.4218,409.99767 c 0,0 17.38626,-40.56157 16.6197,-66.55442 -0.79369,-26.91311 -22.02258,-77.98499 -22.02258,-77.98499"
       style="fill:none;fill-rule:evenodd;stroke:#000000;stroke-width:2;stroke-linecap:butt;stroke-linejoin:miter;stroke-miterlimit:4;stroke-dasharray:none;stroke-opacity:1;marker-end:url(#Arrow2Lend-2)" />
    <g
       style="font-style:normal;font-variant:normal;font-weight:normal;font-stretch:normal;letter-spacing:normal;word-spacing:normal;text-anchor:start;fill:none;fill-opacity:1;fill-rule:evenodd;stroke:#000000;stroke-linecap:butt;stroke-linejoin:miter;stroke-miterlimit:10.43299961;stroke-dasharray:none;stroke-dashoffset:0;stroke-opacity:1"
       id="content"
       transform="matrix(5,0,0,-5,-1116.155,3633.6719)"
       xml:space="preserve"
       stroke-miterlimit="10.433"
       font-style="normal"
       font-variant="normal"
       font-weight="normal"
       font-stretch="normal"
       font-size-adjust="none"
       letter-spacing="normal"
       word-spacing="normal"
       ns0:text="T(X)"
       ns0:preamble="/home/dabi/VC-Projects/Presentations/SIMAI-2016/Presentation/Figures/working/inkscape-preamble.tex"><path
         style="fill:#000000;stroke-width:0"
         inkscape:connector-curvature="0"
         d="m 230.07,663.98 -6.09,0 -0.19,-2.24 0.25,0 c 0.14,1.6 0.29,1.93 1.79,1.93 0.18,0 0.44,0 0.54,-0.02 0.21,-0.04 0.21,-0.15 0.21,-0.38 l 0,-5.25 c 0,-0.34 0,-0.48 -1.04,-0.48 l -0.4,0 0,-0.31 c 0.4,0.03 1.42,0.03 1.88,0.03 0.46,0 1.48,0 1.89,-0.03 l 0,0.31 -0.4,0 c -1.04,0 -1.04,0.14 -1.04,0.48 l 0,5.25 c 0,0.2 0,0.34 0.18,0.38 0.11,0.02 0.37,0.02 0.56,0.02 1.51,0 1.66,-0.33 1.8,-1.93 l 0.25,0 z"
         id="path5968" /><path
         style="fill:#000000;stroke-width:0"
         inkscape:connector-curvature="0"
         d="m 233.92,654.84 0,0.01 0,0 0,0 0,0.01 0,0 0,0 0,0.01 0,0 0,0 -0.01,0.01 0,0 0,0.01 0,0 -0.01,0.01 0,0 -0.01,0.01 0,0.01 -0.01,0 0,0.01 -0.01,0 0,0.01 0,0 -0.01,0.01 0,0 0,0 -0.01,0.01 0,0 -0.01,0.01 0,0 -0.01,0.01 0,0.01 -0.01,0 0,0.01 -0.01,0 -0.01,0.01 0,0.01 -0.01,0 -0.01,0.01 0,0.01 -0.01,0.01 -0.01,0 -0.01,0.01 c -1.24,1.26 -1.56,3.14 -1.56,4.66 0,1.74 0.38,3.47 1.6,4.71 0.13,0.12 0.13,0.15 0.13,0.17 0,0.07 -0.04,0.1 -0.1,0.1 -0.1,0 -0.99,-0.67 -1.58,-1.94 -0.51,-1.09 -0.63,-2.2 -0.63,-3.04 0,-0.77 0.11,-1.98 0.66,-3.11 0.6,-1.22 1.45,-1.87 1.55,-1.87 0.06,0 0.1,0.03 0.1,0.1 z"
         id="path5970" /><path
         style="fill:#000000;stroke-width:0"
         inkscape:connector-curvature="0"
         d="m 238.51,661.08 1.36,2 c 0.22,0.32 0.56,0.64 1.45,0.65 l 0,0.31 c -0.39,-0.01 -0.86,-0.03 -1.11,-0.03 -0.4,0 -0.88,0 -1.27,0.03 l 0,-0.31 c 0.39,-0.01 0.61,-0.23 0.61,-0.46 0,-0.1 -0.02,-0.12 -0.09,-0.23 l -1.13,-1.68 -1.29,1.92 c -0.02,0.03 -0.07,0.11 -0.07,0.15 0,0.12 0.22,0.29 0.65,0.3 l 0,0.31 c -0.35,-0.03 -1.08,-0.03 -1.45,-0.03 -0.31,0 -0.93,0.01 -1.3,0.03 l 0,-0.31 0.19,0 c 0.55,0 0.74,-0.07 0.93,-0.35 l 1.83,-2.77 -1.63,-2.41 c -0.14,-0.2 -0.44,-0.66 -1.45,-0.66 l 0,-0.31 c 0.36,0.01 0.78,0.03 1.11,0.03 0.37,0 0.91,0 1.27,-0.03 l 0,0.31 c -0.46,0.01 -0.63,0.28 -0.63,0.46 0,0.09 0.03,0.13 0.11,0.24 l 1.41,2.09 1.57,-2.38 c 0.02,-0.04 0.05,-0.08 0.05,-0.11 0,-0.12 -0.22,-0.29 -0.64,-0.3 l 0,-0.31 c 0.34,0.03 1.07,0.03 1.45,0.03 0.42,0 0.88,-0.01 1.3,-0.03 l 0,0.31 -0.19,0 c -0.52,0 -0.73,0.05 -0.94,0.36 z"
         id="path5972" /><path
         style="fill:#000000;stroke-width:0"
         inkscape:connector-curvature="0"
         d="m 244.85,659.72 0,0.08 0,0.07 0,0.08 0,0.08 -0.01,0.17 -0.01,0.18 -0.02,0.18 -0.02,0.19 -0.03,0.2 -0.03,0.2 -0.04,0.2 -0.05,0.21 -0.05,0.21 -0.06,0.21 -0.07,0.21 -0.08,0.22 -0.04,0.1 -0.05,0.11 -0.05,0.11 -0.05,0.1 c -0.59,1.23 -1.45,1.87 -1.55,1.87 -0.06,0 -0.1,-0.04 -0.1,-0.1 0,-0.02 0,-0.05 0.19,-0.22 0.98,-0.99 1.54,-2.58 1.54,-4.66 0,-1.7 -0.37,-3.45 -1.6,-4.71 -0.13,-0.12 -0.13,-0.14 -0.13,-0.17 0,-0.06 0.04,-0.1 0.1,-0.1 0.1,0 1,0.68 1.58,1.94 0.51,1.1 0.63,2.21 0.63,3.04 z"
         id="path5974" /></g>    <g
       ns0:preamble="/home/dabi/VC-Projects/Presentations/SIMAI-2016/Presentation/Figures/working/inkscape-preamble.tex"
       ns0:text="$T^{-1}(Y)$"
       word-spacing="normal"
       letter-spacing="normal"
       font-size-adjust="none"
       font-stretch="normal"
       font-weight="normal"
       font-variant="normal"
       font-style="normal"
       stroke-miterlimit="10.433"
       xml:space="preserve"
       transform="matrix(5,0,0,-5,-856.33248,3638.2624)"
       id="g6550"
       style="font-style:normal;font-variant:normal;font-weight:normal;font-stretch:normal;letter-spacing:normal;word-spacing:normal;text-anchor:start;fill:none;fill-opacity:1;fill-rule:evenodd;stroke:#000000;stroke-linecap:butt;stroke-linejoin:miter;stroke-miterlimit:10.43299961;stroke-dasharray:none;stroke-dashoffset:0;stroke-opacity:1"><path
         id="path6552"
         d="m 227.69,663.28 0,0.03 0.01,0.02 0.01,0.02 0,0.02 0.01,0.03 0,0.02 0.01,0.01 0.01,0.02 0,0.02 0.01,0.01 0,0.02 0.01,0.01 0,0.01 0.01,0.02 0.01,0.01 0,0.01 0.01,0.01 0.01,0.01 0,0 0.01,0.01 0.01,0.01 0,0.01 0.01,0 0.01,0.01 0.01,0 0.01,0.01 0.01,0 0,0.01 0.01,0 0.01,0 0.01,0.01 0.02,0 c 0.09,0.02 0.41,0.02 0.62,0.02 1.01,0 1.46,-0.04 1.46,-0.82 0,-0.15 -0.04,-0.54 -0.08,-0.8 -0.01,-0.03 -0.03,-0.15 -0.03,-0.19 0,-0.06 0.03,-0.12 0.12,-0.12 0.11,0 0.13,0.08 0.15,0.23 l 0.27,1.73 c 0.01,0.04 0.02,0.14 0.02,0.17 0,0.11 -0.1,0.11 -0.27,0.11 l -5.53,0 c -0.24,0 -0.25,-0.01 -0.32,-0.2 l -0.6,-1.75 c -0.01,-0.02 -0.06,-0.17 -0.06,-0.19 0,-0.06 0.05,-0.1 0.12,-0.1 0.1,0 0.11,0.04 0.17,0.21 0.54,1.54 0.8,1.72 2.27,1.72 l 0.39,0 c 0.28,0 0.28,-0.04 0.28,-0.12 0,-0.06 -0.03,-0.18 -0.04,-0.21 l -1.34,-5.32 c -0.09,-0.37 -0.12,-0.48 -1.18,-0.48 -0.36,0 -0.42,0 -0.42,-0.19 0,-0.12 0.11,-0.12 0.17,-0.12 0.27,0 0.55,0.02 0.82,0.02 0.28,0 0.57,0.01 0.84,0.01 0.28,0 0.56,-0.01 0.83,-0.01 0.29,0 0.59,-0.02 0.87,-0.02 0.1,0 0.22,0 0.22,0.2 0,0.11 -0.08,0.11 -0.34,0.11 -0.25,0 -0.38,0 -0.64,0.02 -0.29,0.03 -0.37,0.06 -0.37,0.22 0,0.01 0,0.06 0.04,0.21 z"
         inkscape:connector-curvature="0"
         style="fill:#000000;stroke-width:0" /><path
         id="path6554"
         d="m 235.83,662.42 0.01,0 0.01,0 0.01,0 0.01,0 0.03,0.01 0.01,0 0.01,0 0.01,0 0.01,0 0.01,0 0.02,0 0.01,0.01 0.01,0 0.01,0 0.01,0 0.01,0.01 0.01,0 0.01,0.01 0.01,0 0.01,0.01 0,0.01 0.01,0.01 0.01,0 0,0 0,0.01 0.01,0 0,0.01 0,0 0,0.01 0.01,0 0,0.01 0,0.01 0,0 0,0.01 0,0 0.01,0.01 0,0.01 0,0.01 0,0 0,0.01 c 0,0.18 -0.16,0.18 -0.28,0.18 l -4.16,0 c -0.11,0 -0.28,0 -0.28,-0.17 0,-0.18 0.16,-0.18 0.28,-0.18 z"
         inkscape:connector-curvature="0"
         style="fill:#000000;stroke-width:0" /><path
         id="path6556"
         d="m 239.2,665.28 0,0.01 0,0.01 0,0.01 0,0.01 0,0 0,0.01 0,0.01 0,0.01 0,0 0,0.01 0,0 0,0.01 0,0.01 0,0 0,0.01 0,0 -0.01,0.01 0,0 0,0.01 0,0.01 0,0.01 -0.01,0 0,0.01 -0.01,0.01 0,0 -0.01,0.01 0,0 -0.01,0 -0.01,0.01 0,0 -0.01,0 -0.01,0 -0.01,0 0,0 -0.01,0 0,0.01 -0.01,0 -0.01,0 0,0 -0.01,0 -0.01,0 0,0 -0.01,0 -0.01,0 -0.01,0 0,0 -0.01,0 -0.01,0 -0.01,0 -0.01,0 c -0.44,-0.44 -1.08,-0.45 -1.37,-0.45 l 0,-0.25 c 0.17,0 0.63,0 1.02,0.2 l 0,-3.56 c 0,-0.23 0,-0.32 -0.7,-0.32 l -0.27,0 0,-0.25 c 0.13,0 0.99,0.03 1.24,0.03 0.22,0 1.1,-0.03 1.25,-0.03 l 0,0.25 -0.26,0 c -0.7,0 -0.7,0.09 -0.7,0.32 z"
         inkscape:connector-curvature="0"
         style="fill:#000000;stroke-width:0" /><path
         id="path6558"
         d="m 244.63,654.84 0,0.01 0,0 0,0 0,0.01 0,0 0,0 0,0.01 0,0 0,0 -0.01,0.01 0,0 0,0.01 0,0 -0.01,0.01 0,0 -0.01,0.01 0,0.01 -0.01,0 0,0.01 -0.01,0 0,0.01 0,0 -0.01,0.01 0,0 0,0 -0.01,0.01 0,0 -0.01,0.01 0,0 -0.01,0.01 0,0.01 -0.01,0 0,0.01 -0.01,0 -0.01,0.01 0,0.01 -0.01,0 -0.01,0.01 0,0.01 -0.01,0.01 -0.01,0 -0.01,0.01 c -1.24,1.26 -1.56,3.14 -1.56,4.66 0,1.74 0.38,3.47 1.6,4.71 0.13,0.12 0.13,0.15 0.13,0.17 0,0.07 -0.04,0.1 -0.1,0.1 -0.1,0 -0.99,-0.67 -1.58,-1.94 -0.51,-1.09 -0.63,-2.2 -0.63,-3.04 0,-0.77 0.11,-1.98 0.66,-3.11 0.6,-1.22 1.45,-1.87 1.55,-1.87 0.06,0 0.1,0.03 0.1,0.1 z"
         inkscape:connector-curvature="0"
         style="fill:#000000;stroke-width:0" /><path
         id="path6560"
         d="m 251.15,662.9 0.14,0.14 c 0.3,0.3 0.63,0.64 1.31,0.69 0.11,0.01 0.2,0.01 0.2,0.19 0,0.08 -0.05,0.12 -0.13,0.12 -0.26,0 -0.55,-0.03 -0.82,-0.03 -0.33,0 -0.68,0.03 -1,0.03 -0.06,0 -0.19,0 -0.19,-0.19 0,-0.11 0.1,-0.12 0.15,-0.12 0.07,0 0.36,-0.02 0.36,-0.23 0,-0.17 -0.23,-0.43 -0.27,-0.48 l -2.31,-2.66 -1.09,2.96 c -0.06,0.14 -0.06,0.16 -0.06,0.17 0,0.24 0.49,0.24 0.58,0.24 0.14,0 0.24,0 0.24,0.2 0,0.11 -0.12,0.11 -0.15,0.11 -0.27,0 -0.97,-0.03 -1.25,-0.03 -0.25,0 -0.87,0.03 -1.12,0.03 -0.06,0 -0.19,0 -0.19,-0.2 0,-0.11 0.1,-0.11 0.23,-0.11 0.6,0 0.64,-0.09 0.73,-0.34 l 1.23,-3.28 c 0,-0.03 0.03,-0.14 0.03,-0.17 0,-0.03 -0.39,-1.63 -0.44,-1.81 -0.13,-0.55 -0.14,-0.58 -0.94,-0.59 -0.19,0 -0.27,0 -0.27,-0.2 0,-0.11 0.12,-0.11 0.14,-0.11 0.28,0 0.98,0.03 1.26,0.03 0.27,0 0.99,-0.03 1.27,-0.03 0.07,0 0.19,0 0.19,0.2 0,0.11 -0.09,0.11 -0.28,0.11 -0.02,0 -0.21,0 -0.38,0.02 -0.21,0.02 -0.27,0.04 -0.27,0.16 0,0.07 0.09,0.42 0.14,0.63 l 0.35,1.4 c 0.05,0.19 0.06,0.22 0.14,0.31 z"
         inkscape:connector-curvature="0"
         style="fill:#000000;stroke-width:0" /><path
         id="path6562"
         d="m 256.09,659.72 0,0.08 0,0.07 -0.01,0.08 0,0.08 -0.01,0.17 -0.01,0.18 -0.02,0.18 -0.02,0.19 -0.02,0.2 -0.04,0.2 -0.04,0.2 -0.04,0.21 -0.06,0.21 -0.06,0.21 -0.07,0.21 -0.08,0.22 -0.04,0.1 -0.04,0.11 -0.05,0.11 -0.05,0.1 c -0.6,1.23 -1.45,1.87 -1.55,1.87 -0.06,0 -0.11,-0.04 -0.11,-0.1 0,-0.02 0,-0.05 0.19,-0.22 0.98,-0.99 1.55,-2.58 1.55,-4.66 0,-1.7 -0.37,-3.45 -1.61,-4.71 -0.13,-0.12 -0.13,-0.14 -0.13,-0.17 0,-0.06 0.05,-0.1 0.11,-0.1 0.1,0 0.99,0.68 1.58,1.94 0.51,1.1 0.63,2.21 0.63,3.04 z"
         inkscape:connector-curvature="0"
         style="fill:#000000;stroke-width:0" /></g>  </g>
</svg>
