<?xml version="1.0" encoding="UTF-8" standalone="no"?>
<svg
   xmlns:dc="http://purl.org/dc/elements/1.1/"
   xmlns:cc="http://creativecommons.org/ns#"
   xmlns:rdf="http://www.w3.org/1999/02/22-rdf-syntax-ns#"
   xmlns:svg="http://www.w3.org/2000/svg"
   xmlns="http://www.w3.org/2000/svg"
   version="1.1"
   id="svg2"
   viewbox="0 0 885 240"
   height="240.94487"
   width="885.83234">
  <defs
     id="defs4">
    <marker
       style="overflow:visible"
       id="EmptyTriangleOutL"
       refX="0"
       refY="0"
       orient="auto">
      <path
         transform="matrix(0.8,0,0,0.8,-4.8,0)"
         style="fill:#ffffff;fill-rule:evenodd;stroke:#000000;stroke-width:1pt"
         d="m 5.77,0 -8.65,5 0,-10 8.65,5 z"
         id="path4750" />
    </marker>
    <marker
       style="overflow:visible"
       id="Arrow2Mstart"
       refX="0"
       refY="0"
       orient="auto">
      <path
         transform="scale(0.6,0.6)"
         d="M 8.7185878,4.0337352 -2.2072895,0.01601326 8.7185884,-4.0017078 c -1.7454984,2.3720609 -1.7354408,5.6174519 -6e-7,8.035443 z"
         style="fill-rule:evenodd;stroke-width:0.625;stroke-linejoin:round"
         id="path4557" />
    </marker>
    <marker
       style="overflow:visible"
       id="Arrow2Mend"
       refX="0"
       refY="0"
       orient="auto">
      <path
         transform="scale(-0.6,-0.6)"
         d="M 8.7185878,4.0337352 -2.2072895,0.01601326 8.7185884,-4.0017078 c -1.7454984,2.3720609 -1.7354408,5.6174519 -6e-7,8.035443 z"
         style="fill-rule:evenodd;stroke-width:0.625;stroke-linejoin:round"
         id="path4560" />
    </marker>
    <marker
       style="overflow:visible"
       id="Arrow2Lend"
       refX="0"
       refY="0"
       orient="auto">
      <path
         transform="matrix(-1.1,0,0,-1.1,-1.1,0)"
         d="M 8.7185878,4.0337352 -2.2072895,0.01601326 8.7185884,-4.0017078 c -1.7454984,2.3720609 -1.7354408,5.6174519 -6e-7,8.035443 z"
         style="fill-rule:evenodd;stroke-width:0.625;stroke-linejoin:round"
         id="path4554" />
    </marker>
    <marker
       style="overflow:visible"
       id="Arrow2Lend-4"
       refX="0"
       refY="0"
       orient="auto">
      <path
         transform="matrix(-1.1,0,0,-1.1,-1.1,0)"
         d="M 8.7185878,4.0337352 -2.2072895,0.01601326 8.7185884,-4.0017078 c -1.7454984,2.3720609 -1.7354408,5.6174519 -6e-7,8.035443 z"
         style="fill-rule:evenodd;stroke-width:0.625;stroke-linejoin:round"
         id="path4554-8" />
    </marker>
    <marker
       style="overflow:visible"
       id="Arrow2Mstart-7"
       refX="0"
       refY="0"
       orient="auto">
      <path
         transform="scale(0.6,0.6)"
         d="M 8.7185878,4.0337352 -2.2072895,0.01601326 8.7185884,-4.0017078 c -1.7454984,2.3720609 -1.7354408,5.6174519 -6e-7,8.035443 z"
         style="fill-rule:evenodd;stroke-width:0.625;stroke-linejoin:round"
         id="path4557-6" />
    </marker>
    <marker
       style="overflow:visible"
       id="Arrow2Mend-7"
       refX="0"
       refY="0"
       orient="auto">
      <path
         transform="scale(-0.6,-0.6)"
         d="M 8.7185878,4.0337352 -2.2072895,0.01601326 8.7185884,-4.0017078 c -1.7454984,2.3720609 -1.7354408,5.6174519 -6e-7,8.035443 z"
         style="fill-rule:evenodd;stroke-width:0.625;stroke-linejoin:round"
         id="path4560-1" />
    </marker>
    <marker
       style="overflow:visible"
       id="marker5825"
       refX="0"
       refY="0"
       orient="auto">
      <path
         transform="scale(0.6,0.6)"
         d="M 8.7185878,4.0337352 -2.2072895,0.01601326 8.7185884,-4.0017078 c -1.7454984,2.3720609 -1.7354408,5.6174519 -6e-7,8.035443 z"
         style="fill-rule:evenodd;stroke-width:0.625;stroke-linejoin:round"
         id="path5827" />
    </marker>
    <marker
       style="overflow:visible"
       id="marker5829"
       refX="0"
       refY="0"
       orient="auto">
      <path
         transform="scale(-0.6,-0.6)"
         d="M 8.7185878,4.0337352 -2.2072895,0.01601326 8.7185884,-4.0017078 c -1.7454984,2.3720609 -1.7354408,5.6174519 -6e-7,8.035443 z"
         style="fill-rule:evenodd;stroke-width:0.625;stroke-linejoin:round"
         id="path5831" />
    </marker>
    <marker
       style="overflow:visible"
       id="Arrow2Mstart-9"
       refX="0"
       refY="0"
       orient="auto">
      <path
         transform="scale(0.6,0.6)"
         d="M 8.7185878,4.0337352 -2.2072895,0.01601326 8.7185884,-4.0017078 c -1.7454984,2.3720609 -1.7354408,5.6174519 -6e-7,8.035443 z"
         style="fill-rule:evenodd;stroke-width:0.625;stroke-linejoin:round"
         id="path4557-4" />
    </marker>
    <marker
       style="overflow:visible"
       id="Arrow2Mend-76"
       refX="0"
       refY="0"
       orient="auto">
      <path
         transform="scale(-0.6,-0.6)"
         d="M 8.7185878,4.0337352 -2.2072895,0.01601326 8.7185884,-4.0017078 c -1.7454984,2.3720609 -1.7354408,5.6174519 -6e-7,8.035443 z"
         style="fill-rule:evenodd;stroke-width:0.625;stroke-linejoin:round"
         id="path4560-7" />
    </marker>
    <marker
       style="overflow:visible"
       id="marker5876"
       refX="0"
       refY="0"
       orient="auto">
      <path
         transform="scale(0.6,0.6)"
         d="M 8.7185878,4.0337352 -2.2072895,0.01601326 8.7185884,-4.0017078 c -1.7454984,2.3720609 -1.7354408,5.6174519 -6e-7,8.035443 z"
         style="fill-rule:evenodd;stroke-width:0.625;stroke-linejoin:round"
         id="path5878" />
    </marker>
    <marker
       style="overflow:visible"
       id="marker5880"
       refX="0"
       refY="0"
       orient="auto">
      <path
         transform="scale(-0.6,-0.6)"
         d="M 8.7185878,4.0337352 -2.2072895,0.01601326 8.7185884,-4.0017078 c -1.7454984,2.3720609 -1.7354408,5.6174519 -6e-7,8.035443 z"
         style="fill-rule:evenodd;stroke-width:0.625;stroke-linejoin:round"
         id="path5882" />
    </marker>
    <marker
       style="overflow:visible"
       id="Arrow2Mstart-5"
       refX="0"
       refY="0"
       orient="auto">
      <path
         transform="scale(0.6,0.6)"
         d="M 8.7185878,4.0337352 -2.2072895,0.01601326 8.7185884,-4.0017078 c -1.7454984,2.3720609 -1.7354408,5.6174519 -6e-7,8.035443 z"
         style="fill-rule:evenodd;stroke-width:0.625;stroke-linejoin:round"
         id="path4557-8" />
    </marker>
    <marker
       style="overflow:visible"
       id="Arrow2Mend-70"
       refX="0"
       refY="0"
       orient="auto">
      <path
         transform="scale(-0.6,-0.6)"
         d="M 8.7185878,4.0337352 -2.2072895,0.01601326 8.7185884,-4.0017078 c -1.7454984,2.3720609 -1.7354408,5.6174519 -6e-7,8.035443 z"
         style="fill-rule:evenodd;stroke-width:0.625;stroke-linejoin:round"
         id="path4560-3" />
    </marker>
    <marker
       style="overflow:visible"
       id="marker5876-7"
       refX="0"
       refY="0"
       orient="auto">
      <path
         transform="scale(0.6,0.6)"
         d="M 8.7185878,4.0337352 -2.2072895,0.01601326 8.7185884,-4.0017078 c -1.7454984,2.3720609 -1.7354408,5.6174519 -6e-7,8.035443 z"
         style="fill-rule:evenodd;stroke-width:0.625;stroke-linejoin:round"
         id="path5878-6" />
    </marker>
    <marker
       style="overflow:visible"
       id="marker5880-7"
       refX="0"
       refY="0"
       orient="auto">
      <path
         transform="scale(-0.6,-0.6)"
         d="M 8.7185878,4.0337352 -2.2072895,0.01601326 8.7185884,-4.0017078 c -1.7454984,2.3720609 -1.7354408,5.6174519 -6e-7,8.035443 z"
         style="fill-rule:evenodd;stroke-width:0.625;stroke-linejoin:round"
         id="path5882-6" />
    </marker>
    <marker
       style="overflow:visible"
       id="Arrow2Mstart-72"
       refX="0"
       refY="0"
       orient="auto">
      <path
         transform="scale(0.6,0.6)"
         d="M 8.7185878,4.0337352 -2.2072895,0.01601326 8.7185884,-4.0017078 c -1.7454984,2.3720609 -1.7354408,5.6174519 -6e-7,8.035443 z"
         style="fill-rule:evenodd;stroke-width:0.625;stroke-linejoin:round"
         id="path4557-7" />
    </marker>
    <marker
       style="overflow:visible"
       id="Arrow2Mend-4"
       refX="0"
       refY="0"
       orient="auto">
      <path
         transform="scale(-0.6,-0.6)"
         d="M 8.7185878,4.0337352 -2.2072895,0.01601326 8.7185884,-4.0017078 c -1.7454984,2.3720609 -1.7354408,5.6174519 -6e-7,8.035443 z"
         style="fill-rule:evenodd;stroke-width:0.625;stroke-linejoin:round"
         id="path4560-77" />
    </marker>
    <marker
       style="overflow:visible"
       id="Arrow2Mstart-4"
       refX="0"
       refY="0"
       orient="auto">
      <path
         transform="scale(0.6,0.6)"
         d="M 8.7185878,4.0337352 -2.2072895,0.01601326 8.7185884,-4.0017078 c -1.7454984,2.3720609 -1.7354408,5.6174519 -6e-7,8.035443 z"
         style="fill-rule:evenodd;stroke-width:0.625;stroke-linejoin:round"
         id="path4557-0" />
    </marker>
    <marker
       style="overflow:visible"
       id="Arrow2Mend-1"
       refX="0"
       refY="0"
       orient="auto">
      <path
         transform="scale(-0.6,-0.6)"
         d="M 8.7185878,4.0337352 -2.2072895,0.01601326 8.7185884,-4.0017078 c -1.7454984,2.3720609 -1.7354408,5.6174519 -6e-7,8.035443 z"
         style="fill-rule:evenodd;stroke-width:0.625;stroke-linejoin:round"
         id="path4560-2" />
    </marker>
    <marker
       style="overflow:visible"
       id="Arrow2Mstart-1"
       refX="0"
       refY="0"
       orient="auto">
      <path
         transform="scale(0.6,0.6)"
         d="M 8.7185878,4.0337352 -2.2072895,0.01601326 8.7185884,-4.0017078 c -1.7454984,2.3720609 -1.7354408,5.6174519 -6e-7,8.035443 z"
         style="fill-rule:evenodd;stroke-width:0.625;stroke-linejoin:round"
         id="path4557-1" />
    </marker>
    <marker
       style="overflow:visible"
       id="Arrow2Mend-0"
       refX="0"
       refY="0"
       orient="auto">
      <path
         transform="scale(-0.6,-0.6)"
         d="M 8.7185878,4.0337352 -2.2072895,0.01601326 8.7185884,-4.0017078 c -1.7454984,2.3720609 -1.7354408,5.6174519 -6e-7,8.035443 z"
         style="fill-rule:evenodd;stroke-width:0.625;stroke-linejoin:round"
         id="path4560-24" />
    </marker>
    <marker
       style="overflow:visible"
       id="EmptyTriangleOutM"
       refX="0"
       refY="0"
       orient="auto">
      <path
         transform="matrix(0.4,0,0,0.4,-1.8,0)"
         style="fill:#ffffff;fill-rule:evenodd;stroke:#000000;stroke-width:1pt"
         d="m 5.77,0 -8.65,5 0,-10 8.65,5 z"
         id="path4711" />
    </marker>
    <marker
       style="overflow:visible"
       id="Arrow2Mstart-3"
       refX="0"
       refY="0"
       orient="auto">
      <path
         transform="scale(0.6,0.6)"
         d="M 8.7185878,4.0337352 -2.2072895,0.01601326 8.7185884,-4.0017078 c -1.7454984,2.3720609 -1.7354408,5.6174519 -6e-7,8.035443 z"
         style="fill-rule:evenodd;stroke-width:0.625;stroke-linejoin:round"
         id="path4557-9" />
    </marker>
    <marker
       style="overflow:visible"
       id="Arrow2Mend-18"
       refX="0"
       refY="0"
       orient="auto">
      <path
         transform="scale(-0.6,-0.6)"
         d="M 8.7185878,4.0337352 -2.2072895,0.01601326 8.7185884,-4.0017078 c -1.7454984,2.3720609 -1.7354408,5.6174519 -6e-7,8.035443 z"
         style="fill-rule:evenodd;stroke-width:0.625;stroke-linejoin:round"
         id="path4560-33" />
    </marker>
  </defs>
  <metadata
     id="metadata7">
    <rdf:RDF>
      <cc:Work
         rdf:about="">
        <dc:format>image/svg+xml</dc:format>
        <dc:type
           rdf:resource="http://purl.org/dc/dcmitype/StillImage" />
        <dc:title></dc:title>
      </cc:Work>
    </rdf:RDF>
  </metadata>
  <g
     transform="translate(21.759843,-661.15065)"
     id="layer1">
    <g
       id="text3096"
       style="font-style:normal;font-weight:normal;font-size:40px;line-height:125%;font-family:Sans;letter-spacing:0px;word-spacing:0px;fill:#808080;fill-opacity:1;stroke:none">
      <path
         id="path4465"
         style="font-style:normal;font-variant:normal;font-weight:normal;font-stretch:normal;font-size:36px;line-height:125%;font-family:Consolas;-inkscape-font-specification:Consolas;text-align:start;writing-mode:lr-tb;text-anchor:start;fill:#808080;fill-opacity:1"
         d="m 15.332346,784.66168 -2.917969,0 -12.05859378,-28.61719 2.91796878,0 12.058594,28.61719 z" />
      <path
         id="path4467"
         style="font-style:normal;font-variant:normal;font-weight:normal;font-stretch:normal;font-size:36px;line-height:125%;font-family:Consolas;-inkscape-font-specification:Consolas;text-align:start;writing-mode:lr-tb;text-anchor:start;fill:#808080;fill-opacity:1"
         d="m 36.092111,780.88239 -4.060547,0 -4.763671,-6.73243 -4.710938,6.73243 -3.955078,0 6.837891,-8.85938 -6.521485,-8.78906 3.919922,0 4.640625,6.78515 4.552734,-6.78515 3.779297,0 -6.626953,8.85937 6.908203,8.78907 z" />
      <path
         id="path4469"
         style="font-style:normal;font-variant:normal;font-weight:normal;font-stretch:normal;font-size:36px;line-height:125%;font-family:Consolas;-inkscape-font-specification:Consolas;text-align:start;writing-mode:lr-tb;text-anchor:start;fill:#808080;fill-opacity:1"
         d="m 55.445627,769.40387 q 0,2.63672 -0.527344,4.81641 -0.527344,2.16211 -1.599609,3.72656 -1.072266,1.54687 -2.671875,2.4082 -1.582031,0.84375 -3.726563,0.84375 -1.845703,0 -3.357422,-0.68555 -1.511718,-0.70312 -2.583984,-2.14453 -1.072266,-1.4414 -1.652344,-3.67382 -0.580078,-2.23243 -0.580078,-5.29102 0,-2.63672 0.527344,-4.81641 0.544922,-2.17968 1.599609,-3.72656 1.072266,-1.56445 2.671875,-2.4082 1.59961,-0.86133 3.726563,-0.86133 1.845703,0 3.357422,0.70312 1.511718,0.68555 2.583984,2.14454 1.072266,1.4414 1.652344,3.67382 0.580078,2.23243 0.580078,5.29102 z m -3.09375,0.10547 q 0,-0.59766 -0.05273,-1.17774 -0.03516,-0.59765 -0.08789,-1.16015 l -9.720703,7.22461 q 0.263672,0.91406 0.667969,1.6875 0.404296,0.77343 0.966796,1.33593 0.580079,0.54493 1.300782,0.86133 0.738281,0.29883 1.669922,0.29883 1.195312,0 2.162109,-0.58008 0.984375,-0.58008 1.669922,-1.72265 0.685547,-1.14258 1.054687,-2.83008 0.369141,-1.70508 0.369141,-3.9375 z M 41.840158,769.2984 q 0,0.54492 0,1.08984 0.01758,0.54493 0.07031,1.05469 l 9.720703,-7.18945 q -0.263672,-0.89649 -0.667969,-1.63477 -0.404297,-0.73828 -0.966797,-1.26562 -0.5625,-0.54492 -1.283203,-0.84375 -0.720703,-0.29883 -1.617187,-0.29883 -1.195313,0 -2.179688,0.58008 -0.966797,0.58008 -1.652344,1.74023 -0.685547,1.14258 -1.054687,2.84766 -0.369141,1.6875 -0.369141,3.91992 z" />
      <path
         id="path4471"
         style="font-style:normal;font-variant:normal;font-weight:normal;font-stretch:normal;font-size:36px;line-height:125%;font-family:Consolas;-inkscape-font-specification:Consolas;text-align:start;writing-mode:lr-tb;text-anchor:start;fill:#808080;fill-opacity:1"
         d="m 75.273752,769.40387 q 0,2.63672 -0.527344,4.81641 -0.527344,2.16211 -1.599609,3.72656 -1.072266,1.54687 -2.671875,2.4082 -1.582031,0.84375 -3.726563,0.84375 -1.845703,0 -3.357422,-0.68555 -1.511718,-0.70312 -2.583984,-2.14453 -1.072266,-1.4414 -1.652344,-3.67382 -0.580078,-2.23243 -0.580078,-5.29102 0,-2.63672 0.527344,-4.81641 0.544922,-2.17968 1.599609,-3.72656 1.072266,-1.56445 2.671875,-2.4082 1.59961,-0.86133 3.726563,-0.86133 1.845703,0 3.357422,0.70312 1.511718,0.68555 2.583984,2.14454 1.072266,1.4414 1.652344,3.67382 0.580078,2.23243 0.580078,5.29102 z m -3.09375,0.10547 q 0,-0.59766 -0.05273,-1.17774 -0.03516,-0.59765 -0.08789,-1.16015 l -9.720703,7.22461 q 0.263672,0.91406 0.667969,1.6875 0.404296,0.77343 0.966796,1.33593 0.580079,0.54493 1.300782,0.86133 0.738281,0.29883 1.669922,0.29883 1.195312,0 2.162109,-0.58008 0.984375,-0.58008 1.669922,-1.72265 0.685547,-1.14258 1.054687,-2.83008 0.369141,-1.70508 0.369141,-3.9375 z M 61.668283,769.2984 q 0,0.54492 0,1.08984 0.01758,0.54493 0.07031,1.05469 l 9.720703,-7.18945 q -0.263672,-0.89649 -0.667969,-1.63477 -0.404297,-0.73828 -0.966797,-1.26562 -0.5625,-0.54492 -1.283203,-0.84375 -0.720703,-0.29883 -1.617187,-0.29883 -1.195313,0 -2.179688,0.58008 -0.966797,0.58008 -1.652344,1.74023 -0.685547,1.14258 -1.054687,2.84766 -0.369141,1.6875 -0.369141,3.91992 z" />
      <path
         id="path4473"
         style="font-style:normal;font-variant:normal;font-weight:normal;font-stretch:normal;font-size:36px;line-height:125%;font-family:Consolas;-inkscape-font-specification:Consolas;text-align:start;writing-mode:lr-tb;text-anchor:start;fill:#808080;fill-opacity:1"
         d="m 94.644846,784.66168 -2.917969,0 -12.058594,-28.61719 2.917969,0 12.058594,28.61719 z" />
      <path
         id="path4475"
         style="font-style:normal;font-variant:normal;font-weight:normal;font-stretch:normal;font-size:36px;line-height:125%;font-family:Consolas;-inkscape-font-specification:Consolas;text-align:start;writing-mode:lr-tb;text-anchor:start;fill:#808080;fill-opacity:1"
         d="m 115.40461,780.88239 -4.06055,0 -4.76367,-6.73243 -4.71093,6.73243 -3.955083,0 6.837893,-8.85938 -6.521487,-8.78906 3.919927,0 4.64062,6.78515 4.55273,-6.78515 3.7793,0 -6.62695,8.85937 6.9082,8.78907 z" />
      <path
         id="path4477"
         style="font-style:normal;font-variant:normal;font-weight:normal;font-stretch:normal;font-size:36px;line-height:125%;font-family:Consolas;-inkscape-font-specification:Consolas;text-align:start;writing-mode:lr-tb;text-anchor:start;fill:#808080;fill-opacity:1"
         d="m 134.75813,769.40387 q 0,2.63672 -0.52735,4.81641 -0.52734,2.16211 -1.59961,3.72656 -1.07226,1.54687 -2.67187,2.4082 -1.58203,0.84375 -3.72656,0.84375 -1.84571,0 -3.35743,-0.68555 -1.51171,-0.70312 -2.58398,-2.14453 -1.07227,-1.4414 -1.65234,-3.67382 -0.58008,-2.23243 -0.58008,-5.29102 0,-2.63672 0.52734,-4.81641 0.54492,-2.17968 1.59961,-3.72656 1.07227,-1.56445 2.67188,-2.4082 1.59961,-0.86133 3.72656,-0.86133 1.8457,0 3.35742,0.70312 1.51172,0.68555 2.58399,2.14454 1.07226,1.4414 1.65234,3.67382 0.58008,2.23243 0.58008,5.29102 z m -3.09375,0.10547 q 0,-0.59766 -0.0527,-1.17774 -0.0351,-0.59765 -0.0879,-1.16015 l -9.7207,7.22461 q 0.26367,0.91406 0.66797,1.6875 0.40429,0.77343 0.96679,1.33593 0.58008,0.54493 1.30079,0.86133 0.73828,0.29883 1.66992,0.29883 1.19531,0 2.16211,-0.58008 0.98437,-0.58008 1.66992,-1.72265 0.68555,-1.14258 1.05469,-2.83008 0.36914,-1.70508 0.36914,-3.9375 z m -10.51172,-0.21094 q 0,0.54492 0,1.08984 0.0176,0.54493 0.0703,1.05469 l 9.7207,-7.18945 q -0.26367,-0.89649 -0.66796,-1.63477 -0.4043,-0.73828 -0.9668,-1.26562 -0.5625,-0.54492 -1.2832,-0.84375 -0.72071,-0.29883 -1.61719,-0.29883 -1.19531,0 -2.17969,0.58008 -0.9668,0.58008 -1.65234,1.74023 -0.68555,1.14258 -1.05469,2.84766 -0.36914,1.6875 -0.36914,3.91992 z" />
      <path
         id="path4479"
         style="font-style:normal;font-variant:normal;font-weight:normal;font-stretch:normal;font-size:36px;line-height:125%;font-family:Consolas;-inkscape-font-specification:Consolas;text-align:start;writing-mode:lr-tb;text-anchor:start;fill:#808080;fill-opacity:1"
         d="m 154.58625,769.40387 q 0,2.63672 -0.52734,4.81641 -0.52735,2.16211 -1.59961,3.72656 -1.07227,1.54687 -2.67188,2.4082 -1.58203,0.84375 -3.72656,0.84375 -1.8457,0 -3.35742,-0.68555 -1.51172,-0.70312 -2.58398,-2.14453 -1.07227,-1.4414 -1.65235,-3.67382 -0.58008,-2.23243 -0.58008,-5.29102 0,-2.63672 0.52735,-4.81641 0.54492,-2.17968 1.59961,-3.72656 1.07226,-1.56445 2.67187,-2.4082 1.59961,-0.86133 3.72656,-0.86133 1.84571,0 3.35743,0.70312 1.51171,0.68555 2.58398,2.14454 1.07227,1.4414 1.65234,3.67382 0.58008,2.23243 0.58008,5.29102 z m -3.09375,0.10547 q 0,-0.59766 -0.0527,-1.17774 -0.0352,-0.59765 -0.0879,-1.16015 l -9.72071,7.22461 q 0.26368,0.91406 0.66797,1.6875 0.4043,0.77343 0.9668,1.33593 0.58008,0.54493 1.30078,0.86133 0.73828,0.29883 1.66992,0.29883 1.19532,0 2.16211,-0.58008 0.98438,-0.58008 1.66992,-1.72265 0.68555,-1.14258 1.05469,-2.83008 0.36914,-1.70508 0.36914,-3.9375 z m -10.51172,-0.21094 q 0,0.54492 0,1.08984 0.0176,0.54493 0.0703,1.05469 l 9.7207,-7.18945 q -0.26367,-0.89649 -0.66797,-1.63477 -0.4043,-0.73828 -0.9668,-1.26562 -0.5625,-0.54492 -1.2832,-0.84375 -0.7207,-0.29883 -1.61719,-0.29883 -1.19531,0 -2.17968,0.58008 -0.9668,0.58008 -1.65235,1.74023 -0.68555,1.14258 -1.05469,2.84766 -0.36914,1.6875 -0.36914,3.91992 z" />
      <path
         id="path4481"
         style="font-style:normal;font-variant:normal;font-weight:normal;font-stretch:normal;font-size:36px;line-height:125%;font-family:Consolas;-inkscape-font-specification:Consolas;text-align:start;writing-mode:lr-tb;text-anchor:start;fill:#808080;fill-opacity:1"
         d="m 173.95735,784.66168 -2.91797,0 -12.0586,-28.61719 2.91797,0 12.0586,28.61719 z" />
      <path
         id="path4483"
         style="font-style:normal;font-variant:normal;font-weight:normal;font-stretch:normal;font-size:36px;line-height:125%;font-family:Consolas;-inkscape-font-specification:Consolas;text-align:start;writing-mode:lr-tb;text-anchor:start;fill:#808080;fill-opacity:1"
         d="m 194.71711,780.88239 -4.06055,0 -4.76367,-6.73243 -4.71093,6.73243 -3.95508,0 6.83789,-8.85938 -6.52149,-8.78906 3.91993,0 4.64062,6.78515 4.55273,-6.78515 3.7793,0 -6.62695,8.85937 6.9082,8.78907 z" />
      <path
         id="path4485"
         style="font-style:normal;font-variant:normal;font-weight:normal;font-stretch:normal;font-size:36px;line-height:125%;font-family:Consolas;-inkscape-font-specification:Consolas;text-align:start;writing-mode:lr-tb;text-anchor:start;fill:#808080;fill-opacity:1"
         d="m 214.07063,769.40387 q 0,2.63672 -0.52735,4.81641 -0.52734,2.16211 -1.59961,3.72656 -1.07226,1.54687 -2.67187,2.4082 -1.58203,0.84375 -3.72656,0.84375 -1.84571,0 -3.35743,-0.68555 -1.51171,-0.70312 -2.58398,-2.14453 -1.07227,-1.4414 -1.65234,-3.67382 -0.58008,-2.23243 -0.58008,-5.29102 0,-2.63672 0.52734,-4.81641 0.54492,-2.17968 1.59961,-3.72656 1.07227,-1.56445 2.67188,-2.4082 1.59961,-0.86133 3.72656,-0.86133 1.8457,0 3.35742,0.70312 1.51172,0.68555 2.58399,2.14454 1.07226,1.4414 1.65234,3.67382 0.58008,2.23243 0.58008,5.29102 z m -3.09375,0.10547 q 0,-0.59766 -0.0527,-1.17774 -0.0351,-0.59765 -0.0879,-1.16015 l -9.7207,7.22461 q 0.26367,0.91406 0.66797,1.6875 0.40429,0.77343 0.96679,1.33593 0.58008,0.54493 1.30079,0.86133 0.73828,0.29883 1.66992,0.29883 1.19531,0 2.16211,-0.58008 0.98437,-0.58008 1.66992,-1.72265 0.68555,-1.14258 1.05469,-2.83008 0.36914,-1.70508 0.36914,-3.9375 z m -10.51172,-0.21094 q 0,0.54492 0,1.08984 0.0176,0.54493 0.0703,1.05469 l 9.7207,-7.18945 q -0.26367,-0.89649 -0.66796,-1.63477 -0.4043,-0.73828 -0.9668,-1.26562 -0.5625,-0.54492 -1.2832,-0.84375 -0.72071,-0.29883 -1.61719,-0.29883 -1.19531,0 -2.17969,0.58008 -0.9668,0.58008 -1.65234,1.74023 -0.68555,1.14258 -1.05469,2.84766 -0.36914,1.6875 -0.36914,3.91992 z" />
      <path
         id="path4487"
         style="font-style:normal;font-variant:normal;font-weight:normal;font-stretch:normal;font-size:36px;line-height:125%;font-family:Consolas;-inkscape-font-specification:Consolas;text-align:start;writing-mode:lr-tb;text-anchor:start;fill:#808080;fill-opacity:1"
         d="m 233.89875,769.40387 q 0,2.63672 -0.52734,4.81641 -0.52735,2.16211 -1.59961,3.72656 -1.07227,1.54687 -2.67188,2.4082 -1.58203,0.84375 -3.72656,0.84375 -1.8457,0 -3.35742,-0.68555 -1.51172,-0.70312 -2.58398,-2.14453 -1.07227,-1.4414 -1.65235,-3.67382 -0.58008,-2.23243 -0.58008,-5.29102 0,-2.63672 0.52735,-4.81641 0.54492,-2.17968 1.59961,-3.72656 1.07226,-1.56445 2.67187,-2.4082 1.59961,-0.86133 3.72656,-0.86133 1.84571,0 3.35743,0.70312 1.51171,0.68555 2.58398,2.14454 1.07227,1.4414 1.65234,3.67382 0.58008,2.23243 0.58008,5.29102 z m -3.09375,0.10547 q 0,-0.59766 -0.0527,-1.17774 -0.0352,-0.59765 -0.0879,-1.16015 l -9.72071,7.22461 q 0.26368,0.91406 0.66797,1.6875 0.4043,0.77343 0.9668,1.33593 0.58008,0.54493 1.30078,0.86133 0.73828,0.29883 1.66992,0.29883 1.19532,0 2.16211,-0.58008 0.98438,-0.58008 1.66992,-1.72265 0.68555,-1.14258 1.05469,-2.83008 0.36914,-1.70508 0.36914,-3.9375 z m -10.51172,-0.21094 q 0,0.54492 0,1.08984 0.0176,0.54493 0.0703,1.05469 l 9.7207,-7.18945 q -0.26367,-0.89649 -0.66797,-1.63477 -0.4043,-0.73828 -0.9668,-1.26562 -0.5625,-0.54492 -1.2832,-0.84375 -0.7207,-0.29883 -1.61719,-0.29883 -1.19531,0 -2.17968,0.58008 -0.9668,0.58008 -1.65235,1.74023 -0.68555,1.14258 -1.05469,2.84766 -0.36914,1.6875 -0.36914,3.91992 z" />
      <path
         id="path4489"
         style="font-style:normal;font-variant:normal;font-weight:normal;font-stretch:normal;font-size:36px;line-height:125%;font-family:Consolas;-inkscape-font-specification:Consolas;text-align:start;writing-mode:lr-tb;text-anchor:start;fill:#808080;fill-opacity:1"
         d="m 253.26985,784.66168 -2.91797,0 -12.0586,-28.61719 2.91797,0 12.0586,28.61719 z" />
      <path
         id="path4491"
         style="font-style:normal;font-variant:normal;font-weight:normal;font-stretch:normal;font-size:36px;line-height:125%;font-family:Consolas;-inkscape-font-specification:Consolas;text-align:start;writing-mode:lr-tb;text-anchor:start;fill:#808080;fill-opacity:1"
         d="m 274.02961,780.88239 -4.06055,0 -4.76367,-6.73243 -4.71093,6.73243 -3.95508,0 6.83789,-8.85938 -6.52149,-8.78906 3.91993,0 4.64062,6.78515 4.55273,-6.78515 3.7793,0 -6.62695,8.85937 6.9082,8.78907 z" />
      <path
         id="path4493"
         style="font-style:normal;font-variant:normal;font-weight:normal;font-stretch:normal;font-size:36px;line-height:125%;font-family:Consolas;-inkscape-font-specification:Consolas;text-align:start;writing-mode:lr-tb;text-anchor:start;fill:#808080;fill-opacity:1"
         d="m 292.66242,780.88239 -14.43164,0 0,-2.84766 5.90625,0 0,-16.76953 -5.50195,2.98828 -1.125,-2.60156 7.3125,-3.84961 2.70703,0 0,20.23242 5.13281,0 0,2.84766 z" />
      <path
         id="path4495"
         style="font-style:normal;font-variant:normal;font-weight:normal;font-stretch:normal;font-size:36px;line-height:125%;font-family:Consolas;-inkscape-font-specification:Consolas;text-align:start;writing-mode:lr-tb;text-anchor:start;fill:#808080;fill-opacity:1"
         d="m 312.68391,775.11676 q 0,1.45898 -0.59766,2.60156 -0.59765,1.125 -1.66992,1.89844 -1.07227,0.77344 -2.53125,1.17773 -1.45898,0.4043 -3.16406,0.4043 -1.88086,0 -3.32227,-0.42187 -1.42383,-0.42188 -2.39062,-1.17774 -0.9668,-0.75586 -1.45899,-1.79297 -0.49218,-1.03711 -0.49218,-2.28515 0,-2.10938 1.17773,-3.63867 1.17773,-1.5293 3.63867,-2.77735 -2.25,-1.14258 -3.28711,-2.53125 -1.03711,-1.40625 -1.03711,-3.2168 0,-1.10742 0.45703,-2.14453 0.45704,-1.03711 1.3711,-1.8457 0.93164,-0.80859 2.32031,-1.2832 1.38867,-0.49219 3.26953,-0.49219 1.77539,0 3.11133,0.38672 1.35352,0.36914 2.26758,1.07226 0.91406,0.70313 1.37109,1.70508 0.45703,1.00196 0.45703,2.23242 0,2.00391 -1.125,3.41016 -1.10742,1.40625 -3.16406,2.46094 1.01953,0.50976 1.89844,1.125 0.8789,0.61523 1.52929,1.37109 0.6504,0.75586 1.00196,1.6875 0.36914,0.93164 0.36914,2.07422 z m -3.63867,-11.88281 q 0,-1.56446 -1.10743,-2.32031 -1.08984,-0.77344 -3.07617,-0.77344 -1.96875,0 -3.07617,0.75586 -1.08984,0.75586 -1.08984,2.26758 0,0.68554 0.26367,1.26562 0.26367,0.58008 0.80859,1.08984 0.5625,0.50977 1.38867,1.00196 0.82618,0.49218 1.96875,1.00195 1.98633,-0.93164 2.95313,-1.93359 0.9668,-1.01953 0.9668,-2.35547 z m 0.3164,12.11133 q 0,-0.65039 -0.21093,-1.26563 -0.21094,-0.61523 -0.75586,-1.21289 -0.54493,-0.59766 -1.45899,-1.19531 -0.91406,-0.59766 -2.32031,-1.23047 -1.19531,0.58008 -2.02149,1.16016 -0.80859,0.5625 -1.31835,1.16015 -0.49219,0.58008 -0.70313,1.21289 -0.21094,0.63281 -0.21094,1.33594 0,0.79102 0.33399,1.40625 0.35156,0.59766 0.94922,1.01953 0.59765,0.42188 1.42382,0.63281 0.82618,0.21094 1.79297,0.21094 0.93164,0 1.75782,-0.19336 0.82617,-0.19336 1.42382,-0.58008 0.61524,-0.40429 0.9668,-1.00195 0.35156,-0.61523 0.35156,-1.45898 z" />
    </g>
    <path
       id="path3100"
       d="m 0.75000007,803.24601 c 0,32.93307 158.26410993,0 158.26410993,32.93307 0,-32.93307 158.26411,0 158.13345,-32.8379"
       style="fill:#000000;fill-opacity:0;stroke:#808080;stroke-width:2.5;stroke-linecap:butt;stroke-linejoin:miter;stroke-miterlimit:4;stroke-opacity:1;stroke-dasharray:none" />
    <path
       id="path3100-0"
       d="m 326.73425,803.246 c 0,32.93308 257.51768,0 257.51768,32.93308 0,-32.93308 257.51762,0 257.30502,-32.8379"
       style="fill:none;stroke:#2980b9;stroke-width:2.49999976;stroke-linecap:butt;stroke-linejoin:miter;stroke-miterlimit:4;stroke-opacity:1;stroke-dasharray:none" />
    <path
       id="path3100-8"
       d="m 340.90748,736.96648 c 0,-18.75984 12.92856,0 12.92856,-18.75984 0,18.75984 12.92856,0 12.91789,18.70563"
       style="fill:none;stroke:#404040;stroke-width:2.5;stroke-linecap:butt;stroke-linejoin:miter;stroke-miterlimit:4;stroke-opacity:1;stroke-dasharray:none" />
    <path
       id="path3100-5"
       d="m 404.68701,736.96648 c 0,-18.75984 23.56286,0 23.56286,-18.75984 0,18.75984 23.56287,0 23.54343,18.70563"
       style="fill:none;stroke:#404040;stroke-width:2.5;stroke-linecap:butt;stroke-linejoin:miter;stroke-miterlimit:4;stroke-opacity:1;stroke-dasharray:none" />
    <path
       id="path3100-3"
       d="m 496.81296,736.96647 c 0,-18.75985 165.35365,0 165.35365,-18.75985 0,18.75985 165.35364,0 165.21713,18.70562"
       style="fill:none;stroke:#404040;stroke-width:2.5;stroke-linecap:butt;stroke-linejoin:miter;stroke-miterlimit:4;stroke-opacity:1;stroke-dasharray:none" />
    <g
       id="text3141"
       style="font-style:normal;font-variant:normal;font-weight:500;font-stretch:normal;font-size:40px;line-height:125%;font-family:Lato;-inkscape-font-specification:'Lato Medium';text-align:center;letter-spacing:0px;word-spacing:0px;writing-mode:lr-tb;text-anchor:middle;fill:#404040;fill-opacity:1;stroke:none">
      <path
         id="path4452"
         style=""
         d="m 119.58788,845.29569 0,28.72 -4.26,0 0,-12.94 -14.98,0 0,12.94 -4.280002,0 0,-28.72 4.280002,0 0,12.68 14.98,0 0,-12.68 4.26,0 z" />
      <path
         id="path4454"
         style=""
         d="m 138.72788,861.59569 q 0,-1.16 -0.34,-2.14 -0.32,-0.98 -0.96,-1.7 -0.64,-0.72 -1.56,-1.12 -0.92,-0.4 -2.12,-0.4 -2.46,0 -3.88,1.42 -1.4,1.42 -1.78,3.94 l 10.64,0 z m 3.22,9.52 q -0.72,0.84 -1.66,1.46 -0.94,0.6 -2,0.98 -1.06,0.38 -2.2,0.56 -1.12,0.18 -2.22,0.18 -2.1,0 -3.9,-0.7 -1.78,-0.72 -3.1,-2.08 -1.3,-1.38 -2.04,-3.4 -0.72,-2.04 -0.72,-4.68 0,-2.12 0.66,-3.94 0.66,-1.84 1.88,-3.2 1.24,-1.36 3.02,-2.14 1.78,-0.78 4,-0.78 1.86,0 3.42,0.62 1.58,0.6 2.72,1.76 1.14,1.16 1.78,2.86 0.66,1.7 0.66,3.88 0,0.9 -0.2,1.22 -0.2,0.3 -0.74,0.3 l -13.32,0 q 0.06,1.82 0.52,3.18 0.46,1.34 1.26,2.24 0.82,0.9 1.94,1.34 1.12,0.44 2.5,0.44 1.3,0 2.24,-0.3 0.96,-0.3 1.64,-0.64 0.7,-0.36 1.16,-0.66 0.48,-0.3 0.84,-0.3 0.48,0 0.74,0.36 l 1.12,1.44 z" />
      <path
         id="path4456"
         style=""
         d="m 157.35975,864.99569 q -2.38,0.08 -4.04,0.38 -1.66,0.28 -2.7,0.76 -1.04,0.48 -1.5,1.14 -0.46,0.64 -0.46,1.44 0,0.76 0.24,1.32 0.26,0.54 0.68,0.9 0.44,0.34 1.02,0.5 0.58,0.16 1.26,0.16 0.9,0 1.64,-0.18 0.76,-0.18 1.42,-0.5 0.66,-0.34 1.26,-0.82 0.6,-0.48 1.18,-1.1 l 0,-4 z m -11.44,-8.46 q 1.7,-1.62 3.68,-2.42 2,-0.8 4.38,-0.8 1.74,0 3.08,0.58 1.34,0.56 2.26,1.58 0.92,1.02 1.38,2.44 0.48,1.42 0.48,3.14 l 0,12.96 -1.74,0 q -0.58,0 -0.88,-0.18 -0.3,-0.2 -0.48,-0.72 l -0.42,-1.78 q -0.78,0.72 -1.54,1.28 -0.76,0.54 -1.6,0.94 -0.82,0.38 -1.76,0.58 -0.94,0.2 -2.08,0.2 -1.2,0 -2.26,-0.32 -1.04,-0.34 -1.82,-1.02 -0.78,-0.68 -1.24,-1.7 -0.44,-1.02 -0.44,-2.38 0,-1.2 0.64,-2.3 0.66,-1.12 2.12,-2 1.48,-0.88 3.84,-1.44 2.38,-0.56 5.84,-0.64 l 0,-1.48 q 0,-2.3 -0.98,-3.44 -0.98,-1.14 -2.88,-1.14 -1.28,0 -2.16,0.32 -0.86,0.32 -1.5,0.72 -0.62,0.38 -1.1,0.7 -0.46,0.32 -0.96,0.32 -0.4,0 -0.7,-0.22 -0.28,-0.22 -0.46,-0.52 l -0.7,-1.26 z" />
      <path
         id="path4458"
         style=""
         d="m 179.53975,858.61569 q -0.96,-1.26 -2.08,-1.76 -1.1,-0.5 -2.48,-0.5 -2.68,0 -4.16,1.94 -1.46,1.92 -1.46,5.62 0,1.94 0.32,3.32 0.34,1.36 0.96,2.24 0.64,0.86 1.56,1.28 0.92,0.4 2.08,0.4 1.7,0 2.94,-0.76 1.24,-0.76 2.32,-2.14 l 0,-9.64 z m 3.92,-14.12 0,29.52 -2.36,0 q -0.82,0 -1.02,-0.78 l -0.34,-2.34 q -1.3,1.54 -2.96,2.48 -1.64,0.92 -3.8,0.92 -1.74,0 -3.16,-0.68 -1.4,-0.68 -2.4,-1.98 -1,-1.32 -1.54,-3.26 -0.54,-1.94 -0.54,-4.46 0,-2.26 0.6,-4.2 0.6,-1.94 1.74,-3.36 1.14,-1.42 2.76,-2.22 1.62,-0.82 3.66,-0.82 1.84,0 3.12,0.6 1.3,0.6 2.32,1.7 l 0,-11.12 3.92,0 z" />
      <path
         id="path4460"
         style=""
         d="m 202.39975,861.59569 q 0,-1.16 -0.34,-2.14 -0.32,-0.98 -0.96,-1.7 -0.64,-0.72 -1.56,-1.12 -0.92,-0.4 -2.12,-0.4 -2.46,0 -3.88,1.42 -1.4,1.42 -1.78,3.94 l 10.64,0 z m 3.22,9.52 q -0.72,0.84 -1.66,1.46 -0.94,0.6 -2,0.98 -1.06,0.38 -2.2,0.56 -1.12,0.18 -2.22,0.18 -2.1,0 -3.9,-0.7 -1.78,-0.72 -3.1,-2.08 -1.3,-1.38 -2.04,-3.4 -0.72,-2.04 -0.72,-4.68 0,-2.12 0.66,-3.94 0.66,-1.84 1.88,-3.2 1.24,-1.36 3.02,-2.14 1.78,-0.78 4,-0.78 1.86,0 3.42,0.62 1.58,0.6 2.72,1.76 1.14,1.16 1.78,2.86 0.66,1.7 0.66,3.88 0,0.9 -0.2,1.22 -0.2,0.3 -0.74,0.3 l -13.32,0 q 0.06,1.82 0.52,3.18 0.46,1.34 1.26,2.24 0.82,0.9 1.94,1.34 1.12,0.44 2.5,0.44 1.3,0 2.24,-0.3 0.96,-0.3 1.64,-0.64 0.7,-0.36 1.16,-0.66 0.48,-0.3 0.84,-0.3 0.48,0 0.74,0.36 l 1.12,1.44 z" />
      <path
         id="path4462"
         style=""
         d="m 213.79163,857.59569 q 0.98,-2 2.36,-3.14 1.38,-1.14 3.32,-1.14 0.66,0 1.24,0.16 0.6,0.14 1.04,0.44 l -0.26,2.94 q -0.14,0.54 -0.66,0.54 -0.28,0 -0.84,-0.1 -0.56,-0.12 -1.2,-0.12 -0.94,0 -1.66,0.28 -0.72,0.26 -1.3,0.8 -0.56,0.52 -1,1.3 -0.44,0.76 -0.82,1.74 l 0,12.72 -3.9,0 0,-20.32 2.24,0 q 0.64,0 0.86,0.24 0.24,0.22 0.34,0.8 l 0.24,2.86 z" />
    </g>
    <g
       id="text3149"
       style="font-style:normal;font-variant:normal;font-weight:500;font-stretch:normal;font-size:40px;line-height:125%;font-family:Lato;-inkscape-font-specification:'Lato Medium';text-align:center;letter-spacing:0px;word-spacing:0px;writing-mode:lr-tb;text-anchor:middle;fill:#404040;fill-opacity:1;stroke:none">
      <path
         id="path4365"
         style=""
         d="m 526.6988,860.07569 q 1.62,0 2.84,-0.42 1.24,-0.42 2.06,-1.18 0.84,-0.78 1.26,-1.84 0.42,-1.08 0.42,-2.38 0,-2.62 -1.64,-4.12 -1.62,-1.5 -4.94,-1.5 l -4.44,0 0,11.44 4.44,0 z m 0,-14.78 q 2.76,0 4.8,0.64 2.04,0.64 3.38,1.82 1.34,1.16 1.98,2.82 0.66,1.66 0.66,3.68 0,2.02 -0.7,3.72 -0.7,1.68 -2.06,2.9 -1.36,1.22 -3.4,1.9 -2.02,0.66 -4.66,0.66 l -4.44,0 0,10.58 -4.26,0 0,-28.72 8.7,0 z" />
      <path
         id="path4367"
         style=""
         d="m 551.71255,864.99569 q -2.38,0.08 -4.04,0.38 -1.66,0.28 -2.7,0.76 -1.04,0.48 -1.5,1.14 -0.46,0.64 -0.46,1.44 0,0.76 0.24,1.32 0.26,0.54 0.68,0.9 0.44,0.34 1.02,0.5 0.58,0.16 1.26,0.16 0.9,0 1.64,-0.18 0.76,-0.18 1.42,-0.5 0.66,-0.34 1.26,-0.82 0.6,-0.48 1.18,-1.1 l 0,-4 z m -11.44,-8.46 q 1.7,-1.62 3.68,-2.42 2,-0.8 4.38,-0.8 1.74,0 3.08,0.58 1.34,0.56 2.26,1.58 0.92,1.02 1.38,2.44 0.48,1.42 0.48,3.14 l 0,12.96 -1.74,0 q -0.58,0 -0.88,-0.18 -0.3,-0.2 -0.48,-0.72 l -0.42,-1.78 q -0.78,0.72 -1.54,1.28 -0.76,0.54 -1.6,0.94 -0.82,0.38 -1.76,0.58 -0.94,0.2 -2.08,0.2 -1.2,0 -2.26,-0.32 -1.04,-0.34 -1.82,-1.02 -0.78,-0.68 -1.24,-1.7 -0.44,-1.02 -0.44,-2.38 0,-1.2 0.64,-2.3 0.66,-1.12 2.12,-2 1.48,-0.88 3.84,-1.44 2.38,-0.56 5.84,-0.64 l 0,-1.48 q 0,-2.3 -0.98,-3.44 -0.98,-1.14 -2.88,-1.14 -1.28,0 -2.16,0.32 -0.86,0.32 -1.5,0.72 -0.62,0.38 -1.1,0.7 -0.46,0.32 -0.96,0.32 -0.4,0 -0.7,-0.22 -0.28,-0.22 -0.46,-0.52 l -0.7,-1.26 z" />
      <path
         id="path4369"
         style=""
         d="m 578.00568,853.69569 -11.28,26.22 q -0.18,0.44 -0.48,0.68 -0.3,0.24 -0.88,0.24 l -2.9,0 3.72,-8.1 -8.34,-19.04 3.4,0 q 0.5,0 0.78,0.24 0.28,0.24 0.4,0.54 l 5.16,12.2 q 0.16,0.46 0.3,0.94 0.16,0.46 0.26,0.92 0.14,-0.48 0.3,-0.94 0.16,-0.48 0.34,-0.94 l 4.98,-12.18 q 0.14,-0.34 0.44,-0.56 0.3,-0.22 0.68,-0.22 l 3.12,0 z" />
      <path
         id="path4371"
         style=""
         d="m 584.9488,844.49569 0,29.52 -3.92,0 0,-29.52 3.92,0 z" />
      <path
         id="path4373"
         style=""
         d="m 599.14005,853.37569 q 2.24,0 4.04,0.74 1.82,0.72 3.08,2.1 1.28,1.36 1.96,3.3 0.68,1.92 0.68,4.32 0,2.4 -0.68,4.34 -0.68,1.94 -1.96,3.3 -1.26,1.36 -3.08,2.1 -1.8,0.72 -4.04,0.72 -2.26,0 -4.08,-0.72 -1.8,-0.74 -3.08,-2.1 -1.28,-1.36 -1.98,-3.3 -0.68,-1.94 -0.68,-4.34 0,-2.4 0.68,-4.32 0.7,-1.94 1.98,-3.3 1.28,-1.38 3.08,-2.1 1.82,-0.74 4.08,-0.74 z m 0,17.88 q 2.88,0 4.3,-1.94 1.42,-1.94 1.42,-5.46 0,-3.52 -1.42,-5.46 -1.42,-1.96 -4.3,-1.96 -2.92,0 -4.36,1.96 -1.42,1.94 -1.42,5.46 0,3.52 1.42,5.46 1.44,1.94 4.36,1.94 z" />
      <path
         id="path4375"
         style=""
         d="m 624.13443,864.99569 q -2.38,0.08 -4.04,0.38 -1.66,0.28 -2.7,0.76 -1.04,0.48 -1.5,1.14 -0.46,0.64 -0.46,1.44 0,0.76 0.24,1.32 0.26,0.54 0.68,0.9 0.44,0.34 1.02,0.5 0.58,0.16 1.26,0.16 0.9,0 1.64,-0.18 0.76,-0.18 1.42,-0.5 0.66,-0.34 1.26,-0.82 0.6,-0.48 1.18,-1.1 l 0,-4 z m -11.44,-8.46 q 1.7,-1.62 3.68,-2.42 2,-0.8 4.38,-0.8 1.74,0 3.08,0.58 1.34,0.56 2.26,1.58 0.92,1.02 1.38,2.44 0.48,1.42 0.48,3.14 l 0,12.96 -1.74,0 q -0.58,0 -0.88,-0.18 -0.3,-0.2 -0.48,-0.72 l -0.42,-1.78 q -0.78,0.72 -1.54,1.28 -0.76,0.54 -1.6,0.94 -0.82,0.38 -1.76,0.58 -0.94,0.2 -2.08,0.2 -1.2,0 -2.26,-0.32 -1.04,-0.34 -1.82,-1.02 -0.78,-0.68 -1.24,-1.7 -0.44,-1.02 -0.44,-2.38 0,-1.2 0.64,-2.3 0.66,-1.12 2.12,-2 1.48,-0.88 3.84,-1.44 2.38,-0.56 5.84,-0.64 l 0,-1.48 q 0,-2.3 -0.98,-3.44 -0.98,-1.14 -2.88,-1.14 -1.28,0 -2.16,0.32 -0.86,0.32 -1.5,0.72 -0.62,0.38 -1.1,0.7 -0.46,0.32 -0.96,0.32 -0.4,0 -0.7,-0.22 -0.28,-0.22 -0.46,-0.52 l -0.7,-1.26 z" />
      <path
         id="path4377"
         style=""
         d="m 646.31443,858.61569 q -0.96,-1.26 -2.08,-1.76 -1.1,-0.5 -2.48,-0.5 -2.68,0 -4.16,1.94 -1.46,1.92 -1.46,5.62 0,1.94 0.32,3.32 0.34,1.36 0.96,2.24 0.64,0.86 1.56,1.28 0.92,0.4 2.08,0.4 1.7,0 2.94,-0.76 1.24,-0.76 2.32,-2.14 l 0,-9.64 z m 3.92,-14.12 0,29.52 -2.36,0 q -0.82,0 -1.02,-0.78 l -0.34,-2.34 q -1.3,1.54 -2.96,2.48 -1.64,0.92 -3.8,0.92 -1.74,0 -3.16,-0.68 -1.4,-0.68 -2.4,-1.98 -1,-1.32 -1.54,-3.26 -0.54,-1.94 -0.54,-4.46 0,-2.26 0.6,-4.2 0.6,-1.94 1.74,-3.36 1.14,-1.42 2.76,-2.22 1.62,-0.82 3.66,-0.82 1.84,0 3.12,0.6 1.3,0.6 2.32,1.7 l 0,-11.12 3.92,0 z" />
    </g>
    <g
       id="text3153"
       style="font-style:normal;font-variant:normal;font-weight:500;font-stretch:normal;font-size:32px;line-height:125%;font-family:Lato;-inkscape-font-specification:'Lato Medium';text-align:center;letter-spacing:0px;word-spacing:0px;writing-mode:lr-tb;text-anchor:middle;fill:#404040;fill-opacity:1;stroke:none">
      <path
         id="path4443"
         style=""
         d="m 338.81647,684.286 -7.296,0 0,20.128 -3.392,0 0,-20.128 -7.328,0 0,-2.848 18.016,0 0,2.848 z" />
      <path
         id="path4445"
         style=""
         d="m 352.97047,688.158 -9.024,20.976 q -0.144,0.352 -0.384,0.544 -0.24,0.192 -0.704,0.192 l -2.32,0 2.976,-6.48 -6.672,-15.232 2.72,0 q 0.4,0 0.624,0.192 0.224,0.192 0.32,0.432 l 4.128,9.76 q 0.128,0.368 0.24,0.752 0.128,0.368 0.208,0.736 0.112,-0.384 0.24,-0.752 0.128,-0.384 0.272,-0.752 l 3.984,-9.744 q 0.112,-0.272 0.352,-0.448 0.24,-0.176 0.544,-0.176 l 2.496,0 z" />
      <path
         id="path4447"
         style=""
         d="m 358.44497,700.414 q 0.768,1.008 1.648,1.408 0.896,0.4 2,0.4 2.144,0 3.312,-1.536 1.184,-1.552 1.184,-4.512 0,-1.552 -0.272,-2.64 -0.256,-1.104 -0.768,-1.792 -0.496,-0.704 -1.232,-1.024 -0.736,-0.336 -1.664,-0.336 -1.36,0 -2.368,0.608 -0.992,0.608 -1.84,1.728 l 0,7.696 z m -0.16,-9.824 q 0.512,-0.608 1.088,-1.104 0.592,-0.512 1.264,-0.864 0.672,-0.368 1.424,-0.56 0.768,-0.208 1.632,-0.208 1.392,0 2.512,0.544 1.136,0.544 1.936,1.6 0.8,1.056 1.232,2.608 0.448,1.552 0.448,3.568 0,1.808 -0.496,3.36 -0.48,1.536 -1.392,2.672 -0.896,1.136 -2.208,1.792 -1.296,0.64 -2.928,0.64 -1.456,0 -2.496,-0.48 -1.04,-0.48 -1.856,-1.344 l 0,7.056 -3.12,0 0,-21.712 1.872,0 q 0.656,0 0.816,0.624 l 0.272,1.808 z" />
      <path
         id="path4449"
         style=""
         d="m 384.09297,694.478 q 0,-0.928 -0.272,-1.712 -0.256,-0.784 -0.768,-1.36 -0.512,-0.576 -1.248,-0.896 -0.736,-0.32 -1.696,-0.32 -1.968,0 -3.104,1.136 -1.12,1.136 -1.424,3.152 l 8.512,0 z m 2.576,7.616 q -0.576,0.672 -1.328,1.168 -0.752,0.48 -1.6,0.784 -0.848,0.304 -1.76,0.448 -0.896,0.144 -1.776,0.144 -1.68,0 -3.12,-0.56 -1.424,-0.576 -2.48,-1.664 -1.04,-1.104 -1.632,-2.72 -0.576,-1.632 -0.576,-3.744 0,-1.696 0.528,-3.152 0.528,-1.472 1.504,-2.56 0.992,-1.088 2.416,-1.712 1.424,-0.624 3.2,-0.624 1.488,0 2.736,0.496 1.264,0.48 2.176,1.408 0.912,0.928 1.424,2.288 0.528,1.36 0.528,3.104 0,0.72 -0.16,0.976 -0.16,0.24 -0.592,0.24 l -10.656,0 q 0.048,1.456 0.416,2.544 0.368,1.072 1.008,1.792 0.656,0.72 1.552,1.072 0.896,0.352 2,0.352 1.04,0 1.792,-0.24 0.768,-0.24 1.312,-0.512 0.56,-0.288 0.928,-0.528 0.384,-0.24 0.672,-0.24 0.384,0 0.592,0.288 l 0.896,1.152 z" />
    </g>
    <g
       id="text3159"
       style="font-style:normal;font-variant:normal;font-weight:500;font-stretch:normal;font-size:32px;line-height:125%;font-family:Lato;-inkscape-font-specification:'Lato Medium';text-align:center;letter-spacing:0px;word-spacing:0px;writing-mode:lr-tb;text-anchor:middle;fill:#404040;fill-opacity:1;stroke:none">
      <path
         id="path4438"
         style=""
         d="m 417.10891,709.87006 -3.424,0 0,-22.976 3.424,0 0,22.976 z" />
      <path
         id="path4440"
         style=""
         d="m 442.79541,698.38206 q 0,2.576 -0.832,4.688 -0.816,2.112 -2.32,3.632 -1.504,1.504 -3.6,2.336 -2.096,0.832 -4.656,0.832 l -8.64,0 0,-22.976 8.64,0 q 2.56,0 4.656,0.832 2.096,0.832 3.6,2.352 1.504,1.504 2.32,3.632 0.832,2.112 0.832,4.672 z m -3.488,0 q 0,-2.048 -0.56,-3.664 -0.56,-1.632 -1.6,-2.752 -1.024,-1.136 -2.496,-1.728 -1.456,-0.592 -3.264,-0.592 l -5.216,0 0,17.472 5.216,0 q 1.808,0 3.264,-0.592 1.472,-0.592 2.496,-1.712 1.04,-1.136 1.6,-2.752 0.56,-1.616 0.56,-3.68 z" />
    </g>
    <g
       id="text3165"
       style="font-style:normal;font-variant:normal;font-weight:500;font-stretch:normal;font-size:32px;line-height:125%;font-family:Lato;-inkscape-font-specification:'Lato Medium';text-align:center;letter-spacing:0px;word-spacing:0px;writing-mode:lr-tb;text-anchor:middle;fill:#404040;fill-opacity:1;stroke:none">
      <path
         id="path4423"
         style=""
         d="m 623.21215,704.68601 q 0.288,0 0.496,0.224 l 1.344,1.472 q -1.408,1.664 -3.44,2.576 -2.016,0.912 -4.864,0.912 -2.496,0 -4.528,-0.864 -2.016,-0.864 -3.456,-2.416 -1.424,-1.552 -2.208,-3.712 -0.784,-2.16 -0.784,-4.752 0,-2.592 0.816,-4.752 0.832,-2.16 2.32,-3.712 1.488,-1.552 3.552,-2.416 2.08,-0.864 4.592,-0.864 2.448,0 4.352,0.8 1.904,0.8 3.312,2.128 l -1.12,1.584 q -0.112,0.176 -0.288,0.288 -0.16,0.112 -0.432,0.112 -0.304,0 -0.72,-0.304 -0.4,-0.304 -1.072,-0.672 -0.656,-0.384 -1.632,-0.688 -0.976,-0.304 -2.432,-0.304 -1.712,0 -3.136,0.608 -1.424,0.592 -2.464,1.728 -1.024,1.12 -1.6,2.768 -0.56,1.632 -0.56,3.696 0,2.096 0.592,3.728 0.592,1.632 1.632,2.768 1.04,1.136 2.448,1.728 1.408,0.592 3.04,0.592 0.992,0 1.776,-0.112 0.8,-0.128 1.456,-0.368 0.672,-0.24 1.264,-0.608 0.592,-0.384 1.168,-0.912 0.128,-0.112 0.272,-0.176 0.144,-0.08 0.304,-0.08 z" />
      <path
         id="path4425"
         style=""
         d="m 634.45215,693.10201 q 1.792,0 3.232,0.592 1.456,0.576 2.464,1.68 1.024,1.088 1.568,2.64 0.544,1.536 0.544,3.456 0,1.92 -0.544,3.472 -0.544,1.552 -1.568,2.64 -1.008,1.088 -2.464,1.68 -1.44,0.576 -3.232,0.576 -1.808,0 -3.264,-0.576 -1.44,-0.592 -2.464,-1.68 -1.024,-1.088 -1.584,-2.64 -0.544,-1.552 -0.544,-3.472 0,-1.92 0.544,-3.456 0.56,-1.552 1.584,-2.64 1.024,-1.104 2.464,-1.68 1.456,-0.592 3.264,-0.592 z m 0,14.304 q 2.304,0 3.44,-1.552 1.136,-1.552 1.136,-4.368 0,-2.816 -1.136,-4.368 -1.136,-1.568 -3.44,-1.568 -2.336,0 -3.488,1.568 -1.136,1.552 -1.136,4.368 0,2.816 1.136,4.368 1.152,1.552 3.488,1.552 z" />
      <path
         id="path4427"
         style=""
         d="m 648.63965,695.61401 q 0.528,-0.56 1.104,-1.024 0.576,-0.464 1.216,-0.784 0.656,-0.336 1.392,-0.512 0.752,-0.192 1.6,-0.192 1.344,0 2.352,0.448 1.024,0.448 1.712,1.264 0.688,0.8 1.04,1.936 0.352,1.136 0.352,2.512 l 0,10.352 -3.136,0 0,-10.352 q 0,-1.744 -0.8,-2.704 -0.8,-0.976 -2.448,-0.976 -1.2,0 -2.256,0.576 -1.04,0.56 -1.936,1.536 l 0,11.92 -3.12,0 0,-16.256 1.872,0 q 0.656,0 0.816,0.624 l 0.24,1.632 z" />
      <path
         id="path4429"
         style=""
         d="m 668.42465,709.87001 q -1.968,0 -3.04,-1.104 -1.056,-1.104 -1.056,-3.152 l 0,-9.728 -1.888,0 q -0.272,0 -0.464,-0.16 -0.176,-0.176 -0.176,-0.512 l 0,-1.264 2.64,-0.368 0.704,-4.848 q 0.064,-0.272 0.24,-0.416 0.192,-0.16 0.48,-0.16 l 1.584,0 0,5.456 4.608,0 0,2.272 -4.608,0 0,9.52 q 0,0.96 0.464,1.44 0.48,0.464 1.216,0.464 0.432,0 0.736,-0.112 0.32,-0.112 0.544,-0.24 0.224,-0.144 0.384,-0.256 0.16,-0.112 0.288,-0.112 0.16,0 0.24,0.08 0.096,0.064 0.192,0.224 l 0.928,1.504 q -0.768,0.704 -1.824,1.088 -1.056,0.384 -2.192,0.384 z" />
      <path
         id="path4431"
         style=""
         d="m 685.54215,699.67801 q 0,-0.928 -0.272,-1.712 -0.256,-0.784 -0.768,-1.36 -0.512,-0.576 -1.248,-0.896 -0.736,-0.32 -1.696,-0.32 -1.968,0 -3.104,1.136 -1.12,1.136 -1.424,3.152 l 8.512,0 z m 2.576,7.616 q -0.576,0.672 -1.328,1.168 -0.752,0.48 -1.6,0.784 -0.848,0.304 -1.76,0.448 -0.896,0.144 -1.776,0.144 -1.68,0 -3.12,-0.56 -1.424,-0.576 -2.48,-1.664 -1.04,-1.104 -1.632,-2.72 -0.576,-1.632 -0.576,-3.744 0,-1.696 0.528,-3.152 0.528,-1.472 1.504,-2.56 0.992,-1.088 2.416,-1.712 1.424,-0.624 3.2,-0.624 1.488,0 2.736,0.496 1.264,0.48 2.176,1.408 0.912,0.928 1.424,2.288 0.528,1.36 0.528,3.104 0,0.72 -0.16,0.976 -0.16,0.24 -0.592,0.24 l -10.656,0 q 0.048,1.456 0.416,2.544 0.368,1.072 1.008,1.792 0.656,0.72 1.552,1.072 0.896,0.352 2,0.352 1.04,0 1.792,-0.24 0.768,-0.24 1.312,-0.512 0.56,-0.288 0.928,-0.528 0.384,-0.24 0.672,-0.24 0.384,0 0.592,0.288 l 0.896,1.152 z" />
      <path
         id="path4433"
         style=""
         d="m 694.63965,695.61401 q 0.528,-0.56 1.104,-1.024 0.576,-0.464 1.216,-0.784 0.656,-0.336 1.392,-0.512 0.752,-0.192 1.6,-0.192 1.344,0 2.352,0.448 1.024,0.448 1.712,1.264 0.688,0.8 1.04,1.936 0.352,1.136 0.352,2.512 l 0,10.352 -3.136,0 0,-10.352 q 0,-1.744 -0.8,-2.704 -0.8,-0.976 -2.448,-0.976 -1.2,0 -2.256,0.576 -1.04,0.56 -1.936,1.536 l 0,11.92 -3.12,0 0,-16.256 1.872,0 q 0.656,0 0.816,0.624 l 0.24,1.632 z" />
      <path
         id="path4435"
         style=""
         d="m 714.42465,709.87001 q -1.968,0 -3.04,-1.104 -1.056,-1.104 -1.056,-3.152 l 0,-9.728 -1.888,0 q -0.272,0 -0.464,-0.16 -0.176,-0.176 -0.176,-0.512 l 0,-1.264 2.64,-0.368 0.704,-4.848 q 0.064,-0.272 0.24,-0.416 0.192,-0.16 0.48,-0.16 l 1.584,0 0,5.456 4.608,0 0,2.272 -4.608,0 0,9.52 q 0,0.96 0.464,1.44 0.48,0.464 1.216,0.464 0.432,0 0.736,-0.112 0.32,-0.112 0.544,-0.24 0.224,-0.144 0.384,-0.256 0.16,-0.112 0.288,-0.112 0.16,0 0.24,0.08 0.096,0.064 0.192,0.224 l 0.928,1.504 q -0.768,0.704 -1.824,1.088 -1.056,0.384 -2.192,0.384 z" />
    </g>
    <g
       id="text4097"
       style="font-style:normal;font-variant:normal;font-weight:normal;font-stretch:normal;font-size:40px;line-height:125%;font-family:Consolas;-inkscape-font-specification:Consolas;text-align:start;letter-spacing:0px;word-spacing:0px;writing-mode:lr-tb;text-anchor:start;fill:#2980b9;fill-opacity:1;stroke:none">
      <path
         id="path4380"
         style=""
         d="m 335.62061,789.01062 -9.62891,0 0,-36.28906 9.62891,0 0,2.73437 -6.38672,0 0,30.82032 6.38672,0 0,2.73437 z" />
      <path
         id="path4382"
         style=""
         d="m 360.75732,781.00281 -16.03515,0 0,-3.16406 6.5625,0 0,-18.63282 -6.11328,3.32032 -1.25,-2.89063 8.125,-4.27734 3.00781,0 0,22.48047 5.70312,0 0,3.16406 z" />
      <path
         id="path4384"
         style=""
         d="m 367.96436,785.00671 q 0.99609,0.0391 1.93359,-0.17578 0.9375,-0.21484 1.64062,-0.64453 0.72266,-0.41015 1.15235,-1.03515 0.42969,-0.625 0.42969,-1.42579 0,-0.82031 -0.29297,-1.32812 -0.27344,-0.50781 -0.625,-0.9375 -0.35157,-0.42969 -0.64453,-0.91797 -0.27344,-0.48828 -0.27344,-1.30859 0,-0.41016 0.15625,-0.85938 0.15625,-0.44922 0.46875,-0.82031 0.33203,-0.37109 0.82031,-0.60547 0.50781,-0.23437 1.19141,-0.23437 0.68359,0 1.30859,0.29296 0.64453,0.27344 1.11328,0.85938 0.48828,0.58594 0.76172,1.46484 0.29297,0.87891 0.29297,2.07032 0,1.62109 -0.60547,3.10546 -0.58594,1.50391 -1.77734,2.65625 -1.17188,1.15235 -2.94922,1.83594 -1.75781,0.6836 -4.10156,0.6836 l 0,-2.67579 z" />
      <path
         id="path4386"
         style=""
         d="m 428.33545,775.35828 -4.35547,0 0,5.64453 -3.47656,0 0,-5.64453 -12.28516,0 0,-2.98828 10.87891,-16.89454 4.88281,0 0,16.89454 4.35547,0 0,2.98828 z m -7.83203,-16.60157 -8.88672,13.61329 8.88672,0 0,-13.61329 z" />
      <path
         id="path4388"
         style=""
         d="m 449.09717,781.00281 -16.81641,0 0,-3.04688 6.60156,-6.5625 q 1.6211,-1.60156 2.63672,-2.77343 1.01563,-1.17188 1.58203,-2.12891 0.56641,-0.97656 0.76172,-1.83594 0.19532,-0.85937 0.19532,-1.85547 0,-0.9375 -0.25391,-1.77734 -0.25391,-0.85938 -0.78125,-1.50391 -0.52734,-0.64453 -1.36719,-1.01562 -0.83984,-0.3711 -2.01172,-0.3711 -1.62109,0 -2.94922,0.72266 -1.32812,0.72266 -2.4414,1.875 l -1.875,-2.24609 q 1.44531,-1.52344 3.32031,-2.44141 1.89453,-0.91797 4.39453,-0.91797 1.69922,0 3.08594,0.50781 1.40625,0.50782 2.42187,1.46485 1.01563,0.95703 1.5625,2.34375 0.56641,1.38672 0.56641,3.125 0,1.46484 -0.39062,2.71484 -0.39063,1.25 -1.19141,2.5 -0.78125,1.23047 -1.99219,2.5586 -1.1914,1.32812 -2.83203,2.91015 l -4.62891,4.51172 12.40235,0 0,3.24219 z" />
      <path
         id="path4390"
         style=""
         d="m 456.08936,785.00671 q 0.99609,0.0391 1.93359,-0.17578 0.9375,-0.21484 1.64062,-0.64453 0.72266,-0.41015 1.15235,-1.03515 0.42969,-0.625 0.42969,-1.42579 0,-0.82031 -0.29297,-1.32812 -0.27344,-0.50781 -0.625,-0.9375 -0.35157,-0.42969 -0.64453,-0.91797 -0.27344,-0.48828 -0.27344,-1.30859 0,-0.41016 0.15625,-0.85938 0.15625,-0.44922 0.46875,-0.82031 0.33203,-0.37109 0.82031,-0.60547 0.50781,-0.23437 1.19141,-0.23437 0.68359,0 1.30859,0.29296 0.64453,0.27344 1.11328,0.85938 0.48828,0.58594 0.76172,1.46484 0.29297,0.87891 0.29297,2.07032 0,1.62109 -0.60547,3.10546 -0.58594,1.50391 -1.77734,2.65625 -1.17188,1.15235 -2.94922,1.83594 -1.75781,0.6836 -4.10156,0.6836 l 0,-2.67579 z" />
      <path
         id="path4392"
         style=""
         d="m 504.85889,753.40515 -0.54688,9.16016 -3.20312,0 -0.56641,-9.16016 4.31641,0 z m 7.59765,0 -0.54687,9.16016 -3.20313,0 -0.5664,-9.16016 4.3164,0 z" />
      <path
         id="path4394"
         style=""
         d="m 537.37842,781.00281 -3.47656,0 0,-11.71875 -10.72266,0 0,11.71875 -3.47656,0 0,-25.52735 3.47656,0 0,10.80079 10.72266,0 0,-10.80079 3.47656,0 0,25.52735 z" />
      <path
         id="path4396"
         style=""
         d="m 559.25342,770.16296 q 0,0.72266 -0.0195,1.21094 -0.0195,0.48828 -0.0586,0.91797 l -13.76953,0 q 0,3.00781 1.67969,4.62891 1.67969,1.60156 4.84375,1.60156 0.85937,0 1.71875,-0.0586 0.85937,-0.0781 1.66016,-0.19532 0.80078,-0.11718 1.52343,-0.2539 0.74219,-0.15625 1.36719,-0.33203 l 0,2.79296 q -1.38672,0.39063 -3.14453,0.625 -1.73828,0.25391 -3.61328,0.25391 -2.51953,0 -4.33594,-0.68359 -1.81641,-0.6836 -2.98828,-1.97266 -1.15234,-1.30859 -1.71875,-3.18359 -0.54688,-1.89453 -0.54688,-4.27735 0,-2.07031 0.58594,-3.90625 0.60547,-1.85547 1.73828,-3.24218 1.15235,-1.40625 2.8125,-2.22657 1.66016,-0.82031 3.76953,-0.82031 2.05079,0 3.63282,0.64453 1.58203,0.64453 2.65625,1.83594 1.09375,1.17187 1.64062,2.87109 0.56641,1.67969 0.56641,3.76953 z m -3.53516,-0.48828 q 0.0586,-1.30859 -0.2539,-2.38281 -0.3125,-1.09375 -0.97657,-1.875 -0.64453,-0.78125 -1.62109,-1.21094 -0.97656,-0.44922 -2.26563,-0.44922 -1.11328,0 -2.03125,0.42969 -0.91796,0.42969 -1.58203,1.21094 -0.66406,0.78125 -1.07422,1.875 -0.41015,1.09375 -0.50781,2.40234 l 10.3125,0 z" />
      <path
         id="path4398"
         style=""
         d="m 571.40186,756.19812 -5.80079,0 0,-2.79297 9.23829,0 0,24.76563 5.83984,0 0,2.83203 -15.72266,0 0,-2.83203 6.44532,0 0,-21.97266 z" />
      <path
         id="path4400"
         style=""
         d="m 593.43311,756.19812 -5.80079,0 0,-2.79297 9.23829,0 0,24.76563 5.83984,0 0,2.83203 -15.72266,0 0,-2.83203 6.44532,0 0,-21.97266 z" />
      <path
         id="path4402"
         style=""
         d="m 625.85498,771.04187 q 0,2.28516 -0.64453,4.19922 -0.64453,1.89453 -1.85547,3.26172 -1.21094,1.34765 -2.94922,2.10937 -1.73828,0.74219 -3.94531,0.74219 -2.10938,0 -3.78906,-0.64453 -1.66016,-0.66406 -2.83203,-1.93359 -1.15235,-1.26954 -1.77735,-3.14454 -0.60547,-1.875 -0.60547,-4.3164 0,-2.28516 0.64453,-4.16016 0.64454,-1.89453 1.85547,-3.24219 1.21094,-1.36718 2.94922,-2.10937 1.73828,-0.76172 3.94531,-0.76172 2.10938,0 3.76954,0.66406 1.67968,0.64453 2.83203,1.91407 1.17187,1.25 1.77734,3.125 0.625,1.875 0.625,4.29687 z m -3.47656,0.15625 q 0,-1.81641 -0.41016,-3.16406 -0.39062,-1.36719 -1.13281,-2.26563 -0.74219,-0.91797 -1.81641,-1.36718 -1.05468,-0.46875 -2.36328,-0.46875 -1.52344,0 -2.61719,0.60546 -1.07421,0.58594 -1.77734,1.58204 -0.68359,0.99609 -1.01562,2.32421 -0.3125,1.3086 -0.3125,2.75391 0,1.81641 0.39062,3.18359 0.41016,1.36719 1.15234,2.28516 0.74219,0.89844 1.79688,1.36719 1.05469,0.44922 2.38281,0.44922 1.52344,0 2.59766,-0.58594 1.09375,-0.60547 1.77734,-1.60156 0.70313,-0.9961 1.01563,-2.30469 0.33203,-1.32813 0.33203,-2.79297 z" />
      <path
         id="path4404"
         style=""
         d="m 665.44482,781.00281 -0.0781,-2.63672 q -1.60156,1.58203 -3.26172,2.28516 -1.64062,0.70312 -3.45703,0.70312 -1.67969,0 -2.87109,-0.42969 -1.19141,-0.42968 -1.97266,-1.17187 -0.76172,-0.76172 -1.13281,-1.77735 -0.35157,-1.01562 -0.35157,-2.20703 0,-2.94922 2.1875,-4.60937 2.20704,-1.67969 6.50391,-1.67969 l 4.0625,0 0,-1.71875 q 0,-1.73828 -1.11328,-2.77344 -1.11328,-1.05468 -3.39844,-1.05468 -1.66015,0 -3.28125,0.37109 -1.60156,0.37109 -3.32031,1.05469 l 0,-3.06641 q 0.64453,-0.23437 1.42578,-0.44922 0.80078,-0.23437 1.67969,-0.41015 0.8789,-0.17579 1.83594,-0.27344 0.95703,-0.11719 1.93359,-0.11719 1.77734,0 3.20312,0.39063 1.42579,0.39062 2.40235,1.1914 0.99609,0.80078 1.52344,2.01172 0.52734,1.21094 0.52734,2.85156 l 0,13.51563 -3.04688,0 z m -0.37109,-8.92578 -4.31641,0 q -1.26953,0 -2.1875,0.2539 -0.91796,0.25391 -1.5039,0.72266 -0.58594,0.46875 -0.87891,1.13281 -0.27344,0.64453 -0.27344,1.46485 0,0.5664 0.17579,1.09375 0.17578,0.50781 0.5664,0.91796 0.39063,0.39063 1.01563,0.625 0.625,0.23438 1.52343,0.23438 1.17188,0 2.67579,-0.70313 1.52343,-0.72265 3.20312,-2.26562 l 0,-3.47656 z" />
      <path
         id="path4406"
         style=""
         d="m 681.55811,764.20593 -5.80079,0 0,-2.8125 9.23829,0 0,16.77735 5.83984,0 0,2.83203 -15.72266,0 0,-2.83203 6.44532,0 0,-13.96485 z m 1.1914,-11.03515 q 0.56641,0 1.05469,0.21484 0.48828,0.19531 0.83984,0.56641 0.3711,0.37109 0.56641,0.85937 0.21484,0.46875 0.21484,1.03516 0,0.54687 -0.21484,1.03515 -0.19531,0.48829 -0.56641,0.85938 -0.35156,0.37109 -0.83984,0.58594 -0.48828,0.19531 -1.05469,0.19531 -0.5664,0 -1.05469,-0.19531 -0.48828,-0.21485 -0.85937,-0.58594 -0.35156,-0.37109 -0.56641,-0.85938 -0.19531,-0.48828 -0.19531,-1.03515 0,-0.56641 0.19531,-1.03516 0.21485,-0.48828 0.56641,-0.85937 0.37109,-0.3711 0.85937,-0.56641 0.48829,-0.21484 1.05469,-0.21484 z" />
      <path
         id="path4408"
         style=""
         d="m 713.97998,771.04187 q 0,2.28516 -0.64453,4.19922 -0.64453,1.89453 -1.85547,3.26172 -1.21094,1.34765 -2.94922,2.10937 -1.73828,0.74219 -3.94531,0.74219 -2.10938,0 -3.78906,-0.64453 -1.66016,-0.66406 -2.83203,-1.93359 -1.15235,-1.26954 -1.77735,-3.14454 -0.60547,-1.875 -0.60547,-4.3164 0,-2.28516 0.64453,-4.16016 0.64454,-1.89453 1.85547,-3.24219 1.21094,-1.36718 2.94922,-2.10937 1.73828,-0.76172 3.94531,-0.76172 2.10938,0 3.76954,0.66406 1.67968,0.64453 2.83203,1.91407 1.17187,1.25 1.77734,3.125 0.625,1.875 0.625,4.29687 z m -3.47656,0.15625 q 0,-1.81641 -0.41016,-3.16406 -0.39062,-1.36719 -1.13281,-2.26563 -0.74219,-0.91797 -1.81641,-1.36718 -1.05468,-0.46875 -2.36328,-0.46875 -1.52344,0 -2.61719,0.60546 -1.07421,0.58594 -1.77734,1.58204 -0.68359,0.99609 -1.01562,2.32421 -0.3125,1.3086 -0.3125,2.75391 0,1.81641 0.39062,3.18359 0.41016,1.36719 1.15234,2.28516 0.74219,0.89844 1.79688,1.36719 1.05469,0.44922 2.38281,0.44922 1.52344,0 2.59766,-0.58594 1.09375,-0.60547 1.77734,-1.60156 0.70313,-0.9961 1.01563,-2.30469 0.33203,-1.32813 0.33203,-2.79297 z" />
      <path
         id="path4410"
         style=""
         d="m 732.92529,781.00281 0,-14.08203 q 0,-0.91797 -0.0781,-1.50391 -0.0586,-0.58594 -0.21485,-0.91797 -0.13671,-0.35156 -0.37109,-0.48828 -0.21484,-0.13672 -0.54687,-0.13672 -0.39063,0 -0.72266,0.23438 -0.33203,0.23437 -0.72266,0.76172 -0.37109,0.52734 -0.83984,1.40625 -0.44922,0.85937 -1.07422,2.1289 l 0,12.59766 -3.10547,0 0,-13.71094 q 0,-1.07422 -0.0781,-1.73828 -0.0586,-0.66406 -0.21485,-1.03516 -0.13672,-0.37109 -0.37109,-0.50781 -0.23438,-0.13672 -0.56641,-0.13672 -0.35156,0 -0.66406,0.19531 -0.3125,0.19532 -0.70312,0.70313 -0.3711,0.50781 -0.83985,1.38672 -0.46875,0.8789 -1.11328,2.24609 l 0,12.59766 -3.125,0 0,-19.60938 2.59766,0 0.15625,3.73047 q 0.50781,-1.11328 0.97656,-1.89453 0.48828,-0.78125 0.99609,-1.25 0.50782,-0.48828 1.07422,-0.70312 0.58594,-0.23438 1.28906,-0.23438 1.58204,0 2.40235,1.03516 0.82031,1.03515 0.82031,3.20312 0.46875,-1.01562 0.91797,-1.79687 0.44922,-0.80078 0.95703,-1.32813 0.52734,-0.54687 1.15234,-0.82031 0.625,-0.29297 1.44532,-0.29297 3.6914,0 3.6914,5.68359 l 0,14.27735 -3.125,0 z" />
      <path
         id="path4412"
         style=""
         d="m 753.56982,781.00281 -0.0781,-2.63672 q -1.60156,1.58203 -3.26172,2.28516 -1.64062,0.70312 -3.45703,0.70312 -1.67969,0 -2.87109,-0.42969 -1.19141,-0.42968 -1.97266,-1.17187 -0.76172,-0.76172 -1.13281,-1.77735 -0.35157,-1.01562 -0.35157,-2.20703 0,-2.94922 2.1875,-4.60937 2.20704,-1.67969 6.50391,-1.67969 l 4.0625,0 0,-1.71875 q 0,-1.73828 -1.11328,-2.77344 -1.11328,-1.05468 -3.39844,-1.05468 -1.66015,0 -3.28125,0.37109 -1.60156,0.37109 -3.32031,1.05469 l 0,-3.06641 q 0.64453,-0.23437 1.42578,-0.44922 0.80078,-0.23437 1.67969,-0.41015 0.8789,-0.17579 1.83594,-0.27344 0.95703,-0.11719 1.93359,-0.11719 1.77734,0 3.20312,0.39063 1.42579,0.39062 2.40235,1.1914 0.99609,0.80078 1.52344,2.01172 0.52734,1.21094 0.52734,2.85156 l 0,13.51563 -3.04688,0 z m -0.37109,-8.92578 -4.31641,0 q -1.26953,0 -2.1875,0.2539 -0.91796,0.25391 -1.5039,0.72266 -0.58594,0.46875 -0.87891,1.13281 -0.27344,0.64453 -0.27344,1.46485 0,0.5664 0.17579,1.09375 0.17578,0.50781 0.5664,0.91796 0.39063,0.39063 1.01563,0.625 0.625,0.23438 1.52343,0.23438 1.17188,0 2.67579,-0.70313 1.52343,-0.72265 3.20312,-2.26562 l 0,-3.47656 z" />
      <path
         id="path4414"
         style=""
         d="m 778.53076,775.65125 q 0,1.03515 -0.35156,1.85546 -0.35156,0.82032 -0.95703,1.46485 -0.60547,0.625 -1.40625,1.07422 -0.80078,0.44922 -1.71875,0.74218 -0.89844,0.29297 -1.85547,0.42969 -0.95703,0.13672 -1.875,0.13672 -1.99219,0 -3.67188,-0.17578 -1.66015,-0.17578 -3.26171,-0.56641 l 0,-3.125 q 1.71875,0.48828 3.41796,0.74219 1.69922,0.25391 3.37891,0.25391 2.44141,0 3.61328,-0.66407 1.17188,-0.66406 1.17188,-1.89453 0,-0.52734 -0.19532,-0.9375 -0.17578,-0.42968 -0.66406,-0.80078 -0.48828,-0.39062 -1.52344,-0.80078 -1.01562,-0.41016 -2.79296,-0.9375 -1.32813,-0.39062 -2.46094,-0.87891 -1.11328,-0.50781 -1.9336,-1.1914 -0.82031,-0.6836 -1.28906,-1.60156 -0.46875,-0.91797 -0.46875,-2.16797 0,-0.82032 0.3711,-1.79688 0.39062,-0.97656 1.30859,-1.8164 0.91797,-0.83985 2.48047,-1.38672 1.5625,-0.56641 3.90625,-0.56641 1.15234,0 2.55859,0.13672 1.40625,0.11719 2.92969,0.42969 l 0,3.02734 q -1.60156,-0.39062 -3.04688,-0.56641 -1.42578,-0.19531 -2.48046,-0.19531 -1.26954,0 -2.14844,0.19531 -0.85938,0.19532 -1.40625,0.54688 -0.52735,0.33203 -0.76172,0.80078 -0.23438,0.44922 -0.23438,0.97656 0,0.52735 0.19532,0.95703 0.21484,0.42969 0.76172,0.83985 0.5664,0.39062 1.5625,0.80078 0.99609,0.39062 2.59765,0.85937 1.73828,0.50782 2.92969,1.07422 1.19141,0.54688 1.93359,1.23047 0.74219,0.6836 1.05469,1.54297 0.33203,0.85938 0.33203,1.95313 z" />
      <path
         id="path4416"
         style=""
         d="m 794.91748,753.40515 -0.52734,20.11719 -3.00782,0 -0.58593,-20.11719 4.12109,0 z m -2.05078,22.79297 q 0.52734,0 0.99609,0.21484 0.46875,0.19532 0.80078,0.54688 0.35157,0.35156 0.54688,0.83984 0.21484,0.46875 0.21484,0.9961 0,0.52734 -0.21484,0.99609 -0.19531,0.46875 -0.54688,0.82031 -0.33203,0.33203 -0.80078,0.52735 -0.46875,0.21484 -0.99609,0.21484 -0.54688,0 -1.01563,-0.21484 -0.46875,-0.19532 -0.82031,-0.52735 -0.35156,-0.35156 -0.5664,-0.82031 -0.19532,-0.46875 -0.19532,-0.99609 0,-0.52735 0.19532,-0.9961 0.21484,-0.48828 0.5664,-0.83984 0.35156,-0.35156 0.82031,-0.54688 0.46875,-0.21484 1.01563,-0.21484 z" />
      <path
         id="path4418"
         style=""
         d="m 813.29639,753.40515 -0.54688,9.16016 -3.20312,0 -0.56641,-9.16016 4.31641,0 z m 7.59765,0 -0.54687,9.16016 -3.20313,0 -0.5664,-9.16016 4.3164,0 z" />
      <path
         id="path4420"
         style=""
         d="m 841.22607,789.01062 -9.6289,0 0,-2.73437 6.34765,0 0,-30.82032 -6.34765,0 0,-2.73437 9.6289,0 0,36.28906 z" />
    </g>
  </g>
</svg>
