<?xml version="1.0" standalone="no"?><svg xmlns="http://www.w3.org/2000/svg" xmlns:xlink="http://www.w3.org/1999/xlink" style="isolation:isolate" viewBox="0 0 64 64" width="64" height="64"><defs><clipPath id="_clipPath_IjcImke9jzTf12VEBaYU5rmgTSp9HzPJ"><rect width="64" height="64"/></clipPath></defs><g clip-path="url(#_clipPath_IjcImke9jzTf12VEBaYU5rmgTSp9HzPJ)"><path d=" M 0 32 C 0 14.339 14.339 0 32 0 C 49.661 0 64 14.339 64 32 C 64 49.661 49.661 64 32 64 C 14.339 64 0 49.661 0 32 Z " fill="rgb(34,85,68)"/><path d=" M 32 32 C 34.329 32 40 29.682 40 24 C 40 18.318 39.892 12 32 12 C 24.108 12 24 18.318 24 24 C 24 29.682 29.671 32 32 32 Z " fill="rgb(255,255,255)"/><path d=" M 40 32 C 40 32 37.287 36 32 36 C 26.713 36 24 32 24 32 C 15.994 32 16 46.972 16 48 C 16 49.028 17.458 52 32 52 C 46.543 52 48 49.028 48 48 C 48 46.972 47.981 32 40 32 Z " fill="rgb(255,255,255)"/></g></svg>